<svg width="140" height="140" viewBox="0 0 140 140" fill="none" xmlns="http://www.w3.org/2000/svg">
<circle cx="70" cy="70" r="69.5" fill="white" stroke="#E0E0E0"/>
<circle cx="70" cy="70" r="59.5" fill="white" stroke="#828282"/>
<path d="M98.54 75.344C96.0157 73.0726 92.848 71.6416 89.475 71.249V48C89.475 46.95 88.984 46.013 88.22 45.405C87.767 45.009 86.968 44.683 86.157 44.683H76.998V41.528C76.9964 40.0627 76.4138 38.6579 75.3778 37.6216C74.3419 36.5853 72.9373 36.0021 71.472 36H67.674C67.4075 36 67.1518 36.1059 66.9634 36.2944C66.7749 36.4828 66.669 36.7385 66.669 37.005C66.669 37.2715 66.7749 37.5272 66.9634 37.7156C67.1518 37.9041 67.4075 38.01 67.674 38.01H71.472C73.411 38.01 74.989 39.589 74.989 41.528V44.682H73.359V41.528C73.3587 41.0274 73.1599 40.5474 72.8061 40.1933C72.4524 39.8391 71.9726 39.6398 71.472 39.639H54.004C52.963 39.639 52.115 40.487 52.115 41.528V44.682H50.485V41.528C50.485 39.588 52.065 38.009 54.004 38.009H63.656C63.9224 38.009 64.1779 37.9032 64.3663 37.7148C64.5547 37.5264 64.6605 37.2709 64.6605 37.0045C64.6605 36.7381 64.5547 36.4826 64.3663 36.2942C64.1779 36.1058 63.9224 36 63.656 36H54.004C52.5385 36.0021 51.1337 36.5852 50.0975 37.6215C49.0612 38.6577 48.4781 40.0625 48.476 41.528V44.682H39.317C38.4375 44.6833 37.5944 45.0334 36.9726 45.6553C36.3508 46.2773 36.0011 47.1205 36 48V72.369C36 72.6355 36.1059 72.8912 36.2944 73.0796C36.4828 73.2681 36.7385 73.374 37.005 73.374C37.2715 73.374 37.5272 73.2681 37.7156 73.0796C37.9041 72.8912 38.01 72.6355 38.01 72.369V60.99C39.5535 63.1556 41.8403 64.677 44.434 65.264V68.214C44.434 69.397 45.397 70.36 46.581 70.36H49.599C50.1683 70.3595 50.714 70.1331 51.1166 69.7306C51.5191 69.328 51.7455 68.7823 51.746 68.213V65.53H73.729V68.213C73.729 69.397 74.692 70.36 75.876 70.36H78.894C79.4631 70.3592 80.0086 70.1327 80.4109 69.7302C80.8132 69.3277 81.0395 68.7821 81.04 68.213V65.265C83.6348 64.678 85.9226 63.1562 87.467 60.99V71.14C83.5621 71.1569 79.792 72.57 76.838 75.124C76.6448 75.3006 76.5282 75.5456 76.5128 75.8068C76.4975 76.0681 76.5846 76.325 76.7558 76.523C76.9269 76.721 77.1686 76.8444 77.4293 76.867C77.6901 76.8896 77.9493 76.8096 78.152 76.644C87.362 68.696 101.988 75.07 101.988 87.588C101.988 95.564 95.558 101.991 87.548 101.991C75.905 101.991 69.177 88.926 75.656 79.44C75.7339 79.3312 75.7892 79.2079 75.8188 79.0774C75.8484 78.947 75.8516 78.8119 75.8283 78.6801C75.805 78.5484 75.7556 78.4226 75.6831 78.3102C75.6105 78.1978 75.5163 78.101 75.4058 78.0255C75.2954 77.95 75.1709 77.8973 75.0398 77.8705C74.9088 77.8437 74.7736 77.8434 74.6424 77.8695C74.5112 77.8957 74.3865 77.9477 74.2757 78.0227C74.1649 78.0976 74.0701 78.1939 73.997 78.306C72.8744 79.9447 72.0597 81.7742 71.593 83.705H43.962C42.3839 83.7034 40.8709 83.0758 39.7551 81.9599C38.6392 80.8441 38.0116 79.3311 38.01 77.753V76.387C38.01 76.1205 37.9041 75.8648 37.7156 75.6764C37.5272 75.4879 37.2715 75.382 37.005 75.382C36.7385 75.382 36.4828 75.4879 36.2944 75.6764C36.1059 75.8648 36 76.1205 36 76.387V77.753C36 82.143 39.571 85.713 43.962 85.713H71.237C70.148 95.58 77.865 104 87.547 104C92.227 104 96.664 102.03 99.792 98.544C105.892 91.744 105.251 81.362 98.54 75.344V75.344ZM54.125 41.649H71.35V44.682H54.125V41.65V41.649ZM49.737 68.214C49.737 68.2506 49.7225 68.2857 49.6966 68.3116C49.6707 68.3375 49.6356 68.352 49.599 68.352H46.581C46.5446 68.3517 46.5097 68.3371 46.4841 68.3112C46.4584 68.2854 46.444 68.2504 46.444 68.214V65.522C46.824 65.534 46.347 65.531 49.737 65.531V68.214V68.214ZM49.737 63.521C46.46 63.521 46.749 63.525 46.444 63.512V60.77C46.444 60.694 46.505 60.633 46.581 60.633H49.599C49.675 60.633 49.737 60.694 49.737 60.77V63.522V63.521ZM79.032 68.214C79.032 68.2506 79.0175 68.2857 78.9916 68.3116C78.9657 68.3375 78.9306 68.352 78.894 68.352H75.877C75.8404 68.352 75.8053 68.3375 75.7794 68.3116C75.7535 68.2857 75.739 68.2506 75.739 68.214V65.531C79.13 65.531 78.653 65.534 79.033 65.521V68.214H79.032ZM79.032 63.512C78.726 63.525 79.017 63.522 75.738 63.522V60.769C75.738 60.693 75.8 60.632 75.876 60.632H78.894C78.97 60.632 79.032 60.693 79.032 60.769V63.512ZM87.466 54.727C87.466 58.755 84.743 62.157 81.041 63.194V60.77C81.0402 60.2008 80.8138 59.6552 80.4113 59.2527C80.0088 58.8502 79.4632 58.6238 78.894 58.623H75.877C75.3077 58.6235 74.762 58.8499 74.3594 59.2524C73.9569 59.655 73.7305 60.2007 73.73 60.77V63.522H51.747V60.77C51.7465 60.2007 51.5201 59.655 51.1176 59.2524C50.715 58.8499 50.1693 58.6235 49.6 58.623H46.582C46.0127 58.6235 45.467 58.8499 45.0644 59.2524C44.6619 59.655 44.4355 60.2007 44.435 60.77V63.195C40.738 62.16 38.017 58.765 38.011 54.745V48C38.0113 47.6531 38.1491 47.3204 38.3943 47.075C38.6395 46.8296 38.9721 46.6915 39.319 46.691H86.159C86.878 46.691 87.467 47.278 87.467 48V54.727H87.466Z" fill="#D13D73"/>
<path d="M87.584 76.496C81.054 76.496 75.877 82.138 76.552 88.702C76.8237 91.4283 78.0999 93.9561 80.1324 95.7934C82.1649 97.6307 84.8082 98.6461 87.548 98.642C87.6826 98.6462 87.8167 98.6234 87.9422 98.5748C88.0678 98.5263 88.1824 98.453 88.2791 98.3593C88.3758 98.2656 88.4526 98.1534 88.5052 98.0294C88.5577 97.9054 88.5847 97.7722 88.5847 97.6375C88.5847 97.5029 88.5577 97.3696 88.5052 97.2456C88.4526 97.1216 88.3758 97.0094 88.2791 96.9157C88.1824 96.822 88.0678 96.7487 87.9422 96.7002C87.8167 96.6516 87.6826 96.6288 87.548 96.633C82.538 96.633 78.502 92.588 78.502 87.558C78.502 82.567 82.577 78.506 87.585 78.506C94.865 78.506 98.689 86.302 95.491 91.976L95.277 88.972C95.2506 88.712 95.124 88.4725 94.924 88.3044C94.7239 88.1362 94.4663 88.0525 94.2056 88.0711C93.945 88.0897 93.7018 88.2091 93.5277 88.404C93.3536 88.5989 93.2622 88.8539 93.273 89.115L93.667 94.66C93.6783 94.8176 93.7266 94.9703 93.808 95.1058C93.8893 95.2412 94.0015 95.3556 94.1354 95.4395C94.2692 95.5235 94.421 95.5747 94.5783 95.5891C94.7357 95.6034 94.8942 95.5804 95.041 95.522L100.206 93.466C100.332 93.4195 100.447 93.3483 100.545 93.2566C100.642 93.1649 100.721 93.0546 100.775 92.9322C100.83 92.8097 100.859 92.6776 100.862 92.5436C100.865 92.4096 100.84 92.2764 100.791 92.1519C100.741 92.0274 100.667 91.914 100.573 91.8185C100.479 91.723 100.367 91.6473 100.243 91.5957C100.12 91.5442 99.9869 91.518 99.8529 91.5185C99.7189 91.5191 99.5863 91.5464 99.463 91.599L97.557 92.359C100.956 85.352 96.028 76.496 87.584 76.496V76.496Z" fill="#D13D73"/>
<path d="M86.561 82.234V87.134L84.031 89.511C83.367 90.135 83.815 91.248 84.719 91.248C85.249 91.248 85.184 91.185 88.253 88.302C88.456 88.112 88.57 87.847 88.57 87.569V82.234C88.57 81.9675 88.4641 81.7118 88.2757 81.5234C88.0872 81.3349 87.8316 81.229 87.565 81.229C87.2985 81.229 87.0429 81.3349 86.8544 81.5234C86.6659 81.7118 86.56 81.9675 86.56 82.234H86.561Z" fill="#D13D73"/>
</svg>
