<svg width="56" height="52" viewBox="0 0 56 52" fill="none" xmlns="http://www.w3.org/2000/svg">
<path d="M14.5453 38.233H1.11887C0.479517 38.233 0 37.7535 0 37.1142V14.5769C0 13.9375 0.479517 13.458 1.11887 13.458H14.5453C15.1847 13.458 15.6642 13.9375 15.6642 14.5769V37.1142C15.6642 37.7535 15.1847 38.233 14.5453 38.233ZM2.23775 35.9953H13.4265V15.6958H2.23775V35.9953Z" fill="#D13D73"/>
<path d="M33.726 51.7394C33.4862 51.7394 33.2465 51.6595 33.0866 51.4996L13.906 37.9932C13.4264 37.5936 13.2666 36.9543 13.6662 36.3948C14.0658 35.9153 14.7052 35.7555 15.2646 36.1551L32.6071 48.3828V3.30818L15.1847 15.5359C14.7052 15.9355 13.9859 15.7756 13.5863 15.2961C13.1867 14.8166 13.3465 14.0973 13.826 13.6977L33.0067 0.191318C33.3264 -0.0484409 33.8059 -0.0484412 34.2055 0.111398C34.6051 0.271237 34.8449 0.670835 34.8449 1.15035V50.6205C34.8449 51.0201 34.6051 51.4197 34.2055 51.6595C34.0457 51.6595 33.8858 51.7394 33.726 51.7394Z" fill="#D13D73"/>
<path d="M9.59032 20.9705H6.15378C5.51443 20.9705 5.03491 20.491 5.03491 19.8516C5.03491 19.2123 5.43451 18.6528 6.07386 18.6528H9.5104C10.1498 18.6528 10.6293 19.1324 10.6293 19.7717C10.6293 20.4111 10.2297 20.9705 9.59032 20.9705Z" fill="#D13D73"/>
<path d="M9.59032 26.9643H6.15378C5.51443 26.9643 5.03491 26.4848 5.03491 25.8454C5.03491 25.2061 5.51443 24.7266 6.15378 24.7266H9.59032C10.2297 24.7266 10.7092 25.2061 10.7092 25.8454C10.7092 26.4848 10.2297 26.9643 9.59032 26.9643Z" fill="#D13D73"/>
<path d="M9.59032 33.0385H6.15378C5.51443 33.0385 5.03491 32.559 5.03491 31.9197C5.03491 31.2803 5.51443 30.8008 6.15378 30.8008H9.59032C10.2297 30.8008 10.7092 31.2803 10.7092 31.9197C10.7092 32.559 10.2297 33.0385 9.59032 33.0385Z" fill="#D13D73"/>
<path d="M40.1995 34.157C39.8798 34.157 39.64 34.0771 39.4003 33.8373C38.9208 33.3578 38.9208 32.6386 39.4003 32.239L53.7059 17.9334C54.1854 17.4539 54.9047 17.4539 55.3043 17.9334C55.7838 18.4129 55.7838 19.1322 55.3043 19.5318L40.9987 33.7574C40.8388 33.9972 40.5192 34.157 40.1995 34.157Z" fill="#D13D73"/>
<path d="M54.5051 34.157C54.1854 34.157 53.9456 34.0771 53.7059 33.8373L39.4003 19.5318C38.9208 19.0522 38.9208 18.333 39.4003 17.9334C39.8798 17.4539 40.5991 17.4539 40.9987 17.9334L55.3043 32.239C55.7838 32.7185 55.7838 33.4378 55.3043 33.8373C55.0645 33.9972 54.8247 34.157 54.5051 34.157Z" fill="#D13D73"/>
</svg>
