<svg width="29" height="29" viewBox="0 0 29 29" fill="none" xmlns="http://www.w3.org/2000/svg">
<path d="M3.4118 0.904957V16.2892H0.8529C0.3818 16.2892 0 16.6943 0 17.1942V28.0537C0 28.5536 0.3818 28.9586 0.8529 28.9586H28.1471C28.6182 28.9586 29 28.5536 29 28.0537V17.1942C29 16.6943 28.6182 16.2892 28.1471 16.2892H11.9412V14.4793H24.7353C25.2065 14.4793 25.5882 14.0743 25.5882 13.5744V0.904957C25.5882 0.405059 25.2065 0 24.7353 0H4.2647C3.7935 0 3.4118 0.405059 3.4118 0.904957ZM3.4118 27.1487H1.7059V18.0991H3.4118V27.1487ZM25.5882 18.0991H27.2941V27.1487H25.5882V18.0991ZM22.1765 18.0991H23.8824V27.1487H22.1765V18.0991ZM18.7647 18.0991H20.4706V27.1487H18.7647V18.0991ZM15.3529 18.0991H17.0588V27.1487H15.3529V18.0991ZM18.7647 1.80991H23.8824V12.6694H18.7647V1.80991V1.80991ZM11.9412 1.80991H17.0588V12.6694H11.9412V1.80991V1.80991ZM11.9412 18.0991H13.6471V27.1487H11.9412V18.0991ZM10.2353 27.1487H8.5294V18.0991H10.2353V27.1487ZM5.1176 1.80991H10.2353V16.2892H5.1176V1.80991ZM5.1176 18.0991H6.8235V27.1487H5.1176V18.0991Z" fill="#D13D73"/>
</svg>
