<svg xmlns="http://www.w3.org/2000/svg" width="30" height="30" viewBox="0 0 30 30" fill="none"><circle cx="15" cy="15" r="15" fill="#D13D73"></circle><path d="M22.125 9H7.87499C6.8415 9 6 9.8415 6 10.875V19.125C6 20.1585 6.8415 21 7.87499 21H22.125C23.1585 21 24 20.1585 24 19.125V10.875C24 9.8415 23.1585 9 22.125 9ZM23.25 19.125C23.25 19.7453 22.7453 20.25 22.125 20.25H7.87499C7.25473 20.25 6.74999 19.7453 6.74999 19.125V10.875C6.74999 10.2548 7.25473 9.75002 7.87499 9.75002H22.125C22.7452 9.75002 23.25 10.2548 23.25 10.875V19.125H23.25Z" fill="white"></path><path d="M22.434 10.6635C22.3177 10.4925 22.0845 10.4498 21.9127 10.566L15.762 14.7743C15.2985 15.0908 14.7 15.0908 14.2372 14.7743L8.08648 10.566C7.91474 10.4483 7.68148 10.4925 7.56522 10.6635C7.44895 10.8345 7.49248 11.0677 7.66348 11.1847L13.8142 15.393C14.1742 15.6397 14.5875 15.7627 15 15.7627C15.4125 15.7627 15.8257 15.6397 16.1857 15.393L22.3365 11.1847C22.5075 11.0677 22.551 10.8345 22.434 10.6635Z" fill="white"></path><path d="M12.663 15.1343C12.5302 14.9761 12.2932 14.9543 12.1342 15.0864L7.63423 18.8364C7.47522 18.9691 7.45349 19.2061 7.58624 19.3651C7.66049 19.4544 7.76698 19.5001 7.87498 19.5001C7.95974 19.5001 8.04524 19.4716 8.11499 19.4131L12.615 15.6631C12.774 15.5303 12.7957 15.2933 12.663 15.1343Z" fill="white"></path><path d="M22.3657 18.8363L17.8657 15.0863C17.706 14.9543 17.4697 14.976 17.337 15.1343C17.2042 15.294 17.226 15.5303 17.385 15.663L21.885 19.413C21.9554 19.4715 22.0402 19.5001 22.125 19.5001C22.2322 19.5001 22.3387 19.4543 22.4137 19.3651C22.5465 19.2053 22.5247 18.9691 22.3657 18.8363Z" fill="white"></path></svg>