<svg xmlns="http://www.w3.org/2000/svg" width="30" height="30" viewBox="0 0 30 30" fill="none"><circle cx="15" cy="15" r="15" fill="#D13D73"></circle><path d="M18.8852 16.6776L16.236 14.6908V10.6435C16.236 10.2366 15.9071 9.90765 15.5002 9.90765C15.0932 9.90765 14.7643 10.2366 14.7643 10.6435V15.0587C14.7643 15.2905 14.8732 15.5091 15.0586 15.6474L18.0021 17.855C18.1345 17.9544 18.2891 18.0022 18.4429 18.0022C18.6673 18.0022 18.8881 17.9014 19.0323 17.7071C19.2767 17.3826 19.2104 16.9212 18.8852 16.6776Z" fill="white"></path><path d="M15.5 5.5C10.2614 5.5 6 9.76138 6 15C6 20.2386 10.2614 24.5 15.5 24.5C20.7386 24.5 25 20.2386 25 15C25 9.76138 20.7386 5.5 15.5 5.5ZM15.5 23.0283C11.0738 23.0283 7.47172 19.4262 7.47172 15C7.47172 10.5738 11.0738 6.97172 15.5 6.97172C19.927 6.97172 23.5283 10.5738 23.5283 15C23.5283 19.4262 19.9262 23.0283 15.5 23.0283Z" fill="white"></path></svg>