<svg width="30" height="30" viewBox="0 0 30 30" fill="none" xmlns="http://www.w3.org/2000/svg">
<path d="M15 30C23.2843 30 30 23.2843 30 15C30 6.71573 23.2843 0 15 0C6.71573 0 0 6.71573 0 15C0 23.2843 6.71573 30 15 30Z" fill="#D13D73"/>
<path d="M20.2115 7H9.79231C8.25 7 7.00385 8.25 7 9.78846V20.2077C7 21.75 8.25 22.9962 9.78846 23H20.2077C21.75 23 22.9962 21.75 23 20.2115V9.79231C23 8.25 21.75 7 20.2115 7ZM22.2308 20.2115C22.2308 21.3269 21.3269 22.2308 20.2115 22.2308H9.79231C8.67692 22.2308 7.77308 21.3269 7.76923 20.2115V9.79231C7.76923 8.67692 8.67308 7.77308 9.78846 7.76923H20.2077C21.3231 7.76923 22.2269 8.67308 22.2308 9.78846V20.2115Z" fill="white"/>
<path d="M12.9962 17.8077H11.577V16.6039C11.577 16.3923 11.4039 16.2192 11.1924 16.2192C10.9808 16.2192 10.8077 16.3923 10.8077 16.6039V17.8077H9.38852C9.17698 17.8077 9.00391 17.9808 9.00391 18.1923C9.00391 18.4039 9.17698 18.5769 9.38852 18.5769H10.8077V20.0115C10.8077 20.2231 10.9808 20.3962 11.1924 20.3962C11.4039 20.3962 11.577 20.2231 11.577 20.0115V18.5769H12.9962C13.2077 18.5769 13.3808 18.4039 13.3808 18.1923C13.3808 17.9808 13.2077 17.8077 12.9962 17.8077Z" fill="white"/>
<path d="M12.9962 11.1923H9.38852C9.17698 11.1923 9.00391 11.3654 9.00391 11.5769C9.00391 11.7885 9.17698 11.9615 9.38852 11.9615H12.9962C13.2077 11.9615 13.3808 11.7885 13.3808 11.5769C13.3808 11.3654 13.2077 11.1923 12.9962 11.1923Z" fill="white"/>
<path d="M20.2115 19.0385H16.6039C16.3923 19.0385 16.2192 19.2115 16.2192 19.4231C16.2192 19.6346 16.3923 19.8077 16.6039 19.8077H20.2115C20.4231 19.8077 20.5961 19.6346 20.5961 19.4231C20.5961 19.2115 20.4231 19.0385 20.2115 19.0385Z" fill="white"/>
<path d="M20.2115 17.2308H16.6039C16.3923 17.2308 16.2192 17.4039 16.2192 17.6154C16.2192 17.8269 16.3923 18 16.6039 18H20.2115C20.4231 18 20.5961 17.8269 20.5961 17.6154C20.5961 17.4039 20.4231 17.2308 20.2115 17.2308Z" fill="white"/>
<path d="M20.0613 12.55C20.0613 12.55 20.0613 12.55 20.0575 12.5462L19.0267 11.5154L20.0575 10.4846C20.2075 10.3346 20.2075 10.0923 20.0575 9.94233C19.9075 9.79233 19.6652 9.79233 19.5152 9.94233L18.4844 10.9731L17.4536 9.94233C17.3036 9.79233 17.0613 9.79233 16.9113 9.93849C16.7613 10.0885 16.7613 10.3308 16.9075 10.4808C16.9075 10.4808 16.9075 10.4808 16.9113 10.4846L17.9421 11.5154L16.9113 12.5462C16.7613 12.6923 16.7613 12.9385 16.9113 13.0885C17.0613 13.2385 17.3036 13.2385 17.4536 13.0885L18.4844 12.0577L19.5152 13.0885C19.6652 13.2385 19.9075 13.2385 20.0575 13.0923C20.2075 12.9423 20.2075 12.7 20.0613 12.55Z" fill="white"/>
</svg>
