<svg xmlns="http://www.w3.org/2000/svg" width="27" height="27" viewBox="0 0 27 27" fill="none"><path d="M22.2945 0H4.71202C2.10938 0 0.00649038 2.10938 0 4.70553V22.288C0 24.8906 2.10938 26.9935 4.70553 27H22.288C24.8906 27 26.9935 24.8906 27 22.2945V4.71202C27 2.10938 24.8906 0 22.2945 0ZM25.7019 22.2945C25.7019 24.1767 24.1767 25.7019 22.2945 25.7019H4.71202C2.82981 25.7019 1.30457 24.1767 1.29808 22.2945V4.71202C1.29808 2.82981 2.82332 1.30457 4.70553 1.29808H22.288C24.1702 1.29808 25.6954 2.82332 25.7019 4.70553V22.2945Z" fill="#C42F65"></path><path d="M10.1185 18.238H7.72358V16.2065C7.72358 15.8495 7.43151 15.5575 7.07454 15.5575C6.71757 15.5575 6.4255 15.8495 6.4255 16.2065V18.238H4.03055C3.67358 18.238 3.38152 18.5301 3.38152 18.887C3.38152 19.244 3.67358 19.5361 4.03055 19.5361H6.4255V21.957C6.4255 22.314 6.71757 22.606 7.07454 22.606C7.43151 22.606 7.72358 22.314 7.72358 21.957V19.5361H10.1185C10.4755 19.5361 10.7676 19.244 10.7676 18.887C10.7676 18.5301 10.4755 18.238 10.1185 18.238Z" fill="#C42F65"></path><path d="M10.1185 7.07452H4.03055C3.67358 7.07452 3.38152 7.36659 3.38152 7.72356C3.38152 8.08053 3.67358 8.37259 4.03055 8.37259H10.1185C10.4755 8.37259 10.7676 8.08053 10.7676 7.72356C10.7676 7.36659 10.4755 7.07452 10.1185 7.07452Z" fill="#C42F65"></path><path d="M22.2945 20.3149H16.2065C15.8496 20.3149 15.5575 20.607 15.5575 20.9639C15.5575 21.3209 15.8496 21.613 16.2065 21.613H22.2945C22.6515 21.613 22.9435 21.3209 22.9435 20.9639C22.9435 20.607 22.6515 20.3149 22.2945 20.3149Z" fill="#C42F65"></path><path d="M22.2945 17.2644H16.2065C15.8496 17.2644 15.5575 17.5565 15.5575 17.9134C15.5575 18.2704 15.8496 18.5625 16.2065 18.5625H22.2945C22.6515 18.5625 22.9435 18.2704 22.9435 17.9134C22.9435 17.5565 22.6515 17.2644 22.2945 17.2644Z" fill="#C42F65"></path><path d="M22.0413 9.36562C22.0413 9.36562 22.0413 9.36562 22.0348 9.35913L20.2954 7.6197L22.0348 5.88028C22.2879 5.62716 22.2879 5.21826 22.0348 4.96514C21.7817 4.71201 21.3728 4.71201 21.1196 4.96514L19.3802 6.70456L17.6408 4.96514C17.3877 4.71201 16.9788 4.71201 16.7257 4.95865C16.4725 5.21177 16.4725 5.62067 16.7192 5.87379C16.7192 5.87379 16.7192 5.87379 16.7257 5.88028L18.4651 7.6197L16.7257 9.35913C16.4725 9.60576 16.4725 10.0211 16.7257 10.2743C16.9788 10.5274 17.3877 10.5274 17.6408 10.2743L19.3802 8.53485L21.1196 10.2743C21.3728 10.5274 21.7817 10.5274 22.0348 10.2808C22.2879 10.0276 22.2879 9.61874 22.0413 9.36562Z" fill="#C42F65"></path></svg>