<svg width="60" height="60" viewBox="0 0 60 60" fill="none" xmlns="http://www.w3.org/2000/svg">
  <path d="M55.283 50.5958H4.6583c-.5177 0-.9376-.4199-.9376-.9376V6.5334c0-.518.4199-.9376.9376-.9376H55.283c.518 0 .9379.4196.9379.9376v43.1248c0 .5177-.4199.9376-.9379.9376zM5.5956 48.7209h48.7501V7.4707H5.5956V48.721z" fill="#D13D73"/>
  <path d="M56.2208 58.0957H3.7206c-1.0355 0-1.8749-.8394-1.8749-1.8748V53.408a.9424.9424 0 01.0982-.4189l1.8752-3.7497a.9365.9365 0 01.8391-.5185h50.6247a.9367.9367 0 01.8394.5185l1.8752 3.7497a.9416.9416 0 01.0982.4189v2.8129c0 1.0354-.8394 1.8748-1.8749 1.8748zM3.7206 53.6294v2.5915h52.5002v-2.5915l-1.5171-3.0336H5.2377l-1.5171 3.0336z" fill="#D13D73"/>
  <path d="M7.4707 54.3456H2.7833a.9373.9373 0 01-.9376-.9376c0-.5174.4195-.9373.9376-.9373h4.6874a.9376.9376 0 110 1.8749zM57.1581 54.3456H11.2205c-.5174 0-.9373-.4196-.9373-.9376 0-.5174.4199-.9373.9373-.9373h45.9376a.9376.9376 0 110 1.8749zM56.2204 7.4707H3.7981c-1.0358 0-1.8752-.8394-1.8752-1.8749V3.7206c0-1.0355.8394-1.8749 1.8752-1.8749h52.4223c1.0354 0 1.8749.8394 1.8749 1.8749v1.8752c0 1.0355-.8395 1.8749-1.8749 1.8749zM3.7981 3.7206v1.8752h52.4223V3.7206H3.7981z" fill="#D13D73"/>
  <path d="M8.4084 50.5958h-3.75c-.5178 0-.9377-.4199-.9377-.9376V6.5334c0-.518.4199-.9376.9376-.9376h3.7501c.5174 0 .9373.4196.9373.9376v43.1248c0 .5177-.4199.9376-.9373.9376zm-2.8128-1.8749h1.8752V7.4707H5.5956V48.721zM55.2827 50.5958H51.533c-.5178 0-.9373-.4199-.9373-.9376V6.5334c0-.518.4195-.9376.9373-.9376h3.7497c.5181 0 .938.4196.938.9376v43.1248c0 .5177-.4199.9376-.938.9376zm-2.8121-1.8749h1.8749V7.4707h-1.8749V48.721zM25.283 28.0958a.9385.9385 0 01-.117-.0079c-.5133-.0638-.8776-.5325-.8137-1.0457l.8435-6.7381-4.8964-1.6321c-.492-.1638-.7574-.6956-.594-1.1876.1638-.4916.6956-.7574 1.1876-.5939l5.6246 1.8752a.9378.9378 0 01.6342 1.0049l-.9373 7.5002a.938.938 0 01-.9315.825z" fill="#D13D73"/>
  <path d="M30.9088 43.0956a.9367.9367 0 01-.7502-.3749L16.1074 23.9859a.963.963 0 01-.0937-.138.9278.9278 0 01-.0796-.207.9292.9292 0 01.0206-.5353.869.869 0 01.0542-.1274.958.958 0 01.0628-.1043l3.7395-5.6099a.9516.9516 0 01.3612-.319l3.7498-1.8749a.9374.9374 0 01.424-.0995h6.5626c.5177 0 .9372.4202.9372.9376 0 .5177-.4195.9376-.9372.9376h-6.3415l-3.3299 1.6641-2.9945 4.4934 7.4213 3.2983a.9356.9356 0 01.4968.5277l5.625 14.9998a.9372.9372 0 01-.8772 1.2665zM19.758 25.7286l7.9764 10.6348-3.1877-8.5076-4.7887-2.1272zM36.5333 28.0958a.9373.9373 0 01-.929-.8215l-.9379-7.4999a.9376.9376 0 01.6341-1.0049l5.6246-1.8749c.492-.1641 1.0238.102 1.1876.594.1641.4916-.102 1.0234-.594 1.1872l-4.8964 1.6321.8435 6.7377c.0645.5136-.3001.9819-.8137 1.0465a1.0716 1.0716 0 01-.1188.0037z" fill="#D13D73"/>
  <path d="M30.9084 43.0956a.937.937 0 01-.7711-.4041.9364.9364 0 01-.1064-.8635l5.625-15.0001a.9358.9358 0 01.4968-.5263l7.4212-3.2983-2.9944-4.4934-3.3299-1.6641h-6.3412a.9375.9375 0 01-.9376-.9376c0-.5174.4195-.9376.9376-.9376h6.5623c.1455 0 .2887.034.4192.0985l3.7501 1.8752a.9448.9448 0 01.3608.3186l3.7395 5.6099a.9589.9589 0 01.0628.1041.9329.9329 0 01.0752.6629.9529.9529 0 01-.08.2074.9749.9749 0 01-.0934.1377L31.6582 42.7207a.9366.9366 0 01-.7498.3749zm6.3656-15.2405l-3.1878 8.5072 7.9764-10.6347-4.7886 2.1275z" fill="#D13D73"/>
  <path d="M36.5333 28.0958H25.283c-.5174 0-.9373-.4199-.9373-.9376s.4199-.9373.9373-.9373h11.2503c.5174 0 .9373.4196.9373.9373s-.4199.9376-.9373.9376zM35.5959 20.596h-9.3751c-.5177 0-.9376-.4199-.9376-.9377 0-.5177.4199-.9372.9376-.9372h9.3751c.5178 0 .9376.4195.9376.9372 0 .5178-.4198.9377-.9376.9377z" fill="#D13D73"/>
</svg>
