<svg width="67" height="67" viewBox="0 0 67 67" fill="none" xmlns="http://www.w3.org/2000/svg">
<circle cx="33.5" cy="33.5" r="33.5" fill="white"/>
<path d="M46.2459 32.0321L32.9679 18.7738C32.4789 18.2579 31.8683 18 31.1348 18C30.4014 18 29.7908 18.2582 29.3018 18.7738L27.754 20.3015C27.2515 20.8039 27.0003 21.4146 27.0003 22.1342C27.0003 22.8402 27.2514 23.4581 27.754 23.9875L37.6517 33.8652L27.7536 43.7633C27.2512 44.2657 27 44.8764 27 45.5961C27 46.302 27.2512 46.9202 27.7536 47.4493L29.3015 48.9768C29.8039 49.4792 30.4152 49.7303 31.1345 49.7303C31.8542 49.7303 32.4653 49.4792 32.9676 48.9768L46.2459 35.7185C46.7485 35.189 47 34.5711 47 33.8652C47.0001 33.1456 46.7485 32.5345 46.2459 32.0321Z" fill="#828282"/>
</svg>
