<svg width="20" height="32" viewBox="0 0 20 32" fill="none" xmlns="http://www.w3.org/2000/svg">
<path d="M19.2459 14.0321L5.96789 0.773823C5.4789 0.25787 4.86828 0 4.13483 0C3.40138 0 2.79077 0.258155 2.30178 0.773823L0.753993 2.3015C0.251521 2.8039 0.000285176 3.41458 0.000285176 4.13419C0.000285176 4.84018 0.25145 5.45814 0.753993 5.9875L10.6517 15.8652L0.753565 25.7633C0.251236 26.2657 0 26.8764 0 27.5961C0 28.302 0.251165 28.9202 0.753565 29.4493L2.3015 30.9768C2.8039 31.4792 3.41515 31.7303 4.13455 31.7303C4.85423 31.7303 5.46534 31.4792 5.9676 30.9768L19.2459 17.7185C19.7485 17.189 20 16.5711 20 15.8652C20.0001 15.1456 19.7485 14.5345 19.2459 14.0321Z" fill="#828282"/>
</svg>
