<svg width="67" height="67" viewBox="0 0 67 67" fill="none" xmlns="http://www.w3.org/2000/svg">
<circle cx="33.5" cy="33.5" r="33.5" fill="white"/>
<path d="M30.3483 33.8657L40.2462 23.9675C40.7491 23.465 41 22.8506 41 22.1241C41 21.3977 40.749 20.7835 40.2462 20.2811L38.719 18.7534C38.2168 18.2512 37.6023 18 36.8761 18C36.1499 18 35.5356 18.2512 35.0327 18.7534L21.7537 32.0121C21.2512 32.5146 21 33.129 21 33.8555C21 34.5821 21.2512 35.196 21.7537 35.6986L35.0326 48.9574C35.5355 49.4598 36.1497 49.711 36.876 49.711C37.6023 49.711 38.2168 49.4598 38.7189 48.9574L40.2461 47.43C40.749 46.9278 40.9999 46.3168 40.9999 45.5968C40.9999 44.8774 40.749 44.2596 40.2461 43.7437L30.3483 33.8657Z" fill="#828282"/>
</svg>
