<svg width="20" height="32" viewBox="0 0 20 32" fill="none" xmlns="http://www.w3.org/2000/svg">
<path d="M9.34835 15.8657L19.2462 5.96746C19.7491 5.46504 20 4.85055 20 4.12407C20 3.39765 19.749 2.78345 19.2462 2.28111L17.719 0.753378C17.2168 0.251173 16.6023 0 15.8761 0C15.1499 0 14.5356 0.251173 14.0327 0.753378L0.753735 14.0121C0.251245 14.5146 0 15.129 0 15.8555C0 16.5821 0.251174 17.196 0.753735 17.6986L14.0326 30.9574C14.5355 31.4598 15.1497 31.711 15.876 31.711C16.6023 31.711 17.2168 31.4598 17.7189 30.9574L19.2461 29.43C19.749 28.9278 19.9999 28.3168 19.9999 27.5968C19.9999 26.8774 19.749 26.2596 19.2461 25.7437L9.34835 15.8657Z" fill="#828282"/>
</svg>
