<svg width="150" height="167" viewBox="0 0 150 167" fill="none" xmlns="http://www.w3.org/2000/svg">
<g clip-path="url(#clip0)">
<path d="M148.59 26.2917C146.136 17.1324 140.273 9.4839 132.082 4.75495C123.891 0.0253639 114.335 -1.22706 105.177 1.22725C96.0175 3.68121 88.3685 9.5439 83.6396 17.735L78.8151 26.0914C71.9298 19.726 62.7296 15.8295 52.6352 15.8295H49.284C27.999 15.8295 10.6826 33.146 10.6826 54.431V55.8498C10.6826 58.0356 11.8379 59.952 13.566 61.0349C13.5067 61.9 13.4741 62.7717 13.4741 63.6391C13.4741 67.8146 14.1598 71.9191 15.512 75.8383C15.8615 76.8511 16.8094 77.487 17.8235 77.487C18.0882 77.487 18.3573 77.4436 18.6214 77.3526C19.8982 76.9121 20.5761 75.52 20.1356 74.2434C18.9608 70.8384 18.3651 67.2707 18.3651 63.6394C18.3651 63.0841 18.3791 62.5268 18.4071 61.9714H83.3194C83.3474 62.5271 83.3614 63.0847 83.3614 63.6394C83.3614 81.5588 68.7827 96.1379 50.8633 96.1379C40.9202 96.1379 31.6555 91.6727 25.445 83.8881C24.6027 82.8322 23.0644 82.6594 22.0082 83.5013C20.9524 84.3436 20.7793 85.8824 21.6215 86.938C23.6529 89.4844 25.9689 91.7207 28.5061 93.6195L23.1159 102.955C21.6632 105.471 21.4301 108.457 22.3721 111.111C8.97013 118.639 0.181641 132.967 0.181641 149.104V164.511C0.181641 165.861 1.27657 166.956 2.62714 166.956C3.9777 166.956 5.07264 165.861 5.07264 164.511V149.104C5.07264 136.076 11.5252 124.377 21.6404 117.338C27.9687 127.278 39.0077 133.387 50.8551 133.387C62.6885 133.387 73.7158 127.292 80.0477 117.373C82.2853 118.928 84.3667 120.716 86.2359 122.718C86.7175 123.233 87.37 123.494 88.0238 123.494C88.6212 123.494 89.2206 123.276 89.6921 122.836C90.6791 121.914 90.7323 120.367 89.8104 119.379C87.011 116.381 83.7938 113.8 80.292 111.708L84.9596 103.623C85.1787 103.243 85.5485 102.989 85.9483 102.944C90.7744 102.393 95.1038 99.5549 97.5299 95.3533C99.653 91.6754 100.159 87.236 98.9194 83.1733C97.662 79.0535 94.8292 75.7382 90.9429 73.8384C89.7521 73.256 88.4758 72.8402 87.1675 72.5859C87.8745 69.7183 88.2518 66.7222 88.2518 63.6397C88.2518 62.8108 88.2214 61.9773 88.167 61.1487C89.9983 60.0899 91.2364 58.1142 91.2364 55.8508V54.6687L98.6748 58.9633C99.0599 59.1857 99.4805 59.2913 99.8953 59.2913C100.741 59.2913 101.563 58.8524 102.016 58.0682C102.691 56.8985 102.29 55.4027 101.12 54.7277L90.8216 48.7816C90.5631 47.0262 90.1858 45.3091 89.6986 43.6385L99.4 26.8352C101.702 22.8491 105.425 19.9956 109.885 18.8006C114.345 17.6059 118.996 18.2153 122.982 20.5164C131.225 25.276 134.06 35.8548 129.301 44.0986L117.653 64.2726L111.373 60.6462C110.203 59.9712 108.708 60.3713 108.032 61.5413C107.357 62.711 107.758 64.2068 108.927 64.8821L131.003 77.6275C132.131 78.2787 132.937 79.3297 133.274 80.5871C133.611 81.8445 133.438 83.158 132.787 84.2856L100.591 140.051C99.835 136.473 98.6269 133.005 96.9674 129.678C96.3645 128.469 94.8958 127.979 93.6873 128.582C92.4788 129.184 91.988 130.653 92.591 131.862C95.2763 137.244 96.6381 143.045 96.6381 149.103V164.51C96.6381 165.861 97.7331 166.956 99.0834 166.956C100.434 166.956 101.529 165.861 101.529 164.51V149.103C101.529 148.811 101.522 148.52 101.517 148.228C101.518 148.226 101.52 148.224 101.521 148.222L137.023 86.7306C138.327 84.4718 138.674 81.8403 137.998 79.3209C137.323 76.8012 135.707 74.6957 133.448 73.3913L133.414 73.3714L145.062 53.1971C149.792 45.0061 151.044 35.4508 148.59 26.2917ZM15.5736 54.431C15.5736 35.8427 30.6959 20.7205 49.284 20.7205H52.6349C71.2232 20.7205 86.3458 35.8427 86.3458 54.431V55.8498C86.3458 56.5281 85.794 57.0798 85.1158 57.0798H76.9881V52.7468C76.9881 51.3961 75.8931 50.3011 74.5424 50.3011C73.1917 50.3011 72.0971 51.3961 72.0971 52.7468V57.0798H36.6074V52.7468C36.6074 51.3961 35.5127 50.3011 34.1621 50.3011C32.8114 50.3011 31.7165 51.3961 31.7165 52.7468V57.0798H27.5579V50.0194C27.5579 48.6691 26.4629 47.5741 25.1124 47.5741C23.7618 47.5741 22.6669 48.6691 22.6669 50.0194V57.0798H16.8035C16.1253 57.0798 15.5736 56.5281 15.5736 55.8498V54.431ZM64.9329 103.809C64.5844 104.413 64.317 105.051 64.1246 105.709C62.2629 104.8 60.955 102.948 60.7773 100.782L60.6896 99.7157C63.759 98.8786 66.6729 97.6613 69.3759 96.1147L64.9329 103.809ZM55.8625 100.693L55.9026 101.182C56.3079 106.118 59.9702 110.168 64.8087 111.032C65.3872 111.136 65.9624 111.256 66.535 111.386C62.7469 116.082 56.9869 118.897 50.8554 118.897C44.7217 118.897 38.9598 116.08 35.172 111.382C35.7436 111.253 36.3201 111.136 36.9019 111.032C41.7407 110.168 45.4029 106.118 45.8079 101.182L45.8481 100.693C47.4967 100.913 49.1709 101.029 50.8626 101.029C52.5579 101.029 54.2265 100.913 55.8625 100.693ZM27.3518 105.4L32.6128 96.2882C35.2594 97.7699 38.0807 98.922 41.021 99.7196L40.9339 100.782C40.7102 103.507 38.6989 105.743 36.0426 106.217C32.8222 106.792 29.7386 107.712 26.8265 108.934C26.5549 107.753 26.7231 106.489 27.3518 105.4ZM50.8558 128.495C40.7187 128.495 31.2701 123.286 25.8258 114.804C26.0707 114.677 26.3172 114.551 26.5653 114.429C26.6781 114.384 26.788 114.331 26.8953 114.268C27.9648 113.752 29.0623 113.282 30.1876 112.863C34.823 119.647 42.5653 123.787 50.8561 123.787C59.1374 123.787 66.8722 119.656 71.5095 112.885C72.999 113.446 74.454 114.097 75.8653 114.837C70.4171 123.3 60.9798 128.495 50.8558 128.495ZM88.7953 78.2314C91.4507 79.5296 93.3847 81.791 94.2423 84.6006C95.1005 87.4124 94.764 90.3625 93.2953 92.9073C91.6163 95.8154 88.7363 97.7021 85.3943 98.0836C83.4612 98.3044 81.716 99.461 80.725 101.177L75.9557 109.438C73.6704 108.397 71.2988 107.552 68.8688 106.921C68.9471 106.692 69.0462 106.468 69.1691 106.255L74.2574 97.4416C75.1538 95.8887 75.3387 94.0225 74.7866 92.3494C79.5762 88.3519 83.3546 83.1821 85.6747 77.2838C86.7576 77.4322 87.8034 77.7466 88.7953 78.2314ZM140.826 50.7518L129.179 70.9261L121.889 66.7176L133.537 46.5436C139.645 35.9644 136.007 22.3883 125.428 16.2804C120.31 13.3256 114.341 12.5427 108.619 14.0762C102.898 15.6094 98.1191 19.2721 95.1645 24.3894L87.4463 37.7579C86.0663 34.8883 84.3413 32.2153 82.3264 29.7913L87.8751 20.1805C91.9509 13.1208 98.545 8.0678 106.442 5.95163C114.339 3.83578 122.577 4.91474 129.636 8.99089C136.696 13.0667 141.749 19.6608 143.865 27.5578C145.982 35.455 144.903 43.6923 140.826 50.7518Z" fill="#AF3469"/>
<path d="M121.282 84.8897C121.668 85.1121 122.088 85.2178 122.503 85.2178C123.348 85.2178 124.17 84.7792 124.623 83.9946C125.298 82.8249 124.897 81.3292 123.728 80.6542L116.192 76.3029C115.022 75.6272 113.527 76.028 112.851 77.198C112.176 78.3677 112.577 79.8634 113.747 80.5387L121.282 84.8897Z" fill="#AF3469"/>
<path d="M58.7383 81.7406C59.698 80.7901 59.7055 79.2418 58.7553 78.2825C57.8047 77.3225 56.2565 77.3153 55.2971 78.2655C54.1089 79.4424 52.5342 80.0903 50.8636 80.0903C49.1928 80.0903 47.6181 79.4424 46.4302 78.2655C45.4708 77.3156 43.9225 77.3225 42.9717 78.2825C42.0211 79.2421 42.0286 80.7904 42.9886 81.7406C45.0987 83.8305 47.8953 84.9813 50.864 84.9813C53.8323 84.9813 56.6285 83.8305 58.7383 81.7406Z" fill="#AF3469"/>
<path d="M37.6101 67.2153V67.1693C37.6101 65.8186 36.5151 64.7236 35.1644 64.7236C33.8137 64.7236 32.7188 65.8186 32.7188 67.1693V67.2153C32.7188 68.5659 33.8137 69.6609 35.1644 69.6609C36.5151 69.6609 37.6101 68.5659 37.6101 67.2153Z" fill="#AF3469"/>
<path d="M69.0065 67.2153V67.1693C69.0065 65.8186 67.9115 64.7236 66.5609 64.7236C65.2102 64.7236 64.1152 65.8186 64.1152 67.1693V67.2153C64.1152 68.5659 65.2102 69.6609 66.5609 69.6609C67.9115 69.6609 69.0065 68.5659 69.0065 67.2153Z" fill="#AF3469"/>
<path d="M63.0372 144.212H47.5627C46.2293 142.482 44.1378 141.363 41.7887 141.363C37.7707 141.363 34.502 144.632 34.502 148.651C34.502 152.669 37.7707 155.938 41.7887 155.938C45.6548 155.938 48.8256 152.912 49.0604 149.104H53.3847V152.49C53.3847 153.841 54.4797 154.936 55.8303 154.936C57.1806 154.936 58.2757 153.841 58.2757 152.49V149.104H60.5922V152.49C60.5922 153.841 61.6872 154.936 63.0375 154.936C64.3882 154.936 65.4832 153.841 65.4832 152.49V146.658C65.4828 145.307 64.3878 144.212 63.0372 144.212ZM41.7884 151.046C40.4674 151.046 39.3926 149.972 39.3926 148.65C39.3926 147.329 40.4674 146.254 41.7884 146.254C43.1097 146.254 44.1848 147.329 44.1848 148.65C44.1848 149.972 43.11 151.046 41.7884 151.046Z" fill="#AF3469"/>
<path d="M23.6291 141.453C22.2785 141.453 21.1836 142.548 21.1836 143.898V164.511C21.1836 165.862 22.2785 166.957 23.6291 166.957C24.9797 166.957 26.0746 165.862 26.0746 164.511V143.898C26.0746 142.548 24.9797 141.453 23.6291 141.453Z" fill="#AF3469"/>
<path d="M78.2168 141.453C76.8665 141.453 75.7715 142.548 75.7715 143.898V164.511C75.7715 165.862 76.8665 166.957 78.2168 166.957C79.5675 166.957 80.6625 165.862 80.6625 164.511V143.898C80.6625 142.548 79.5675 141.453 78.2168 141.453Z" fill="#AF3469"/>
</g>
<defs>
<clipPath id="clip0">
<rect width="150" height="166.957" fill="white"/>
</clipPath>
</defs>
</svg>
