<svg width="60" height="60" viewBox="0 0 60 60" fill="none" xmlns="http://www.w3.org/2000/svg">
  <path d="M28.096 54.3459H6.5337a.9379.9379 0 01-.938-.9379V6.5334c0-.518.4199-.938.938-.938H28.096c.5174 0 .9373.42.9373.938V53.408c0 .518-.4199.9379-.9373.9379zM7.471 52.4707h19.6874v-45H7.4709v45z" fill="#D13D73"/>
  <path d="M7.1679 8.1608a.9373.9373 0 01-.69-.3032l-.6345-.6897a.9354.9354 0 01-.2047-.9146c.1-.32.363-.562.6901-.6348a.9349.9349 0 01.894.2801l.6348.69a.9364.9364 0 01.1686 1.0112.937.937 0 01-.8583.561zM25.073 27.6272a.9304.9304 0 01-.689-.3032l-1.1938-1.2974c-.3501-.3811-.3258-.974.0553-1.3245.3811-.3509.9744-.3259 1.3249.0552l1.1937 1.2974a.9382.9382 0 01.1686 1.0115.9389.9389 0 01-.8586.561h-.0011zm-3.5805-3.893a.9382.9382 0 01-.6901-.3024l-1.192-1.2978a.9366.9366 0 01-.2249-.9249.9393.9393 0 01.7004-.6448.9372.9372 0 01.9033.3008l1.1934 1.2971a.9378.9378 0 01.1689 1.011.937.937 0 01-.858.561h-.001zm-3.5812-3.8922a.9303.9303 0 01-.6887-.3028l-1.1944-1.2978a.9381.9381 0 01-.2063-.9156.9379.9379 0 01.69-.6366.938.938 0 01.8961.2795l1.1944 1.2974a.9383.9383 0 01.1686 1.0115.9385.9385 0 01-.8583.5609l-.0014.0035zm-3.5812-3.8919a.9372.9372 0 01-.6897-.3025l-1.1927-1.2978c-.3506-.381-.3258-.9747.0559-1.3252.3811-.3502.9744-.3251 1.3253.056l1.192 1.2977a.9385.9385 0 01.1689 1.0115.9377.9377 0 01-.8583.5603h-.0014zm-3.5784-3.8971a.9397.9397 0 01-.6901-.3025l-1.1968-1.2977c-.3506-.3811-.3259-.9744.0549-1.3249.381-.3502.974-.3258 1.3249.0553l1.1934 1.2977a.9374.9374 0 01.1689 1.0101.9362.9362 0 01-.8552.562zM27.461 31.598a.9373.9373 0 01-.6901-1.572l.0515-.056-.0515-.0563c-.3505-.3818-.3255-.9747.0556-1.3252.3818-.3509.9747-.3259 1.3252.0556l.6348.6901c.33.3587.33.9108 0 1.2696l-.6348.6894a.9348.9348 0 01-.6907.3048zM9.556 51.0644a.9372.9372 0 01-.69-1.572l1.1933-1.2978a.9374.9374 0 111.3795 1.2696l-1.1941 1.294a.9302.9302 0 01-.6887.3062zm3.5799-3.8925a.9367.9367 0 01-.8573-.561.937.937 0 01.1686-1.0115l1.1933-1.297a.9362.9362 0 01.903-.3004.9369.9369 0 01.7004.6444.9371.9371 0 01-.2246.9252L13.827 46.869a.9359.9359 0 01-.6911.2991v.0038zm3.5812-3.8923a.9368.9368 0 01-.8583-.561.9368.9368 0 01.1682-1.0114l1.1934-1.3012c.3508-.3811.9438-.4062 1.3249-.0553.381.3505.4061.9435.0552 1.3246l-1.1923 1.2967a.9318.9318 0 01-.6911.3028v.0048zm3.5815-3.8916a.9363.9363 0 01-.8583-.561.9364.9364 0 01.1682-1.0114l1.1924-1.2974c.3505-.3814.9438-.4062 1.3252-.0556.3811.3505.4065.9438.056 1.3252l-1.1927 1.2926a.937.937 0 01-.6901.3028l-.0007.0048zm3.5785-3.897a.9375.9375 0 01-.6891-1.5724l1.1934-1.2975a.936.936 0 01.8947-.2801.936.936 0 01.6897.6345.9367.9367 0 01-.2046.9152l-1.193 1.2971a.9401.9401 0 01-.6911.3032zM6.5334 54.3459a.9391.9391 0 01-.859-.561.9383.9383 0 01.169-1.0114l.6344-.6897a.9371.9371 0 011.308-.0388c.3743.3443.4065.9242.0718 1.3067l-.6348.6901a.9367.9367 0 01-.6894.3041z" fill="#D13D73"/>
  <path d="M56.2208 58.0957H3.7206c-1.0355 0-1.8749-.8394-1.8749-1.8749V3.7206c0-1.0355.8394-1.8749 1.8749-1.8749h52.5002c1.0355 0 1.8749.8394 1.8749 1.8749v52.5002c0 1.0355-.8394 1.8749-1.8749 1.8749zM3.7206 3.7206v52.5002h52.5002V3.7206H3.7206zM53.408 54.3459H31.8456c-.5174 0-.9373-.4199-.9373-.9379V6.5334c0-.518.4199-.938.9373-.938H53.408c.518 0 .9379.42.9379.938V53.408a.9379.9379 0 01-.9379.9379zm-20.6248-1.8752h19.6875v-45H32.7832v45zm-4.6874 1.8752H6.5334a.9379.9379 0 01-.938-.9379V6.5334c0-.518.42-.938.938-.938h21.5624c.5174 0 .9373.42.9373.938V53.408c0 .518-.4199.9379-.9373.9379zM7.4707 52.4707h19.6875v-45H7.4707v45z" fill="#D13D73"/>
  <path d="M53.4079 54.3459H31.8455c-.5174 0-.9373-.4199-.9373-.9379V6.5334c0-.518.4199-.938.9373-.938h21.5624c.518 0 .9379.42.9379.938V53.408a.9379.9379 0 01-.9379.9379zm-20.6248-1.8752h19.6875v-45H32.7831v45z" fill="#D13D73"/>
  <path d="M52.7734 8.1608a.937.937 0 01-.8583-.561.9364.9364 0 01.1685-1.011l.6348-.6902a.9371.9371 0 011.3246-.056.9375.9375 0 01.0559 1.3253l-.6348.6897a.936.936 0 01-.6907.3032zM34.8682 27.6272a.9373.9373 0 01-.8583-.561.937.937 0 01.1682-1.0115l1.1934-1.2974c.3505-.3811.9438-.4061 1.3249-.0552a.9373.9373 0 01.0553 1.3245l-1.1934 1.2974a.9326.9326 0 01-.6901.3032zm3.5805-3.893a.9363.9363 0 01-.858-.561.9371.9371 0 01.1686-1.011l1.1934-1.2971a.9378.9378 0 01.9036-.3008.939.939 0 01.7004.6448.938.938 0 01-.2249.9249l-1.1923 1.2978a.9388.9388 0 01-.6908.299v.0034zm3.5812-3.8922a.9373.9373 0 01-.6901-1.5721l1.1934-1.3012c.3506-.3811.9438-.4061 1.3246-.0553a.9373.9373 0 01.0552 1.3246l-1.192 1.2964a.9295.9295 0 01-.6911.3028v.0048zm3.5812-3.8919a.9377.9377 0 01-.8586-.5603.9376.9376 0 01.1685-1.0115l1.1924-1.2977c.3505-.3811.9441-.4062 1.3252-.056.3815.3506.4062.9442.0556 1.3252l-1.192 1.2933a.9397.9397 0 01-.6901.3025l-.001.0045zm3.5785-3.8971a.9376.9376 0 01-.858-.5606.9392.9392 0 01.1686-1.0115l1.1937-1.2977a.939.939 0 01.8947-.2802.94.94 0 01.6901.6348.9385.9385 0 01-.2046.915l-1.1938 1.2977a.9366.9366 0 01-.6907.3025zM32.4805 31.598a.939.939 0 01-.69-.3024l-.6348-.6901a.9378.9378 0 010-1.2696l.6348-.6901a.937.937 0 01.8947-.2805.9386.9386 0 01.6907.6345.9387.9387 0 01-.2046.9156l-.0515.056.0515.0563a.9376.9376 0 01.1689 1.0114.9382.9382 0 01-.859.561l-.0007-.0021zM50.3854 51.0644a.9319.9319 0 01-.6887-.3028l-1.1934-1.2974c-.3505-.3811-.3258-.9743.0553-1.3249.3811-.3505.9743-.3258 1.3245.0553l1.1934 1.2978a.9373.9373 0 01-.6897 1.572h-.0014zm-3.5798-3.8925a.9376.9376 0 01-.6901-.3029l-1.1927-1.2974a.9372.9372 0 01-.2242-.9252.9363.9363 0 01.7004-.6444.937.937 0 01.9033.3004l1.193 1.297a.9385.9385 0 01.1689 1.0115.9379.9379 0 01-.8576.561h-.001zm-3.5812-3.8923a.9316.9316 0 01-.6894-.3032l-1.1941-1.297c-.3516-.3811-.3275-.9751.0536-1.3266.3811-.3519.9743-.3279 1.3266.0532l1.194 1.2974a.937.937 0 01.1683 1.0114.9375.9375 0 01-.8583.561l-.0007.0038zm-3.5816-3.8916a.9385.9385 0 01-.69-.3028l-1.1924-1.2974c-.3505-.3814-.3255-.9747.0556-1.3252.3814-.3506.9747-.3258 1.3252.0556l1.1927 1.2974a.937.937 0 01.1683 1.0114.9369.9369 0 01-.8583.561h-.0011zm-3.5784-3.897a.9357.9357 0 01-.6898-.3032l-1.1933-1.2971a.937.937 0 01-.2047-.9152.9358.9358 0 01.6901-.6345.9349.9349 0 01.894.2801l1.1938 1.2975a.9378.9378 0 01-.6891 1.5724h-.001zM53.4076 54.3459a.935.935 0 01-.6894-.3031l-.6348-.6901c-.3505-.3811-.3258-.9747.0557-1.3249.381-.3505.9747-.3255 1.3248.056l.6348.6897a.9367.9367 0 01.1683 1.0118.938.938 0 01-.8594.5606z" fill="#D13D73"/>
</svg>
