<svg width="51" height="52" viewBox="0 0 51 52" fill="none" xmlns="http://www.w3.org/2000/svg">
<path d="M2.02848 16.0764C1.94603 16.2653 1.81018 16.426 1.63762 16.5388C1.46507 16.6516 1.26333 16.7115 1.05719 16.7112C0.913373 16.7115 0.77106 16.682 0.639255 16.6244C0.38177 16.5135 0.178865 16.3048 0.0751092 16.0443C-0.0286467 15.7839 -0.0247694 15.4928 0.0858908 15.2352C2.25745 10.2388 5.91471 6.03225 10.5606 3.18713C10.7998 3.0493 11.0834 3.01041 11.3509 3.07876C11.6184 3.14711 11.8485 3.31729 11.9922 3.55298C12.136 3.78867 12.1819 4.07121 12.1202 4.34029C12.0585 4.60937 11.8941 4.84369 11.6621 4.99323C7.38934 7.61115 4.02588 11.4807 2.02848 16.0764ZM4.19221 39.0362C4.11699 38.9155 4.0182 38.8111 3.90174 38.7294C3.78528 38.6478 3.65355 38.5904 3.51442 38.5608C3.37528 38.5312 3.23161 38.5299 3.09198 38.5571C2.95235 38.5843 2.81964 38.6393 2.70177 38.719C2.58391 38.7986 2.48332 38.9012 2.40601 39.0206C2.3287 39.14 2.27626 39.2738 2.25183 39.4139C2.2274 39.5541 2.23148 39.6977 2.26382 39.8362C2.29616 39.9748 2.35611 40.1053 2.44007 40.2202C3.08222 41.1718 3.78629 42.0802 4.54771 42.9394C4.73432 43.1493 4.99667 43.2764 5.27704 43.2929C5.55742 43.3094 5.83285 43.2138 6.04275 43.0272C6.25265 42.8406 6.37982 42.5782 6.39629 42.2979C6.41276 42.0175 6.31717 41.742 6.13057 41.5321C5.43122 40.7414 4.78375 39.9063 4.19221 39.032V39.0362ZM39.5863 44.0514C35.5029 47.471 30.3992 49.4373 25.0769 49.6415C19.7546 49.8456 14.5153 48.2761 10.1819 45.1793C9.95358 45.0159 9.66978 44.95 9.39288 44.9959C9.11597 45.0419 8.86866 45.1959 8.70535 45.4242C8.54203 45.6525 8.47608 45.9363 8.52202 46.2132C8.56795 46.4901 8.72201 46.7374 8.95029 46.9007C13.6651 50.2693 19.3653 51.9763 25.1556 51.7538C30.9459 51.5313 36.4982 49.3917 40.9406 45.6713C41.052 45.5837 41.1447 45.4747 41.2132 45.3506C41.2817 45.2266 41.3246 45.09 41.3393 44.9491C41.354 44.8082 41.3402 44.6657 41.2989 44.5302C41.2575 44.3947 41.1893 44.2689 41.0983 44.1602C41.0074 44.0515 40.8955 43.9622 40.7694 43.8976C40.6433 43.833 40.5055 43.7944 40.3642 43.784C40.2229 43.7737 40.0809 43.7918 39.9468 43.8374C39.8126 43.883 39.6889 43.955 39.5831 44.0493L39.5863 44.0514ZM49.6294 19.4547C49.5638 19.1819 49.3926 18.9462 49.1533 18.7995C48.914 18.6529 48.6262 18.6073 48.3534 18.6728C48.0805 18.7384 47.8448 18.9096 47.6981 19.1489C47.5515 19.3882 47.5059 19.676 47.5714 19.9489C48.0139 21.7924 48.237 23.6818 48.2359 25.5777C48.2359 25.8583 48.3474 26.1275 48.5458 26.3259C48.7442 26.5243 49.0133 26.6358 49.294 26.6358C49.5746 26.6358 49.8437 26.5243 50.0421 26.3259C50.2405 26.1275 50.352 25.8583 50.352 25.5777C50.3528 23.5154 50.1102 21.4602 49.6294 19.4547ZM29.9241 0.0224851C29.6521 -0.0344969 29.3686 0.0178179 29.1349 0.168127C28.9012 0.318436 28.7359 0.554671 28.6749 0.825791C28.6139 1.09691 28.662 1.38115 28.8089 1.61709C28.9557 1.85303 29.1895 2.02174 29.4596 2.08675C32.7289 2.83201 35.8074 4.24923 38.4994 6.24834C41.1914 8.24745 43.4381 10.7847 45.0967 13.6989C45.1654 13.8197 45.2573 13.9257 45.3671 14.0109C45.4768 14.0961 45.6023 14.1589 45.7363 14.1957C45.8703 14.2324 46.0102 14.2424 46.1481 14.2251C46.286 14.2077 46.4191 14.1634 46.5398 14.0946C46.6606 14.0259 46.7666 13.934 46.8518 13.8242C46.9371 13.7145 46.9999 13.589 47.0366 13.455C47.0733 13.321 47.0833 13.181 47.066 13.0432C47.0487 12.9053 47.0043 12.7722 46.9356 12.6514C45.1309 9.48174 42.6866 6.72212 39.758 4.54797C36.8293 2.37381 33.4804 0.832668 29.9241 0.0224851ZM46.1251 25.5777C46.1284 30.6946 44.3441 35.6518 41.0806 39.5928C37.817 43.5338 33.2793 46.2109 28.2515 47.1615C23.2237 48.112 18.0218 47.2763 13.5448 44.7987C9.06771 42.3211 5.59684 38.3574 3.73195 33.5925C3.69978 33.5273 3.67459 33.4588 3.65683 33.3883C2.50926 30.3791 2.03778 27.1543 2.27581 23.9426C2.51385 20.7308 3.45557 17.6108 5.03421 14.8036C6.61285 11.9965 8.78974 9.57109 11.4105 7.69932C14.0313 5.82755 17.0318 4.55528 20.1992 3.97274C23.3667 3.3902 26.6235 3.51165 29.7387 4.32847C32.854 5.1453 35.7514 6.63749 38.2255 8.69925C40.6996 10.761 42.6898 13.3418 44.055 16.2587C45.4202 19.1756 46.1269 22.3572 46.1251 25.5777ZM19.5245 44.8587L22.8616 41.5131C22.9361 41.4418 22.9955 41.3562 23.0364 41.2616C23.0773 41.1669 23.0988 41.065 23.0997 40.9619C23.0993 40.8572 23.0782 40.7536 23.0375 40.6572C22.9968 40.5607 22.9374 40.4733 22.8627 40.4L11.4208 28.954C11.3478 28.88 11.2608 28.8213 11.1649 28.7812C11.069 28.7411 10.9661 28.7205 10.8622 28.7205C10.7583 28.7205 10.6553 28.7411 10.5595 28.7812C10.4636 28.8213 10.3766 28.88 10.3035 28.954L5.90626 33.3618C7.12727 36.2042 8.99368 38.7231 11.3575 40.7187C13.7213 42.7143 16.5176 44.1317 19.5245 44.8587ZM16.2879 25.0106C16.2867 26.575 15.7468 28.0912 14.759 29.3042L22.7791 37.3253C23.1372 36.7912 23.5706 36.3115 24.0657 35.9012C24.6576 35.5475 25.3115 35.3098 25.9924 35.2007C27.3587 35.0138 28.6364 34.4177 29.6575 33.4909L30.5039 32.4911C31.9196 30.8289 34.2886 28.0472 35.6662 26.275C36.1948 25.5941 36.5153 24.775 36.5893 23.9162C36.6632 23.0574 36.4874 22.1956 36.0831 21.4344L32.1915 14.1158C32.0667 13.8813 31.8889 13.6791 31.6723 13.5254C31.4556 13.3716 31.2061 13.2706 30.9435 13.2302C30.681 13.1898 30.4126 13.2113 30.1598 13.2928C29.907 13.3744 29.6766 13.5138 29.4872 13.7L21.009 21.9528C20.8711 22.0866 20.6995 22.1803 20.5125 22.224C20.3255 22.2676 20.1301 22.2596 19.9473 22.2006C19.7645 22.1417 19.6012 22.0341 19.4749 21.8894C19.3486 21.7448 19.2641 21.5684 19.2304 21.3794L18.2591 15.9018C18.1846 15.4622 17.9397 15.0697 17.5776 14.8096C17.2154 14.5495 16.7653 14.4428 16.3249 14.5126L15.4171 14.6501C15.6954 17.1323 16.2879 22.7876 16.2879 25.0106ZM44.0016 25.5777C44.0079 22.7291 43.4011 19.9125 42.2223 17.3192C41.0434 14.7259 39.3202 12.4168 37.1697 10.5486C35.0192 8.68044 32.4917 7.29706 29.7591 6.49243C27.0265 5.6878 24.1526 5.48078 21.3329 5.88543C18.5131 6.29008 15.8135 7.29693 13.4175 8.83756C11.0214 10.3782 8.98498 12.4165 7.44661 14.814C5.90825 17.2116 4.90396 19.9122 4.50198 22.7323C4.09999 25.5524 4.30973 28.426 5.11695 31.1579L8.80745 27.46C9.3542 26.9201 10.0917 26.6173 10.8601 26.6173C11.6285 26.6173 12.366 26.9201 12.9127 27.46L13.2513 27.7986C13.8504 26.9934 14.1732 26.0163 14.1718 25.0127C14.1718 22.7908 13.5063 16.5959 13.3021 14.7496C13.2451 14.2415 13.3879 13.7312 13.7002 13.3265C14.0126 12.9217 14.47 12.6542 14.9759 12.5806L16.0118 12.424C16.9988 12.2689 18.0072 12.5085 18.819 13.091C19.6307 13.6735 20.1806 14.552 20.3498 15.5368L20.9719 19.0474L28.0154 12.1901C28.4397 11.7738 28.9553 11.4623 29.5211 11.2802C30.087 11.0981 30.6875 11.0505 31.275 11.1412C31.8625 11.2319 32.4207 11.4584 32.9052 11.8027C33.3898 12.1469 33.7874 12.5995 34.0664 13.1244L37.959 20.443C38.5549 21.5652 38.8138 22.8357 38.7046 24.1016C38.5953 25.3676 38.1226 26.5749 37.3432 27.5785C35.9381 29.3857 33.5501 32.1895 32.1228 33.8655L31.2763 34.859C29.9796 36.149 28.3041 36.9902 26.495 37.2597C26.0977 37.3399 25.7082 37.455 25.3311 37.6036C24.9315 37.9682 24.5859 38.3878 24.3048 38.85L24.3619 38.9071C24.634 39.1757 24.85 39.4956 24.9974 39.8484C25.1448 40.2011 25.2207 40.5796 25.2207 40.9619C25.2207 41.3441 25.1448 41.7226 24.9974 42.0754C24.85 42.4281 24.634 42.748 24.3619 43.0166L22.067 45.3168C22.7629 45.3909 23.4621 45.4287 24.162 45.43C29.4246 45.4233 34.4696 43.3294 38.1904 39.6077C41.9111 35.8859 44.0037 30.8403 44.009 25.5777H44.0016Z" fill="#D13D73"/>
</svg>
