<svg xmlns="http://www.w3.org/2000/svg" width="120" height="120" viewBox="0 0 120 120" fill="none"><circle cx="60" cy="60" r="60" fill="white"></circle><g clip-path="url(#clip0)"><path fill-rule="evenodd" clip-rule="evenodd" d="M49.7487 39.9538L49.4118 40.1405C49.1932 40.227 49.1295 40.2953 48.961 40.3636C48.7926 40.4319 48.7971 40.4 48.6651 40.5093C48.5239 40.6231 46.7346 41.5383 46.4067 41.7841C46.3066 41.857 46.2701 41.9071 46.1472 41.9617C45.8239 42.1074 45.6509 42.285 45.3322 42.4626C45.2229 42.5263 45.1637 42.5354 45.0545 42.6265L44.5309 42.9953C44.4079 43.0818 44.3624 43.0818 44.2577 43.1683C44.1393 43.2776 43.9344 43.4142 43.7568 43.528C43.6658 43.5917 43.5884 43.6327 43.4928 43.7056C43.3835 43.7921 43.3516 43.8421 43.2514 43.9104C43.0329 44.0607 42.9236 44.1153 42.7369 44.2838C42.6504 44.3612 42.5594 44.4022 42.4729 44.4705C42.3864 44.5433 42.3454 44.6116 42.2452 44.689C42.0859 44.8165 41.9219 44.8985 41.758 45.0578C41.6533 45.158 41.6488 45.1808 41.5167 45.2673L40.7837 45.8683C40.6334 46.0003 40.4877 46.1642 40.342 46.3145C40.1963 46.4602 40.0461 46.5695 39.8913 46.7243C39.5088 47.1067 38.5071 48.1266 38.193 48.5546C38.111 48.6639 38.0746 48.6958 37.979 48.7868C37.897 48.8733 37.8515 48.9598 37.7968 49.0509L36.868 50.3531C36.7997 50.4715 36.8043 50.5079 36.7177 50.6172C36.5857 50.7856 36.5038 51.0042 36.3854 51.1681C36.267 51.332 35.8845 52.1197 35.7935 52.3564L35.6068 52.8391C35.4383 53.2488 35.4611 53.2762 35.3837 53.4811C35.3427 53.5903 35.3609 53.5311 35.3382 53.6495L35.1424 54.3553C35.0559 54.938 35.0103 55.3478 35.0103 55.9671C35.0103 56.2584 35.0012 56.5772 35.0103 56.8595C35.0194 57.0279 35.0513 57.0826 35.0513 57.2738C35.0513 57.5925 35.156 58.0524 35.2198 58.3847C35.2425 58.494 35.2471 58.6716 35.2835 58.7763C35.3655 58.9812 35.3108 58.9129 35.3473 59.1178C35.37 59.2316 35.3837 59.1998 35.4065 59.2908C35.4292 59.3682 35.4201 59.4092 35.4383 59.482C35.4656 59.5822 35.4793 59.5458 35.4975 59.6369C35.5613 59.9465 35.5658 59.819 35.6113 59.9829C35.6341 60.0603 35.6204 60.1013 35.6387 60.1787C35.6523 60.2333 35.7161 60.4473 35.7434 60.511L35.8982 61.0301C35.9346 61.0984 35.9483 61.0711 35.9847 61.1621L36.2032 61.8041C36.2533 61.9271 36.267 62.0045 36.3171 62.1365C36.3763 62.2776 36.4036 62.2731 36.4628 62.437L36.654 62.9105C36.7633 63.1518 36.9135 63.4205 37 63.6846L37.6056 64.8228C37.6967 64.9549 37.815 65.2372 37.9061 65.4193C37.9698 65.5468 38.029 65.565 38.0837 65.6788C38.2704 66.0567 38.5208 66.4164 38.7166 66.7943C38.794 66.94 38.8304 66.9081 38.9123 67.0493C38.9624 67.1358 38.9852 67.2451 39.0626 67.3452L40.3192 69.1756C40.4422 69.3668 40.5788 69.4852 40.7017 69.6855C40.7882 69.8221 40.8246 69.8221 40.9066 69.9269C41.025 70.0862 41.157 70.3366 41.2663 70.4505C41.544 70.7419 41.9174 71.2655 42.0631 71.4066C42.1541 71.4931 42.1815 71.5432 42.268 71.6479C42.7779 72.2717 43.3789 72.9182 43.9299 73.5193C44.0073 73.6058 44.0528 73.6877 44.1302 73.7606L46.5524 76.1418L46.689 76.283L46.7437 76.2192C46.8575 76.11 46.903 76.069 46.9986 75.9415C47.372 75.4316 48.5649 74.2159 49.0202 73.7606C49.2023 73.5784 49.3845 73.4464 49.5529 73.2734C49.7305 73.0958 49.899 72.9 50.0811 72.7407L50.9553 72.0258C51.1146 71.9257 51.1192 71.8983 51.2421 71.78C51.4379 71.5887 51.6291 71.4886 51.8249 71.3383C51.9388 71.2473 51.9888 71.1653 52.0936 71.0788C52.1983 70.9968 52.3076 70.9513 52.4077 70.8602C52.6263 70.6599 52.7583 70.5962 53.0178 70.414C53.1362 70.3321 53.1772 70.2729 53.3047 70.1682C53.414 70.0862 53.5005 70.0361 53.6052 69.9724H53.6006C53.5506 69.9223 53.5232 69.9269 53.464 69.8813L52.6764 69.1847C52.6354 69.1483 52.5944 69.1027 52.5534 69.0618L51.2103 67.7459C51.1693 67.7004 51.1465 67.6594 51.101 67.6093C50.7959 67.277 50.4636 66.9218 50.1813 66.5758C50.1357 66.5166 50.1175 66.4893 50.0674 66.4392C49.9855 66.3618 49.7806 66.0704 49.6258 65.911C49.5666 65.8473 49.4937 65.7061 49.4254 65.6196C49.3799 65.565 49.3617 65.565 49.3162 65.4876C49.2433 65.3738 49.1705 65.31 49.1022 65.2053L48.4056 64.1899C48.3646 64.1353 48.3509 64.0761 48.3236 64.0306C48.2781 63.9486 48.2553 63.9668 48.2143 63.8849C48.105 63.68 47.9685 63.4797 47.8637 63.2702C47.8364 63.2065 47.8 63.1974 47.7636 63.1245C47.718 63.0244 47.6497 62.8696 47.5997 62.7967L47.2627 62.1638C47.2172 62.0181 47.1352 61.8724 47.0715 61.7358L46.9668 61.4763C46.9349 61.3852 46.9167 61.3852 46.8894 61.3078C46.8575 61.235 46.8484 61.194 46.8256 61.1212L46.7027 60.7706C46.6799 60.7205 46.6754 60.7341 46.6572 60.6932L46.5707 60.4063C46.557 60.3745 46.516 60.2561 46.5115 60.2242C46.5024 60.1787 46.5069 60.1605 46.4978 60.1149C46.4705 60.0239 46.4659 60.0967 46.4341 59.9237C46.4204 59.8736 46.4158 59.8918 46.4022 59.8372C46.3885 59.7962 46.3931 59.7734 46.384 59.7325C46.3703 59.6824 46.3612 59.696 46.3476 59.6369C46.3293 59.523 46.3612 59.5594 46.3157 59.4456C46.2929 59.3864 46.2929 59.2908 46.2793 59.2316C46.2428 59.0449 46.1836 58.79 46.1882 58.6124C46.1882 58.5122 46.1654 58.4804 46.1654 58.3847C46.1563 58.2299 46.1654 58.0524 46.1654 57.893C46.1654 57.547 46.1882 57.3239 46.2383 57.0006L46.343 56.6045C46.3567 56.5453 46.3476 56.5772 46.3703 56.5134C46.4113 56.3996 46.3976 56.3859 46.4932 56.1583L46.598 55.8896C46.6481 55.7622 46.8575 55.3251 46.9258 55.234C46.9895 55.1429 47.0351 55.0246 47.1079 54.9289C47.1535 54.8698 47.1535 54.847 47.1944 54.7832L47.7044 54.0593C47.7362 54.0138 47.759 53.9637 47.8091 53.9182C47.8592 53.8635 47.8819 53.8453 47.9229 53.7861C48.1005 53.5494 48.6514 52.9848 48.8654 52.7708C48.9519 52.6888 49.0339 52.6251 49.1158 52.5477C49.1932 52.4657 49.2752 52.3701 49.3617 52.2973L49.7669 51.9649C49.8398 51.9193 49.8398 51.9057 49.899 51.851C49.99 51.7645 50.0811 51.719 50.1676 51.6462C50.2222 51.6052 50.245 51.5642 50.2951 51.5278C50.3452 51.4868 50.3953 51.464 50.4408 51.4231C50.5455 51.3274 50.6047 51.3001 50.7231 51.2136C50.7823 51.1772 50.8005 51.1499 50.8597 51.1043C50.9098 51.0634 50.9553 51.036 51.0054 51.0042C51.1055 50.9404 51.2148 50.863 51.2831 50.8038C51.3377 50.7583 51.3651 50.7583 51.4334 50.7082L51.7248 50.5033C51.784 50.4532 51.8204 50.4487 51.8796 50.4123C52.0526 50.3167 52.1528 50.2165 52.3303 50.1391C52.3986 50.1072 52.4168 50.0799 52.4715 50.0389C52.5944 49.9479 53.0861 49.6838 53.4185 49.5062C53.3684 49.4151 53.3183 49.3241 53.2774 49.233C53.2091 49.101 53.1408 49.0782 53.0588 48.9234C52.9541 48.7094 52.813 48.3725 52.7082 48.2131L51.9843 46.8563C51.8841 46.5421 51.702 46.228 51.57 45.9411L51.3469 45.3765C51.2695 45.1808 51.2421 45.1853 51.1738 45.0168C51.1101 44.8575 51.0919 44.771 51.0372 44.6207L50.7732 43.8604C50.7322 43.7511 50.714 43.783 50.673 43.6964L50.4863 43.0818C50.459 43.0089 50.377 42.754 50.3634 42.6902C50.3406 42.59 50.3588 42.5491 50.3315 42.4534C50.2723 42.2577 50.2723 42.4079 50.1949 42.0437C50.1722 41.9298 50.1585 41.9754 50.1266 41.857C50.0993 41.7705 50.113 41.7204 50.0902 41.6293C50.0629 41.5201 50.0401 41.5565 50.0174 41.4199C49.9718 41.1786 50.0401 41.2605 49.9445 41.0147C49.8944 40.8917 49.8899 40.6823 49.8671 40.5548C49.8307 40.3727 49.7851 40.1632 49.7487 39.9538Z" fill="#5FA463"></path><path fill-rule="evenodd" clip-rule="evenodd" d="M84.6482 59.8053L84.7666 58.8309C84.7712 58.5714 84.8122 58.6807 84.8486 58.535C84.8622 58.4712 84.844 57.8975 84.9123 57.4787C84.9442 57.3102 84.8622 56.8685 84.9943 56.7775V52.4065C84.9078 52.279 84.7666 50.7492 84.7712 50.5898C84.7757 50.3257 84.7848 50.3758 84.7074 50.1482L84.4342 48.4089C84.3751 48.2495 84.4251 48.1858 84.3477 47.99L84.2385 47.3207C84.2248 47.2205 84.202 47.2433 84.1747 47.1431C84.1474 47.0475 84.1702 47.0111 84.1383 46.9246C84.0973 46.8016 84.0837 46.8881 84.0427 46.7652C84.0154 46.6741 84.0381 46.6332 84.0108 46.5376C83.9789 46.4374 83.9744 46.5102 83.9516 46.36C83.9289 46.2188 83.938 46.2507 83.897 46.1414L83.7467 45.5677C83.7149 45.4858 83.7194 45.4676 83.6875 45.3765C83.642 45.2445 83.6466 45.3264 83.5965 45.208C83.5373 45.0578 83.5236 44.9713 83.4827 44.8119C83.3734 44.393 83.1412 44.0698 83.0501 43.7146C82.9682 43.4232 82.8543 43.2366 82.7359 43.018C82.6768 42.9133 82.6494 42.7858 82.5903 42.6811L82.2397 42.0163C81.9847 41.5064 82.0439 41.7614 81.8709 41.4017C81.7388 41.1239 81.2607 40.5138 81.065 40.2042C80.7508 39.7125 80.0268 39.0067 79.6216 38.5924C79.1845 38.1507 79.2437 38.2919 79.0798 38.1462C79.0024 38.0779 78.9204 37.9641 78.8294 37.8912C78.7292 37.8138 78.6382 37.7637 78.5334 37.6727C78.3923 37.5406 77.9825 37.3175 77.9415 37.2811C77.8277 37.19 77.7412 37.1445 77.6274 37.0853L76.6576 36.5572L75.0048 35.9197C74.768 35.8605 74.7817 35.8241 74.4083 35.7513C74.3082 35.733 74.3218 35.7103 74.2262 35.6875C74.1078 35.6602 74.1169 35.6966 74.0122 35.642C73.912 35.5965 73.9576 35.5782 73.8483 35.5555C73.7663 35.5418 73.7299 35.5555 73.6434 35.5373C73.5341 35.5099 73.5888 35.4917 73.4431 35.4735L71.9588 35.214C71.5717 35.1138 70.3697 35.1411 70.1603 35H67.0368L65.8485 35.1548C65.5571 35.2049 65.2976 35.1958 65.0107 35.2277C64.8696 35.2413 64.8013 35.296 64.6601 35.3051C64.5099 35.3142 64.3551 35.2868 64.2276 35.3233L62.6886 35.5509C62.5247 35.5737 62.5156 35.6192 62.3472 35.6465C62.2015 35.6693 62.1286 35.7103 62.0057 35.7422C61.8554 35.7831 61.7598 35.733 61.5959 35.7831C61.4639 35.8287 61.35 35.815 61.2089 35.8469L60.8811 35.9243C60.7263 35.9516 60.7718 35.9835 60.5214 36.0017C60.28 36.0199 60.4166 36.0882 60.1753 36.1246L59.0962 36.375C59.0644 36.3796 58.691 36.5435 58.4224 36.5799C58.2994 36.5981 58.3495 36.589 58.2357 36.6255L56.7332 37.099C56.1458 37.2219 56.164 37.3312 55.9091 37.3904C55.6723 37.4405 55.6359 37.486 55.4264 37.5406C55.3399 37.5679 55.3263 37.5543 55.2534 37.5907L54.789 37.7911C54.6433 37.8502 54.5841 37.8411 54.4475 37.8912L53.8146 38.1507C53.7145 38.1963 53.5824 38.2464 53.4959 38.2782C53.3775 38.3238 53.2956 38.342 53.1681 38.3921L52.2529 38.7836C52.1072 38.8428 52.0617 38.8519 51.9479 38.9293C51.8204 39.0113 51.784 39.0113 51.6246 39.0568C51.5062 39.0887 51.3787 39.157 51.2558 39.2253C51.2604 39.2754 51.2695 39.3391 51.2695 39.4165C51.2649 39.7808 51.3833 40.2998 51.4561 40.6732C51.4789 40.7961 51.4835 40.9964 51.529 41.1103C51.62 41.3425 51.5609 41.2696 51.5973 41.4973C51.6246 41.6248 51.6428 41.5929 51.6656 41.6931C51.6929 41.7796 51.6792 41.8296 51.702 41.9071C51.7339 42.0163 51.7475 41.9799 51.7657 42.0846C51.8386 42.4307 51.8431 42.285 51.8978 42.4762C51.9251 42.5627 51.9069 42.6037 51.9297 42.6947C51.9388 42.7539 52.0162 42.9952 52.0435 43.0681L52.2211 43.6509C52.2575 43.7283 52.2757 43.701 52.3167 43.8011L52.5625 44.5205C52.6172 44.6617 52.6308 44.7482 52.6946 44.8984C52.7583 45.0578 52.7856 45.0532 52.8585 45.2354L53.0725 45.7726C53.1954 46.0458 53.3639 46.3418 53.4595 46.6377L54.1425 47.9217C54.2472 48.0719 54.3792 48.3907 54.4794 48.591C54.5477 48.7321 54.6114 48.7595 54.6706 48.8642L54.7116 48.8414L54.9484 48.7276C55.085 48.673 55.2261 48.5682 55.3627 48.5273C55.4492 48.4999 55.472 48.5045 55.5403 48.459C55.604 48.4134 55.6313 48.4089 55.7087 48.377L56.2187 48.1585C56.287 48.1311 56.3325 48.122 56.4008 48.0947C56.4463 48.0811 56.5192 48.0492 56.5738 48.0264L56.9244 47.8807C57.0018 47.8534 57.0337 47.858 57.1156 47.8261L57.3706 47.7168C57.4116 47.6986 57.4207 47.7031 57.4662 47.6895C57.5846 47.6576 57.6028 47.6349 57.7349 47.603C57.876 47.5711 57.8669 47.5119 58.1902 47.4436L59.0234 47.1841C59.0826 47.1613 59.0553 47.1659 59.1281 47.1568C59.2738 47.134 59.4833 47.0429 59.5015 47.0429L60.0979 46.9018C60.23 46.8836 60.1571 46.8472 60.2892 46.8381C60.4303 46.8244 60.403 46.8107 60.4849 46.7925L60.6716 46.7516C60.7445 46.7333 60.8082 46.7379 60.8811 46.7151C60.9767 46.6878 61.0268 46.7151 61.1087 46.6924C61.177 46.6741 61.218 46.6514 61.2999 46.6377C61.391 46.6241 61.3956 46.6013 61.4912 46.5876L62.3426 46.4602C62.4109 46.4419 62.4974 46.4556 62.5794 46.451C62.6568 46.4465 62.6977 46.4146 62.7751 46.4055C62.9345 46.3919 63.0802 46.3919 63.2396 46.3691L63.8952 46.2826H65.6254C65.7438 46.36 66.4085 46.3418 66.6225 46.401L67.4421 46.5421C67.524 46.5558 67.4922 46.5649 67.5559 46.5785C67.6014 46.5922 67.6242 46.5831 67.6652 46.5922C67.7289 46.6013 67.7062 46.615 67.7562 46.6377C67.8154 46.665 67.8109 46.6468 67.8746 46.6605C67.9293 46.6741 67.9202 46.6878 67.9748 46.6969C68.1842 46.7379 68.1751 46.7607 68.3072 46.788L69.2223 47.1431L69.7596 47.4345C69.8233 47.4664 69.8689 47.4937 69.9326 47.5438C69.9599 47.562 70.183 47.6895 70.265 47.7623C70.3196 47.8124 70.3697 47.8397 70.4244 47.8807C70.4744 47.9217 70.52 47.9854 70.5655 48.0219C70.6566 48.1038 70.6247 48.0264 70.8615 48.2723C71.0891 48.4999 71.4898 48.8915 71.6628 49.1647C71.7721 49.3332 72.0362 49.6746 72.109 49.8249C72.2046 50.0252 72.1728 49.8841 72.3139 50.1664L72.5097 50.5352C72.5416 50.5944 72.5552 50.6627 72.5871 50.7219C72.6554 50.8448 72.7191 50.945 72.7601 51.1089C72.8147 51.3047 72.9422 51.4822 73.0014 51.7144C73.0242 51.8009 73.0333 51.851 73.0652 51.933C73.0925 52.0013 73.0925 51.9557 73.1152 52.0286C73.1335 52.0787 73.1335 52.0878 73.1517 52.1333L73.2336 52.452C73.2518 52.5112 73.2473 52.493 73.2609 52.5704C73.2746 52.6569 73.2792 52.6159 73.2928 52.6706C73.311 52.7252 73.2974 52.748 73.3156 52.7935C73.3338 52.8618 73.3429 52.8163 73.3657 52.8846C73.3839 52.9301 73.3702 52.9529 73.3839 53.0075C73.4021 53.0621 73.4112 53.0485 73.4203 53.1031L73.4795 53.4719C73.525 53.5812 73.4977 53.6176 73.5296 53.7041L73.6798 54.6694C73.7254 54.7923 73.7162 54.7696 73.7162 54.9153C73.7162 55.0018 73.7891 55.8486 73.8392 55.9215V58.3392C73.7663 58.3893 73.8119 58.6351 73.7937 58.7308C73.7572 58.9584 73.7663 59.2771 73.7572 59.3136C73.739 59.3955 73.7162 59.3363 73.7162 59.4775L73.525 61.0028L73.5797 60.9982C73.8802 60.9754 73.821 60.939 74.0031 60.9071L74.3992 60.8161C74.5631 60.7751 74.6997 60.7888 74.8545 60.7387C75.0549 60.6749 75.1641 60.7387 75.3463 60.6886C75.492 60.6522 75.5739 60.6066 75.7515 60.5748C75.9473 60.5429 75.9609 60.4883 76.1613 60.4655L77.9916 60.1923C78.1419 60.1468 78.3285 60.1832 78.5016 60.1695C78.67 60.1559 78.7565 60.0967 78.925 60.0785C79.2619 60.0375 79.5761 60.0466 79.9176 59.992L81.3336 59.8053H84.6482Z" fill="#747473"></path><path fill-rule="evenodd" clip-rule="evenodd" d="M65.3659 85.5577H66.3448C66.5497 85.4165 67.3146 85.4848 67.6515 85.4074C67.7972 85.3756 67.82 85.3892 67.9748 85.3756C68.1478 85.3664 68.1114 85.33 68.2617 85.2799C68.3482 85.2526 68.4939 85.2526 68.594 85.2344C68.7033 85.2116 68.808 85.1934 68.9219 85.1707C69.0903 85.1342 68.9765 85.116 69.1814 85.0887L69.7642 84.9385C69.9053 84.8884 69.9554 84.8565 70.0465 84.8246L71.1256 84.4148L72.5461 83.6363C72.6372 83.568 72.6463 83.527 72.751 83.4632C73.3019 83.1309 74.1397 82.4889 74.6588 82.029C74.809 81.897 74.8636 81.8241 75.0412 81.683C75.3235 81.4599 76.6075 80.0757 76.8215 79.7707C76.9353 79.6022 77.0765 79.5294 77.1675 79.3882C77.295 79.1924 77.4817 78.9193 77.6501 78.7553C77.7594 78.6506 77.7139 78.6279 77.8004 78.5231C77.8596 78.4412 77.8915 78.4412 77.9598 78.3365L78.2375 77.8811C78.3786 77.6945 78.3741 77.7491 78.5653 77.4486L79.4076 76.0599C79.4623 75.9643 79.5124 75.9233 79.5624 75.8368C79.7491 75.5226 80.1452 74.6894 80.3365 74.3753C80.4594 74.1795 80.4731 74.1066 80.5778 73.8881C80.6188 73.8061 80.6643 73.7151 80.7053 73.6331C80.8601 73.3189 80.7599 73.5921 80.942 73.1368C81.0832 72.7862 81.2881 72.4675 81.4019 72.1397C81.4201 72.0942 81.4383 72.0441 81.4565 71.9894C81.5294 71.7618 81.4839 71.8483 81.6341 71.6024L81.9346 70.792C81.9756 70.669 82.0393 70.6372 82.1532 70.2684C82.1941 70.1363 82.267 69.8813 82.3353 69.7265C82.3808 69.6173 82.3945 69.5672 82.4582 69.467C82.5311 69.3395 82.4946 69.3122 82.5447 69.1756L82.7997 68.3469C83.0456 67.8962 82.909 68.0419 82.9773 67.7869C82.9864 67.755 83.0592 67.5547 83.0729 67.5092L83.1958 67.0584C83.2186 66.9856 83.2095 66.9765 83.2413 66.9082C83.2914 66.7807 83.296 66.8399 83.337 66.6577C83.3688 66.5075 83.3916 66.5439 83.4144 66.339C83.4326 66.1387 83.4553 66.2298 83.4872 66.0795C83.5009 66.0067 83.4918 65.9793 83.51 65.9065C83.5919 65.5832 83.6693 65.5787 83.7058 65.1689L83.9334 64.2947C83.9698 64.1581 83.9289 64.0944 83.9744 63.9532C84.0199 63.8166 84.0154 63.8394 84.0427 63.6755C84.07 63.5161 84.0837 63.4888 84.1292 63.3795C84.152 63.3158 84.2385 62.8195 84.2385 62.7466C84.2339 62.5008 84.2476 62.5918 84.3022 62.4416C84.3386 62.3232 84.3022 62.2003 84.325 62.0773C84.3523 61.8998 84.3842 62.0181 84.3978 61.7905L84.4434 61.4536C84.4252 61.4444 84.4115 61.4399 84.4024 61.4308H80.8783L79.5442 61.6084C79.2164 61.6584 78.9205 61.6493 78.6017 61.6858C78.4424 61.704 78.3604 61.7632 78.2056 61.7723C78.0372 61.7859 77.8596 61.7541 77.7184 61.795L75.9883 62.0546C75.797 62.0773 75.7879 62.1274 75.6012 62.1593C75.4328 62.1866 75.3508 62.2276 75.2188 62.2686C75.0458 62.3095 74.9411 62.2549 74.7544 62.3141C74.6041 62.3596 74.4766 62.346 74.3173 62.3869L73.9485 62.4734C73.7755 62.5008 73.8301 62.5372 73.5478 62.5554C73.2928 62.5782 73.4067 62.6465 73.2063 62.6874L73.1244 62.9879C73.1062 63.2156 73.0652 63.2156 73.0151 63.3932C73.006 63.4342 73.0105 63.4524 73.006 63.4933C72.9878 63.5753 72.9741 63.5252 72.965 63.6345C72.9513 63.7483 72.9422 63.7255 72.9195 63.8121C72.8967 63.9122 72.8967 63.8804 72.8694 63.9487C72.8512 63.9896 72.8557 63.9942 72.8466 64.0352L72.7738 64.281C72.7692 64.3083 72.7282 64.4176 72.7237 64.4358C72.6873 64.577 72.7601 64.495 72.6235 64.7454L72.4824 65.2053C72.4551 65.2827 72.4778 65.2964 72.4323 65.3647C72.4004 65.4239 72.3913 65.4466 72.3685 65.5104C72.3321 65.5969 72.2866 65.738 72.2638 65.8109C72.2046 66.0158 72.1682 66.034 72.1454 66.1023L71.977 66.5485C71.895 66.6851 71.9223 66.6395 71.8814 66.7625C71.8723 66.7943 71.8586 66.8217 71.8495 66.8444C71.7858 67.0266 71.6765 67.2041 71.5945 67.3999C71.4944 67.6503 71.549 67.5001 71.4625 67.6731C71.4443 67.7186 71.417 67.7687 71.3942 67.8142C71.335 67.9326 71.3259 67.9736 71.2621 68.0829C71.1529 68.2559 70.9343 68.7203 70.8342 68.8933C70.8023 68.9389 70.775 68.9662 70.7476 69.0163L70.2787 69.7857C70.174 69.9542 70.174 69.9223 70.1011 70.0225L69.9463 70.2775C69.9053 70.3367 69.8871 70.3367 69.8552 70.3776C69.8097 70.4368 69.8325 70.4505 69.7733 70.5097C69.6777 70.6007 69.5775 70.751 69.5046 70.8603C69.4546 70.9377 69.3772 70.9786 69.3134 71.0697C69.195 71.2427 68.4848 72.0076 68.33 72.1306C68.2298 72.208 68.1979 72.249 68.116 72.3218C67.8291 72.5768 67.3647 72.9319 67.0596 73.114C67.0004 73.1505 66.9959 73.1732 66.9458 73.2142L66.1581 73.6422L65.5617 73.8699C65.5116 73.8881 65.4843 73.9063 65.4069 73.9336L65.0836 74.0156C64.9698 74.0292 65.0335 74.0429 64.9379 74.0611C64.8787 74.0748 64.8195 74.0839 64.7603 74.0975C64.7011 74.1066 64.6192 74.1066 64.5736 74.1248C64.4917 74.1522 64.5145 74.1704 64.4143 74.1749C64.3323 74.1795 64.3187 74.1749 64.2367 74.1931C64.05 74.2341 63.6266 74.1977 63.5128 74.2751H62.971C62.9027 74.2296 62.8708 74.2478 62.7752 74.2432C62.6841 74.2387 62.6477 74.2205 62.5475 74.2205C62.1013 74.2205 62.2607 74.1749 62.1059 74.1749C61.9647 74.1704 61.4092 74.1021 61.2635 74.0383C61.1634 73.9973 61.1679 74.0292 61.0678 74.011C61.0131 74.0019 61.0222 73.9928 60.9721 73.9791C60.9266 73.9655 60.9084 73.9746 60.8629 73.9609C60.8219 73.9518 60.8401 73.9427 60.7809 73.9291C60.535 73.879 60.4576 73.8243 60.3985 73.8152L59.9204 73.6786C59.8111 73.6468 59.8339 73.6331 59.7428 73.6058C59.6791 73.5876 59.6381 73.5739 59.5652 73.5511C59.5106 73.5329 59.5334 73.5375 59.4787 73.5193C59.3558 73.4828 59.3012 73.4328 59.2238 73.4054C59.1463 73.3781 59.1099 73.3736 59.0371 73.3417C58.9824 73.3189 58.9141 73.3053 58.855 73.2825C58.641 73.1869 58.6865 73.1823 58.3405 73.0549C58.1902 72.9957 57.6939 72.7088 57.5346 72.6451C57.4526 72.6132 57.4389 72.5904 57.3797 72.554C57.2887 72.4948 57.1703 72.4493 57.0519 72.3856C56.9518 72.3355 56.8561 72.2581 56.7605 72.2034C56.7104 72.1761 56.6513 72.1624 56.5921 72.126C56.5329 72.085 56.5147 72.0532 56.4509 72.0168L56.1413 71.8346C56.0366 71.7663 55.941 71.7299 55.8362 71.6479C55.7771 71.607 55.768 71.5796 55.7088 71.5478C55.645 71.5068 55.6131 71.4931 55.554 71.4522L54.9712 71.0515C54.9029 71.0105 54.8619 70.9741 54.8164 70.9377L54.6661 71.0333C54.5614 71.1061 54.4749 71.1517 54.3656 71.2336C54.2427 71.3292 54.2062 71.3884 54.0924 71.4658C53.8511 71.6343 53.7236 71.698 53.5142 71.8893C53.4231 71.9712 53.3184 72.0167 53.2228 72.0942C53.1226 72.1761 53.0725 72.2581 52.9632 72.34C52.7811 72.4857 52.599 72.5813 52.4123 72.7589C52.2939 72.8682 52.2939 72.8955 52.1391 72.9911L51.315 73.6695C51.1466 73.8152 50.9826 74.0065 50.8187 74.1704C50.6548 74.3343 50.4818 74.4572 50.3088 74.6302C49.8808 75.0628 48.7516 76.2147 48.3965 76.6973C48.31 76.8157 48.2644 76.8521 48.1597 76.9569C48.0641 77.0525 48.014 77.1526 47.9503 77.2528L47.8865 77.3439L48.1961 77.6171C48.3054 77.7081 48.3555 77.699 48.4466 77.781C48.524 77.8538 48.5832 77.9358 48.6651 78.0086C48.7471 78.0769 48.8336 78.1134 48.9292 78.1908C49.0294 78.2727 49.0612 78.3365 49.1568 78.4093C49.3891 78.5869 49.4346 78.5823 49.6577 78.8009C49.7351 78.8737 49.8216 78.8874 49.9263 78.9739L50.409 79.3518C50.6138 79.4929 50.6958 79.5931 50.9189 79.7343L51.9707 80.4628C52.0754 80.5356 52.1391 80.5584 52.253 80.6267C52.3622 80.6904 52.3713 80.7359 52.4761 80.8179C52.6673 80.959 52.8403 81.0228 53.0315 81.1503L53.5916 81.4826C53.7054 81.5418 53.7418 81.6056 53.8465 81.6693C53.9513 81.7376 54.056 81.7695 54.147 81.8196C54.3201 81.9106 54.4931 82.0472 54.6798 82.1474C54.8892 82.2567 55.1078 82.3432 55.2671 82.4434C55.3764 82.5116 55.3991 82.5572 55.5448 82.6164C55.8362 82.7256 56.7287 83.2447 57.0018 83.3494C57.6302 83.5862 57.5482 83.5953 57.9352 83.7592C58.0354 83.8047 58.1629 83.832 58.263 83.873C58.3905 83.9277 58.4543 83.9368 58.6 83.9869C58.7411 84.0369 58.8322 84.1234 59.0553 84.1917C59.16 84.2191 59.119 84.2191 59.2192 84.2509C59.3421 84.2919 59.415 84.3147 59.5379 84.3511C59.7018 84.3966 59.6563 84.424 59.8521 84.4786L60.7172 84.7199C60.8264 84.7381 60.963 84.8383 61.4092 84.9339C61.514 84.9521 61.4821 84.9703 61.5595 84.9931C61.6414 85.0159 61.6779 85.0022 61.7553 85.0204C61.8463 85.0432 61.8327 85.0614 61.9283 85.0796C62.1059 85.116 62.1013 85.0523 62.288 85.1297C62.543 85.2435 63.5492 85.371 63.8042 85.3756C64.0865 85.3756 63.7996 85.4621 64.601 85.4575C64.7876 85.4575 64.8468 85.4894 65.0107 85.4985C65.1838 85.5076 65.2429 85.4757 65.3659 85.5577Z" fill="#AF3469"></path></g><defs><clipPath id="clip0"><rect width="50" height="50.5576" fill="white" transform="translate(35 35)"></rect></clipPath></defs></svg>