<svg xmlns="http://www.w3.org/2000/svg" width="18" height="12" viewBox="0 0 18 12" fill="none"><path d="M16.125 0H1.87499C0.8415 0 0 0.8415 0 1.87502V10.125C0 11.1585 0.8415 12 1.87499 12H16.125C17.1585 12 18 11.1585 18 10.125V1.87502C18 0.8415 17.1585 0 16.125 0ZM17.25 10.125C17.25 10.7453 16.7453 11.25 16.125 11.25H1.87499C1.25473 11.25 0.749988 10.7453 0.749988 10.125V1.87502C0.749988 1.25476 1.25473 0.750023 1.87499 0.750023H16.125C16.7452 0.750023 17.25 1.25476 17.25 1.87502V10.125H17.25Z" fill="#D13D73"></path><path d="M16.434 1.66351C16.3177 1.49251 16.0845 1.44976 15.9127 1.56603L9.762 5.77425C9.2985 6.09076 8.7 6.09076 8.23724 5.77425L2.08648 1.56599C1.91474 1.44825 1.68148 1.49248 1.56522 1.66348C1.44895 1.83448 1.49248 2.06774 1.66348 2.18474L7.81424 6.39297C8.17424 6.63973 8.5875 6.7627 8.99999 6.7627C9.41248 6.7627 9.82574 6.63969 10.1857 6.39297L16.3365 2.18474C16.5075 2.06774 16.551 1.83451 16.434 1.66351Z" fill="#D13D73"></path><path d="M6.66298 6.13434C6.53023 5.97611 6.29324 5.95434 6.13423 6.08636L1.63423 9.83637C1.47522 9.96912 1.45349 10.2061 1.58624 10.3651C1.66049 10.4544 1.76698 10.5001 1.87498 10.5001C1.95974 10.5001 2.04524 10.4716 2.11499 10.4131L6.61499 6.66309C6.774 6.53034 6.79573 6.29332 6.66298 6.13434Z" fill="#D13D73"></path><path d="M16.3657 9.83631L11.8657 6.0863C11.706 5.95428 11.4697 5.97605 11.337 6.13428C11.2042 6.29403 11.226 6.53028 11.385 6.66303L15.885 10.413C15.9554 10.4715 16.0402 10.5001 16.125 10.5001C16.2322 10.5001 16.3387 10.4543 16.4137 10.3651C16.5465 10.2053 16.5247 9.96906 16.3657 9.83631Z" fill="#D13D73"></path></svg>