<svg width="140" height="140" viewBox="0 0 140 140" fill="none" xmlns="http://www.w3.org/2000/svg">
<circle cx="70" cy="70" r="69.5" fill="white" stroke="#E0E0E0"/>
<circle cx="70" cy="70" r="59.5" fill="white" stroke="#828282"/>
<path d="M97.646 62.822C97.6497 61.5067 97.2187 60.2271 96.42 59.182C96.0802 58.7363 95.8467 58.2188 95.7374 57.6691C95.628 57.1193 95.6457 56.5519 95.789 56.01C96.1275 54.7379 96.0357 53.3896 95.528 52.175C95.0282 50.958 94.1401 49.9402 93.002 49.28C92.5176 48.9984 92.1039 48.6098 91.7925 48.144C91.4811 47.6781 91.2801 47.1473 91.205 46.592C91.031 45.2874 90.4305 44.0769 89.497 43.149C88.5697 42.2159 87.3599 41.6155 86.056 41.441C85.5005 41.3662 84.9694 41.1656 84.5032 40.8543C84.037 40.5431 83.6481 40.1294 83.366 39.645C82.706 38.5066 81.6882 37.6181 80.471 37.118C79.2568 36.6119 77.9098 36.5198 76.638 36.856C76.0961 36.9981 75.529 37.0153 74.9795 36.9062C74.43 36.797 73.9125 36.5645 73.466 36.226C72.4203 35.4271 71.14 34.9961 69.824 35C68.5081 34.996 67.2276 35.427 66.182 36.226C65.7357 36.5643 65.2184 36.7969 64.6691 36.9062C64.1198 37.0155 63.5529 36.9987 63.011 36.857C61.7391 36.5201 60.3916 36.6119 59.177 37.118C57.9599 37.6178 56.9421 38.5058 56.282 39.644C55.9999 40.1284 55.611 40.542 55.1448 40.8532C54.6786 41.1645 54.1475 41.3652 53.592 41.44C52.2877 41.6143 51.0776 42.2147 50.15 43.148C49.2166 44.0752 48.6157 45.285 48.441 46.589C48.3663 47.1446 48.1657 47.6757 47.8544 48.1419C47.5431 48.6081 47.1295 48.9971 46.645 49.279C45.5066 49.9392 44.6183 50.9569 44.118 52.174C43.6113 53.3881 43.5195 54.7355 43.857 56.007C44.0006 56.5488 44.0184 57.1162 43.9092 57.666C43.8001 58.2157 43.5667 58.7332 43.227 59.179C42.4279 60.2247 41.9966 61.505 42 62.821C42 64.149 42.424 65.408 43.226 66.463C43.916 67.373 44.146 68.53 43.857 69.634C43.5185 70.9061 43.6099 72.2543 44.117 73.469C44.6176 74.686 45.5059 75.7036 46.644 76.364C47.1284 76.6457 47.5421 77.0343 47.8536 77.5001C48.165 77.9659 48.3659 78.4967 48.441 79.052C48.6155 80.3567 49.2164 81.5672 50.15 82.495C51.077 83.428 52.2864 84.0285 53.59 84.203C54.146 84.2776 54.6776 84.4782 55.1442 84.7897C55.6108 85.1011 56 85.5151 56.282 86C56.9421 87.1384 57.9599 88.0268 59.177 88.527C59.637 88.717 60.112 88.849 60.597 88.921V103.975C60.597 104.165 60.65 104.352 60.7501 104.514C60.8502 104.676 60.9934 104.807 61.1636 104.892C61.3339 104.977 61.5245 105.013 61.7141 104.996C61.9037 104.979 62.0847 104.909 62.237 104.795L69.825 99.104L77.412 104.794C77.5642 104.909 77.7454 104.979 77.9353 104.996C78.1252 105.014 78.3162 104.978 78.4867 104.893C78.6573 104.808 78.8007 104.676 78.9007 104.514C79.0008 104.352 79.0535 104.165 79.053 103.974V88.922C79.5403 88.8489 80.0168 88.7166 80.472 88.528C81.6888 88.0278 82.7065 87.1398 83.367 86.002C83.6488 85.5177 84.0374 85.1041 84.5032 84.7927C84.969 84.4813 85.4998 84.2803 86.055 84.205C87.3598 84.0307 88.5703 83.4299 89.498 82.496C90.4309 81.5689 91.0314 80.3596 91.206 79.056C91.2808 78.5005 91.4815 77.9694 91.7927 77.5032C92.104 77.037 92.5176 76.6481 93.002 76.366C94.1405 75.7056 95.0289 74.6875 95.529 73.47C96.0358 72.256 96.1275 70.9086 95.79 69.637C95.6465 69.0952 95.6286 68.5278 95.7378 67.9781C95.847 67.4284 96.0803 66.9108 96.42 66.465C97.2193 65.4195 97.6506 64.1391 97.647 62.823L97.646 62.822ZM70.439 97.002C70.2616 96.869 70.0458 96.797 69.824 96.797C69.6022 96.797 69.3864 96.869 69.209 97.002L62.646 101.924V88.87C62.768 88.846 62.889 88.819 63.01 88.787C63.5518 88.6451 64.1187 88.628 64.668 88.7371C65.2173 88.8463 65.7347 89.0788 66.181 89.417C67.2269 90.2165 68.5076 90.6479 69.824 90.644C71.1393 90.6476 72.4189 90.2166 73.464 89.418C73.9102 89.0794 74.4275 88.8467 74.9769 88.7374C75.5262 88.6281 76.0932 88.6451 76.635 88.787C76.757 88.819 76.879 88.846 77.001 88.87V101.923L70.439 97.001V97.002ZM94.786 65.224C94.2577 65.9173 93.8948 66.7222 93.725 67.5771C93.5551 68.432 93.5829 69.3144 93.806 70.157C94.028 71.002 93.968 71.876 93.634 72.685C93.3041 73.488 92.718 74.1595 91.967 74.595C91.2138 75.0331 90.5705 75.6376 90.0865 76.3622C89.6024 77.0868 89.2903 77.9124 89.174 78.776C89.059 79.6363 88.6627 80.4344 88.047 81.046C87.4349 81.6615 86.6365 82.0573 85.776 82.172C84.9125 82.2887 84.0871 82.601 83.3626 83.0852C82.6382 83.5695 82.034 84.2127 81.596 84.966C81.156 85.721 80.496 86.296 79.686 86.632C78.8846 86.9661 77.9953 87.0265 77.156 86.804C76.3135 86.5839 75.4321 86.5579 74.5781 86.728C73.7241 86.8981 72.9198 87.2599 72.226 87.786C71.5363 88.3127 70.6918 88.5967 69.824 88.594C68.948 88.594 68.118 88.314 67.421 87.784C66.4198 87.0287 65.2002 86.6191 63.946 86.617C63.456 86.617 62.966 86.68 62.489 86.804C61.652 87.024 60.764 86.964 59.961 86.632C59.1579 86.3023 58.4864 85.7162 58.051 84.965C57.6128 84.2119 57.0083 83.5687 56.2837 83.0847C55.5592 82.6006 54.7336 82.2885 53.87 82.172C53.0097 82.0571 52.2116 81.6609 51.6 81.045C50.985 80.433 50.5892 79.635 50.474 78.775C50.3575 77.9112 50.0451 77.0855 49.5607 76.3609C49.0763 75.6362 48.4327 75.0319 47.679 74.594C46.9288 74.1581 46.3435 73.4867 46.014 72.684C45.6796 71.883 45.6191 70.9939 45.842 70.155C46.0649 69.3125 46.0923 68.4301 45.9221 67.5753C45.7519 66.7205 45.3886 65.916 44.86 65.223C44.3336 64.5339 44.0495 63.6902 44.052 62.823C44.052 61.947 44.332 61.116 44.862 60.42C45.3902 59.7268 45.753 58.9222 45.9228 58.0674C46.0927 57.2127 46.065 56.3305 45.842 55.488C45.6193 54.6494 45.6797 53.7607 46.014 52.96C46.349 52.151 46.924 51.491 47.681 51.05C48.4342 50.6119 49.0774 50.0074 49.5615 49.2828C50.0455 48.5582 50.3576 47.7326 50.474 46.869C50.5892 46.0088 50.9854 45.2108 51.601 44.599C52.213 43.9837 53.0109 43.5875 53.871 43.472C54.7346 43.3555 55.5601 43.0432 56.2845 42.559C57.009 42.0748 57.6132 41.4314 58.051 40.678C58.4868 39.9275 59.1582 39.3418 59.961 39.012C60.7628 38.6792 61.6516 38.6188 62.491 38.84C63.3337 39.0608 64.2156 39.0872 65.0699 38.9173C65.9243 38.7473 66.7289 38.3855 67.423 37.859C68.1121 37.3326 68.9558 37.0486 69.823 37.051C70.699 37.051 71.529 37.331 72.226 37.86C73.2272 38.6157 74.4467 39.0256 75.701 39.028C76.191 39.028 76.681 38.965 77.158 38.84C77.9969 38.6196 78.885 38.6803 79.686 39.013C80.495 39.348 81.156 39.923 81.596 40.679C82.0341 41.4324 82.6386 42.0757 83.3631 42.5599C84.0877 43.0442 84.9134 43.3565 85.777 43.473C86.643 43.591 87.427 43.98 88.047 44.599C88.6626 45.2112 89.0588 46.0095 89.174 46.87C89.2906 47.7336 89.6029 48.559 90.0871 49.2835C90.5714 50.0079 91.2147 50.6121 91.968 51.05C92.722 51.491 93.298 52.151 93.634 52.96C93.968 53.769 94.028 54.643 93.805 55.49C93.5823 56.3325 93.555 57.2146 93.7252 58.0692C93.8954 58.9238 94.2586 59.7282 94.787 60.421C95.315 61.116 95.595 61.947 95.595 62.822C95.595 63.698 95.315 64.528 94.786 65.224Z" fill="#D13D73"/>
<path d="M87.552 58.477C86.5775 54.5499 84.3333 51.0546 81.168 48.534C77.9508 45.9552 73.9472 44.5562 69.824 44.57C65.661 44.57 61.738 45.94 58.479 48.534C55.3142 51.0547 53.0703 54.55 52.096 58.477C52.0587 58.628 52.0562 58.7856 52.0888 58.9377C52.1214 59.0898 52.1883 59.2325 52.2843 59.3549C52.3803 59.4774 52.5029 59.5763 52.6429 59.6442C52.7828 59.7122 52.9365 59.7473 53.092 59.747H86.556C86.7115 59.747 86.8648 59.7116 87.0046 59.6435C87.1443 59.5755 87.2667 59.4765 87.3626 59.3542C87.4585 59.2318 87.5252 59.0893 87.5579 58.9373C87.5905 58.7853 87.5882 58.6279 87.551 58.477H87.552ZM54.454 57.695C55.5249 54.4667 57.587 51.6585 60.3466 49.6702C63.1062 47.6819 66.4227 46.6149 69.824 46.621C76.863 46.621 83.006 51.113 85.194 57.695H54.454ZM66.747 62.822C66.7531 62.9604 66.7312 63.0986 66.6824 63.2283C66.6337 63.358 66.5591 63.4765 66.4634 63.5766C66.3676 63.6767 66.2525 63.7564 66.1251 63.8108C65.9977 63.8652 65.8606 63.8933 65.722 63.8933C65.5835 63.8933 65.4464 63.8652 65.319 63.8108C65.1915 63.7564 65.0765 63.6767 64.9807 63.5766C64.8849 63.4765 64.8104 63.358 64.7616 63.2283C64.7129 63.0986 64.6909 62.9604 64.697 62.822C64.7087 62.558 64.8218 62.3087 65.0127 62.126C65.2037 61.9433 65.4578 61.8413 65.722 61.8413C65.9863 61.8413 66.2404 61.9433 66.4313 62.126C66.6223 62.3087 66.7354 62.558 66.747 62.822ZM70.849 62.822C70.8533 62.9594 70.83 63.0962 70.7804 63.2244C70.7308 63.3525 70.6559 63.4694 70.5603 63.5681C70.4646 63.6668 70.3501 63.7453 70.2235 63.7989C70.097 63.8524 69.961 63.88 69.8235 63.88C69.6861 63.88 69.5501 63.8524 69.4235 63.7989C69.2969 63.7453 69.1824 63.6668 69.0868 63.5681C68.9911 63.4694 68.9163 63.3525 68.8667 63.2244C68.8171 63.0962 68.7937 62.9594 68.798 62.822C68.8063 62.5556 68.918 62.3028 69.1094 62.1173C69.3009 61.9318 69.557 61.828 69.8235 61.828C70.0901 61.828 70.3462 61.9318 70.5376 62.1173C70.729 62.3028 70.8407 62.5556 70.849 62.822ZM74.951 62.822C74.951 63.0941 74.8429 63.3551 74.6505 63.5475C74.4581 63.7399 74.1971 63.848 73.925 63.848C73.6529 63.848 73.3919 63.7399 73.1995 63.5475C73.0071 63.3551 72.899 63.0941 72.899 62.822C72.899 62.5499 73.0071 62.2889 73.1995 62.0965C73.3919 61.9041 73.6529 61.796 73.925 61.796C74.1971 61.796 74.4581 61.9041 74.6505 62.0965C74.8429 62.2889 74.951 62.5499 74.951 62.822ZM52.285 66.291C52.189 66.4133 52.1221 66.5558 52.0894 66.7077C52.0566 66.8597 52.0589 67.0171 52.096 67.168C53.0705 71.0946 55.3144 74.5896 58.479 77.11C61.6965 79.6891 65.7005 81.0881 69.824 81.074C73.987 81.074 77.909 79.704 81.168 77.11C84.3328 74.5896 86.5766 71.0947 87.551 67.168C87.5884 67.0171 87.5909 66.8596 87.5583 66.7076C87.5257 66.5555 87.459 66.4129 87.3631 66.2905C87.2672 66.1681 87.1447 66.0691 87.0048 66.0011C86.865 65.9331 86.7115 65.8979 86.556 65.898H53.092C52.777 65.898 52.48 66.043 52.285 66.291ZM85.194 67.949C84.1231 71.1773 82.0611 73.9855 79.3015 75.9738C76.5418 77.9621 73.2253 79.0291 69.824 79.023C66.4228 79.029 63.1063 77.9619 60.3467 75.9736C57.5871 73.9853 55.5251 71.1772 54.454 67.949H85.194Z" fill="#D13D73"/>
<path d="M69.824 40.469C64.6375 40.4739 59.6137 42.2805 55.612 45.58C55.5082 45.6657 55.4222 45.771 55.359 45.8899C55.2958 46.0089 55.2567 46.139 55.2438 46.2731C55.231 46.4071 55.2446 46.5424 55.284 46.6712C55.3235 46.7999 55.3878 46.9196 55.4735 47.0235C55.5592 47.1274 55.6645 47.2134 55.7834 47.2766C55.9024 47.3397 56.0326 47.3789 56.1666 47.3917C56.3006 47.4046 56.4359 47.3909 56.5647 47.3515C56.6934 47.3121 56.8132 47.2477 56.917 47.162C60.5513 44.1655 65.1137 42.5246 69.824 42.52C81.019 42.52 90.126 51.627 90.126 62.822C90.126 74.017 81.019 83.125 69.824 83.125C58.629 83.125 49.521 74.017 49.521 62.822C49.5257 58.1157 51.164 53.5569 54.156 49.924C54.329 49.7142 54.4115 49.4444 54.3854 49.1737C54.3593 48.9031 54.2268 48.6539 54.017 48.481C53.8072 48.3081 53.5374 48.2256 53.2667 48.2517C52.9961 48.2777 52.747 48.4102 52.574 48.62C49.2793 52.6201 47.4753 57.6398 47.47 62.822C47.47 75.148 57.498 85.176 69.824 85.176C82.149 85.176 92.177 75.148 92.177 62.822C92.177 50.497 82.149 40.469 69.824 40.469Z" fill="#D13D73"/>
</svg>
