<svg xmlns="http://www.w3.org/2000/svg" width="20" height="20" viewBox="0 0 20 20" fill="none"><path d="M9.98611 0C5.94437 0 2.65625 3.28812 2.65625 7.32986C2.65625 9.18655 3.82614 11.8098 6.13358 15.127C7.82013 17.5517 9.47891 19.4281 9.5488 19.5068L9.98611 20L10.4236 19.5068C10.4933 19.4281 12.1521 17.5517 13.8388 15.127C16.1461 11.8098 17.3161 9.18655 17.3161 7.32986C17.3161 3.28812 14.0279 0 9.98611 0V0ZM12.8853 14.4498C11.7453 16.0898 10.5931 17.5012 9.98611 18.2213C9.38065 17.5032 8.23273 16.0971 7.09351 14.4592C4.9556 11.3858 3.82553 8.92044 3.82553 7.32986C3.82553 3.93295 6.5892 1.16928 9.98611 1.16928C13.3832 1.16928 16.1467 3.93295 16.1467 7.32986C16.1467 8.91876 15.0189 11.3808 12.8853 14.4498Z" fill="#C42F65"></path><path d="M9.98611 2.70905C7.60071 2.70905 5.6601 4.64966 5.6601 7.03506C5.6601 9.42047 7.60071 11.3612 9.98611 11.3612C12.3717 11.3612 14.3123 9.42047 14.3123 7.03506C14.3123 4.64966 12.3717 2.70905 9.98611 2.70905V2.70905ZM9.98611 10.192C8.24554 10.192 6.82938 8.77579 6.82938 7.03506C6.82938 5.29449 8.24554 3.87833 9.98611 3.87833C11.7268 3.87833 13.143 5.29449 13.143 7.03506C13.143 8.77579 11.7268 10.192 9.98611 10.192Z" fill="#C42F65"></path></svg>