<svg width="26" height="32" viewBox="0 0 26 32" fill="none" xmlns="http://www.w3.org/2000/svg">
<path d="M25.1333 23.8415H22.5333V9.67878H25.1333C25.2794 9.67833 25.4231 9.63764 25.5509 9.56048C25.6787 9.48333 25.7865 9.37222 25.8644 9.23748C25.9422 9.10275 25.9875 8.94876 25.9961 8.78983C26.0046 8.63091 25.9762 8.4722 25.9133 8.32847L22.4467 0.528795C22.3752 0.369871 22.2642 0.236029 22.1263 0.142532C21.9884 0.0490359 21.8291 -0.000351121 21.6667 1.87916e-06H4.3333C4.1709 -0.000351121 4.0117 0.0490359 3.8737 0.142532C3.7358 0.236029 3.6248 0.369871 3.5533 0.528795L0.0867004 8.32847C0.0238004 8.4722 -0.00459947 8.63091 0.00390053 8.78983C0.0125005 8.94876 0.0577991 9.10275 0.135599 9.23748C0.213499 9.37222 0.3213 9.48333 0.4491 9.56048C0.5769 9.63764 0.720599 9.67833 0.866699 9.67878H3.4667V23.8415H0.866699C0.636799 23.8415 0.416399 23.941 0.253799 24.1181C0.0912994 24.2952 0 24.5353 0 24.7858V27.2786C0 27.5291 0.0912994 27.7693 0.253799 27.9463C0.416399 28.1234 0.636799 28.2229 0.866699 28.2229H3.4667V31.0557C3.4667 31.3062 3.558 31.5463 3.7205 31.7234C3.883 31.9005 4.1035 32 4.3333 32C4.5632 32 4.7836 31.9005 4.9462 31.7234C5.1087 31.5463 5.2 31.3062 5.2 31.0557V28.2229H20.8V31.0557C20.8 31.3062 20.8913 31.5463 21.0538 31.7234C21.2164 31.9005 21.4368 32 21.6667 32C21.8965 32 22.117 31.9005 22.2795 31.7234C22.442 31.5463 22.5333 31.3062 22.5333 31.0557V28.2229H25.1333C25.3632 28.2229 25.5836 28.1234 25.7462 27.9463C25.9087 27.7693 26 27.5291 26 27.2786V24.7858C26 24.5353 25.9087 24.2952 25.7462 24.1181C25.5836 23.941 25.3632 23.8415 25.1333 23.8415V23.8415ZM13.8667 23.8415V18.0639H16.4667V23.8415H13.8667ZM9.5333 23.8415V18.0639H12.1333V23.8415H9.5333ZM18.2 18.0639H20.8V23.8415H18.2V18.0639ZM4.8793 1.88854H21.1207L23.7207 7.79024H2.2533L4.8793 1.88854V1.88854ZM20.8 9.67878V16.1754H5.2V9.67878H20.8ZM5.2 18.0639H7.8V23.8415H5.2V18.0639V18.0639ZM24.2667 26.3344H1.7333V25.73H24.2667V26.3344Z" fill="#D13D73"/>
</svg>
