<svg width="140" height="140" viewBox="0 0 140 140" fill="none" xmlns="http://www.w3.org/2000/svg">
<circle cx="70" cy="70" r="69.5" fill="white" stroke="#E0E0E0"/>
<circle cx="70" cy="70" r="59.5" fill="white" stroke="#828282"/>
<path fill-rule="evenodd" clip-rule="evenodd" d="M59.7424 49.9538L59.4055 50.1405C59.187 50.227 59.1232 50.2953 58.9547 50.3636C58.7863 50.4319 58.7908 50.4 58.6588 50.5093C58.5176 50.6231 56.7283 51.5383 56.4005 51.7841C56.3003 51.857 56.2639 51.9071 56.1409 51.9617C55.8177 52.1074 55.6446 52.285 55.3259 52.4626C55.2166 52.5263 55.1575 52.5354 55.0482 52.6265L54.5246 52.9953C54.4016 53.0818 54.3561 53.0818 54.2514 53.1683C54.133 53.2776 53.9281 53.4142 53.7506 53.528C53.6595 53.5917 53.5821 53.6327 53.4865 53.7056C53.3772 53.7921 53.3453 53.8421 53.2452 53.9104C53.0266 54.0607 52.9173 54.1153 52.7307 54.2838C52.6441 54.3612 52.5531 54.4022 52.4666 54.4705C52.3801 54.5433 52.3391 54.6116 52.2389 54.689C52.0796 54.8165 51.9157 54.8985 51.7517 55.0578C51.647 55.158 51.6425 55.1808 51.5104 55.2673L50.7774 55.8683C50.6271 56.0003 50.4814 56.1642 50.3357 56.3145C50.19 56.4602 50.0398 56.5695 49.885 56.7243C49.5025 57.1067 48.5008 58.1266 48.1867 58.5546C48.1047 58.6639 48.0683 58.6958 47.9727 58.7868C47.8907 58.8733 47.8452 58.9598 47.7905 59.0509L46.8617 60.3531C46.7934 60.4715 46.798 60.5079 46.7115 60.6172C46.5794 60.7856 46.4975 61.0042 46.3791 61.1681C46.2607 61.332 45.8782 62.1197 45.7872 62.3564L45.6005 62.8391C45.432 63.2488 45.4548 63.2762 45.3774 63.4811C45.3364 63.5903 45.3546 63.5311 45.3319 63.6495L45.1361 64.3553C45.0496 64.938 45.004 65.3478 45.004 65.9671C45.004 66.2584 44.9949 66.5772 45.004 66.8595C45.0132 67.0279 45.045 67.0826 45.045 67.2738C45.045 67.5925 45.1497 68.0524 45.2135 68.3847C45.2363 68.494 45.2408 68.6716 45.2772 68.7763C45.3592 68.9812 45.3046 68.9129 45.341 69.1178C45.3637 69.2316 45.3774 69.1998 45.4002 69.2908C45.4229 69.3682 45.4138 69.4092 45.432 69.482C45.4594 69.5822 45.473 69.5458 45.4912 69.6369C45.555 69.9465 45.5595 69.819 45.6051 69.9829C45.6278 70.0603 45.6142 70.1013 45.6324 70.1787C45.646 70.2333 45.7098 70.4473 45.7371 70.511L45.8919 71.0301C45.9283 71.0984 45.942 71.0711 45.9784 71.1621L46.197 71.8041C46.247 71.9271 46.2607 72.0045 46.3108 72.1365C46.37 72.2776 46.3973 72.2731 46.4565 72.437L46.6477 72.9105C46.757 73.1518 46.9072 73.4205 46.9938 73.6846L47.5993 74.8228C47.6904 74.9549 47.8088 75.2372 47.8998 75.4193C47.9636 75.5468 48.0228 75.565 48.0774 75.6788C48.2641 76.0567 48.5145 76.4164 48.7103 76.7943C48.7877 76.94 48.8241 76.9081 48.9061 77.0493C48.9561 77.1358 48.9789 77.2451 49.0563 77.3452L50.313 79.1756C50.4359 79.3668 50.5725 79.4852 50.6954 79.6855C50.7819 79.8221 50.8184 79.8221 50.9003 79.9269C51.0187 80.0862 51.1507 80.3366 51.26 80.4505C51.5377 80.7419 51.9111 81.2655 52.0568 81.4066C52.1479 81.4931 52.1752 81.5432 52.2617 81.6479C52.7716 82.2717 53.3726 82.9182 53.9236 83.5193C54.001 83.6058 54.0465 83.6877 54.1239 83.7606L56.5462 86.1418L56.6827 86.283L56.7374 86.2192C56.8512 86.11 56.8967 86.069 56.9924 85.9415C57.3657 85.4316 58.5586 84.2159 59.0139 83.7606C59.1961 83.5784 59.3782 83.4464 59.5466 83.2734C59.7242 83.0958 59.8927 82.9 60.0748 82.7407L60.949 82.0258C61.1084 81.9257 61.1129 81.8983 61.2358 81.78C61.4316 81.5887 61.6229 81.4886 61.8186 81.3383C61.9325 81.2473 61.9826 81.1653 62.0873 81.0788C62.192 80.9968 62.3013 80.9513 62.4014 80.8602C62.62 80.6599 62.752 80.5962 63.0116 80.414C63.1299 80.3321 63.1709 80.2729 63.2984 80.1682C63.4077 80.0862 63.4942 80.0361 63.5989 79.9724H63.5944C63.5443 79.9223 63.517 79.9269 63.4578 79.8813L62.6701 79.1847C62.6291 79.1483 62.5881 79.1027 62.5471 79.0618L61.204 77.7459C61.163 77.7004 61.1402 77.6594 61.0947 77.6093C60.7896 77.277 60.4573 76.9218 60.175 76.5758C60.1294 76.5166 60.1112 76.4893 60.0611 76.4392C59.9792 76.3618 59.7743 76.0704 59.6195 75.911C59.5603 75.8473 59.4875 75.7061 59.4192 75.6196C59.3736 75.565 59.3554 75.565 59.3099 75.4876C59.237 75.3738 59.1642 75.31 59.0959 75.2053L58.3993 74.1899C58.3583 74.1353 58.3446 74.0761 58.3173 74.0306C58.2718 73.9486 58.249 73.9668 58.208 73.8849C58.0988 73.68 57.9622 73.4797 57.8574 73.2702C57.8301 73.2065 57.7937 73.1974 57.7573 73.1245C57.7117 73.0244 57.6435 72.8696 57.5934 72.7967L57.2564 72.1638C57.2109 72.0181 57.129 71.8724 57.0652 71.7358L56.9605 71.4763C56.9286 71.3852 56.9104 71.3852 56.8831 71.3078C56.8512 71.235 56.8421 71.194 56.8193 71.1212L56.6964 70.7706C56.6736 70.7205 56.6691 70.7341 56.6509 70.6932L56.5644 70.4063C56.5507 70.3745 56.5097 70.2561 56.5052 70.2242C56.4961 70.1787 56.5006 70.1605 56.4915 70.1149C56.4642 70.0239 56.4596 70.0967 56.4278 69.9237C56.4141 69.8736 56.4096 69.8918 56.3959 69.8372C56.3822 69.7962 56.3868 69.7734 56.3777 69.7325C56.364 69.6824 56.3549 69.696 56.3413 69.6369C56.3231 69.523 56.3549 69.5594 56.3094 69.4456C56.2866 69.3864 56.2866 69.2908 56.273 69.2316C56.2365 69.0449 56.1774 68.79 56.1819 68.6124C56.1819 68.5122 56.1591 68.4804 56.1591 68.3847C56.15 68.2299 56.1591 68.0524 56.1591 67.893C56.1591 67.547 56.1819 67.3239 56.232 67.0006L56.3367 66.6045C56.3504 66.5453 56.3413 66.5772 56.364 66.5134C56.405 66.3996 56.3913 66.3859 56.487 66.1583L56.5917 65.8896C56.6418 65.7622 56.8512 65.3251 56.9195 65.234C56.9833 65.1429 57.0288 65.0246 57.1016 64.9289C57.1472 64.8698 57.1472 64.847 57.1881 64.7832L57.6981 64.0593C57.73 64.0138 57.7527 63.9637 57.8028 63.9182C57.8529 63.8635 57.8757 63.8453 57.9166 63.7861C58.0942 63.5494 58.6451 62.9848 58.8591 62.7708C58.9456 62.6888 59.0276 62.6251 59.1095 62.5477C59.187 62.4657 59.2689 62.3701 59.3554 62.2973L59.7606 61.9649C59.8335 61.9193 59.8335 61.9057 59.8927 61.851C59.9837 61.7645 60.0748 61.719 60.1613 61.6462C60.216 61.6052 60.2387 61.5642 60.2888 61.5278C60.3389 61.4868 60.389 61.464 60.4345 61.4231C60.5392 61.3274 60.5984 61.3001 60.7168 61.2136C60.776 61.1772 60.7942 61.1499 60.8534 61.1043C60.9035 61.0634 60.949 61.036 60.9991 61.0042C61.0993 60.9404 61.2085 60.863 61.2768 60.8038C61.3315 60.7583 61.3588 60.7583 61.4271 60.7082L61.7185 60.5033C61.7777 60.4532 61.8141 60.4487 61.8733 60.4123C62.0463 60.3167 62.1465 60.2165 62.324 60.1391C62.3923 60.1072 62.4105 60.0799 62.4652 60.0389C62.5881 59.9479 63.0799 59.6838 63.4122 59.5062C63.3621 59.4151 63.3121 59.3241 63.2711 59.233C63.2028 59.101 63.1345 59.0782 63.0525 58.9234C62.9478 58.7094 62.8067 58.3725 62.7019 58.2131L61.978 56.8563C61.8778 56.5421 61.6957 56.228 61.5637 55.9411L61.3406 55.3765C61.2632 55.1808 61.2358 55.1853 61.1676 55.0168C61.1038 54.8575 61.0856 54.771 61.031 54.6207L60.7669 53.8604C60.7259 53.7511 60.7077 53.783 60.6667 53.6964L60.48 53.0818C60.4527 53.0089 60.3708 52.754 60.3571 52.6902C60.3343 52.59 60.3525 52.5491 60.3252 52.4534C60.266 52.2577 60.266 52.4079 60.1886 52.0437C60.1659 51.9298 60.1522 51.9754 60.1203 51.857C60.093 51.7705 60.1067 51.7204 60.0839 51.6293C60.0566 51.5201 60.0338 51.5565 60.0111 51.4199C59.9655 51.1786 60.0338 51.2605 59.9382 51.0147C59.8881 50.8917 59.8836 50.6823 59.8608 50.5548C59.8244 50.3727 59.7789 50.1632 59.7424 49.9538Z" fill="#AF3469"/>
<path fill-rule="evenodd" clip-rule="evenodd" d="M94.6419 69.8053L94.7603 68.8309C94.7648 68.5714 94.8058 68.6807 94.8422 68.535C94.8559 68.4712 94.8377 67.8975 94.906 67.4787C94.9379 67.3102 94.8559 66.8685 94.9879 66.7775V62.4065C94.9014 62.279 94.7603 60.7492 94.7648 60.5898C94.7694 60.3257 94.7785 60.3758 94.7011 60.1482L94.4279 58.4089C94.3687 58.2495 94.4188 58.1858 94.3414 57.99L94.2321 57.3207C94.2185 57.2205 94.1957 57.2433 94.1684 57.1431C94.1411 57.0475 94.1638 57.0111 94.132 56.9246C94.091 56.8016 94.0773 56.8881 94.0363 56.7652C94.009 56.6741 94.0318 56.6332 94.0045 56.5376C93.9726 56.4374 93.968 56.5102 93.9453 56.36C93.9225 56.2188 93.9316 56.2507 93.8906 56.1414L93.7404 55.5677C93.7085 55.4858 93.7131 55.4676 93.6812 55.3765C93.6357 55.2445 93.6402 55.3264 93.5901 55.208C93.5309 55.0578 93.5173 54.9713 93.4763 54.8119C93.367 54.393 93.1348 54.0698 93.0438 53.7146C92.9618 53.4232 92.848 53.2366 92.7296 53.018C92.6704 52.9133 92.6431 52.7858 92.5839 52.6811L92.2333 52.0163C91.9783 51.5064 92.0375 51.7614 91.8645 51.4017C91.7325 51.1239 91.2544 50.5138 91.0586 50.2042C90.7444 49.7125 90.0205 49.0067 89.6153 48.5924C89.1782 48.1507 89.2374 48.2919 89.0735 48.1462C88.9961 48.0779 88.9141 47.9641 88.823 47.8912C88.7229 47.8138 88.6318 47.7637 88.5271 47.6727C88.3859 47.5406 87.9762 47.3175 87.9352 47.2811C87.8214 47.19 87.7348 47.1445 87.621 47.0853L86.6512 46.5572L84.9984 45.9197C84.7617 45.8605 84.7753 45.8241 84.402 45.7513C84.3018 45.733 84.3155 45.7103 84.2199 45.6875C84.1015 45.6602 84.1106 45.6966 84.0059 45.642C83.9057 45.5965 83.9512 45.5782 83.8419 45.5555C83.76 45.5418 83.7236 45.5555 83.6371 45.5373C83.5278 45.5099 83.5824 45.4917 83.4367 45.4735L81.9524 45.214C81.5654 45.1138 80.3634 45.1411 80.1539 45H77.0305L75.8421 45.1548C75.5507 45.2049 75.2912 45.1958 75.0044 45.2277C74.8632 45.2413 74.7949 45.296 74.6538 45.3051C74.5035 45.3142 74.3487 45.2868 74.2212 45.3233L72.6823 45.5509C72.5184 45.5737 72.5093 45.6192 72.3408 45.6465C72.1951 45.6693 72.1223 45.7103 71.9993 45.7422C71.8491 45.7831 71.7535 45.733 71.5895 45.7831C71.4575 45.8287 71.3437 45.815 71.2025 45.8469L70.8747 45.9243C70.7199 45.9516 70.7654 45.9835 70.515 46.0017C70.2737 46.0199 70.4103 46.0882 70.169 46.1246L69.0899 46.375C69.058 46.3796 68.6847 46.5435 68.416 46.5799C68.2931 46.5981 68.3432 46.589 68.2294 46.6255L66.7268 47.099C66.1395 47.2219 66.1577 47.3312 65.9027 47.3904C65.666 47.4405 65.6295 47.486 65.4201 47.5406C65.3336 47.5679 65.3199 47.5543 65.2471 47.5907L64.7827 47.7911C64.637 47.8502 64.5778 47.8411 64.4412 47.8912L63.8083 48.1507C63.7081 48.1963 63.5761 48.2464 63.4896 48.2782C63.3712 48.3238 63.2892 48.342 63.1618 48.3921L62.2466 48.7836C62.1009 48.8428 62.0553 48.8519 61.9415 48.9293C61.814 49.0113 61.7776 49.0113 61.6183 49.0568C61.4999 49.0887 61.3724 49.157 61.2495 49.2253C61.254 49.2754 61.2631 49.3391 61.2631 49.4165C61.2586 49.7808 61.3769 50.2998 61.4498 50.6732C61.4726 50.7961 61.4771 50.9964 61.5226 51.1103C61.6137 51.3425 61.5545 51.2696 61.5909 51.4973C61.6183 51.6248 61.6365 51.5929 61.6592 51.6931C61.6865 51.7796 61.6729 51.8296 61.6957 51.9071C61.7275 52.0163 61.7412 51.9799 61.7594 52.0846C61.8322 52.4307 61.8368 52.285 61.8914 52.4762C61.9188 52.5627 61.9005 52.6037 61.9233 52.6947C61.9324 52.7539 62.0098 52.9952 62.0371 53.0681L62.2147 53.6509C62.2511 53.7283 62.2693 53.701 62.3103 53.8011L62.5562 54.5205C62.6108 54.6617 62.6245 54.7482 62.6882 54.8984C62.752 55.0578 62.7793 55.0532 62.8521 55.2354L63.0661 55.7726C63.1891 56.0458 63.3575 56.3418 63.4532 56.6377L64.1361 57.9217C64.2408 58.0719 64.3729 58.3907 64.473 58.591C64.5413 58.7321 64.6051 58.7595 64.6643 58.8642L64.7053 58.8414L64.942 58.7276C65.0786 58.673 65.2198 58.5682 65.3563 58.5273C65.4429 58.4999 65.4656 58.5045 65.5339 58.459C65.5977 58.4134 65.625 58.4089 65.7024 58.377L66.2123 58.1585C66.2806 58.1311 66.3262 58.122 66.3945 58.0947C66.44 58.0811 66.5128 58.0492 66.5675 58.0264L66.9181 57.8807C66.9955 57.8534 67.0273 57.858 67.1093 57.8261L67.3643 57.7168C67.4052 57.6986 67.4144 57.7031 67.4599 57.6895C67.5783 57.6576 67.5965 57.6349 67.7285 57.603C67.8697 57.5711 67.8606 57.5119 68.1838 57.4436L69.017 57.1841C69.0762 57.1613 69.0489 57.1659 69.1218 57.1568C69.2675 57.134 69.4769 57.0429 69.4951 57.0429L70.0916 56.9018C70.2236 56.8836 70.1508 56.8472 70.2828 56.8381C70.424 56.8244 70.3966 56.8107 70.4786 56.7925L70.6653 56.7516C70.7381 56.7333 70.8019 56.7379 70.8747 56.7151C70.9703 56.6878 71.0204 56.7151 71.1024 56.6924C71.1707 56.6741 71.2116 56.6514 71.2936 56.6377C71.3847 56.6241 71.3892 56.6013 71.4848 56.5876L72.3363 56.4602C72.4046 56.4419 72.4911 56.4556 72.573 56.451C72.6504 56.4465 72.6914 56.4146 72.7688 56.4055C72.9282 56.3919 73.0739 56.3919 73.2332 56.3691L73.8889 56.2826H75.619C75.7374 56.36 76.4022 56.3418 76.6162 56.401L77.4357 56.5421C77.5177 56.5558 77.4858 56.5649 77.5496 56.5785C77.5951 56.5922 77.6179 56.5831 77.6588 56.5922C77.7226 56.6013 77.6998 56.615 77.7499 56.6377C77.8091 56.665 77.8045 56.6468 77.8683 56.6605C77.9229 56.6741 77.9138 56.6878 77.9684 56.6969C78.1779 56.7379 78.1688 56.7607 78.3008 56.788L79.216 57.1431L79.7533 57.4345C79.817 57.4664 79.8625 57.4937 79.9263 57.5438C79.9536 57.562 80.1767 57.6895 80.2587 57.7623C80.3133 57.8124 80.3634 57.8397 80.418 57.8807C80.4681 57.9217 80.5136 57.9854 80.5592 58.0219C80.6502 58.1038 80.6183 58.0264 80.8551 58.2723C81.0828 58.4999 81.4834 58.8915 81.6565 59.1647C81.7657 59.3332 82.0298 59.6746 82.1027 59.8249C82.1983 60.0252 82.1664 59.8841 82.3075 60.1664L82.5033 60.5352C82.5352 60.5944 82.5489 60.6627 82.5807 60.7219C82.649 60.8448 82.7128 60.945 82.7538 61.1089C82.8084 61.3047 82.9359 61.4822 82.9951 61.7144C83.0178 61.8009 83.0269 61.851 83.0588 61.933C83.0861 62.0013 83.0861 61.9557 83.1089 62.0286C83.1271 62.0787 83.1271 62.0878 83.1453 62.1333L83.2273 62.452C83.2455 62.5112 83.2409 62.493 83.2546 62.5704C83.2683 62.6569 83.2728 62.6159 83.2865 62.6706C83.3047 62.7252 83.291 62.748 83.3092 62.7935C83.3274 62.8618 83.3365 62.8163 83.3593 62.8846C83.3775 62.9301 83.3639 62.9529 83.3775 63.0075C83.3957 63.0621 83.4048 63.0485 83.414 63.1031L83.4731 63.4719C83.5187 63.5812 83.4914 63.6176 83.5232 63.7041L83.6735 64.6694C83.719 64.7923 83.7099 64.7696 83.7099 64.9153C83.7099 65.0018 83.7828 65.8486 83.8328 65.9215V68.3392C83.76 68.3893 83.8055 68.6351 83.7873 68.7308C83.7509 68.9584 83.76 69.2771 83.7509 69.3136C83.7327 69.3955 83.7099 69.3363 83.7099 69.4775L83.5187 71.0028L83.5733 70.9982C83.8738 70.9754 83.8146 70.939 83.9967 70.9071L84.3929 70.8161C84.5568 70.7751 84.6934 70.7888 84.8482 70.7387C85.0485 70.6749 85.1578 70.7387 85.3399 70.6886C85.4856 70.6522 85.5676 70.6066 85.7451 70.5748C85.9409 70.5429 85.9546 70.4883 86.1549 70.4655L87.9853 70.1923C88.1355 70.1468 88.3222 70.1832 88.4952 70.1695C88.6637 70.1559 88.7502 70.0967 88.9187 70.0785C89.2556 70.0375 89.5697 70.0466 89.9112 69.992L91.3272 69.8053H94.6419Z" fill="#AF3469"/>
<path fill-rule="evenodd" clip-rule="evenodd" d="M75.3595 95.5576H76.3385C76.5433 95.4165 77.3083 95.4848 77.6452 95.4074C77.7909 95.3755 77.8137 95.3891 77.9685 95.3755C78.1415 95.3664 78.1051 95.33 78.2553 95.2799C78.3418 95.2526 78.4875 95.2526 78.5877 95.2343C78.697 95.2116 78.8017 95.1934 78.9155 95.1706C79.084 95.1342 78.9701 95.116 79.175 95.0886L79.7578 94.9384C79.899 94.8883 79.9491 94.8564 80.0401 94.8246L81.1192 94.4148L82.5398 93.6362C82.6308 93.5679 82.6399 93.5269 82.7447 93.4632C83.2956 93.1308 84.1334 92.4888 84.6524 92.029C84.8027 91.8969 84.8573 91.8241 85.0349 91.6829C85.3172 91.4598 86.6011 90.0757 86.8151 89.7706C86.929 89.6022 87.0701 89.5293 87.1612 89.3882C87.2887 89.1924 87.4753 88.9192 87.6438 88.7553C87.7531 88.6506 87.7075 88.6278 87.794 88.5231C87.8532 88.4411 87.8851 88.4411 87.9534 88.3364L88.2311 87.8811C88.3723 87.6944 88.3677 87.749 88.559 87.4485L89.4013 86.0598C89.4559 85.9642 89.506 85.9233 89.5561 85.8367C89.7428 85.5226 90.1389 84.6894 90.3301 84.3752C90.4531 84.1794 90.4667 84.1066 90.5714 83.888C90.6124 83.8061 90.6579 83.715 90.6989 83.633C90.8537 83.3189 90.7536 83.5921 90.9357 83.1368C91.0768 82.7862 91.2817 82.4674 91.3955 82.1396C91.4138 82.0941 91.432 82.044 91.4502 81.9894C91.523 81.7617 91.4775 81.8482 91.6278 81.6024L91.9283 80.7919C91.9692 80.669 92.033 80.6371 92.1468 80.2683C92.1878 80.1363 92.2606 79.8813 92.3289 79.7265C92.3745 79.6172 92.3881 79.5671 92.4519 79.4669C92.5247 79.3395 92.4883 79.3121 92.5384 79.1756L92.7934 78.3469C93.0392 77.8961 92.9026 78.0418 92.9709 77.7869C92.98 77.755 93.0529 77.5546 93.0665 77.5091L93.1895 77.0584C93.2122 76.9855 93.2031 76.9764 93.235 76.9081C93.2851 76.7806 93.2896 76.8398 93.3306 76.6577C93.3625 76.5074 93.3853 76.5439 93.408 76.339C93.4262 76.1386 93.449 76.2297 93.4809 76.0794C93.4945 76.0066 93.4854 75.9793 93.5036 75.9064C93.5856 75.5832 93.663 75.5786 93.6994 75.1688L93.9271 74.2946C93.9635 74.158 93.9225 74.0943 93.9681 73.9531C94.0136 73.8166 94.009 73.8393 94.0363 73.6754C94.0637 73.516 94.0773 73.4887 94.1229 73.3795C94.1456 73.3157 94.2321 72.8194 94.2321 72.7466C94.2276 72.5007 94.2412 72.5918 94.2959 72.4415C94.3323 72.3231 94.2959 72.2002 94.3186 72.0773C94.346 71.8997 94.3778 72.0181 94.3915 71.7904L94.437 71.4535C94.4188 71.4444 94.4051 71.4398 94.396 71.4307H90.8719L89.5379 71.6083C89.2101 71.6584 88.9141 71.6493 88.5954 71.6857C88.436 71.7039 88.3541 71.7631 88.1993 71.7722C88.0308 71.7859 87.8532 71.754 87.7121 71.795L85.9819 72.0545C85.7907 72.0773 85.7816 72.1274 85.5949 72.1592C85.4264 72.1865 85.3445 72.2275 85.2124 72.2685C85.0394 72.3095 84.9347 72.2548 84.748 72.314C84.5978 72.3596 84.4703 72.3459 84.3109 72.3869L83.9421 72.4734C83.7691 72.5007 83.8237 72.5371 83.5415 72.5553C83.2865 72.5781 83.4003 72.6464 83.2 72.6874L83.118 72.9879C83.0998 73.2155 83.0588 73.2155 83.0087 73.3931C82.9996 73.4341 83.0042 73.4523 82.9996 73.4933C82.9814 73.5752 82.9678 73.5252 82.9587 73.6344C82.945 73.7483 82.9359 73.7255 82.9131 73.812C82.8904 73.9122 82.8904 73.8803 82.863 73.9486C82.8448 73.9896 82.8494 73.9941 82.8403 74.0351L82.7674 74.281C82.7629 74.3083 82.7219 74.4176 82.7173 74.4358C82.6809 74.5769 82.7538 74.495 82.6172 74.7454L82.476 75.2052C82.4487 75.2826 82.4715 75.2963 82.4259 75.3646C82.3941 75.4238 82.385 75.4466 82.3622 75.5103C82.3258 75.5968 82.2802 75.738 82.2575 75.8108C82.1983 76.0157 82.1619 76.0339 82.1391 76.1022L81.9706 76.5484C81.8887 76.685 81.916 76.6395 81.875 76.7624C81.8659 76.7943 81.8523 76.8216 81.8431 76.8444C81.7794 77.0265 81.6701 77.2041 81.5882 77.3998C81.488 77.6503 81.5426 77.5 81.4561 77.673C81.4379 77.7186 81.4106 77.7686 81.3878 77.8142C81.3286 77.9326 81.3195 77.9735 81.2558 78.0828C81.1465 78.2558 80.928 78.7202 80.8278 78.8933C80.7959 78.9388 80.7686 78.9661 80.7413 79.0162L80.2723 79.7857C80.1676 79.9541 80.1676 79.9223 80.0948 80.0224L79.94 80.2774C79.899 80.3366 79.8808 80.3366 79.8489 80.3776C79.8034 80.4368 79.8261 80.4504 79.7669 80.5096C79.6713 80.6007 79.5711 80.7509 79.4983 80.8602C79.4482 80.9376 79.3708 80.9786 79.3071 81.0696C79.1887 81.2427 78.4784 82.0076 78.3236 82.1305C78.2234 82.2079 78.1916 82.2489 78.1096 82.3217C77.8228 82.5767 77.3583 82.9319 77.0533 83.114C76.9941 83.1504 76.9895 83.1732 76.9395 83.2142L76.1518 83.6421L75.5553 83.8698C75.5052 83.888 75.4779 83.9062 75.4005 83.9335L75.0772 84.0155C74.9634 84.0292 75.0272 84.0428 74.9315 84.061C74.8724 84.0747 74.8132 84.0838 74.754 84.0975C74.6948 84.1066 74.6128 84.1066 74.5673 84.1248C74.4853 84.1521 74.5081 84.1703 74.4079 84.1749C74.326 84.1794 74.3123 84.1749 74.2304 84.1931C74.0437 84.234 73.6203 84.1976 73.5064 84.275H72.9646C72.8963 84.2295 72.8644 84.2477 72.7688 84.2432C72.6778 84.2386 72.6413 84.2204 72.5412 84.2204C72.095 84.2204 72.2543 84.1749 72.0995 84.1749C71.9584 84.1703 71.4029 84.102 71.2572 84.0383C71.157 83.9973 71.1616 84.0292 71.0614 84.0109C71.0068 84.0018 71.0159 83.9927 70.9658 83.9791C70.9203 83.9654 70.9021 83.9745 70.8565 83.9609C70.8155 83.9518 70.8338 83.9427 70.7746 83.929C70.5287 83.8789 70.4513 83.8243 70.3921 83.8152L69.914 83.6786C69.8048 83.6467 69.8275 83.633 69.7365 83.6057C69.6727 83.5875 69.6317 83.5738 69.5589 83.5511C69.5042 83.5329 69.527 83.5374 69.4724 83.5192C69.3494 83.4828 69.2948 83.4327 69.2174 83.4054C69.14 83.3781 69.1036 83.3735 69.0307 83.3416C68.9761 83.3189 68.9078 83.3052 68.8486 83.2825C68.6346 83.1868 68.6801 83.1823 68.3341 83.0548C68.1839 82.9956 67.6876 82.7088 67.5282 82.645C67.4462 82.6131 67.4326 82.5904 67.3734 82.554C67.2823 82.4948 67.164 82.4492 67.0456 82.3855C66.9454 82.3354 66.8498 82.258 66.7542 82.2034C66.7041 82.176 66.6449 82.1624 66.5857 82.126C66.5265 82.085 66.5083 82.0531 66.4446 82.0167L66.135 81.8346C66.0302 81.7663 65.9346 81.7298 65.8299 81.6479C65.7707 81.6069 65.7616 81.5796 65.7024 81.5477C65.6387 81.5067 65.6068 81.4931 65.5476 81.4521L64.9648 81.0514C64.8965 81.0105 64.8555 80.974 64.81 80.9376L64.6598 81.0332C64.555 81.1061 64.4685 81.1516 64.3592 81.2336C64.2363 81.3292 64.1999 81.3884 64.0861 81.4658C63.8447 81.6342 63.7173 81.698 63.5078 81.8892C63.4168 81.9712 63.312 82.0167 63.2164 82.0941C63.1163 82.176 63.0662 82.258 62.9569 82.34C62.7748 82.4857 62.5926 82.5813 62.406 82.7588C62.2876 82.8681 62.2876 82.8954 62.1328 82.9911L61.3087 83.6695C61.1402 83.8152 60.9763 84.0064 60.8124 84.1703C60.6485 84.3342 60.4755 84.4572 60.3024 84.6302C59.8744 85.0627 58.7453 86.2146 58.3901 86.6973C58.3036 86.8157 58.2581 86.8521 58.1534 86.9568C58.0578 87.0524 58.0077 87.1526 57.9439 87.2528L57.8802 87.3438L58.1898 87.617C58.2991 87.7081 58.3492 87.699 58.4402 87.7809C58.5176 87.8538 58.5768 87.9357 58.6588 88.0086C58.7407 88.0769 58.8272 88.1133 58.9228 88.1907C59.023 88.2727 59.0549 88.3364 59.1505 88.4092C59.3827 88.5868 59.4282 88.5823 59.6513 88.8008C59.7287 88.8737 59.8153 88.8873 59.92 88.9738L60.4026 89.3517C60.6075 89.4929 60.6895 89.5931 60.9126 89.7342L61.9643 90.4627C62.069 90.5355 62.1328 90.5583 62.2466 90.6266C62.3559 90.6903 62.365 90.7359 62.4697 90.8178C62.6609 90.959 62.834 91.0227 63.0252 91.1502L63.5852 91.4826C63.699 91.5418 63.7355 91.6055 63.8402 91.6693C63.9449 91.7376 64.0496 91.7694 64.1407 91.8195C64.3137 91.9106 64.4867 92.0472 64.6734 92.1473C64.8829 92.2566 65.1014 92.3431 65.2608 92.4433C65.37 92.5116 65.3928 92.5571 65.5385 92.6163C65.8299 92.7256 66.7223 93.2446 66.9955 93.3494C67.6238 93.5861 67.5419 93.5952 67.9289 93.7591C68.029 93.8047 68.1565 93.832 68.2567 93.873C68.3842 93.9276 68.4479 93.9367 68.5936 93.9868C68.7348 94.0369 68.8258 94.1234 69.0489 94.1917C69.1537 94.219 69.1127 94.219 69.2129 94.2509C69.3358 94.2919 69.4086 94.3146 69.5316 94.351C69.6955 94.3966 69.6499 94.4239 69.8457 94.4785L70.7108 94.7198C70.8201 94.7381 70.9567 94.8382 71.4029 94.9338C71.5076 94.9521 71.4757 94.9703 71.5531 94.993C71.6351 95.0158 71.6715 95.0021 71.7489 95.0203C71.84 95.0431 71.8263 95.0613 71.9219 95.0795C72.0995 95.116 72.095 95.0522 72.2816 95.1296C72.5366 95.2435 73.5428 95.3709 73.7978 95.3755C74.0801 95.3755 73.7933 95.462 74.5946 95.4574C74.7813 95.4574 74.8405 95.4893 75.0044 95.4984C75.1774 95.5075 75.2366 95.4757 75.3595 95.5576Z" fill="#AF3469"/>
</svg>
