<svg width="577" height="522" viewBox="0 0 577 522" fill="none" xmlns="http://www.w3.org/2000/svg">
<g opacity="0.1">
<path fill-rule="evenodd" clip-rule="evenodd" d="M170.04 51.1469L166.154 53.0743C163.633 53.9675 162.898 54.6726 160.955 55.3778C159.012 56.0829 159.064 55.7538 157.541 56.8821C155.913 58.0573 135.275 67.5064 131.494 70.0449C130.338 70.7971 129.918 71.3142 128.5 71.8783C124.772 73.3826 122.776 75.216 119.1 77.0494C117.839 77.7076 117.157 77.8016 115.896 78.7418L109.857 82.5496C108.439 83.4428 107.914 83.4428 106.706 84.336C105.341 85.4642 102.978 86.8745 100.929 88.0498C99.8791 88.7079 98.9863 89.131 97.8835 89.8832C96.6231 90.7764 96.2555 91.2935 95.1002 91.9986C92.5794 93.55 91.319 94.1141 89.1659 95.8534C88.1681 96.6526 87.1178 97.0757 86.12 97.7809C85.1222 98.533 84.6495 99.2382 83.4942 100.037C81.6561 101.354 79.7656 102.2 77.875 103.845C76.6671 104.879 76.6146 105.114 75.0917 106.008L66.6366 112.213C64.9036 113.576 63.2231 115.269 61.5426 116.82C59.8621 118.324 58.1291 119.453 56.3435 121.051C51.9322 125 40.3788 135.53 36.7552 139.949C35.8099 141.077 35.3898 141.406 34.2869 142.346C33.3417 143.24 32.8165 144.133 32.1863 145.073L21.4731 158.518C20.6854 159.74 20.7379 160.116 19.7401 161.244C18.2171 162.984 17.2718 165.24 15.9064 166.933C14.541 168.625 10.1297 176.758 9.07939 179.202L6.92624 184.185C4.98316 188.416 5.24574 188.698 4.35297 190.814C3.88033 191.942 4.09039 191.331 3.82781 192.553L1.56964 199.84C0.571838 205.857 0.0466807 210.088 0.0466807 216.481C0.0466807 219.49 -0.0583508 222.781 0.0466807 225.695C0.151712 227.435 0.519322 227.999 0.519322 229.973C0.519322 233.264 1.72718 238.012 2.4624 241.444C2.72498 242.572 2.7775 244.405 3.19762 245.487C4.14291 247.602 3.51272 246.897 3.93285 249.012C4.19542 250.188 4.35297 249.858 4.61555 250.799C4.87813 251.598 4.7731 252.021 4.98316 252.773C5.29825 253.807 5.4558 253.431 5.66586 254.371C6.40108 257.568 6.4536 256.252 6.97876 257.944C7.24134 258.743 7.08379 259.166 7.29385 259.966C7.4514 260.53 8.18662 262.739 8.50171 263.397L10.2872 268.757C10.7074 269.462 10.8649 269.18 11.285 270.12L13.8058 276.748C14.3835 278.018 14.541 278.817 15.1187 280.18C15.8014 281.637 16.1165 281.59 16.7992 283.283L19.0049 288.172C20.2652 290.663 21.9983 293.437 22.9961 296.163L29.9807 307.916C31.031 309.279 32.3964 312.194 33.4467 314.074C34.1819 315.391 34.8646 315.579 35.4948 316.754C37.6479 320.656 40.5363 324.369 42.7945 328.271C43.6873 329.776 44.1074 329.447 45.0527 330.904C45.6303 331.797 45.8929 332.925 46.7857 333.96L61.28 352.858C62.698 354.832 64.2734 356.054 65.6914 358.123C66.6892 359.533 67.1093 359.533 68.0546 360.614C69.42 362.26 70.9429 364.845 72.2033 366.02C75.4068 369.029 79.7131 374.435 81.3936 375.893C82.4439 376.786 82.759 377.303 83.7568 378.384C89.6385 384.824 96.5706 391.5 102.925 397.705C103.818 398.598 104.343 399.445 105.236 400.197L133.174 424.783L134.75 426.24L135.38 425.582C136.693 424.454 137.218 424.031 138.321 422.715C142.627 417.449 156.386 404.898 161.638 400.197C163.738 398.316 165.839 396.953 167.782 395.167C169.83 393.333 171.773 391.312 173.874 389.667L183.957 382.286C185.795 381.252 185.847 380.97 187.265 379.747C189.523 377.773 191.729 376.739 193.987 375.187C195.3 374.247 195.878 373.401 197.086 372.508C198.294 371.662 199.554 371.192 200.709 370.251C203.23 368.183 204.753 367.525 207.746 365.644C209.112 364.798 209.584 364.187 211.055 363.106C212.315 362.26 213.313 361.743 214.521 361.084H214.468C213.891 360.567 213.576 360.614 212.893 360.144L203.808 352.952C203.335 352.576 202.862 352.105 202.39 351.682L186.898 338.096C186.425 337.626 186.162 337.203 185.637 336.686C182.119 333.254 178.285 329.588 175.029 326.015C174.504 325.404 174.294 325.122 173.716 324.605C172.771 323.805 170.408 320.797 168.622 319.151C167.939 318.493 167.099 317.036 166.311 316.143C165.786 315.579 165.576 315.579 165.051 314.779C164.211 313.604 163.371 312.946 162.583 311.865L154.548 301.382C154.075 300.817 153.918 300.206 153.603 299.736C153.078 298.89 152.815 299.078 152.342 298.232C151.082 296.116 149.506 294.048 148.299 291.886C147.984 291.227 147.563 291.133 147.143 290.381C146.618 289.347 145.83 287.749 145.253 286.996L141.367 280.462C140.841 278.958 139.896 277.453 139.161 276.043L137.953 273.364C137.585 272.423 137.375 272.423 137.06 271.624C136.693 270.872 136.588 270.449 136.325 269.697L134.907 266.077C134.645 265.56 134.592 265.701 134.382 265.278L133.384 262.316C133.227 261.987 132.754 260.765 132.701 260.436C132.596 259.966 132.649 259.778 132.544 259.308C132.229 258.367 132.176 259.119 131.809 257.333C131.651 256.816 131.599 257.004 131.441 256.44C131.284 256.017 131.336 255.782 131.231 255.359C131.073 254.842 130.968 254.983 130.811 254.371C130.601 253.196 130.968 253.572 130.443 252.397C130.181 251.786 130.181 250.799 130.023 250.188C129.603 248.26 128.92 245.628 128.973 243.794C128.973 242.76 128.71 242.431 128.71 241.444C128.605 239.845 128.71 238.012 128.71 236.367C128.71 232.794 128.973 230.49 129.55 227.153L130.758 223.063C130.916 222.452 130.811 222.781 131.073 222.123C131.546 220.947 131.389 220.806 132.491 218.456L133.699 215.682C134.277 214.366 136.693 209.853 137.48 208.913C138.216 207.972 138.741 206.75 139.581 205.763C140.106 205.152 140.106 204.917 140.579 204.259L146.461 196.784C146.828 196.314 147.091 195.797 147.668 195.327C148.246 194.763 148.509 194.575 148.981 193.963C151.029 191.519 157.384 185.69 159.852 183.48C160.85 182.634 161.795 181.976 162.74 181.177C163.633 180.331 164.578 179.343 165.576 178.591L170.25 175.159C171.09 174.689 171.09 174.548 171.773 173.984C172.823 173.091 173.874 172.621 174.872 171.869C175.502 171.446 175.764 171.023 176.342 170.646C176.92 170.223 177.497 169.988 178.023 169.565C179.23 168.578 179.913 168.296 181.278 167.403C181.961 167.027 182.171 166.745 182.854 166.275C183.432 165.851 183.957 165.569 184.534 165.24C185.69 164.582 186.95 163.783 187.738 163.172C188.368 162.702 188.683 162.702 189.471 162.185L192.832 160.069C193.515 159.552 193.935 159.505 194.617 159.129C196.613 158.142 197.768 157.108 199.817 156.308C200.604 155.979 200.814 155.697 201.445 155.274C202.862 154.334 208.534 151.607 212.368 149.774C211.79 148.834 211.212 147.894 210.74 146.953C209.952 145.59 209.164 145.355 208.219 143.757C207.011 141.547 205.383 138.069 204.175 136.423L195.825 122.414C194.67 119.17 192.569 115.927 191.046 112.965L188.473 107.136C187.58 105.114 187.265 105.161 186.478 103.422C185.742 101.777 185.532 100.884 184.902 99.3322L181.856 91.4815C181.384 90.3533 181.173 90.6823 180.701 89.7891L178.548 83.4428C178.233 82.6906 177.287 80.0581 177.13 79.3999C176.867 78.3657 177.077 77.9426 176.762 76.9554C176.079 74.934 176.079 76.4853 175.187 72.7245C174.924 71.5492 174.767 72.0193 174.399 70.7971C174.084 69.9039 174.241 69.3868 173.979 68.4466C173.664 67.3183 173.401 67.6944 173.139 66.2841C172.613 63.7926 173.401 64.6387 172.298 62.1002C171.721 60.8309 171.668 58.6685 171.406 57.3522C170.985 55.4718 170.46 53.3093 170.04 51.1469V51.1469Z" fill="#E0E0E0"/>
<path fill-rule="evenodd" clip-rule="evenodd" d="M572.573 256.111L573.939 246.051C573.991 243.371 574.464 244.499 574.884 242.995C575.041 242.337 574.831 236.414 575.619 232.089C575.987 230.349 575.041 225.789 576.564 224.849V179.72C575.567 178.403 573.939 162.608 573.991 160.963C574.044 158.236 574.149 158.753 573.256 156.403L570.105 138.445C569.422 136.799 570 136.141 569.107 134.12L567.847 127.209C567.689 126.175 567.427 126.41 567.112 125.376C566.796 124.389 567.059 124.013 566.691 123.119C566.219 121.85 566.061 122.743 565.589 121.474C565.273 120.534 565.536 120.111 565.221 119.124C564.853 118.089 564.801 118.842 564.538 117.29C564.276 115.833 564.381 116.162 563.908 115.034L562.175 109.11C561.807 108.264 561.86 108.076 561.492 107.136C560.967 105.773 561.02 106.619 560.442 105.397C559.759 103.845 559.602 102.952 559.129 101.307C557.869 96.9818 555.19 93.6441 554.14 89.9773C553.195 86.9687 551.882 85.0413 550.517 82.7848C549.834 81.7035 549.519 80.3873 548.836 79.306L544.792 72.4426C541.851 67.1774 542.534 69.81 540.539 66.0962C539.016 63.2286 533.501 56.9292 531.243 53.7325C527.62 48.6554 519.27 41.3689 514.596 37.091C509.554 32.531 510.237 33.9883 508.346 32.484C507.454 31.7788 506.508 30.6036 505.458 29.8514C504.303 29.0522 503.252 28.5351 502.045 27.5949C500.417 26.2316 495.69 23.9281 495.218 23.5521C493.905 22.6119 492.907 22.1418 491.594 21.5306L480.408 16.0775L461.345 9.49604C458.614 8.88491 458.772 8.50883 454.465 7.75667C453.31 7.56862 453.467 7.33357 452.365 7.09852C450.999 6.81646 451.104 7.19254 449.896 6.62842C448.741 6.15832 449.266 5.97028 448.006 5.73523C447.061 5.5942 446.64 5.73523 445.643 5.54719C444.382 5.26513 445.012 5.07709 443.332 4.88905L426.212 2.20947C421.748 1.17525 407.884 1.45731 405.468 0H369.442L355.736 1.59834C352.375 2.11545 349.381 2.02143 346.073 2.3505C344.445 2.49153 343.657 3.05566 342.029 3.14968C340.296 3.2437 338.511 2.96164 337.04 3.33772L319.29 5.68822C317.399 5.92327 317.294 6.39337 315.351 6.67543C313.671 6.91048 312.83 7.33357 311.412 7.66265C309.679 8.08574 308.577 7.56863 306.686 8.08574C305.163 8.55584 303.85 8.41481 302.222 8.74388L298.441 9.54305C296.655 9.82511 297.181 10.1542 294.292 10.3422C291.509 10.5303 293.084 11.2354 290.301 11.6115L277.855 14.197C277.487 14.2441 273.181 15.9364 270.083 16.3125C268.665 16.5005 269.242 16.4065 267.929 16.7826L250.599 21.6717C243.825 22.9409 244.035 24.0692 241.094 24.6803C238.363 25.1974 237.943 25.6675 235.527 26.2316C234.529 26.5137 234.372 26.3727 233.532 26.7487L228.175 28.8172C226.494 29.4283 225.812 29.3343 224.236 29.8514L216.937 32.531C215.781 33.0011 214.258 33.5182 213.26 33.8473C211.895 34.3174 210.95 34.5054 209.479 35.0225L198.924 39.0654C197.243 39.6765 196.718 39.7705 195.405 40.5697C193.935 41.4159 193.515 41.4159 191.677 41.886C190.311 42.2151 188.841 42.9202 187.423 43.6254C187.475 44.1425 187.58 44.8006 187.58 45.5998C187.528 49.3606 188.893 54.7197 189.733 58.5746C189.996 59.8438 190.049 61.9123 190.574 63.0875C191.624 65.4851 190.941 64.7329 191.361 67.0834C191.677 68.3997 191.887 68.0706 192.149 69.1048C192.464 69.998 192.307 70.5151 192.569 71.3143C192.937 72.4426 193.094 72.0665 193.305 73.1477C194.145 76.7205 194.197 75.2161 194.827 77.1906C195.143 78.0838 194.932 78.5069 195.195 79.4471C195.3 80.0582 196.193 82.5497 196.508 83.3019L198.556 89.3192C198.976 90.1183 199.186 89.8363 199.659 90.8705L202.495 98.2981C203.125 99.7554 203.282 100.649 204.018 102.2C204.753 103.845 205.068 103.798 205.908 105.679L208.377 111.226C209.794 114.046 211.738 117.102 212.84 120.158L220.718 133.415C221.926 134.966 223.449 138.257 224.604 140.325C225.392 141.782 226.127 142.065 226.81 143.146L227.282 142.911L230.013 141.735C231.588 141.171 233.216 140.09 234.792 139.667C235.79 139.385 236.052 139.432 236.84 138.962C237.575 138.492 237.89 138.445 238.783 138.116L244.665 135.859C245.453 135.577 245.978 135.483 246.766 135.201C247.291 135.06 248.131 134.731 248.761 134.496L252.805 132.992C253.698 132.709 254.065 132.757 255.011 132.427L257.951 131.299C258.424 131.111 258.529 131.158 259.054 131.017C260.42 130.688 260.63 130.453 262.153 130.124C263.781 129.795 263.676 129.184 267.404 128.479L277.015 125.799C277.697 125.564 277.382 125.611 278.222 125.517C279.903 125.282 282.319 124.342 282.529 124.342L289.408 122.884C290.931 122.696 290.091 122.32 291.614 122.226C293.242 122.085 292.927 121.944 293.872 121.756L296.025 121.333C296.866 121.145 297.601 121.192 298.441 120.957C299.544 120.675 300.122 120.957 301.067 120.722C301.855 120.534 302.327 120.299 303.272 120.158C304.323 120.017 304.375 119.782 305.478 119.641L315.299 118.324C316.086 118.136 317.084 118.277 318.029 118.23C318.922 118.183 319.395 117.854 320.288 117.76C322.126 117.619 323.806 117.619 325.644 117.384L333.206 116.491H353.162C354.528 117.29 362.195 117.102 364.663 117.713L374.116 119.171C375.061 119.312 374.694 119.406 375.429 119.547C375.954 119.688 376.217 119.594 376.689 119.688C377.425 119.782 377.162 119.923 377.74 120.158C378.422 120.44 378.37 120.252 379.105 120.393C379.735 120.534 379.63 120.675 380.261 120.769C382.676 121.192 382.571 121.427 384.094 121.709L394.65 125.376L400.847 128.385C401.582 128.714 402.107 128.996 402.842 129.513C403.157 129.701 405.731 131.017 406.676 131.769C407.306 132.286 407.884 132.568 408.514 132.992C409.092 133.415 409.617 134.073 410.142 134.449C411.192 135.295 410.825 134.496 413.556 137.034C416.181 139.385 420.803 143.428 422.798 146.248C424.059 147.988 427.105 151.514 427.945 153.065C429.048 155.133 428.68 153.676 430.308 156.591L432.566 160.398C432.934 161.01 433.091 161.715 433.459 162.326C434.247 163.595 434.982 164.629 435.455 166.322C436.085 168.343 437.555 170.177 438.238 172.574C438.5 173.467 438.606 173.984 438.973 174.831C439.288 175.536 439.288 175.066 439.551 175.818C439.761 176.335 439.761 176.429 439.971 176.899L440.916 180.19C441.126 180.801 441.074 180.613 441.231 181.412C441.389 182.305 441.441 181.882 441.599 182.446C441.809 183.01 441.651 183.245 441.861 183.715C442.072 184.421 442.177 183.95 442.439 184.656C442.649 185.126 442.492 185.361 442.649 185.925C442.859 186.489 442.964 186.348 443.069 186.912L443.752 190.72C444.277 191.848 443.962 192.224 444.33 193.117L446.063 203.084C446.588 204.353 446.483 204.118 446.483 205.622C446.483 206.515 447.323 215.259 447.901 216.011V240.974C447.061 241.491 447.586 244.029 447.376 245.017C446.956 247.367 447.061 250.658 446.956 251.034C446.745 251.88 446.483 251.269 446.483 252.726L444.277 268.475L444.907 268.428C448.373 268.193 447.691 267.817 449.791 267.487L454.36 266.547C456.251 266.124 457.826 266.265 459.612 265.748C461.922 265.09 463.183 265.748 465.284 265.231C466.964 264.855 467.909 264.385 469.957 264.056C472.216 263.727 472.373 263.163 474.684 262.927L495.795 260.107C497.528 259.637 499.681 260.013 501.677 259.872C503.62 259.731 504.618 259.12 506.561 258.932C510.447 258.509 514.071 258.603 518.009 258.038L534.342 256.111H572.573V256.111Z" fill="#BDBDBD"/>
<path fill-rule="evenodd" clip-rule="evenodd" d="M350.169 522H361.46C363.823 520.543 372.646 521.248 376.532 520.449C378.212 520.12 378.475 520.261 380.261 520.12C382.256 520.026 381.836 519.649 383.569 519.132C384.567 518.85 386.247 518.85 387.403 518.662C388.663 518.427 389.871 518.239 391.184 518.004C393.127 517.628 391.814 517.44 394.177 517.158L400.899 515.607C402.527 515.09 403.105 514.76 404.155 514.431L416.601 510.2L432.986 502.162C434.037 501.457 434.142 501.033 435.35 500.375C441.704 496.944 451.367 490.315 457.354 485.567C459.087 484.204 459.717 483.452 461.765 481.994C465.021 479.691 479.83 465.4 482.299 462.25C483.611 460.511 485.239 459.759 486.29 458.301C487.76 456.28 489.913 453.459 491.856 451.767C493.117 450.686 492.592 450.451 493.589 449.369C494.272 448.523 494.64 448.523 495.428 447.442L498.631 442.741C500.259 440.814 500.206 441.378 502.412 438.275L512.128 423.937C512.758 422.95 513.335 422.527 513.913 421.633C516.066 418.39 520.635 409.787 522.841 406.543C524.259 404.522 524.416 403.77 525.624 401.513C526.097 400.667 526.622 399.727 527.095 398.881C528.88 395.637 527.725 398.457 529.825 393.756C531.453 390.137 533.817 386.846 535.129 383.461C535.339 382.991 535.55 382.474 535.76 381.91C536.6 379.559 536.075 380.453 537.808 377.914L541.274 369.546C541.746 368.277 542.482 367.948 543.795 364.14C544.267 362.777 545.107 360.144 545.895 358.546C546.42 357.418 546.578 356.901 547.313 355.866C548.153 354.55 547.733 354.268 548.311 352.858L551.252 344.302C554.088 339.648 552.512 341.152 553.3 338.52C553.405 338.191 554.245 336.122 554.403 335.652L555.821 330.998C556.083 330.246 555.978 330.152 556.346 329.447C556.923 328.13 556.976 328.742 557.449 326.861C557.816 325.31 558.079 325.686 558.341 323.57C558.551 321.502 558.814 322.442 559.182 320.891C559.339 320.139 559.234 319.857 559.444 319.104C560.389 315.767 561.282 315.72 561.702 311.489L564.328 302.463C564.748 301.053 564.276 300.394 564.801 298.937C565.326 297.527 565.273 297.762 565.589 296.069C565.904 294.424 566.061 294.142 566.586 293.014C566.849 292.356 567.847 287.232 567.847 286.479C567.794 283.941 567.952 284.881 568.582 283.33C569.002 282.108 568.582 280.838 568.845 279.569C569.16 277.736 569.527 278.958 569.685 276.607L570.21 273.129C570 273.035 569.842 272.988 569.737 272.894H529.09L513.703 274.727C509.922 275.244 506.508 275.15 502.832 275.526C500.994 275.714 500.049 276.325 498.263 276.419C496.32 276.56 494.272 276.231 492.644 276.654L472.688 279.334C470.483 279.569 470.378 280.086 468.224 280.415C466.281 280.697 465.336 281.12 463.813 281.543C461.817 281.966 460.61 281.402 458.456 282.013C456.723 282.484 455.253 282.343 453.415 282.766L449.161 283.659C447.166 283.941 447.796 284.317 444.54 284.505C441.599 284.74 442.912 285.445 440.601 285.868L439.656 288.971C439.446 291.321 438.973 291.321 438.395 293.155C438.29 293.578 438.343 293.766 438.29 294.189C438.08 295.035 437.923 294.518 437.818 295.646C437.66 296.822 437.555 296.587 437.293 297.48C437.03 298.514 437.03 298.185 436.715 298.89C436.505 299.313 436.557 299.36 436.452 299.783L435.612 302.322C435.56 302.604 435.087 303.732 435.034 303.92C434.614 305.378 435.455 304.531 433.879 307.117L432.251 311.865C431.936 312.664 432.199 312.805 431.673 313.51C431.306 314.121 431.201 314.356 430.938 315.015C430.518 315.908 429.993 317.365 429.73 318.117C429.048 320.233 428.628 320.421 428.365 321.126L426.422 325.733C425.477 327.143 425.792 326.673 425.319 327.942C425.214 328.271 425.056 328.553 424.951 328.789C424.216 330.669 422.956 332.502 422.011 334.524C420.855 337.109 421.485 335.558 420.488 337.344C420.277 337.814 419.962 338.332 419.7 338.802C419.017 340.024 418.912 340.447 418.177 341.575C416.916 343.362 414.396 348.157 413.24 349.943C412.873 350.413 412.558 350.695 412.243 351.212L406.833 359.157C405.626 360.896 405.626 360.567 404.785 361.602L403 364.234C402.527 364.845 402.317 364.845 401.95 365.268C401.424 365.879 401.687 366.02 401.004 366.632C399.901 367.572 398.746 369.123 397.906 370.251C397.328 371.051 396.435 371.474 395.7 372.414C394.335 374.2 386.142 382.098 384.357 383.367C383.201 384.166 382.834 384.59 381.888 385.342C378.58 387.974 373.223 391.641 369.705 393.521C369.022 393.897 368.97 394.133 368.392 394.556L359.307 398.975L352.427 401.325C351.849 401.513 351.534 401.701 350.642 401.983L346.913 402.829C345.6 402.97 346.335 403.111 345.232 403.3C344.55 403.441 343.867 403.535 343.184 403.676C342.502 403.77 341.556 403.77 341.031 403.958C340.086 404.24 340.349 404.428 339.193 404.475C338.248 404.522 338.09 404.475 337.145 404.663C334.992 405.086 330.108 404.71 328.795 405.509H322.546C321.758 405.039 321.39 405.227 320.288 405.18C319.237 405.133 318.817 404.945 317.662 404.945C312.515 404.945 314.353 404.475 312.568 404.475C310.94 404.428 304.533 403.723 302.852 403.064C301.697 402.641 301.749 402.97 300.594 402.782C299.964 402.688 300.069 402.594 299.491 402.453C298.966 402.312 298.756 402.406 298.231 402.265C297.758 402.171 297.968 402.077 297.286 401.936C294.45 401.419 293.557 400.855 292.874 400.761L287.36 399.351C286.1 399.022 286.362 398.881 285.312 398.599C284.577 398.41 284.104 398.269 283.264 398.034C282.634 397.846 282.896 397.893 282.266 397.705C280.848 397.329 280.218 396.812 279.325 396.53C278.432 396.248 278.012 396.201 277.172 395.872C276.542 395.637 275.754 395.496 275.071 395.261C272.603 394.274 273.128 394.227 269.137 392.91C267.404 392.299 261.68 389.338 259.842 388.679C258.897 388.35 258.739 388.115 258.056 387.739C257.006 387.128 255.641 386.658 254.275 386C253.12 385.483 252.017 384.684 250.914 384.119C250.337 383.837 249.654 383.696 248.971 383.32C248.288 382.897 248.078 382.568 247.343 382.192L243.772 380.312C242.564 379.606 241.461 379.23 240.254 378.384C239.571 377.961 239.466 377.679 238.783 377.35C238.048 376.927 237.68 376.786 236.998 376.363L230.276 372.226C229.488 371.803 229.015 371.427 228.49 371.051L226.757 372.038C225.549 372.79 224.551 373.26 223.291 374.106C221.873 375.093 221.453 375.705 220.14 376.504C217.357 378.243 215.886 378.901 213.47 380.876C212.42 381.722 211.212 382.192 210.109 382.991C208.954 383.837 208.376 384.684 207.116 385.53C205.015 387.034 202.915 388.021 200.762 389.855C199.396 390.983 199.396 391.265 197.611 392.252L188.105 399.257C186.162 400.761 184.272 402.735 182.381 404.428C180.491 406.12 178.495 407.389 176.499 409.176C171.563 413.642 158.539 425.535 154.443 430.518C153.445 431.741 152.92 432.117 151.712 433.198C150.609 434.185 150.031 435.219 149.296 436.254L148.561 437.194L152.132 440.014C153.392 440.955 153.97 440.861 155.02 441.707C155.913 442.459 156.596 443.305 157.541 444.057C158.487 444.762 159.484 445.138 160.587 445.938C161.742 446.784 162.11 447.442 163.213 448.194C165.891 450.028 166.416 449.981 168.99 452.237C169.882 452.989 170.88 453.13 172.088 454.023L177.655 457.925C180.018 459.383 180.963 460.417 183.537 461.874L195.668 469.396C196.876 470.148 197.611 470.383 198.924 471.088C200.184 471.746 200.289 472.216 201.497 473.062C203.703 474.52 205.698 475.178 207.904 476.494L214.363 479.926C215.676 480.537 216.096 481.195 217.304 481.853C218.512 482.559 219.72 482.888 220.77 483.405C222.766 484.345 224.761 485.755 226.915 486.789C229.33 487.918 231.851 488.811 233.689 489.845C234.949 490.55 235.212 491.02 236.893 491.631C240.254 492.76 250.547 498.119 253.698 499.2C260.945 501.645 259.999 501.739 264.463 503.431C265.619 503.901 267.089 504.183 268.244 504.606C269.715 505.17 270.45 505.264 272.131 505.781C273.759 506.299 274.809 507.192 277.382 507.897C278.59 508.179 278.117 508.179 279.273 508.508C280.691 508.931 281.531 509.166 282.949 509.542C284.839 510.012 284.314 510.294 286.572 510.859L296.55 513.35C297.811 513.538 299.386 514.572 304.533 515.56C305.741 515.748 305.373 515.936 306.266 516.171C307.211 516.406 307.631 516.265 308.524 516.453C309.574 516.688 309.417 516.876 310.52 517.064C312.568 517.44 312.515 516.782 314.668 517.581C317.609 518.756 329.215 520.073 332.156 520.12C335.412 520.12 332.104 521.013 341.346 520.966C343.499 520.966 344.182 521.295 346.073 521.389C348.068 521.483 348.751 521.154 350.169 522Z" fill="#BDBDBD"/>
</g>
</svg>
