<?xml version="1.0" encoding="UTF-8"?>
<!DOCTYPE svg PUBLIC "-//W3C//DTD SVG 1.1//EN" "http://www.w3.org/Graphics/SVG/1.1/DTD/svg11.dtd">
<!-- Creator: CorelDRAW 2019 (64-Bit) -->
<svg xmlns="http://www.w3.org/2000/svg" xml:space="preserve" width="269px" height="272px" version="1.1" style="shape-rendering:geometricPrecision; text-rendering:geometricPrecision; image-rendering:optimizeQuality; fill-rule:evenodd; clip-rule:evenodd"
viewBox="0 0 109.79 111.04"
 xmlns:xlink="http://www.w3.org/1999/xlink"
 xmlns:xodm="http://www.corel.com/coreldraw/odm/2003">
 <defs>
  <style type="text/css">
   <![CDATA[
    .fil0 {fill:#5FA463}
    .fil1 {fill:#747473}
    .fil2 {fill:#AF3469}
   ]]>
  </style>
 </defs>
 <g id="Слой_x0020_1">
  <metadata id="CorelCorpID_0Corel-Layer"/>
  <path class="fil0" d="M32.38 10.88l-0.74 0.41c-0.48,0.19 -0.62,0.34 -0.99,0.49 -0.37,0.15 -0.36,0.08 -0.65,0.32 -0.31,0.25 -4.24,2.26 -4.96,2.8 -0.22,0.16 -0.3,0.27 -0.57,0.39 -0.71,0.32 -1.09,0.71 -1.79,1.1 -0.24,0.14 -0.37,0.16 -0.61,0.36l-1.15 0.81c-0.27,0.19 -0.37,0.19 -0.6,0.38 -0.26,0.24 -0.71,0.54 -1.1,0.79 -0.2,0.14 -0.37,0.23 -0.58,0.39 -0.24,0.19 -0.31,0.3 -0.53,0.45 -0.48,0.33 -0.72,0.45 -1.13,0.82 -0.19,0.17 -0.39,0.26 -0.58,0.41 -0.19,0.16 -0.28,0.31 -0.5,0.48 -0.35,0.28 -0.71,0.46 -1.07,0.81 -0.23,0.22 -0.24,0.27 -0.53,0.46l-1.61 1.32c-0.33,0.29 -0.65,0.65 -0.97,0.98 -0.32,0.32 -0.65,0.56 -0.99,0.9 -0.84,0.84 -3.04,3.08 -3.73,4.02 -0.18,0.24 -0.26,0.31 -0.47,0.51 -0.18,0.19 -0.28,0.38 -0.4,0.58l-2.04 2.86c-0.15,0.26 -0.14,0.34 -0.33,0.58 -0.29,0.37 -0.47,0.85 -0.73,1.21 -0.26,0.36 -1.1,2.09 -1.3,2.61l-0.41 1.06c-0.37,0.9 -0.32,0.96 -0.49,1.41 -0.09,0.24 -0.05,0.11 -0.1,0.37l-0.43 1.55c-0.19,1.28 -0.29,2.18 -0.29,3.54 0,0.64 -0.02,1.34 0,1.96 0.02,0.37 0.09,0.49 0.09,0.91 0,0.7 0.23,1.71 0.37,2.44 0.05,0.24 0.06,0.63 0.14,0.86 0.18,0.45 0.06,0.3 0.14,0.75 0.05,0.25 0.08,0.18 0.13,0.38 0.05,0.17 0.03,0.26 0.07,0.42 0.06,0.22 0.09,0.14 0.13,0.34 0.14,0.68 0.15,0.4 0.25,0.76 0.05,0.17 0.02,0.26 0.06,0.43 0.03,0.12 0.17,0.59 0.23,0.73l0.34 1.14c0.08,0.15 0.11,0.09 0.19,0.29l0.48 1.41c0.11,0.27 0.14,0.44 0.25,0.73 0.13,0.31 0.19,0.3 0.32,0.66l0.42 1.04c0.24,0.53 0.57,1.12 0.76,1.7l1.33 2.5c0.2,0.29 0.46,0.91 0.66,1.31 0.14,0.28 0.27,0.32 0.39,0.57 0.41,0.83 0.96,1.62 1.39,2.45 0.17,0.32 0.25,0.25 0.43,0.56 0.11,0.19 0.16,0.43 0.33,0.65l2.76 4.02c0.27,0.42 0.57,0.68 0.84,1.12 0.19,0.3 0.27,0.3 0.45,0.53 0.26,0.35 0.55,0.9 0.79,1.15 0.61,0.64 1.43,1.79 1.75,2.1 0.2,0.19 0.26,0.3 0.45,0.53 1.12,1.37 2.44,2.79 3.65,4.11 0.17,0.19 0.27,0.37 0.44,0.53l5.32 5.23 0.3 0.31 0.12 -0.14c0.25,-0.24 0.35,-0.33 0.56,-0.61 0.82,-1.12 3.44,-3.79 4.44,-4.79 0.4,-0.4 0.8,-0.69 1.17,-1.07 0.39,-0.39 0.76,-0.82 1.16,-1.17l1.92 -1.57c0.35,-0.22 0.36,-0.28 0.63,-0.54 0.43,-0.42 0.85,-0.64 1.28,-0.97 0.25,-0.2 0.36,-0.38 0.59,-0.57 0.23,-0.18 0.47,-0.28 0.69,-0.48 0.48,-0.44 0.77,-0.58 1.34,-0.98 0.26,-0.18 0.35,-0.31 0.63,-0.54 0.24,-0.18 0.43,-0.29 0.66,-0.43l-0.01 0c-0.11,-0.11 -0.17,-0.1 -0.3,-0.2l-1.73 -1.53c-0.09,-0.08 -0.18,-0.18 -0.27,-0.27l-2.95 -2.89c-0.09,-0.1 -0.14,-0.19 -0.24,-0.3 -0.67,-0.73 -1.4,-1.51 -2.02,-2.27 -0.1,-0.13 -0.14,-0.19 -0.25,-0.3 -0.18,-0.17 -0.63,-0.81 -0.97,-1.16 -0.13,-0.14 -0.29,-0.45 -0.44,-0.64 -0.1,-0.12 -0.14,-0.12 -0.24,-0.29 -0.16,-0.25 -0.32,-0.39 -0.47,-0.62l-1.53 -2.23c-0.09,-0.12 -0.12,-0.25 -0.18,-0.35 -0.1,-0.18 -0.15,-0.14 -0.24,-0.32 -0.24,-0.45 -0.54,-0.89 -0.77,-1.35 -0.06,-0.14 -0.14,-0.16 -0.22,-0.32 -0.1,-0.22 -0.25,-0.56 -0.36,-0.72l-0.74 -1.39c-0.1,-0.32 -0.28,-0.64 -0.42,-0.94l-0.23 -0.57c-0.07,-0.2 -0.11,-0.2 -0.17,-0.37 -0.07,-0.16 -0.09,-0.25 -0.14,-0.41l-0.27 -0.77c-0.05,-0.11 -0.06,-0.08 -0.1,-0.17l-0.19 -0.63c-0.03,-0.07 -0.12,-0.33 -0.13,-0.4 -0.02,-0.1 -0.01,-0.14 -0.03,-0.24 -0.06,-0.2 -0.07,-0.04 -0.14,-0.42 -0.03,-0.11 -0.04,-0.07 -0.07,-0.19 -0.03,-0.09 -0.02,-0.14 -0.04,-0.23 -0.03,-0.11 -0.05,-0.08 -0.08,-0.21 -0.04,-0.25 0.03,-0.17 -0.07,-0.42 -0.05,-0.13 -0.05,-0.34 -0.08,-0.47 -0.08,-0.41 -0.21,-0.97 -0.2,-1.36 0,-0.22 -0.05,-0.29 -0.05,-0.5 -0.02,-0.34 0,-0.73 0,-1.08 0,-0.76 0.05,-1.25 0.16,-1.96l0.23 -0.87c0.03,-0.13 0.01,-0.06 0.06,-0.2 0.09,-0.25 0.06,-0.28 0.27,-0.78l0.23 -0.59c0.11,-0.28 0.57,-1.24 0.72,-1.44 0.14,-0.2 0.24,-0.46 0.4,-0.67 0.1,-0.13 0.1,-0.18 0.19,-0.32l1.12 -1.59c0.07,-0.1 0.12,-0.21 0.23,-0.31 0.11,-0.12 0.16,-0.16 0.25,-0.29 0.39,-0.52 1.6,-1.76 2.07,-2.23 0.19,-0.18 0.37,-0.32 0.55,-0.49 0.17,-0.18 0.35,-0.39 0.54,-0.55l0.89 -0.73c0.16,-0.1 0.16,-0.13 0.29,-0.25 0.2,-0.19 0.4,-0.29 0.59,-0.45 0.12,-0.09 0.17,-0.18 0.28,-0.26 0.11,-0.09 0.22,-0.14 0.32,-0.23 0.23,-0.21 0.36,-0.27 0.62,-0.46 0.13,-0.08 0.17,-0.14 0.3,-0.24 0.11,-0.09 0.21,-0.15 0.32,-0.22 0.22,-0.14 0.46,-0.31 0.61,-0.44 0.12,-0.1 0.18,-0.1 0.33,-0.21l0.64 -0.45c0.13,-0.11 0.21,-0.12 0.34,-0.2 0.38,-0.21 0.6,-0.43 0.99,-0.6 0.15,-0.07 0.19,-0.13 0.31,-0.22 0.27,-0.2 1.35,-0.78 2.08,-1.17 -0.11,-0.2 -0.22,-0.4 -0.31,-0.6 -0.15,-0.29 -0.3,-0.34 -0.48,-0.68 -0.23,-0.47 -0.54,-1.21 -0.77,-1.56l-1.59 -2.98c-0.22,-0.69 -0.62,-1.38 -0.91,-2.01l-0.49 -1.24c-0.17,-0.43 -0.23,-0.42 -0.38,-0.79 -0.14,-0.35 -0.18,-0.54 -0.3,-0.87l-0.58 -1.67c-0.09,-0.24 -0.13,-0.17 -0.22,-0.36l-0.41 -1.35c-0.06,-0.16 -0.24,-0.72 -0.27,-0.86 -0.05,-0.22 -0.01,-0.31 -0.07,-0.52 -0.13,-0.43 -0.13,-0.1 -0.3,-0.9 -0.05,-0.25 -0.08,-0.15 -0.15,-0.41 -0.06,-0.19 -0.03,-0.3 -0.08,-0.5 -0.06,-0.24 -0.11,-0.16 -0.16,-0.46 -0.1,-0.53 0.05,-0.35 -0.16,-0.89 -0.11,-0.27 -0.12,-0.73 -0.17,-1.01 -0.08,-0.4 -0.18,-0.86 -0.26,-1.32z"/>
  <path class="fil1" d="M109.03 54.48l0.26 -2.14c0.01,-0.57 0.1,-0.33 0.18,-0.65 0.03,-0.14 -0.01,-1.4 0.14,-2.32 0.07,-0.37 -0.11,-1.34 0.18,-1.54l0 -9.6c-0.19,-0.28 -0.5,-3.64 -0.49,-3.99 0.01,-0.58 0.03,-0.47 -0.14,-0.97l-0.6 -3.82c-0.13,-0.35 -0.02,-0.49 -0.19,-0.92l-0.24 -1.47c-0.03,-0.22 -0.08,-0.17 -0.14,-0.39 -0.06,-0.21 -0.01,-0.29 -0.08,-0.48 -0.09,-0.27 -0.12,-0.08 -0.21,-0.35 -0.06,-0.2 -0.01,-0.29 -0.07,-0.5 -0.07,-0.22 -0.08,-0.06 -0.13,-0.39 -0.05,-0.31 -0.03,-0.24 -0.12,-0.48l-0.33 -1.26c-0.07,-0.18 -0.06,-0.22 -0.13,-0.42 -0.1,-0.29 -0.09,-0.11 -0.2,-0.37 -0.13,-0.33 -0.16,-0.52 -0.25,-0.87 -0.24,-0.92 -0.75,-1.63 -0.95,-2.41 -0.18,-0.64 -0.43,-1.05 -0.69,-1.53 -0.13,-0.23 -0.19,-0.51 -0.32,-0.74l-0.77 -1.46c-0.56,-1.12 -0.43,-0.56 -0.81,-1.35 -0.29,-0.61 -1.34,-1.95 -1.77,-2.63 -0.69,-1.08 -2.28,-2.63 -3.17,-3.54 -0.96,-0.97 -0.83,-0.66 -1.19,-0.98 -0.17,-0.15 -0.35,-0.4 -0.55,-0.56 -0.22,-0.17 -0.42,-0.28 -0.65,-0.48 -0.31,-0.29 -1.21,-0.78 -1.3,-0.86 -0.25,-0.2 -0.44,-0.3 -0.69,-0.43l-2.13 -1.16 -3.63 -1.4c-0.52,-0.13 -0.49,-0.21 -1.31,-0.37 -0.22,-0.04 -0.19,-0.09 -0.4,-0.14 -0.26,-0.06 -0.24,0.02 -0.47,-0.1 -0.22,-0.1 -0.12,-0.14 -0.36,-0.19 -0.18,-0.03 -0.26,0 -0.45,-0.04 -0.24,-0.06 -0.12,-0.1 -0.44,-0.14l-3.26 -0.57c-0.85,-0.22 -3.49,-0.16 -3.95,-0.47l-6.86 0 -2.61 0.34c-0.64,0.11 -1.21,0.09 -1.84,0.16 -0.31,0.03 -0.46,0.15 -0.77,0.17 -0.33,0.02 -0.67,-0.04 -0.95,0.04l-3.38 0.5c-0.36,0.05 -0.38,0.15 -0.75,0.21 -0.32,0.05 -0.48,0.14 -0.75,0.21 -0.33,0.09 -0.54,-0.02 -0.9,0.09 -0.29,0.1 -0.54,0.07 -0.85,0.14l-0.72 0.17c-0.34,0.06 -0.24,0.13 -0.79,0.17 -0.53,0.04 -0.23,0.19 -0.76,0.27l-2.37 0.55c-0.07,0.01 -0.89,0.37 -1.48,0.45 -0.27,0.04 -0.16,0.02 -0.41,0.1l-3.3 1.04c-1.29,0.27 -1.25,0.51 -1.81,0.64 -0.52,0.11 -0.6,0.21 -1.06,0.33 -0.19,0.06 -0.22,0.03 -0.38,0.11l-1.02 0.44c-0.32,0.13 -0.45,0.11 -0.75,0.22l-1.39 0.57c-0.22,0.1 -0.51,0.21 -0.7,0.28 -0.26,0.1 -0.44,0.14 -0.72,0.25l-2.01 0.86c-0.32,0.13 -0.42,0.15 -0.67,0.32 -0.28,0.18 -0.36,0.18 -0.71,0.28 -0.26,0.07 -0.54,0.22 -0.81,0.37 0.01,0.11 0.03,0.25 0.03,0.42 -0.01,0.8 0.25,1.94 0.41,2.76 0.05,0.27 0.06,0.71 0.16,0.96 0.2,0.51 0.07,0.35 0.15,0.85 0.06,0.28 0.1,0.21 0.15,0.43 0.06,0.19 0.03,0.3 0.08,0.47 0.07,0.24 0.1,0.16 0.14,0.39 0.16,0.76 0.17,0.44 0.29,0.86 0.06,0.19 0.02,0.28 0.07,0.48 0.02,0.13 0.19,0.66 0.25,0.82l0.39 1.28c0.08,0.17 0.12,0.11 0.21,0.33l0.54 1.58c0.12,0.31 0.15,0.5 0.29,0.83 0.14,0.35 0.2,0.34 0.36,0.74l0.47 1.18c0.27,0.6 0.64,1.25 0.85,1.9l1.5 2.82c0.23,0.33 0.52,1.03 0.74,1.47 0.15,0.31 0.29,0.37 0.42,0.6l0.09 -0.05 0.52 -0.25c0.3,-0.12 0.61,-0.35 0.91,-0.44 0.19,-0.06 0.24,-0.05 0.39,-0.15 0.14,-0.1 0.2,-0.11 0.37,-0.18l1.12 -0.48c0.15,-0.06 0.25,-0.08 0.4,-0.14 0.1,-0.03 0.26,-0.1 0.38,-0.15l0.77 -0.32c0.17,-0.06 0.24,-0.05 0.42,-0.12l0.56 -0.24c0.09,-0.04 0.11,-0.03 0.21,-0.06 0.26,-0.07 0.3,-0.12 0.59,-0.19 0.31,-0.07 0.29,-0.2 1,-0.35l1.83 -0.57c0.13,-0.05 0.07,-0.04 0.23,-0.06 0.32,-0.05 0.78,-0.25 0.82,-0.25l1.31 -0.31c0.29,-0.04 0.13,-0.12 0.42,-0.14 0.31,-0.03 0.25,-0.06 0.43,-0.1l0.41 -0.09c0.16,-0.04 0.3,-0.03 0.46,-0.08 0.21,-0.06 0.32,0 0.5,-0.05 0.15,-0.04 0.24,-0.09 0.42,-0.12 0.2,-0.03 0.21,-0.08 0.42,-0.11l1.87 -0.28c0.15,-0.04 0.34,-0.01 0.52,-0.02 0.17,-0.01 0.26,-0.08 0.43,-0.1 0.35,-0.03 0.67,-0.03 1.02,-0.08l1.44 -0.19 3.8 0c0.26,0.17 1.72,0.13 2.19,0.26l1.8 0.31c0.18,0.03 0.11,0.05 0.25,0.08 0.1,0.03 0.15,0.01 0.24,0.03 0.14,0.02 0.09,0.05 0.2,0.1 0.13,0.06 0.12,0.02 0.26,0.05 0.12,0.03 0.1,0.06 0.22,0.08 0.46,0.09 0.44,0.14 0.73,0.2l2.01 0.78 1.18 0.64c0.14,0.07 0.24,0.13 0.38,0.24 0.06,0.04 0.55,0.32 0.73,0.48 0.12,0.11 0.23,0.17 0.35,0.26 0.11,0.09 0.21,0.23 0.31,0.31 0.2,0.18 0.13,0.01 0.65,0.55 0.5,0.5 1.38,1.36 1.76,1.96 0.24,0.37 0.82,1.12 0.98,1.45 0.21,0.44 0.14,0.13 0.45,0.75l0.43 0.81c0.07,0.13 0.1,0.28 0.17,0.41 0.15,0.27 0.29,0.49 0.38,0.85 0.12,0.43 0.4,0.82 0.53,1.33 0.05,0.19 0.07,0.3 0.14,0.48 0.06,0.15 0.06,0.05 0.11,0.21 0.04,0.11 0.04,0.13 0.08,0.23l0.18 0.7c0.04,0.13 0.03,0.09 0.06,0.26 0.03,0.19 0.04,0.1 0.07,0.22 0.04,0.12 0.01,0.17 0.05,0.27 0.04,0.15 0.06,0.05 0.11,0.2 0.04,0.1 0.01,0.15 0.04,0.27 0.04,0.12 0.06,0.09 0.08,0.21l0.13 0.81c0.1,0.24 0.04,0.32 0.11,0.51l0.33 2.12c0.1,0.27 0.08,0.22 0.08,0.54 0,0.19 0.16,2.05 0.27,2.21l0 5.31c-0.16,0.11 -0.06,0.65 -0.1,0.86 -0.08,0.5 -0.06,1.2 -0.08,1.28 -0.04,0.18 -0.09,0.05 -0.09,0.36l-0.42 3.35 0.12 -0.01c0.66,-0.05 0.53,-0.13 0.93,-0.2l0.87 -0.2c0.36,-0.09 0.66,-0.06 1,-0.17 0.44,-0.14 0.68,0 1.08,-0.11 0.32,-0.08 0.5,-0.18 0.89,-0.25 0.43,-0.07 0.46,-0.19 0.9,-0.24l4.02 -0.6c0.33,-0.1 0.74,-0.02 1.12,-0.05 0.37,-0.03 0.56,-0.16 0.93,-0.2 0.74,-0.09 1.43,-0.07 2.18,-0.19l3.11 -0.41 7.28 0z"/>
  <path class="fil2" d="M66.68 111.04l2.15 0c0.45,-0.31 2.13,-0.16 2.87,-0.33 0.32,-0.07 0.37,-0.04 0.71,-0.07 0.38,-0.02 0.3,-0.1 0.63,-0.21 0.19,-0.06 0.51,-0.06 0.73,-0.1 0.24,-0.05 0.47,-0.09 0.72,-0.14 0.37,-0.08 0.12,-0.12 0.57,-0.18l1.28 -0.33c0.31,-0.11 0.42,-0.18 0.62,-0.25l2.37 -0.9 3.12 -1.71c0.2,-0.15 0.22,-0.24 0.45,-0.38 1.21,-0.73 3.05,-2.14 4.19,-3.15 0.33,-0.29 0.45,-0.45 0.84,-0.76 0.62,-0.49 3.44,-3.53 3.91,-4.2 0.25,-0.37 0.56,-0.53 0.76,-0.84 0.28,-0.43 0.69,-1.03 1.06,-1.39 0.24,-0.23 0.14,-0.28 0.33,-0.51 0.13,-0.18 0.2,-0.18 0.35,-0.41l0.61 -1c0.31,-0.41 0.3,-0.29 0.72,-0.95l1.85 -3.05c0.12,-0.21 0.23,-0.3 0.34,-0.49 0.41,-0.69 1.28,-2.52 1.7,-3.21 0.27,-0.43 0.3,-0.59 0.53,-1.07 0.09,-0.18 0.19,-0.38 0.28,-0.56 0.34,-0.69 0.12,-0.09 0.52,-1.09 0.31,-0.77 0.76,-1.47 1.01,-2.19 0.04,-0.1 0.08,-0.21 0.12,-0.33 0.16,-0.5 0.06,-0.31 0.39,-0.85l0.66 -1.78c0.09,-0.27 0.23,-0.34 0.48,-1.15 0.09,-0.29 0.25,-0.85 0.4,-1.19 0.1,-0.24 0.13,-0.35 0.27,-0.57 0.16,-0.28 0.08,-0.34 0.19,-0.64l0.56 -1.82c0.54,-0.99 0.24,-0.67 0.39,-1.23 0.02,-0.07 0.18,-0.51 0.21,-0.61l0.27 -0.99c0.05,-0.16 0.03,-0.18 0.1,-0.33 0.11,-0.28 0.12,-0.15 0.21,-0.55 0.07,-0.33 0.12,-0.25 0.17,-0.7 0.04,-0.44 0.09,-0.24 0.16,-0.57 0.03,-0.16 0.01,-0.22 0.05,-0.38 0.18,-0.71 0.35,-0.72 0.43,-1.62l0.5 -1.92c0.08,-0.3 -0.01,-0.44 0.09,-0.75 0.1,-0.3 0.09,-0.25 0.15,-0.61 0.06,-0.35 0.09,-0.41 0.19,-0.65 0.05,-0.14 0.24,-1.23 0.24,-1.39 -0.01,-0.54 0.02,-0.34 0.14,-0.67 0.08,-0.26 0,-0.53 0.05,-0.8 0.06,-0.39 0.13,-0.13 0.16,-0.63l0.1 -0.74c-0.04,-0.02 -0.07,-0.03 -0.09,-0.05l-7.74 0 -2.93 0.39c-0.72,0.11 -1.37,0.09 -2.07,0.17 -0.35,0.04 -0.53,0.17 -0.87,0.19 -0.37,0.03 -0.76,-0.04 -1.07,0.05l-3.8 0.57c-0.42,0.05 -0.44,0.16 -0.85,0.23 -0.37,0.06 -0.55,0.15 -0.84,0.24 -0.38,0.09 -0.61,-0.03 -1.02,0.1 -0.33,0.1 -0.61,0.07 -0.96,0.16l-0.81 0.19c-0.38,0.06 -0.26,0.14 -0.88,0.18 -0.56,0.05 -0.31,0.2 -0.75,0.29l-0.18 0.66c-0.04,0.5 -0.13,0.5 -0.24,0.89 -0.02,0.09 -0.01,0.13 -0.02,0.22 -0.04,0.18 -0.07,0.07 -0.09,0.31 -0.03,0.25 -0.05,0.2 -0.1,0.39 -0.05,0.22 -0.05,0.15 -0.11,0.3 -0.04,0.09 -0.03,0.1 -0.05,0.19l-0.16 0.54c-0.01,0.06 -0.1,0.3 -0.11,0.34 -0.08,0.31 0.08,0.13 -0.22,0.68l-0.31 1.01c-0.06,0.17 -0.01,0.2 -0.11,0.35 -0.07,0.13 -0.09,0.18 -0.14,0.32 -0.08,0.19 -0.18,0.5 -0.23,0.66 -0.13,0.45 -0.21,0.49 -0.26,0.64l-0.37 0.98c-0.18,0.3 -0.12,0.2 -0.21,0.47 -0.02,0.07 -0.05,0.13 -0.07,0.18 -0.14,0.4 -0.38,0.79 -0.56,1.22 -0.22,0.55 -0.1,0.22 -0.29,0.6 -0.04,0.1 -0.1,0.21 -0.15,0.31 -0.13,0.26 -0.15,0.35 -0.29,0.59 -0.24,0.38 -0.72,1.4 -0.94,1.78 -0.07,0.1 -0.13,0.16 -0.19,0.27l-1.03 1.69c-0.23,0.37 -0.23,0.3 -0.39,0.52l-0.34 0.56c-0.09,0.13 -0.13,0.13 -0.2,0.22 -0.1,0.13 -0.05,0.16 -0.18,0.29 -0.21,0.2 -0.43,0.53 -0.59,0.77 -0.11,0.17 -0.28,0.26 -0.42,0.46 -0.26,0.38 -1.82,2.06 -2.16,2.33 -0.22,0.17 -0.29,0.26 -0.47,0.42 -0.63,0.56 -1.65,1.34 -2.32,1.74 -0.13,0.08 -0.14,0.13 -0.25,0.22l-1.73 0.94 -1.31 0.5c-0.11,0.04 -0.17,0.08 -0.34,0.14l-0.71 0.18c-0.25,0.03 -0.11,0.06 -0.32,0.1 -0.13,0.03 -0.26,0.05 -0.39,0.08 -0.13,0.02 -0.31,0.02 -0.41,0.06 -0.18,0.06 -0.13,0.1 -0.35,0.11 -0.18,0.01 -0.21,0 -0.39,0.04 -0.41,0.09 -1.34,0.01 -1.59,0.18l-1.19 0c-0.15,-0.1 -0.22,-0.06 -0.43,-0.07 -0.2,-0.01 -0.28,-0.05 -0.5,-0.05 -0.98,0 -0.63,-0.1 -0.97,-0.1 -0.31,-0.01 -1.53,-0.16 -1.85,-0.3 -0.22,-0.09 -0.21,-0.02 -0.43,-0.06 -0.12,-0.02 -0.1,-0.04 -0.21,-0.07 -0.1,-0.03 -0.14,-0.01 -0.24,-0.04 -0.09,-0.02 -0.05,-0.04 -0.18,-0.07 -0.54,-0.11 -0.71,-0.23 -0.84,-0.25l-1.05 -0.3c-0.24,-0.07 -0.19,-0.1 -0.39,-0.16 -0.14,-0.04 -0.23,-0.07 -0.39,-0.12 -0.12,-0.04 -0.07,-0.03 -0.19,-0.07 -0.27,-0.08 -0.39,-0.19 -0.56,-0.25 -0.17,-0.06 -0.25,-0.07 -0.41,-0.14 -0.12,-0.05 -0.27,-0.08 -0.4,-0.13 -0.47,-0.21 -0.37,-0.22 -1.13,-0.5 -0.33,-0.13 -1.42,-0.76 -1.77,-0.9 -0.18,-0.07 -0.21,-0.12 -0.34,-0.2 -0.2,-0.13 -0.46,-0.23 -0.72,-0.37 -0.22,-0.11 -0.43,-0.28 -0.64,-0.4 -0.11,-0.06 -0.24,-0.09 -0.37,-0.17 -0.13,-0.09 -0.17,-0.16 -0.31,-0.24l-0.68 -0.4c-0.23,-0.15 -0.44,-0.23 -0.67,-0.41 -0.13,-0.09 -0.15,-0.15 -0.28,-0.22 -0.14,-0.09 -0.21,-0.12 -0.34,-0.21l-1.28 -0.88c-0.15,-0.09 -0.24,-0.17 -0.34,-0.25l-0.33 0.21c-0.23,0.16 -0.42,0.26 -0.66,0.44 -0.27,0.21 -0.35,0.34 -0.6,0.51 -0.53,0.37 -0.81,0.51 -1.27,0.93 -0.2,0.18 -0.43,0.28 -0.64,0.45 -0.22,0.18 -0.33,0.36 -0.57,0.54 -0.4,0.32 -0.8,0.53 -1.21,0.92 -0.26,0.24 -0.26,0.3 -0.6,0.51l-1.81 1.49c-0.37,0.32 -0.73,0.74 -1.09,1.1 -0.36,0.36 -0.74,0.63 -1.12,1.01 -0.94,0.95 -3.42,3.48 -4.2,4.54 -0.19,0.26 -0.29,0.34 -0.52,0.57 -0.21,0.21 -0.32,0.43 -0.46,0.65l-0.14 0.2 0.68 0.6c0.24,0.2 0.35,0.18 0.55,0.36 0.17,0.16 0.3,0.34 0.48,0.5 0.18,0.15 0.37,0.23 0.58,0.4 0.22,0.18 0.29,0.32 0.5,0.48 0.51,0.39 0.61,0.38 1.1,0.86 0.17,0.16 0.36,0.19 0.59,0.38l1.06 0.83c0.45,0.31 0.63,0.53 1.12,0.84l2.31 1.6c0.23,0.16 0.37,0.21 0.62,0.36 0.24,0.14 0.26,0.24 0.49,0.42 0.42,0.31 0.8,0.45 1.22,0.73l1.23 0.73c0.25,0.13 0.33,0.27 0.56,0.41 0.23,0.15 0.46,0.22 0.66,0.33 0.38,0.2 0.76,0.5 1.17,0.72 0.46,0.24 0.94,0.43 1.29,0.65 0.24,0.15 0.29,0.25 0.61,0.38 0.64,0.24 2.6,1.38 3.2,1.61 1.38,0.52 1.2,0.54 2.05,0.9 0.22,0.1 0.5,0.16 0.72,0.25 0.28,0.12 0.42,0.14 0.74,0.25 0.31,0.11 0.51,0.3 1,0.45 0.23,0.06 0.14,0.06 0.36,0.13 0.27,0.09 0.43,0.14 0.7,0.22 0.36,0.1 0.26,0.16 0.69,0.28l1.9 0.53c0.24,0.04 0.54,0.26 1.52,0.47 0.23,0.04 0.16,0.08 0.33,0.13 0.18,0.05 0.26,0.02 0.43,0.06 0.2,0.05 0.17,0.09 0.38,0.13 0.39,0.08 0.38,-0.06 0.79,0.11 0.56,0.25 2.77,0.53 3.33,0.54 0.62,0 -0.01,0.19 1.75,0.18 0.41,0 0.54,0.07 0.9,0.09 0.38,0.02 0.51,-0.05 0.78,0.13z"/>
 </g>
</svg>
