<svg width="140" height="140" viewBox="0 0 140 140" fill="none" xmlns="http://www.w3.org/2000/svg">
<circle cx="70" cy="70" r="69.5" fill="white" stroke="#E0E0E0"/>
<circle cx="70" cy="70" r="59.5" fill="white" stroke="#828282"/>
<path d="M77.2253 69.064H70.9323V62.77C70.9323 62.5119 70.8298 62.2645 70.6474 62.082C70.4649 61.8995 70.2174 61.797 69.9593 61.797C69.7013 61.797 69.4538 61.8995 69.2713 62.082C69.0888 62.2645 68.9863 62.5119 68.9863 62.77V69.063H62.6933C62.4353 69.063 62.1878 69.1655 62.0053 69.348C61.8229 69.5305 61.7203 69.7779 61.7203 70.036C61.7203 70.2941 61.8229 70.5415 62.0053 70.724C62.1878 70.9065 62.4353 71.009 62.6933 71.009H68.9863V77.302C68.9863 77.56 69.0888 77.8075 69.2713 77.99C69.4538 78.1725 69.7013 78.275 69.9593 78.275C70.2174 78.275 70.4649 78.1725 70.6474 77.99C70.8298 77.8075 70.9323 77.56 70.9323 77.302V71.01H77.2253C77.4834 71.01 77.7309 70.9075 77.9134 70.725C78.0958 70.5425 78.1983 70.2951 78.1983 70.037C78.1983 69.7789 78.0958 69.5315 77.9134 69.349C77.7309 69.1665 77.4834 69.064 77.2253 69.064Z" fill="#D13D73"/>
<path d="M99.9973 45.125C99.9991 44.4517 99.8674 43.7847 99.6098 43.1627C99.3521 42.5406 98.9737 41.9758 98.4963 41.501C98.0215 41.0237 97.4567 40.6452 96.8346 40.3876C96.2126 40.1299 95.5456 39.9982 94.8723 40C94.199 39.9982 93.532 40.1299 92.91 40.3876C92.2879 40.6452 91.7231 41.0237 91.2483 41.501C90.8623 41.887 90.3883 42.419 89.8733 43.119C89.8103 43.117 89.7463 43.114 89.6823 43.114H70.4643C69.5182 43.1115 68.581 43.2968 67.7069 43.6589C66.8329 44.0211 66.0394 44.5531 65.3723 45.224L41.8023 68.792C40.6482 69.9487 40 71.516 40 73.15C40 74.784 40.6482 76.3513 41.8023 77.508L62.4883 98.194C63.0592 98.7683 63.7383 99.2236 64.4864 99.5336C65.2345 99.8436 66.0366 100.002 66.8463 100C67.656 100.002 68.458 99.8439 69.2061 99.534C69.9541 99.2242 70.6333 98.7691 71.2043 98.195L94.7743 74.625C95.4452 73.958 95.9772 73.1644 96.3394 72.2904C96.7016 71.4163 96.8868 70.4791 96.8843 69.533V50.315C96.8843 50.229 96.8803 50.145 96.8773 50.059C97.3693 49.709 98.0433 49.203 98.4963 48.749C98.9737 48.2742 99.3521 47.7094 99.6098 47.0874C99.8674 46.4653 99.9991 45.7983 99.9973 45.125V45.125ZM94.9373 69.533C94.9391 70.2235 94.804 70.9075 94.5396 71.5453C94.2753 72.1832 93.887 72.7623 93.3973 73.249L69.8283 96.819C69.4376 97.2118 68.9729 97.5233 68.461 97.7353C67.9492 97.9472 67.4003 98.0556 66.8463 98.054C66.2925 98.0555 65.7438 97.947 65.2321 97.7351C64.7204 97.5231 64.2559 97.2117 63.8653 96.819L43.1783 76.133C42.3886 75.3415 41.9451 74.2691 41.9451 73.151C41.9451 72.0329 42.3886 70.9605 43.1783 70.169L66.7483 46.6C67.2352 46.1105 67.8143 45.7224 68.4521 45.4582C69.09 45.1941 69.7739 45.0591 70.4643 45.061H88.6243C87.9743 46.211 87.3143 47.626 86.7153 49.347C86.6663 49.345 86.6173 49.343 86.5683 49.343C85.4848 49.3443 84.446 49.7754 83.6798 50.5415C82.9137 51.3077 82.4826 52.3465 82.4813 53.43C82.4826 54.5136 82.9137 55.5523 83.6798 56.3185C84.446 57.0847 85.4848 57.5157 86.5683 57.517C87.6518 57.5157 88.6906 57.0847 89.4568 56.3185C90.223 55.5523 90.654 54.5136 90.6553 53.43C90.6548 52.711 90.4646 52.0048 90.104 51.3828C89.7433 50.7607 89.225 50.2448 88.6013 49.887C89.1373 48.37 89.8613 46.694 90.8143 45.185C91.9825 45.4442 93.0274 46.0937 93.7769 47.0264C94.5264 47.9592 94.9357 49.1195 94.9373 50.316V69.534V69.533ZM86.3543 54.378C86.4789 54.4064 86.608 54.4098 86.7339 54.3882C86.8599 54.3666 86.9804 54.3203 87.0884 54.252C87.1965 54.1837 87.29 54.0948 87.3636 53.9903C87.4372 53.8858 87.4894 53.7678 87.5173 53.643C87.6243 53.17 87.7773 52.545 87.9823 51.826C88.4273 52.219 88.7093 52.791 88.7093 53.429C88.7093 54.609 87.7493 55.569 86.5693 55.569C85.3883 55.569 84.4273 54.609 84.4273 53.429C84.4273 52.413 85.1393 51.562 86.0903 51.344C85.9175 51.9636 85.7604 52.5875 85.6193 53.215C85.5626 53.4667 85.6082 53.7306 85.746 53.9487C85.8838 54.1668 86.1026 54.3212 86.3543 54.378V54.378ZM97.1203 47.373C96.9158 47.5705 96.7005 47.7564 96.4753 47.93C96.1139 46.9083 95.5276 45.9808 94.7596 45.2161C93.9916 44.4514 93.0616 43.869 92.0383 43.512C92.2273 43.292 92.4223 43.079 92.6243 42.877C93.2243 42.277 94.0233 41.947 94.8723 41.947C95.7213 41.947 96.5193 42.277 97.1203 42.877C97.7203 43.477 98.0503 44.276 98.0503 45.125C98.0503 45.975 97.7203 46.772 97.1203 47.373V47.373Z" fill="#D13D73"/>
</svg>
