<svg xmlns="http://www.w3.org/2000/svg" width="129" height="78" viewBox="0 0 129 78" fill="none"><path d="M129 38.6166C129.006 59.9387 111.726 77.227 90.4035 77.2327C69.0809 77.2379 51.793 59.9583 51.7874 38.6362V38.6166C51.7817 17.2948 69.0622 0.00566569 90.3834 1.39211e-06C111.706 -0.00566291 128.994 17.2748 129 38.597V38.6166Z" fill="#FF9900"></path><path d="M38.3578 0.00953674C17.1619 0.144173 0 17.3885 0 38.6161C0 59.9265 17.2957 77.2222 38.6065 77.2222C48.6084 77.2222 57.7253 73.4105 64.5856 67.1633L64.5826 67.1615H64.5909C65.9964 65.881 67.3063 64.4992 68.5101 63.0275H60.6006C59.5558 61.7658 58.5943 60.4374 57.7222 59.0507H71.3636C72.196 57.7196 72.9465 56.339 73.611 54.9166H55.47C54.8551 53.5966 54.3164 52.2423 53.8566 50.8605H75.2262C76.5459 46.9131 77.2168 42.7778 77.2131 38.6156C77.2131 35.7783 76.9055 33.0119 76.3234 30.3484H52.7233C53.0163 28.9775 53.384 27.6236 53.8248 26.2927H75.2023C74.7275 24.884 74.1718 23.5038 73.5378 22.1591H55.4679C56.1211 20.7626 56.861 19.4082 57.683 18.1039H71.3144C70.4077 16.6614 69.4067 15.2804 68.318 13.9699H60.7178C61.9071 12.5727 63.2019 11.269 64.5909 10.0702C57.7301 3.82204 48.6106 0.00953674 38.6065 0.00953674H38.3578V0.00953674Z" fill="#CC0000"></path><path d="M125.127 58.7988C125.337 58.7988 125.541 58.8532 125.741 58.9604C125.941 59.0676 126.095 59.2223 126.207 59.4232C126.319 59.6218 126.374 59.8314 126.374 60.0484C126.374 60.2628 126.319 60.4702 126.209 60.6689C126.1 60.8671 125.946 61.0218 125.747 61.132C125.55 61.2405 125.343 61.2954 125.126 61.2954C124.91 61.2954 124.703 61.2405 124.505 61.132C124.31 61.0244 124.15 60.8638 124.042 60.6689C123.935 60.4796 123.878 60.2659 123.878 60.0484C123.878 59.8314 123.933 59.6218 124.045 59.4232C124.153 59.2272 124.315 59.0665 124.512 58.9604C124.7 58.8562 124.912 58.8006 125.127 58.7988V58.7988ZM125.127 59.0057C124.952 59.0057 124.781 59.0511 124.614 59.1413C124.449 59.2314 124.319 59.3591 124.226 59.5282C124.134 59.686 124.085 59.8655 124.085 60.0484C124.085 60.2279 124.131 60.4013 124.222 60.566C124.315 60.7303 124.444 60.8593 124.609 60.9516C124.775 61.0436 124.947 61.0889 125.126 61.0889C125.307 61.0889 125.479 61.0436 125.645 60.9516C125.809 60.8593 125.938 60.7303 126.03 60.566C126.12 60.4078 126.167 60.2287 126.166 60.0466C126.166 59.8645 126.117 59.6858 126.026 59.5282C125.937 59.3636 125.802 59.229 125.637 59.1413C125.481 59.0533 125.306 59.0066 125.127 59.0057V59.0057ZM124.58 60.7377V59.3948H125.042C125.199 59.3948 125.313 59.407 125.384 59.4332C125.453 59.4565 125.512 59.502 125.553 59.5626C125.6 59.6311 125.622 59.7139 125.614 59.7967C125.606 59.8795 125.569 59.9568 125.51 60.0153C125.436 60.09 125.337 60.1338 125.232 60.1377C125.274 60.1547 125.313 60.1789 125.347 60.2092C125.401 60.2615 125.467 60.3499 125.545 60.475L125.709 60.7377H125.445L125.326 60.5264C125.232 60.3599 125.157 60.2562 125.099 60.2135C125.059 60.1835 125.001 60.1678 124.926 60.1678H124.798V60.739H124.58L124.58 60.7377ZM124.797 59.9817H125.06C125.185 59.9817 125.27 59.9626 125.316 59.9255C125.338 59.9078 125.356 59.8851 125.368 59.8592C125.38 59.8334 125.386 59.805 125.385 59.7765C125.386 59.7385 125.375 59.7012 125.353 59.6702C125.329 59.6381 125.297 59.6136 125.26 59.5996C125.221 59.5844 125.149 59.5757 125.043 59.5757H124.797V59.9817" fill="#FCB340"></path><path d="M51.4179 49.6924L51.9321 46.198C51.651 46.198 51.238 46.3196 50.8729 46.3196C49.442 46.3196 49.2633 45.5549 49.3757 44.9963L50.7857 37.9682H52.9608L53.4091 34.0019H51.3591L51.7765 31.5985H47.4882C47.3976 31.6891 45.0622 45.1153 45.0622 46.7509C45.0622 49.1713 46.4207 50.2484 48.337 50.2314C49.8367 50.2184 51.0057 49.8036 51.4179 49.6924V49.6924ZM52.7194 43.0312C52.7194 48.8402 56.5533 50.2201 59.8203 50.2201C62.8358 50.2201 64.4171 49.5212 64.4171 49.5212L65.1412 45.5562C65.1412 45.5562 62.5932 46.5923 60.5222 46.5923C56.108 46.5923 56.8818 43.3009 56.8818 43.3009L65.3621 43.3266C65.3621 43.3266 65.902 40.664 65.902 39.5786C65.902 36.8698 64.4262 33.544 59.9131 33.544C55.7799 33.5453 52.7194 37.9987 52.7194 43.0312V43.0312ZM59.9288 37.2253C62.2485 37.2253 61.8206 39.8326 61.8206 40.044H57.257C57.257 39.7738 57.6879 37.2249 59.9288 37.2249V37.2253ZM85.9575 49.6911L86.6934 45.2102C86.6934 45.2102 84.6752 46.2211 83.2918 46.2211C80.3756 46.2211 79.2057 43.9946 79.2057 41.6025C79.2057 36.75 81.7145 34.0799 84.5074 34.0799C86.6024 34.0799 88.2829 35.2559 88.2829 35.2559L88.9539 30.9018C88.9539 30.9018 86.9697 29.4683 84.8338 29.4604C78.4092 29.4352 74.7331 33.9082 74.7331 41.6409C74.7331 46.7662 77.4554 50.2541 82.3607 50.2541C83.7476 50.2541 85.9575 49.6911 85.9575 49.6911V49.6911ZM28.8091 33.6085C25.9905 33.6085 23.8302 34.5143 23.8302 34.5143L23.2333 38.0554C23.2333 38.0554 25.0166 37.3308 27.7128 37.3308C29.2435 37.3308 30.3633 37.5029 30.3633 38.7468C30.3633 39.5024 30.2265 39.7812 30.2265 39.7812C30.2265 39.7812 29.0187 39.6806 28.4592 39.6806C24.4463 39.6806 21.1701 41.1977 21.1701 45.7719C21.1701 49.3766 23.6202 50.2031 25.1386 50.2031C28.0392 50.2031 29.1873 48.3718 29.2535 48.3666L29.22 49.8863H32.8395L34.4542 38.5665C34.4542 33.7627 30.2644 33.608 28.8091 33.608V33.6085ZM29.4357 42.8003C29.5145 43.4913 29.257 46.7592 26.7813 46.7592C25.5046 46.7592 25.1731 45.7832 25.1731 45.2072C25.1731 44.0813 25.7844 42.731 28.796 42.731C29.4975 42.731 29.3176 42.7816 29.4357 42.8003V42.8003ZM38.3012 50.1194C39.2271 50.1194 44.5197 50.3547 44.5197 44.8935C44.5197 39.7865 39.6205 40.796 39.6205 38.7438C39.6205 37.7234 40.4192 37.4018 41.8793 37.4018C42.4583 37.4018 44.6883 37.5861 44.6883 37.5861L45.2064 33.9566C45.2064 33.9566 43.7633 33.6337 41.4139 33.6337C38.3731 33.6337 35.2864 34.8476 35.2864 39.0009C35.2864 43.7075 40.4331 43.2347 40.4331 45.2172C40.4331 46.5405 38.9953 46.6494 37.8868 46.6494C35.9692 46.6494 34.2429 45.991 34.2368 46.0229L33.6882 49.6153C33.788 49.6458 34.8533 50.1194 38.3012 50.1194ZM119.864 30.3158L119.121 35.8533C119.121 35.8533 117.573 33.7161 115.15 33.7161C110.593 33.7161 108.245 38.2575 108.245 43.4744C108.245 46.8424 109.92 50.1438 113.342 50.1438C115.804 50.1438 117.17 48.4267 117.17 48.4267L116.989 49.8929H120.988L124.128 30.3458L119.864 30.3153V30.3158ZM118.098 41.0779C118.098 43.2495 117.023 46.1496 114.795 46.1496C113.315 46.1496 112.622 44.9079 112.622 42.9589C112.622 39.7716 114.053 37.6693 115.86 37.6693C117.339 37.6693 118.098 38.6845 118.098 41.0784V41.0779ZM6.55234 49.9094L9.05465 35.1518L9.42239 49.9094H12.2541L17.5372 35.1518L15.1969 49.9094H19.4051L22.6455 30.3362L15.9607 30.2853L11.9844 42.2692L11.8755 30.3362H5.74932L2.46228 49.9094H6.55234V49.9094Z" fill="#000066"></path><path d="M69.8844 49.9365C71.0808 43.1332 71.507 37.76 74.9962 38.8728C75.4972 36.2393 76.6915 33.9492 77.2371 32.8346C77.2371 32.8346 77.0645 32.5776 75.9861 32.5776C74.1452 32.5776 71.6874 36.3138 71.6874 36.3138L72.0547 34.0041H68.2265L65.6627 49.9365H69.8844ZM94.5672 33.6085C91.7472 33.6085 89.587 34.5143 89.587 34.5143L88.9905 38.0554C88.9905 38.0554 90.7747 37.3308 93.4696 37.3308C95.0007 37.3308 96.1201 37.5029 96.1201 38.7469C96.1201 39.5024 95.9837 39.7813 95.9837 39.7813C95.9837 39.7813 94.7763 39.6806 94.2169 39.6806C90.2035 39.6806 86.9278 41.1978 86.9278 45.7719C86.9278 49.3766 89.3774 50.2031 90.8959 50.2031C93.7955 50.2031 94.9445 48.3718 95.0103 48.3666L94.9763 49.8864H98.5967L100.211 38.5665C100.211 33.7627 96.0216 33.608 94.5672 33.608V33.6085ZM95.1929 42.8003C95.2713 43.4914 95.0138 46.7592 92.5385 46.7592C91.261 46.7592 90.9298 45.7832 90.9298 45.2072C90.9298 44.0813 91.5407 42.731 94.5528 42.731C95.2548 42.731 95.0752 42.7816 95.1929 42.8003V42.8003ZM104.378 49.9369C105.035 44.9314 106.251 37.9042 109.489 38.8728C109.99 36.2393 109.507 36.2463 108.429 36.2463C106.587 36.2463 106.179 36.3134 106.179 36.3134L106.547 34.0037H102.719L100.155 49.9365H104.378V49.9369Z" fill="#000066"></path><path d="M52.4894 48.4459L53.0039 44.9519C52.7229 44.9519 52.3094 45.0722 51.9447 45.0722C50.5138 45.0722 50.3561 44.3114 50.4472 43.7489L51.6031 36.6197H53.7778L54.3028 32.7549H52.2523L52.6697 30.3515H48.5592C48.4686 30.4422 46.1327 43.8687 46.1327 45.5035C46.1327 47.9239 47.4917 49.0019 49.408 48.9845C50.9086 48.9718 52.0772 48.5566 52.4894 48.4459V48.4459ZM53.7917 41.7843C53.7917 47.5932 57.626 48.9736 60.8926 48.9736C63.9077 48.9736 65.2345 48.2995 65.2345 48.2995L65.9586 44.3349C65.9586 44.3349 63.665 45.3454 61.5936 45.3454C57.1798 45.3454 57.9528 42.0544 57.9528 42.0544H66.3063C66.3063 42.0544 66.8457 39.3909 66.8457 38.3055C66.8457 35.5971 65.4976 32.297 60.9845 32.297C56.8513 32.2979 53.7917 36.7513 53.7917 41.7843V41.7843ZM61.0002 35.9784C63.3199 35.9784 62.8921 38.5852 62.8921 38.7961H58.3284C58.3284 38.5269 58.7597 35.9784 61.0002 35.9784V35.9784ZM87.0298 48.4442L87.7653 43.9628C87.7653 43.9628 85.7484 44.9741 84.3641 44.9741C81.4483 44.9741 80.2788 42.7476 80.2788 40.3556C80.2788 35.503 82.7877 32.8334 85.5806 32.8334C87.6751 32.8334 89.3561 34.0094 89.3561 34.0094L90.0271 29.6553C90.0271 29.6553 87.5344 28.6466 85.3976 28.6466C80.6522 28.6466 76.0358 32.7632 76.0358 40.4945C76.0358 45.6212 78.5286 49.0071 83.4339 49.0071C84.8207 49.0075 87.0298 48.4442 87.0298 48.4442V48.4442ZM29.8814 32.361C27.0628 32.361 24.9021 33.2669 24.9021 33.2669L24.3056 36.808C24.3056 36.808 26.0889 36.0834 28.7847 36.0834C30.3154 36.0834 31.4352 36.2555 31.4352 37.4994C31.4352 38.255 31.2979 38.5338 31.2979 38.5338C31.2979 38.5338 30.0906 38.4327 29.5315 38.4327C25.9765 38.4327 22.242 39.9499 22.242 44.524C22.242 48.1283 24.692 48.9553 26.2105 48.9553C29.1106 48.9553 30.3607 47.0734 30.4274 47.0677L30.2919 48.6385H33.9113L35.5261 37.3182C35.5261 32.5157 31.3367 32.361 29.8814 32.361V32.361ZM30.762 41.5782C30.8404 42.2696 30.3285 45.5109 27.8536 45.5109C26.5769 45.5109 26.2449 44.5358 26.2449 43.9589C26.2449 42.8339 26.8562 41.4832 29.8683 41.4832C30.569 41.4841 30.6439 41.559 30.762 41.5782ZM39.373 48.8725C40.2989 48.8725 45.592 49.1078 45.592 43.6461C45.592 38.5399 40.6924 39.5486 40.6924 37.4973C40.6924 36.4759 41.491 36.1544 42.9507 36.1544C43.5302 36.1544 45.7597 36.3387 45.7597 36.3387L46.2782 32.7092C46.2782 32.7096 44.8352 32.3863 42.4858 32.3863C39.4449 32.3863 36.3583 33.6002 36.3583 37.7535C36.3583 42.4596 41.505 41.9873 41.505 43.9698C41.505 45.2931 40.0671 45.4007 38.9591 45.4007C37.0415 45.4007 35.3148 44.7428 35.3087 44.7741L34.7605 48.367C34.8599 48.3975 35.9248 48.8725 39.373 48.8725V48.8725ZM121.079 29.1041L120.192 34.6059C120.192 34.6059 118.645 32.4687 116.223 32.4687C112.456 32.4687 109.317 37.0097 109.317 42.2274C109.317 45.5955 110.992 48.8956 114.415 48.8956C116.877 48.8956 118.242 47.1789 118.242 47.1789L118.061 48.645H122.059L125.199 29.0975L121.079 29.1041V29.1041ZM119.17 39.8314C119.17 42.0026 118.095 44.9027 115.866 44.9027C114.387 44.9027 113.694 43.6609 113.694 41.7119C113.694 38.5251 115.125 36.4223 116.931 36.4223C118.411 36.4219 119.17 37.4384 119.17 39.8314ZM7.62464 48.662L10.127 33.9044L10.4943 48.662H13.3264L18.6095 33.9044L16.2692 48.662H20.4774L23.7182 29.0884H17.2108L13.1582 41.098L12.9473 29.0884H6.94885L3.66138 48.662H7.62464ZM70.9567 48.689C72.1532 41.8849 72.375 36.36 75.2302 37.3713C75.73 34.7379 76.2123 33.7192 76.7578 32.6046C76.7578 32.6046 76.5021 32.551 75.9653 32.551C74.1244 32.551 72.7606 35.066 72.7606 35.066L73.127 32.7562H69.2997L66.7355 48.689H70.9567V48.689ZM96.5145 32.361C93.6958 32.361 91.5351 33.2669 91.5351 33.2669L90.939 36.808C90.939 36.808 92.7224 36.0834 95.4182 36.0834C96.9489 36.0834 98.0678 36.2555 98.0678 37.4994C98.0678 38.255 97.9314 38.5338 97.9314 38.5338C97.9314 38.5338 96.7245 38.4327 96.1646 38.4327C92.61 38.4327 88.8755 39.9499 88.8755 44.524C88.8755 48.1283 91.3251 48.9553 92.8436 48.9553C95.7437 48.9553 96.9937 47.0734 97.06 47.0677L96.9253 48.6385H100.545L102.159 37.3182C102.16 32.5157 97.9698 32.361 96.5145 32.361V32.361ZM97.3963 41.5782C97.4748 42.2696 96.9624 45.5109 94.4866 45.5109C93.21 45.5109 92.8789 44.5358 92.8789 43.9589C92.8789 42.8339 93.4902 41.4832 96.5018 41.4832C97.2025 41.4841 97.2774 41.559 97.3963 41.5782ZM105.468 48.689C106.664 41.8849 106.886 36.36 109.741 37.3713C110.241 34.7379 110.724 33.7192 111.269 32.6046C111.269 32.6046 111.013 32.551 110.476 32.551C108.636 32.551 107.272 35.066 107.272 35.066L107.638 32.7562H103.811L101.247 48.689H105.468V48.689ZM125.11 46.2307C125.319 46.2307 125.525 46.2843 125.723 46.3933C125.923 46.4987 126.079 46.6538 126.19 46.8547C126.302 47.0542 126.357 47.2621 126.357 47.4795C126.357 47.6943 126.302 47.9017 126.192 48.1C126.086 48.2955 125.926 48.4563 125.73 48.5631C125.533 48.672 125.325 48.7269 125.11 48.7269C124.893 48.7269 124.686 48.672 124.487 48.5631C124.293 48.4558 124.133 48.2951 124.026 48.1C123.918 47.9112 123.861 47.6973 123.86 47.4795C123.86 47.2621 123.916 47.0542 124.028 46.8547C124.135 46.6585 124.298 46.4981 124.495 46.3933C124.696 46.2843 124.902 46.2307 125.11 46.2307ZM125.11 46.4364C124.936 46.4364 124.765 46.4817 124.598 46.5728C124.433 46.6603 124.298 46.7944 124.209 46.9584C124.115 47.1244 124.068 47.2982 124.068 47.4786C124.068 47.659 124.114 47.8316 124.205 47.9963C124.297 48.1605 124.426 48.2895 124.593 48.3823C124.758 48.4729 124.93 48.5187 125.11 48.5187C125.29 48.5187 125.463 48.4729 125.628 48.3823C125.793 48.2895 125.922 48.1605 126.013 47.9963C126.105 47.8302 126.15 47.659 126.15 47.4786C126.15 47.2982 126.103 47.1244 126.01 46.9584C125.921 46.794 125.786 46.6598 125.621 46.5728C125.465 46.4846 125.289 46.4376 125.11 46.4364V46.4364ZM124.564 48.1688V46.8255H125.026C125.183 46.8255 125.298 46.8381 125.368 46.8638C125.437 46.8871 125.497 46.9326 125.537 46.9932C125.578 47.0506 125.6 47.1192 125.601 47.1897C125.601 47.2374 125.592 47.2846 125.573 47.3286C125.555 47.3726 125.528 47.4125 125.494 47.4459C125.421 47.5208 125.322 47.5645 125.217 47.5679C125.258 47.5852 125.297 47.6092 125.331 47.639C125.385 47.6921 125.451 47.781 125.529 47.9052L125.693 48.1684H125.428L125.31 47.957C125.216 47.7902 125.141 47.6865 125.083 47.6442C125.043 47.6133 124.985 47.598 124.909 47.598H124.782V48.1692L124.564 48.1688V48.1688ZM124.781 47.4128H125.044C125.17 47.4128 125.255 47.3941 125.3 47.3566C125.322 47.339 125.341 47.3163 125.353 47.2904C125.365 47.2646 125.371 47.2362 125.37 47.2076C125.37 47.1699 125.359 47.1329 125.337 47.1022C125.314 47.0696 125.282 47.0447 125.244 47.0307C125.205 47.0155 125.134 47.0076 125.027 47.0076H124.781V47.4128" fill="white"></path></svg>