<svg width="52" height="32" fill="none" xmlns="http://www.w3.org/2000/svg">
  <defs/>
  <path opacity=".5" d="M25.1333 23.8415h-2.6V9.67878h2.6c.1461-.00045.2898-.04114.4176-.1183.1278-.07715.2356-.18826.3135-.323.0778-.13473.1231-.28872.1317-.44765.0085-.15892-.0199-.31763-.0828-.46136L22.4467.528794c-.0715-.158924-.1825-.292766-.3204-.386263-.1379-.093496-.2972-.142883-.4596-.14253H4.33333c-.16243-.000353-.32168.049034-.45959.14253-.13792.093497-.24894.227339-.32041.386263L.086667 8.32847c-.06283.14373-.091289.30244-.082728.46136.00856.15893.05386.31292.13169.44765.07783.13474.185662.24585.313472.323.127811.07716.27145.11785.417566.1183H3.46667V23.8415H.866667c-.229855 0-.450295.0995-.612826.2766C.091309 24.2952 0 24.5353 0 24.7858v2.4928c0 .2505.09131.4907.253841.6677.162531.1771.382971.2766.612826.2766H3.46667v2.8328c0 .2505.09131.4906.25384.6677.16253.1771.38297.2766.61282.2766.22986 0 .4503-.0995.61283-.2766S5.2 31.3062 5.2 31.0557v-2.8328h15.6v2.8328c0 .2505.0913.4906.2538.6677.1626.1771.383.2766.6129.2766.2298 0 .4503-.0995.6128-.2766.1625-.1771.2538-.4172.2538-.6677v-2.8328h2.6c.2299 0 .4503-.0995.6129-.2766.1625-.177.2538-.4172.2538-.6677v-2.4928c0-.2505-.0913-.4906-.2538-.6677-.1626-.1771-.383-.2766-.6129-.2766zm-11.2666 0v-5.7776h2.6v5.7776h-2.6zm-4.33337 0v-5.7776h2.59997v5.7776H9.53333zM18.2 18.0639h2.6v5.7776h-2.6v-5.7776zM4.87933 1.88854H21.1207l2.6 5.9017H2.25333l2.626-5.9017zM20.8 9.67878v6.49662H5.2V9.67878h15.6zM5.2 18.0639h2.6v5.7776H5.2v-5.7776zm19.0667 8.2705H1.73333V25.73H24.2667v.6044z" fill="#525764"/>
  <path d="M51.1333 23.8415h-2.6V9.67878h2.6c.1461-.00045.2898-.04114.4176-.1183.1278-.07715.2356-.18826.3135-.323.0778-.13473.1231-.28872.1317-.44765.0085-.15892-.0199-.31763-.0828-.46136L48.4467.528794c-.0715-.158924-.1825-.292766-.3204-.386263-.1379-.093496-.2972-.142883-.4596-.14253H30.3333c-.1624-.000353-.3216.049034-.4596.14253-.1379.093497-.2489.227339-.3204.386263L26.0867 8.32847c-.0629.14373-.0913.30244-.0828.46136.0086.15893.0539.31292.1317.44765.0779.13474.1857.24585.3135.323.1278.07716.2715.11785.4176.1183h2.6V23.8415h-2.6c-.2299 0-.4503.0995-.6129.2766-.1625.1771-.2538.4172-.2538.6677v2.4928c0 .2505.0913.4907.2538.6677.1626.1771.383.2766.6129.2766h2.6v2.8328c0 .2505.0913.4906.2538.6677.1625.1771.383.2766.6128.2766.2299 0 .4503-.0995.6129-.2766.1625-.1771.2538-.4172.2538-.6677v-2.8328h15.6v2.8328c0 .2505.0913.4906.2538.6677.1626.1771.383.2766.6129.2766.2298 0 .4503-.0995.6128-.2766.1625-.1771.2538-.4172.2538-.6677v-2.8328h2.6c.2299 0 .4503-.0995.6129-.2766.1625-.177.2538-.4172.2538-.6677v-2.4928c0-.2505-.0913-.4906-.2538-.6677-.1626-.1771-.383-.2766-.6129-.2766zm-11.2666 0v-5.7776h2.6v5.7776h-2.6zm-4.3334 0v-5.7776h2.6v5.7776h-2.6zM44.2 18.0639h2.6v5.7776h-2.6v-5.7776zM30.8793 1.88854h16.2414l2.6 5.9017H28.2533l2.626-5.9017zM46.8 9.67878v6.49662H31.2V9.67878h15.6zM31.2 18.0639h2.6v5.7776h-2.6v-5.7776zm19.0667 8.2705H27.7333V25.73h22.5334v.6044z" fill="#D13D73"/>
</svg>
