<svg width="46" height="34" fill="none" xmlns="http://www.w3.org/2000/svg">
  <defs/>
  <path opacity=".5" d="M22.1016 0H.898438C.402231 0 0 .431409 0 .963612V32.2852c0 .5322.402231.9636.898437.9636H22.1016c.4962 0 .8984-.4314.8984-.9636V.963612C23 .431409 22.5978 0 22.1016 0zm-11.5 31.3216H1.79687V11.1444h8.80473v20.1772zm10.6015 0h-8.8047V11.1444h8.8047v20.1772zm0-22.10444H1.79687V1.92722H21.2031v7.28994zM3.8569 24.9309c-.35088-.3763-.35088-.9865 0-1.3628l3.41407-3.6617c.35088-.3763.91973-.3763 1.27057 0 .35084.3763.35088.9865 0 1.3628l-3.41407 3.6617c-.35088.3763-.91977.3763-1.27057 0zm0-5.5889c-.35088-.3764-.35088-.9865 0-1.3628l3.41407-3.6617c.35088-.3764.91973-.3764 1.27057 0 .35084.3763.35088.9865 0 1.3627L5.12747 19.342c-.35088.3763-.91977.3762-1.27057 0zm10.6015 5.5889c-.3509-.3763-.3509-.9865 0-1.3628l3.4141-3.6617c.3509-.3763.9198-.3763 1.2706 0s.3509.9865 0 1.3628l-3.4141 3.6617c-.3508.3763-.9198.3763-1.2706 0zm0-5.5889c-.3509-.3764-.3509-.9865 0-1.3628l3.4141-3.6617c.3509-.3764.9198-.3764 1.2706 0 .3508.3763.3509.9865 0 1.3627L15.729 19.342c-.3508.3763-.9198.3762-1.2706 0z" fill="#525764"/>
  <path d="M45.1016 0H23.8984C23.4022 0 23 .431409 23 .963612V32.2852c0 .5322.4022.9636.8984.9636h21.2032c.4962 0 .8984-.4314.8984-.9636V.963612C46 .431409 45.5978 0 45.1016 0zm-11.5 31.3216h-8.8047V11.1444h8.8047v20.1772zm10.6015 0h-8.8047V11.1444h8.8047v20.1772zm0-22.10444H24.7969V1.92722h19.4062v7.28994zM26.8569 24.9309c-.3509-.3763-.3509-.9865 0-1.3628l3.4141-3.6617c.3508-.3763.9197-.3763 1.2705 0 .3509.3763.3509.9865 0 1.3628l-3.414 3.6617c-.3509.3763-.9198.3763-1.2706 0zm0-5.5889c-.3509-.3764-.3509-.9865 0-1.3628l3.4141-3.6617c.3508-.3764.9197-.3764 1.2705 0 .3509.3763.3509.9865 0 1.3627l-3.414 3.6618c-.3509.3763-.9198.3762-1.2706 0zm10.6015 5.5889c-.3509-.3763-.3509-.9865 0-1.3628l3.4141-3.6617c.3509-.3763.9198-.3763 1.2706 0s.3509.9865 0 1.3628l-3.4141 3.6617c-.3508.3763-.9198.3763-1.2706 0zm0-5.5889c-.3509-.3764-.3509-.9865 0-1.3628l3.4141-3.6617c.3509-.3764.9198-.3764 1.2706 0 .3508.3763.3509.9865 0 1.3627L38.729 19.342c-.3508.3763-.9198.3762-1.2706 0z" fill="#D13D73"/>
</svg>
