<svg width="44" height="34" fill="none" xmlns="http://www.w3.org/2000/svg">
  <defs/>
  <path opacity=".5" fill-rule="evenodd" clip-rule="evenodd" d="M.846154 0H21.1538C21.6213 0 22 .413394 22 .923578V32.3252c0 .5102-.3787.9236-.8462.9236H.846154C.378738 33.2488 0 32.8354 0 32.3252V.923578C0 .413394.378738 0 .846154 0zM5.07692 31.4017H16.9231V5.54147H5.07692V31.4017zm13.53848 0h1.6923V1.84716H1.69231V31.4017h1.69231V4.61789c0-.51018.37873-.92358.84615-.92358H17.7692c.4674 0 .8462.4134.8462.92358V31.4017zm-2.5385-12.9302c0 1.0186-.7591 1.8472-1.6923 1.8472-.9331 0-1.6923-.8286-1.6923-1.8472 0-1.0185.7592-1.8471 1.6923-1.8471.9332 0 1.6923.8286 1.6923 1.8471z" fill="#525764"/>
  <path fill-rule="evenodd" clip-rule="evenodd" d="M22.8462 0h20.3076C43.6213 0 44 .413394 44 .923578V32.3252c0 .5102-.3787.9236-.8462.9236H22.8462c-.4675 0-.8462-.4134-.8462-.9236V.923578C22 .413394 22.3787 0 22.8462 0zm4.2307 31.4017h11.8462V5.54147H27.0769V31.4017zm13.5385 0h1.6923V1.84716H23.6923V31.4017h1.6923V4.61789c0-.51018.3788-.92358.8462-.92358h13.5384c.4674 0 .8462.4134.8462.92358V31.4017zm-2.5385-12.9302c0 1.0186-.7591 1.8472-1.6923 1.8472-.9331 0-1.6923-.8286-1.6923-1.8472 0-1.0185.7592-1.8471 1.6923-1.8471.9332 0 1.6923.8286 1.6923 1.8471z" fill="#D13D73"/>
</svg>
