<svg width="58" height="29" fill="none" xmlns="http://www.w3.org/2000/svg">
  <defs/>
  <path opacity=".5" d="M3.41176.904957V16.2892H.852941c-.471165 0-.852941.4051-.852941.905v10.8595c0 .4999.381776.9049.852941.9049H28.1471c.4711 0 .8529-.405.8529-.9049V17.1942c0-.4999-.3818-.905-.8529-.905H11.9412v-1.8099h12.7941c.4712 0 .8529-.405.8529-.9049V.904957C25.5882.405059 25.2065 0 24.7353 0H4.26471c-.47117 0-.85295.405059-.85295.904957zm0 26.243743H1.70588v-9.0496h1.70588v9.0496zm22.17644-9.0496h1.7059v9.0496h-1.7059v-9.0496zm-3.4117 0h1.7059v9.0496h-1.7059v-9.0496zm-3.4118 0h1.7059v9.0496h-1.7059v-9.0496zm-3.4118 0h1.7059v9.0496h-1.7059v-9.0496zm3.4118-16.28919h5.1177V12.6694h-5.1177V1.80991zm-6.8235 0h5.1176V12.6694h-5.1176V1.80991zm0 16.28919h1.7059v9.0496h-1.7059v-9.0496zm-1.7059 9.0496H8.52941v-9.0496h1.70589v9.0496zM5.11765 1.80991h5.11765V16.2892H5.11765V1.80991zm0 16.28919h1.70588v9.0496H5.11765v-9.0496z" fill="#525764"/>
  <path d="M32.4118.904957V16.2892h-2.5589c-.4711 0-.8529.4051-.8529.905v10.8595c0 .4999.3818.9049.8529.9049h27.2942c.4711 0 .8529-.405.8529-.9049V17.1942c0-.4999-.3818-.905-.8529-.905H40.9412v-1.8099h12.7941c.4712 0 .8529-.405.8529-.9049V.904957C54.5882.405059 54.2065 0 53.7353 0H33.2647c-.4712 0-.8529.405059-.8529.904957zm0 26.243743h-1.7059v-9.0496h1.7059v9.0496zm22.1764-9.0496h1.7059v9.0496h-1.7059v-9.0496zm-3.4117 0h1.7059v9.0496h-1.7059v-9.0496zm-3.4118 0h1.7059v9.0496h-1.7059v-9.0496zm-3.4118 0h1.7059v9.0496h-1.7059v-9.0496zm3.4118-16.28919h5.1177V12.6694h-5.1177V1.80991zm-6.8235 0h5.1176V12.6694h-5.1176V1.80991zm0 16.28919h1.7059v9.0496h-1.7059v-9.0496zm-1.7059 9.0496h-1.7059v-9.0496h1.7059v9.0496zM34.1176 1.80991h5.1177V16.2892h-5.1177V1.80991zm0 16.28919h1.7059v9.0496h-1.7059v-9.0496z" fill="#D13D73"/>
</svg>
