<svg width="51" height="51" viewBox="0 0 51 51" fill="none" xmlns="http://www.w3.org/2000/svg">
<path d="M47.7653 28.0969H39.3604L48.6259 18.8307C49.2354 18.2225 49.5713 17.4107 49.5719 16.5448C49.5722 15.6779 49.2368 14.8647 48.6266 14.2548L37.0083 2.63654C36.3986 2.02693 35.5861 1.69135 34.72 1.69135C34.7193 1.69135 34.7188 1.69135 34.7181 1.69135C33.8522 1.69183 33.0406 2.02772 32.4329 2.63654L22.9034 12.166V3.23522C22.9034 1.45125 21.4522 0 19.6682 0H3.23522C1.45125 0 0 1.45125 0 3.23522V29.0484V36.4095V47.7651C0 49.5489 1.45125 51 3.23522 51H14.8534H22.9034H47.7653C49.5491 51 51.0003 49.5489 51.0003 47.7651V31.332C51.0003 29.5481 49.5491 28.0969 47.7653 28.0969ZM1.90307 11.9015H21.0004V20.6675H1.90307V11.9015ZM3.23522 1.90307H19.6682C20.4028 1.90307 21.0004 2.50079 21.0004 3.23522V9.9984H1.90307V3.23522C1.90307 2.50079 2.50063 1.90307 3.23522 1.90307ZM1.90307 22.5705H21.0004V25.8359H22.9034V14.8574L33.7793 3.98138C34.0281 3.73192 34.362 3.59442 34.7191 3.59426C34.7194 3.59426 34.7196 3.59426 34.7199 3.59426C35.0777 3.59426 35.4123 3.73207 35.6624 3.98217L47.2806 15.6004C47.531 15.8507 47.6687 16.1857 47.6685 16.5438C47.6682 16.9008 47.5307 17.2345 47.2806 17.4843L22.9034 41.8634V29.0484H21.0004V31.3367H1.90307V29.0484V22.5705ZM14.8534 49.0973H3.23522C2.50063 49.0973 1.90307 48.4995 1.90307 47.7653V36.4095V33.2398H21.0004V49.0973H14.8534ZM22.9034 44.5546L30.5557 36.9018V49.0969H22.9034V44.5546ZM49.0973 47.7653C49.0973 48.4997 48.4995 49.0973 47.7653 49.0973H42.014V46.2465H40.111V49.0973H32.4587V34.9988L37.4575 30H40.111V43.0189H42.014V30H47.7653C48.4998 30 49.0973 30.5977 49.0973 31.332V47.7653Z" fill="#D13D73"/>
<path d="M11.4517 36.4507C8.92013 36.4507 6.86053 38.5101 6.86053 41.0417C6.86053 43.5732 8.91997 45.6328 11.4517 45.6328C13.9834 45.6328 16.0428 43.5732 16.0428 41.0417C16.0428 38.5101 13.9832 36.4507 11.4517 36.4507ZM11.4517 43.7298C9.96951 43.7298 8.7636 42.5238 8.7636 41.0417C8.7636 39.5595 9.96951 38.3538 11.4517 38.3538C12.934 38.3538 14.1398 39.5597 14.1398 41.0417C14.1398 42.5237 12.9339 43.7298 11.4517 43.7298Z" fill="#D13D73"/>
</svg>
