<svg xmlns="http://www.w3.org/2000/svg" width="64" height="65" viewBox="0 0 64 65" fill="none"><path d="M61.8533 38.0725h-.9876v-8.7617c0-1.3871-.701-2.6153-1.7716-3.3615v-1.193c0-1.7305-1.4294-3.1382-3.1866-3.1382h-.7374l2.8216-4.0778c.9458-1.3668.5861-3.2367-.8017-4.1682L38.0435.5219c-.6723-.4513-1.4826-.618-2.2823-.4685-.7994.1492-1.492.596-1.9501 1.2581L17.2852 25.1943h-4.5988l1.1095-11.0614c.0125-.1247.0948-.2327.2095-.2752 1.4294-.5308 2.6682-1.5221 3.4881-2.7911.0646-.0999.1864-.157.3125-.1445l7.2129.7018c.5172.0494.9772-.3215 1.0283-.8306.051-.5091-.3265-.9625-.8434-1.0127l-7.213-.7018c-.8372-.0808-1.6357.2992-2.0843.9934-.6027.9331-1.5136 1.6618-2.5646 2.052-.7911.2938-1.3343.9936-1.4178 1.8265l-1.1277 11.2435H9.5972l1.7547-17.4947c.0631-.6296.6338-1.0923 1.274-1.0292l14.5759 1.4181c.5169.0491.9772-.3216 1.0283-.8307.051-.509-.3265-.9624-.8434-1.0126L12.8107 4.827C11.1396 4.6646 9.6451 5.8713 9.48 7.5174L8.0657 21.618H5.657c-1.757 0-3.1866 1.4077-3.1866 3.1382v.8138C1.033 26.2219.0322 27.6529.0322 29.3108v31.5726C.0322 63.1533 1.9073 65 4.2122 65h52.4736c2.3048 0 4.1799-1.8467 4.1799-4.1166v-8.7616h.9876c1.1659 0 2.1142-.9339 2.1142-2.082v-9.8852c.0002-1.1482-.9483-2.0821-2.1142-2.0821zm-5.9458-14.6019c.7201-.0002 1.3057.5767 1.3057 1.2859v.4718a4.2705 4.2705 0 00-.5274-.0338h-3.9903l1.1927-1.7239h2.0193zM35.3653 2.3546c.1753-.2533.4402-.4242.746-.4813a1.1992 1.1992 0 01.2193-.0204c.2316 0 .458.0682.6536.1995l19.1466 12.8502c.5308.3564.6685 1.0716.3068 1.5944l-6.0181 8.6971h-1.4443l2.9506-4.264c.4785-.6915.5179-1.5716.1026-2.2968-.552-.9636-.7758-2.0982-.6301-3.1949.1083-.816-.2563-1.6125-.9514-2.0789L40.5214 6.698c-.6952-.4665-1.5813-.5093-2.3127-.1116-.9829.5345-2.137.7443-3.2495.591-.825-.114-1.6617.2529-2.1331.934L21.0055 25.1942h-1.4442l15.804-22.8396zm.4142 15.7283c-4.0955 0-7.4574 3.145-7.7313 7.1113h-4.7668L34.3801 9.1546h.0001a.3372.3372 0 01.275-.1457c.0143 0 .0286.001.0429.003 1.5131.2084 3.0825-.0767 4.4195-.8038.1052-.0574.2403-.0491.3445.0207l9.9256 6.6616c.1039.0699.161.1907.1456.308-.1982 1.4916.1063 3.0346.8569 4.345.0602.1052.0529.2401-.0185.3435l-3.6723 5.3072h-3.1883c-.2741-3.9662-3.6359-7.1112-7.7316-7.1112zm5.8456 7.1114H29.934c.2694-2.9439 2.7874-5.2589 5.8455-5.2589 3.0582-.0001 5.5763 2.315 5.8456 5.2589zm-37.2737-.438c0-.7091.5856-1.286 1.3056-1.286H7.88l-.173 1.7239H4.3514v-.4379zM1.913 29.3108c0-1.2485 1.0314-2.2642 2.2992-2.2642h52.4735c1.2677 0 2.299 1.0157 2.299 2.2642v2.57H1.9131v-2.57zm57.0717 31.5726c0 1.2484-1.0313 2.2642-2.299 2.2642H4.2123c-1.2678 0-2.2992-1.0158-2.2992-2.2642v-2.5701h5.0714c.5195 0 .9404-.4146.9404-.9261 0-.5115-.421-.9261-.9404-.9261H1.9131V33.7332h57.0717v4.3393H50.043c-2.8174 0-5.2579 1.6173-6.4161 3.9585-.0039.0078-.0082.0155-.0122.0233-.0098.02-.0183.0407-.0279.0607a6.9321 6.9321 0 00-.3554.8955l-.0008.0026a6.9059 6.9059 0 00-.3204 2.084c0 3.8735 3.1997 7.0247 7.1326 7.0247h8.9419v4.3393H13.0063c-.5195 0-.9404.4146-.9404.9261 0 .5115.421.9261.9404.9261h45.9785v2.5701zm3.102-10.8437c0 .1267-.1047.2298-.2335.2298H50.0432c-1.9909 0-3.7268-1.0968-4.6172-2.709a5.0436 5.0436 0 01-.3155-.6868 5.0776 5.0776 0 01-.3192-1.7766 5.0798 5.0798 0 01.6347-2.4634c.8904-1.6121 2.6263-2.7089 4.6172-2.7089h11.8101c.1287 0 .2335.1031.2335.2298v9.8851z" fill="#D13D73"></path><path d="M50.2639 41.3394c-2.104 0-3.8157 1.6858-3.8157 3.7578s1.7117 3.7577 3.8157 3.7577 3.8156-1.6857 3.8156-3.7577-1.7116-3.7578-3.8156-3.7578zm0 5.6631c-1.0669 0-1.9348-.8548-1.9348-1.9053 0-1.0506.8679-1.9055 1.9348-1.9055 1.0668 0 1.9347.8548 1.9347 1.9055 0 1.0506-.8679 1.9053-1.9347 1.9053z" fill="#D13D73"></path></svg>