<svg xmlns="http://www.w3.org/2000/svg" width="65" height="65" viewBox="0 0 65 65" fill="none"><path d="M54.166 16.2499v2.1665c1.7918 0 3.25 1.4582 3.25 3.25v40.0825l-2.6031-1.95a1.0775 1.0775 0 00-1.2989 0l-3.6833 2.7625-3.6832-2.7625a1.0775 1.0775 0 00-1.2989 0l-3.6833 2.7625-3.6833-2.7625a1.0773 1.0773 0 00-1.2988 0l-3.6833 2.7625-3.6833-2.7625a1.0791 1.0791 0 00-1.3 0l-2.5999 1.95V21.6664c0-2.9867-2.4299-5.4165-5.4166-5.4165s-5.4166 2.4298-5.4166 5.4165v21.6663c0 1.7918-1.4581 3.25-3.2499 3.25-1.7919 0-3.25-1.4582-3.25-3.25V3.2502l2.6 1.95a1.0824 1.0824 0 001.3 0l3.6832-2.7625 3.6833 2.7625a1.0824 1.0824 0 001.3 0l3.6833-2.7625 3.6832 2.7625a1.0824 1.0824 0 001.3 0l3.6833-2.7625 3.6843 2.7625a1.0808 1.0808 0 001.2989 0l2.6-1.95v14.083h2.1665V1.0835c0-.4106-.2318-.7855-.5991-.9696a1.0845 1.0845 0 00-1.1342.103l-3.6832 2.7625L33.1498.2169a1.0824 1.0824 0 00-1.3 0l-3.6833 2.7625L24.4832.2169a1.0824 1.0824 0 00-1.3 0L19.5 2.9794 15.8168.2169a1.0824 1.0824 0 00-1.3 0l-3.6832 2.7625L7.1503.2169A1.0847 1.0847 0 006.016.1139a1.0845 1.0845 0 00-.5991.9696v42.2492c0 2.9867 2.4299 5.4165 5.4166 5.4165 2.9866 0 5.4165-2.4298 5.4165-5.4165V21.6664c0-1.7918 1.4582-3.25 3.25-3.25s3.25 1.4582 3.25 3.25v42.2491c0 .4106.2318.7855.5991.9695.3661.181.806.1441 1.1342-.1029l3.6832-2.7625 3.6833 2.7625a1.0791 1.0791 0 001.3 0l3.6833-2.7625 3.6843 2.7625a1.0773 1.0773 0 001.2988 0l3.6833-2.7625 3.6843 2.7625a1.0775 1.0775 0 001.2989 0l3.6832-2.7625 3.6833 2.7625a1.078 1.078 0 00.65.2167c.1658 0 .3315-.038.4842-.1138a1.0843 1.0843 0 00.5991-.9695V21.6664c0-2.9867-2.4299-5.4165-5.4166-5.4165z" fill="#D13D73"></path><path d="M54.1669 16.25H19.501v2.1666h34.6659V16.25zM23.8337 46.5825H10.834v2.1666h12.9997v-2.1666zM42.2497 36.8328H29.25v2.1665h12.9997v-2.1665zM53.0833 36.8328H48.75v2.1665h4.3333v-2.1665zM37.9165 43.3328H29.25v2.1665h8.6665v-2.1665zM53.0833 43.3328H48.75v2.1665h4.3333v-2.1665zM42.2497 49.8325H29.25v2.1666h12.9997v-2.1666zM53.0833 49.8325H48.75v2.1666h4.3333v-2.1666zM42.2497 23.833H29.25v2.1666h12.9997V23.833zM53.0833 23.833H48.75v2.1666h4.3333V23.833zM37.9165 30.333H29.25v2.1666h8.6665V30.333zM53.0833 30.333H48.75v2.1666h4.3333V30.333zM15.167 29.2498h-3.25v2.1665h3.25v-2.1665zM15.167 35.7495h-3.25v2.1666h3.25v-2.1666zM19.5001 16.25H11.917v2.1666h7.5831V16.25zM15.167 22.7498h-3.25v2.1665h3.25v-2.1665zM24.9167 9.75H11.917v2.1666h12.9997V9.75zM35.7503 9.75H31.417v2.1666h4.3333V9.75z" fill="#D13D73"></path></svg>