<svg xmlns="http://www.w3.org/2000/svg" width="65" height="49" viewBox="0 0 65 49" fill="none"><path d="M62.0191 14.9205H55.6249L52.3925 2.2445C51.9864 0.651804 50.36 -0.313196 48.7677 0.0927043L41.3982 1.9718C40.9011 2.0985 40.6009 2.6043 40.7276 3.1013C40.8544 3.5984 41.3601 3.8984 41.8571 3.7719L49.2266 1.8928C49.8272 1.74 50.4395 2.1035 50.5926 2.7036L50.9506 4.1078L2.2508 16.5258L1.8928 15.1217C1.85595 14.9788 1.8478 14.83 1.86883 14.684C1.88985 14.5379 1.93964 14.3975 2.0153 14.2708C2.09033 14.1437 2.1898 14.0327 2.30798 13.9443C2.42616 13.8559 2.56069 13.7918 2.7038 13.7557L36.2015 5.214C36.6985 5.0873 36.9987 4.5815 36.872 4.0845C36.7452 3.5874 36.2398 3.2875 35.7425 3.4139L2.2448 11.9557C0.651997 12.3618 -0.313403 13.9879 0.092797 15.5806L6.9619 42.5189C7.3053 43.8655 8.5207 44.7637 9.8507 44.7636C10.0937 44.7636 10.3408 44.7335 10.5868 44.6708L11.0266 44.5587V45.7017C11.0266 47.3453 12.3638 48.6825 14.0074 48.6825H62.0191C63.6628 48.6825 65 47.3453 65 45.7017V17.9014C65 16.2577 63.6628 14.9205 62.0191 14.9205ZM11.0267 42.6417L10.128 42.8709C9.528 43.024 8.9151 42.6601 8.762 42.06L4.5573 25.5709L11.0267 23.9212V42.6417V42.6417ZM11.0267 17.9013V22.0042L4.0984 23.7709L2.7099 18.3257L11.6838 16.0373C11.2733 16.5483 11.0267 17.1964 11.0267 17.9013ZM53.7079 14.9204H46.3247L53.2571 13.1527L53.7079 14.9204ZM51.4097 5.9075L52.7982 11.3528L38.8071 14.9205H16.0641L51.4097 5.9075V5.9075ZM62.0191 46.8249H14.0076C13.3882 46.8249 12.8842 46.3211 12.8842 45.7017V17.9014C12.8842 17.282 13.388 16.7781 14.0076 16.7781H62.0191C62.6385 16.7781 63.1424 17.282 63.1424 17.9014V45.7017C63.1424 46.3211 62.6385 46.8249 62.0191 46.8249V46.8249Z" fill="#D13D73"></path><path d="M36.9864 37.7849H16.7491C16.5028 37.7849 16.2665 37.8827 16.0924 38.0569C15.9182 38.2311 15.8203 38.4673 15.8203 38.7137C15.8203 38.96 15.9182 39.1963 16.0924 39.3704C16.2665 39.5446 16.5028 39.6425 16.7491 39.6425H36.9864C37.2327 39.6425 37.469 39.5446 37.6432 39.3704C37.8174 39.1963 37.9152 38.96 37.9152 38.7137C37.9152 38.4673 37.8174 38.2311 37.6432 38.0569C37.469 37.8827 37.2327 37.7849 36.9864 37.7849ZM52.4641 21.4529C51.1301 21.4529 49.8956 21.8835 48.8894 22.6113C47.8526 21.8601 46.6088 21.4529 45.3108 21.4529C41.9392 21.4529 39.1963 24.1958 39.1963 27.5674C39.1965 30.9389 41.9395 33.6819 45.311 33.6819C46.6089 33.6819 47.8526 33.2746 48.8894 32.5234C49.8956 33.2512 51.1302 33.6819 52.4641 33.6819C55.8356 33.6819 58.5786 30.9389 58.5786 27.5674C58.5786 24.1958 55.8356 21.4529 52.4641 21.4529V21.4529ZM46.3571 27.8573C46.3582 27.8811 46.3599 27.9049 46.3613 27.9287C46.3657 28.0066 46.3717 28.0841 46.379 28.1614C46.3808 28.1795 46.3825 28.1975 46.3844 28.2155C46.4976 29.3017 46.8938 30.3221 47.5401 31.1936C46.8702 31.607 46.0982 31.8254 45.311 31.8242C42.9636 31.8242 41.054 29.9145 41.054 27.5673C41.0541 25.2202 42.9637 23.3104 45.311 23.3104C46.1075 23.3104 46.8749 23.5305 47.5401 23.941C46.894 24.8126 46.4976 25.8329 46.3844 26.9191L46.379 26.973C46.3717 27.0504 46.3658 27.128 46.3613 27.2057C46.3599 27.2296 46.3582 27.2532 46.3571 27.2771C46.3524 27.3737 46.3499 27.4704 46.3497 27.5672C46.3497 27.6643 46.3526 27.7609 46.3571 27.8573V27.8573ZM52.4644 31.8243C51.3021 31.8243 50.2477 31.3557 49.4787 30.5981C49.4629 30.5824 49.4472 30.5667 49.4316 30.5508C49.396 30.5148 49.3611 30.4782 49.3269 30.441L49.2988 30.4099C49.2586 30.3653 49.2193 30.3199 49.1809 30.2737L49.1802 30.2729C48.5728 29.5369 48.2074 28.5938 48.2074 27.5672C48.2073 26.5406 48.5728 25.5976 49.1804 24.8614C49.219 24.8149 49.2586 24.7693 49.2991 24.7245C49.3083 24.7142 49.3175 24.7039 49.3269 24.6937C49.3612 24.6564 49.3962 24.6197 49.4319 24.5837C49.4473 24.5679 49.4629 24.5523 49.4786 24.5368C50.2475 23.7792 51.3021 23.3104 52.4644 23.3104C54.8116 23.3104 56.7213 25.2201 56.7213 27.5674C56.7213 29.9147 54.8116 31.8243 52.4644 31.8243V31.8243ZM23.3677 22.0569H19.2943C17.3787 22.0569 15.8203 23.6152 15.8203 25.5308V29.6042C15.8202 31.5198 17.3787 33.0782 19.2943 33.0782H23.3677C25.2831 33.0782 26.8416 31.5198 26.8416 29.6042V25.5308C26.8416 23.6154 25.2833 22.0569 23.3677 22.0569V22.0569ZM24.9839 28.0665H23.0025C22.7562 28.0665 22.52 28.1643 22.3458 28.3385C22.1717 28.5127 22.0738 28.7489 22.0738 28.9952C22.0738 29.5083 22.4895 29.924 23.0025 29.924H24.9519C24.803 30.6626 24.1493 31.2207 23.3675 31.2207H19.2941C18.5122 31.2207 17.8585 30.6628 17.7098 29.924H19.6591C19.7811 29.924 19.9019 29.9 20.0145 29.8533C20.1272 29.8066 20.2296 29.7382 20.3159 29.6519C20.4021 29.5657 20.4705 29.4633 20.5172 29.3506C20.5639 29.2379 20.5879 29.1172 20.5879 28.9952C20.5879 28.8732 20.5639 28.7524 20.5172 28.6398C20.4705 28.5271 20.4021 28.4247 20.3159 28.3385C20.2296 28.2522 20.1272 28.1838 20.0145 28.1371C19.9019 28.0905 19.7811 28.0665 19.6591 28.0665H17.6778V27.2616H19.6591C19.9054 27.2616 20.1417 27.1637 20.3159 26.9895C20.4901 26.8154 20.5879 26.5791 20.5879 26.3328C20.5879 26.0864 20.4901 25.8502 20.3159 25.676C20.1417 25.5018 19.9054 25.404 19.6591 25.404H17.6841C17.7491 24.5719 18.4456 23.9143 19.2941 23.9143H23.3675C24.2161 23.9143 24.9124 24.5719 24.9776 25.404H23.0025C22.7562 25.404 22.52 25.5019 22.3458 25.6761C22.1717 25.8502 22.0738 26.0865 22.0738 26.3328C22.0738 26.8457 22.4895 27.2616 23.0025 27.2616H24.9839V28.0665ZM58.7942 41.8716H26.4552C26.2089 41.8716 25.9726 41.9694 25.7985 42.1436C25.6243 42.3178 25.5264 42.554 25.5264 42.8004C25.5264 43.3134 25.9421 43.7292 26.4552 43.7292H58.7942C58.9162 43.7292 59.037 43.7052 59.1496 43.6585C59.2623 43.6118 59.3647 43.5434 59.451 43.4571C59.5372 43.3709 59.6056 43.2685 59.6523 43.1558C59.699 43.0431 59.723 42.9224 59.723 42.8004C59.723 42.6784 59.699 42.5576 59.6524 42.4449C59.6057 42.3322 59.5373 42.2298 59.451 42.1436C59.3648 42.0573 59.2624 41.9889 59.1497 41.9422C59.037 41.8956 58.9162 41.8716 58.7942 41.8716V41.8716ZM20.5339 41.8716H16.7491C16.5028 41.8716 16.2665 41.9694 16.0924 42.1436C15.9182 42.3178 15.8203 42.554 15.8203 42.8004C15.8203 43.3134 16.2361 43.7292 16.7491 43.7292H20.5339C20.7802 43.7292 21.0165 43.6313 21.1907 43.4571C21.3649 43.283 21.4627 43.0467 21.4627 42.8004C21.4627 42.554 21.3649 42.3178 21.1907 42.1436C21.0165 41.9694 20.7802 41.8716 20.5339 41.8716V41.8716Z" fill="#D13D73"></path></svg>