<svg xmlns="http://www.w3.org/2000/svg" width="65" height="63" viewBox="0 0 65 63" fill="none"><path d="M62.5663 56.3901v-2.1347c0-1.1334-.9222-2.0556-2.0556-2.0556h-1.1148v-1.362c0-1.3096-.9433-2.4016-2.1857-2.6363V28.2356c1.2424-.2347 2.1857-1.3267 2.1857-2.6363v-1.4982h.2262c1.6234 0 2.944-1.3207 2.944-2.944v-1.5077c2.9358-.6555 3.3063-4.6516.5994-5.8663L33.7982.6054a3.1093 3.1093 0 00-2.5414-.0008L1.8361 13.784c-2.4238 1.0858-2.4538 4.5124-.055 5.6437.2067.0975.4252.1719.6491.2218v1.5075c0 1.6234 1.3207 2.9441 2.944 2.9441h.2263v1.4982c0 1.3096.9433 2.4015 2.1856 2.6363v2.7451a.9514.9514 0 001.9028 0v-2.6969h4.1851V48.153H9.6889V35.4285a.9513.9513 0 00-.9514-.9514.9513.9513 0 00-.9514.9514v12.7729c-1.2423.2348-2.1856 1.3268-2.1856 2.6363v1.3619H4.4857c-1.1334 0-2.0556.9222-2.0556 2.0557v2.1467c-1.357.295-2.3766 1.5047-2.3766 2.9487v1.4832c0 1.0105.8222 1.8325 1.8327 1.8325h61.2811c1.0105 0 1.8325-.8221 1.8325-1.8325v-1.4832c.0002-1.4642-1.0481-2.6878-2.4335-2.9606zm-5.0731-5.5523v1.362h-8.5564v-1.362c0-.4311.3508-.7819.7819-.7819h6.9925c.4311 0 .782.3508.782.7819zm-18.8124 1.362v-1.362c0-1.3096-.9431-2.4016-2.1855-2.6363V28.2356c1.2424-.2347 2.1855-1.3267 2.1855-2.6363v-1.4982h8.3533v1.4982c0 1.3096.9431 2.4016 2.1856 2.6363v12.8616c0 .5255.4259.9514.9514.9514a.9514.9514 0 00.9514-.9514V28.2838h4.1851v19.8693h-4.1851v-2.6082a.9514.9514 0 00-.9514-.9514.9513.9513 0 00-.9514.9514v2.6565c-1.2425.2347-2.1856 1.3268-2.1856 2.6363v1.3619h-8.3533v.0002zm-10.459 0v-1.362c0-.4311.3507-.7819.7819-.7819h6.9924c.4312 0 .7819.3508.7819.7819v1.362h-8.5562zm-10.2594 0v-1.362c0-1.3096-.9431-2.4016-2.1856-2.6363V28.2356c1.2425-.2347 2.1856-1.3267 2.1856-2.6363v-1.4982h8.3567v1.4982c0 1.3096.9433 2.4016 2.1856 2.6363v19.9659c-1.2423.2349-2.1856 1.3268-2.1856 2.6363v1.362h-8.3567zM36.7782 24.101v1.4982c0 .4311-.3508.7819-.7819.7819h-6.9925c-.4311 0-.7819-.3508-.7819-.7819V24.101h8.5563zm-6.3708 24.0521V28.2838h4.1851v19.8693h-4.1851zm27.0858-22.5539c0 .4311-.3507.7819-.7819.7819h-6.9924c-.4312 0-.7819-.3508-.7819-.7819V24.101h8.5564v1.4982h-.0002zM2.6139 15.5203L32.035 2.341a1.2042 1.2042 0 01.9844.0002L62.3866 15.519c1.1799.5294.8059 2.3026-.4961 2.3026H3.1059a1.21 1.21 0 01-.5132-.1149h-.0001c-.932-.4395-.9198-1.7646.0213-2.1863zm1.7191 5.6366v-1.4326h56.3306v1.4326c0 .5742-.4672 1.0414-1.0414 1.0414H5.3742c-.5741 0-1.0412-.4672-1.0412-1.0414zm3.1703 4.4423V24.101h8.5564v1.4982c0 .4311-.3508.7819-.7819.7819H8.2853c-.4311 0-.782-.3508-.782-.7819zm0 25.2386c0-.4311.3507-.7819.7819-.7819h6.9924c.4312 0 .7819.3508.7819.7819v1.362H7.5033v-1.362zm-3.0175 3.2647h56.0249a.153.153 0 01.1528.1529v2.0775H4.333v-2.0775a.153.153 0 01.1528-.1529zm58.6114 6.6613H1.9563v-1.413c0-.6148.5003-1.1152 1.1152-1.1152H61.982c.6149 0 1.1152.5004 1.1152 1.1152v1.413z" fill="#D13D73"></path><path d="M32.4986 15.9764c2.6928 0 4.8835-2.1908 4.8835-4.8836 0-2.6928-2.1908-4.8833-4.8835-4.8833s-4.8834 2.1907-4.8834 4.8833c0 2.6927 2.1906 4.8836 4.8834 4.8836zm0-7.8642c1.6436 0 2.9808 1.3371 2.9808 2.9808 0 1.6436-1.3372 2.9807-2.9808 2.9807-1.6435 0-2.9807-1.3372-2.9807-2.9807 0-1.6436 1.3372-2.9808 2.9807-2.9808z" fill="#D13D73"></path></svg>