<svg xmlns="http://www.w3.org/2000/svg" width="30" height="30" viewBox="0 0 30 30" fill="none"><circle cx="15" cy="15" r="15" fill="#D13D73"></circle><path d="M20.8947 17.2179C20.0311 17.2179 19.1853 17.0831 18.3829 16.8178C17.9916 16.683 17.548 16.7868 17.2901 17.0492L15.7008 18.2495C13.8778 17.2769 12.7106 16.1104 11.7498 14.2993L12.9177 12.7475C13.2117 12.4528 13.3171 12.0232 13.1911 11.6201C12.9251 10.814 12.7895 9.96737 12.7895 9.10526C12.7895 8.49588 12.2936 8 11.6842 8H9.10526C8.49588 8 8 8.49588 8 9.10526C8 16.215 13.785 22 20.8947 22C21.5041 22 22 21.5041 22 20.8947V18.3232C22 17.7138 21.5041 17.2179 20.8947 17.2179ZM21.2632 20.8947C21.2632 21.0981 21.0974 21.2632 20.8947 21.2632C14.1909 21.2632 8.73683 15.8091 8.73683 9.10526C8.73683 8.9019 8.90262 8.73683 9.10526 8.73683H11.6842C11.8869 8.73683 12.0527 8.9019 12.0527 9.10526C12.0527 10.0462 12.2 10.9702 12.4889 11.8463C12.5316 11.9841 12.497 12.1263 12.3621 12.2663L11.0211 14.0421C10.9363 14.1548 10.9231 14.3059 10.9872 14.4312C12.0799 16.5776 13.407 17.9054 15.5689 19.0129C15.6934 19.0777 15.8459 19.0644 15.9587 18.979L17.7728 17.604C17.8715 17.5068 18.0167 17.4729 18.1478 17.5163C19.0291 17.8074 19.9531 17.9547 20.8948 17.9547C21.0974 17.9547 21.2632 18.1198 21.2632 18.3232V20.8947H21.2632Z" fill="white"></path></svg>