<svg width="39" height="39" viewBox="0 0 39 39" fill="none" xmlns="http://www.w3.org/2000/svg">
  <path d="M2.925 27.2999h5.46l7.527 7.527c.273.273.702.351 1.053.195.351-.156.585-.507.585-.897v-29.25c0-.39-.234-.741-.585-.897-.351-.156-.78-.078-1.053.195L8.385 11.7h-5.46c-.546 0-.975.429-.975.975v13.65c0 .546.429.975.975.975zm6.825-14.235l5.85-5.85v24.531l-5.85-5.85v-12.831zm-5.85.585h3.9v11.7H3.9v-11.7zM21.723 25.0771c.195.195.429.273.702.273.273 0 .507-.078.702-.273l4.173-4.212 4.173 4.173c.195.195.429.273.702.273.273 0 .507-.078.702-.273.39-.39.39-1.014 0-1.365l-4.212-4.173 4.173-4.173c.39-.39.39-1.014 0-1.365-.39-.39-1.014-.39-1.365 0l-4.173 4.173-4.173-4.212c-.39-.39-1.014-.39-1.365 0-.39.39-.39 1.014 0 1.365l4.173 4.212-4.212 4.173c-.351.39-.351 1.014 0 1.404z" fill="#D13D73"/>
</svg>
