<svg width="33" height="33" viewBox="0 0 33 33" fill="none" xmlns="http://www.w3.org/2000/svg">
  <g clip-path="url(#clip0)" fill="#D13D73">
    <path d="M10.6508 10.6507c1.4841-1.484 3.5793-2.4444 5.8492-2.4444 2.2698 0 4.3651.9167 5.8492 2.4444 1.4841 1.4842 2.4444 3.5794 2.4444 5.8493 0 2.2698-.9603 4.365-2.4444 5.8492-1.4841 1.4841-3.5794 2.4444-5.8492 2.4444-2.2699 0-4.3651-.9167-5.8492-2.4444C9.1667 20.865 8.2063 18.7698 8.2063 16.5c0-2.2699.9167-4.3651 2.4445-5.8493zm1.5714 10.127c1.0913 1.0913 2.6191 1.7461 4.2778 1.7461s3.1865-.6548 4.2778-1.7461c1.0912-1.0912 1.746-2.619 1.746-4.2777 0-1.6588-.6548-3.1866-1.746-4.2778-1.0913-1.0913-2.6191-1.7461-4.2778-1.7461s-3.1865.6548-4.2778 1.7461c-1.0913 1.0912-1.746 2.619-1.746 4.2778 0 1.6587.6547 3.1865 1.746 4.2777zM1.1349 15.365H4.496c.6111 0 1.135.5238 1.135 1.1349s-.5239 1.1349-1.135 1.1349H1.1349c-.6111 0-1.135-.5238-1.135-1.1349s.5239-1.1349 1.135-1.1349zM16.5 27.3689c.6111 0 1.1349.5238 1.1349 1.1349v3.3611c0 .6112-.5238 1.135-1.1349 1.135s-1.135-.5238-1.135-1.135v-3.3611c0-.6111.5239-1.1349 1.135-1.1349zM4.8452 26.5834l2.4008-2.4008c.3929-.4365 1.135-.4365 1.5715 0a1.1065 1.1065 0 010 1.5714l-2.4008 2.4008a1.1066 1.1066 0 01-1.5715 0 1.1065 1.1065 0 010-1.5714zM16.5 0c.6111 0 1.1349.5238 1.1349 1.135v3.361c0 .6111-.5238 1.135-1.1349 1.135s-1.135-.5239-1.135-1.135V1.135C15.365.5237 15.8889 0 16.5 0zM4.8016 4.8452a1.1066 1.1066 0 011.5714 0L8.7738 7.246a1.1066 1.1066 0 010 1.5714c-.3928.4365-1.1349.4365-1.5714 0L4.8016 6.4166a1.1066 1.1066 0 010-1.5714zM28.504 15.365h3.3611c.6111 0 1.1349.5238 1.1349 1.1349s-.4802 1.1349-1.1349 1.1349H28.504c-.6111 0-1.1349-.5238-1.1349-1.1349s.5238-1.1349 1.1349-1.1349zM24.2262 24.1826c.3929-.4365 1.1349-.4365 1.5714 0l2.4008 2.4008a1.1065 1.1065 0 010 1.5714 1.1065 1.1065 0 01-1.5714 0l-2.4008-2.4008a1.1065 1.1065 0 010-1.5714zM24.2262 7.246l2.4008-2.4008a1.1065 1.1065 0 011.5714 0 1.1066 1.1066 0 010 1.5714l-2.4008 2.4008a1.1065 1.1065 0 01-1.5714 0 1.1066 1.1066 0 010-1.5714z"/>
  </g>
  <defs>
    <clipPath id="clip0">
      <path transform="matrix(-1 0 0 1 33 0)" fill="#fff" d="M0 0h33v33H0z"/>
    </clipPath>
  </defs>
</svg>
