<svg xmlns="http://www.w3.org/2000/svg" width="26" height="27" viewBox="0 0 26 27" fill="none"><path d="M8.3915 8.8748C9.5608 7.7072 11.2116 6.9517 13 6.9517c1.7884 0 3.4392.7211 4.6085 1.9231 1.1693 1.1676 1.9259 2.816 1.9259 4.6018s-.7566 3.4342-1.9259 4.6018C16.4392 19.246 14.7884 20.0015 13 20.0015c-1.7884 0-3.4391-.7212-4.6085-1.9231-1.1693-1.1676-1.9259-2.816-1.9259-4.6018s.7222-3.4342 1.926-4.6018zm1.2381 7.9673c.8598.8585 2.0635 1.3736 3.3704 1.3736 1.3069 0 2.5106-.5151 3.3704-1.3736.8598-.8586 1.3756-2.0605 1.3756-3.3655 0-1.305-.5158-2.507-1.3756-3.3655-.8598-.8586-2.0635-1.3737-3.3704-1.3737-1.3069 0-2.5106.5152-3.3704 1.3737-.8598.8585-1.3756 2.0605-1.3756 3.3655 0 1.305.5158 2.5069 1.3756 3.3655zM.8942 12.584h2.6481c.4815 0 .8942.4121.8942.8929s-.4127.8929-.8942.8929H.8942c-.4815 0-.8942-.4121-.8942-.8929s.4127-.8929.8942-.8929zM13 22.0278c.4815 0 .8942.4121.8942.8929v2.6443c0 .4808-.4127.8929-.8942.8929s-.8942-.4121-.8942-.8929v-2.6443c0-.4808.4127-.8929.8942-.8929zM3.8174 21.4095l1.8916-1.8888c.3095-.3434.8941-.3434 1.238 0a.8697.8697 0 010 1.2363l-1.8915 1.8888a.8726.8726 0 01-1.238 0 .8697.8697 0 010-1.2363zM13 .4956c.4815 0 .8942.4121.8942.8929v2.6443c0 .4808-.4127.8929-.8942.8929s-.8942-.4121-.8942-.8929V1.3885c0-.4808.4127-.8929.8942-.8929zM3.783 4.3074a.8727.8727 0 011.2381 0l1.8916 1.8888a.8697.8697 0 010 1.2363c-.3095.3434-.8942.3434-1.2381 0L3.783 5.5437a.8697.8697 0 010-1.2363zM22.4577 12.584h2.6481c.4815 0 .8942.4121.8942.8929s-.3783.8929-.8942.8929h-2.6481c-.4815 0-.8942-.4121-.8942-.8929s.4127-.8929.8942-.8929zM19.0873 19.5207c.3095-.3434.8942-.3434 1.2381 0l1.8915 1.8888a.8697.8697 0 010 1.2363.8726.8726 0 01-1.2381 0l-1.8915-1.8888a.8697.8697 0 010-1.2363zM19.0873 6.1962l1.8915-1.8888a.8727.8727 0 011.2381 0 .8697.8697 0 010 1.2363l-1.8915 1.8888a.8727.8727 0 01-1.2381 0 .8697.8697 0 010-1.2363z" fill="#F2C94C"></path></svg>