<svg width="150" height="150" viewBox="0 0 150 150" fill="none" xmlns="http://www.w3.org/2000/svg">
<path d="M141.92 0H96.6018L90.4746 76.8366L96.6018 150H141.92V0Z" fill="#288FD9"/>
<path d="M51.2852 0V47.3736L71.181 150H96.603V0H51.2852Z" fill="#55ACE8"/>
<path d="M72.4179 42.7812H40.2493L33.8477 96.3901L40.2493 149.999H72.4179V42.7812Z" fill="#288FD9"/>
<path d="M40.2475 42.7803H8.08008V149.999H40.2475V42.7803Z" fill="#55ACE8"/>
<path d="M72.4176 11.2002H61.8379V20.3839H72.4176V11.2002Z" fill="#FBE27B"/>
<path d="M92.068 11.2002H81.4883V20.3839H92.068V11.2002Z" fill="#FBE27B"/>
<path d="M111.716 11.2002H101.137V20.3839H111.716V11.2002Z" fill="#F7C02D"/>
<path d="M131.367 11.2002H120.787V20.3839H131.367V11.2002Z" fill="#F7C02D"/>
<path d="M72.4176 26.9912H61.8379V36.1749H72.4176V26.9912Z" fill="#FBE27B"/>
<path d="M92.068 26.9912H81.4883V36.1749H92.068V26.9912Z" fill="#FBE27B"/>
<path d="M111.716 26.9912H101.137V36.1749H111.716V26.9912Z" fill="#F7C02D"/>
<path d="M131.367 26.9912H120.787V36.1749H131.367V26.9912Z" fill="#F7C02D"/>
<path d="M92.066 42.7803H81.4863V51.964H92.066V42.7803Z" fill="#FBE27B"/>
<path d="M111.716 42.7803H101.137V51.964H111.716V42.7803Z" fill="#F7C02D"/>
<path d="M131.367 42.7803H120.787V51.964H131.367V42.7803Z" fill="#F7C02D"/>
<path d="M92.066 58.5742H81.4863V67.7579H92.066V58.5742Z" fill="#FBE27B"/>
<path d="M111.716 58.5742H101.137V67.7579H111.716V58.5742Z" fill="#F7C02D"/>
<path d="M131.367 58.5742H120.787V67.7579H131.367V58.5742Z" fill="#F7C02D"/>
<path d="M92.066 74.3633H81.4863V83.547H92.066V74.3633Z" fill="#FBE27B"/>
<path d="M111.716 74.3633H101.137V83.547H111.716V74.3633Z" fill="#F7C02D"/>
<path d="M131.367 74.3633H120.787V83.547H131.367V74.3633Z" fill="#F7C02D"/>
<path d="M92.066 90.1562H81.4863V99.3399H92.066V90.1562Z" fill="#FBE27B"/>
<path d="M111.716 90.1562H101.137V99.3399H111.716V90.1562Z" fill="#F7C02D"/>
<path d="M131.367 90.1562H120.787V99.3399H131.367V90.1562Z" fill="#F7C02D"/>
<path d="M92.066 105.946H81.4863V115.13H92.066V105.946Z" fill="#FBE27B"/>
<path d="M111.716 105.946H101.137V115.13H111.716V105.946Z" fill="#F7C02D"/>
<path d="M131.367 105.946H120.787V115.13H131.367V105.946Z" fill="#F7C02D"/>
<path d="M92.066 121.738H81.4863V130.922H92.066V121.738Z" fill="#FBE27B"/>
<path d="M111.716 121.738H101.137V130.922H111.716V121.738Z" fill="#F7C02D"/>
<path d="M131.367 121.738H120.787V130.922H131.367V121.738Z" fill="#F7C02D"/>
<path d="M37.432 58.5742H20.5371V67.7579H37.432V58.5742Z" fill="#FBE27B"/>
<path d="M60.2387 58.5742H43.3438V67.7579H60.2387V58.5742Z" fill="#F7C02D"/>
<path d="M37.432 74.3633H20.5371V83.547H37.432V74.3633Z" fill="#FBE27B"/>
<path d="M60.2387 74.3633H43.3438V83.547H60.2387V74.3633Z" fill="#F7C02D"/>
<path d="M37.432 90.1562H20.5371V99.3399H37.432V90.1562Z" fill="#FBE27B"/>
<path d="M60.2387 90.1562H43.3438V99.3399H60.2387V90.1562Z" fill="#F7C02D"/>
<path d="M37.432 105.946H20.5371V115.13H37.432V105.946Z" fill="#FBE27B"/>
<path d="M60.2387 105.946H43.3438V115.13H60.2387V105.946Z" fill="#F7C02D"/>
<path d="M37.432 121.738H20.5371V130.922H37.432V121.738Z" fill="#FBE27B"/>
<path d="M60.2387 121.738H43.3438V130.922H60.2387V121.738Z" fill="#F7C02D"/>
</svg>
