<svg width="150" height="150" viewBox="0 0 150 150" fill="none" xmlns="http://www.w3.org/2000/svg">
<g clip-path="url(#clip0)">
<path d="M120.934 143.748H77.1699V29.9414H125.037V125.041L120.934 131.293V143.748Z" fill="#EB8D00"/>
<path d="M84.7379 12.5127H77.1699L70.918 62.4959L77.171 142.269L84.7379 141.207V12.5127Z" fill="#FDAE02"/>
<path d="M17.3904 0V12.513H10.2539V141.208L50.5989 145.997L77.1709 142.27V0H17.3904Z" fill="#FDCB02"/>
<path d="M32.1367 30.04H40.9281V42.5439H32.1367V30.04Z" fill="#F3FFFB"/>
<path d="M54.0195 30.04H62.8109V42.5439H54.0195V30.04Z" fill="#F3FFFB"/>
<path d="M32.1367 55.0479H40.9281V67.5517H32.1367V55.0479Z" fill="#F3FFFB"/>
<path d="M54.0195 55.0479H62.8109V67.5517H54.0195V55.0479Z" fill="#F3FFFB"/>
<path d="M32.1367 80.0566H40.9281V92.5605H32.1367V80.0566Z" fill="#F3FFFB"/>
<path d="M54.0195 80.0566H62.8109V92.5605H54.0195V80.0566Z" fill="#F3FFFB"/>
<path d="M32.1367 105.064H40.9281V117.568H32.1367V105.064Z" fill="#F3FFFB"/>
<path d="M54.0195 105.064H62.8109V117.568H54.0195V105.064Z" fill="#F3FFFB"/>
<path d="M96.0234 55.0469H104.815V67.5507H96.0234V55.0469Z" fill="#FFD27B"/>
<path d="M96.0234 80.0557H104.815V92.5595H96.0234V80.0557Z" fill="#FFD27B"/>
<path d="M116.271 123.526H125.064V145.409H116.271V123.526Z" fill="#8F4D24"/>
<path d="M120.667 133.979C110.082 133.979 101.471 125.368 101.471 114.783C101.471 104.198 110.082 95.5879 120.667 95.5879C131.252 95.5879 139.862 104.198 139.862 114.783C139.862 125.368 131.252 133.979 120.667 133.979V133.979Z" fill="#A8D32A"/>
<path d="M139.692 141.207H77.1703L74.0449 146.922L77.1703 150H139.692V141.207Z" fill="#8D9CA8"/>
<path d="M10.2539 141.207H77.1698V150H10.2539V141.207Z" fill="#AAB8C7"/>
</g>
<defs>
<clipPath id="clip0">
<rect width="150" height="150" fill="white"/>
</clipPath>
</defs>
</svg>
