<svg width="150" height="150" viewBox="0 0 150 150" fill="none" xmlns="http://www.w3.org/2000/svg">
<path d="M75 17.3838L18.75 55.5705V142.969H131.25V55.5705L75 17.3838Z" fill="#EAE8E5"/>
<path d="M39.8438 96.0938H65.625V142.969H39.8438V96.0938Z" fill="#E89D43"/>
<path d="M91.4062 117.188H124.219V126.562H91.4062V117.188Z" fill="#33385C"/>
<path d="M84.375 142.969V110.156L89.0625 103.125L93.75 110.156V142.969H84.375Z" fill="#454A6D"/>
<path d="M103.125 142.969V110.156L107.812 103.125L112.5 110.156V142.969H103.125Z" fill="#454A6D"/>
<path d="M121.875 142.969V110.156L126.562 103.125L131.25 110.156V142.969H121.875Z" fill="#454A6D"/>
<path d="M82.0312 75H67.9688C64.0852 75 60.9375 71.8523 60.9375 67.9688V53.9062C60.9375 50.0227 64.0852 46.875 67.9688 46.875H82.0312C85.9148 46.875 89.0625 50.0227 89.0625 53.9062V67.9688C89.0625 71.8523 85.9148 75 82.0312 75Z" fill="#4AC3ED"/>
<path d="M89.0625 58.5938H77.3438V46.875H72.6562V58.5938H60.9375V63.2812H72.6562V75H77.3438V63.2812H89.0625V58.5938Z" fill="#454A6D"/>
<path d="M53.9062 117.188H58.5938V121.875H53.9062V117.188Z" fill="#454A6D"/>
<path d="M16.4062 124.219H21.0938V142.969H16.4062V124.219Z" fill="#454A6D"/>
<path d="M30.4688 114.844C30.4688 123.258 25.2211 128.907 18.75 128.907C12.2789 128.907 7.03125 123.258 7.03125 114.844C7.03125 109.35 12.0258 96.0473 15.4945 87.4715C16.6805 84.5395 20.8219 84.5395 22.0078 87.4715C25.4742 96.0473 30.4688 109.35 30.4688 114.844Z" fill="#76CC7A"/>
<path d="M4.6875 140.625H145.312V145.312H4.6875V140.625Z" fill="#454A6D"/>
<path d="M137.994 60.1287L75.0012 17.3834L12.0082 60.1287L6.74414 52.3709L75.0012 6.05371L143.258 52.3709L137.994 60.1287Z" fill="#E89D43"/>
</svg>
