<svg width="608" height="150" viewBox="0 0 608 150" fill="none" xmlns="http://www.w3.org/2000/svg">
<path d="M210.376 48.384C208.093 48.384 206.024 47.8933 204.168 46.912C202.333 45.9093 200.883 44.5333 199.816 42.784C198.771 41.0133 198.248 39.0187 198.248 36.8C198.248 34.5813 198.771 32.5973 199.816 30.848C200.883 29.0773 202.333 27.7013 204.168 26.72C206.024 25.7173 208.104 25.216 210.408 25.216C212.349 25.216 214.099 25.5573 215.656 26.24C217.235 26.9227 218.557 27.904 219.624 29.184L216.296 32.256C214.781 30.5067 212.904 29.632 210.664 29.632C209.277 29.632 208.04 29.9413 206.952 30.56C205.864 31.1573 205.011 32 204.392 33.088C203.795 34.176 203.496 35.4133 203.496 36.8C203.496 38.1867 203.795 39.424 204.392 40.512C205.011 41.6 205.864 42.4533 206.952 43.072C208.04 43.6693 209.277 43.968 210.664 43.968C212.904 43.968 214.781 43.0827 216.296 41.312L219.624 44.384C218.557 45.6853 217.235 46.6773 215.656 47.36C214.077 48.0427 212.317 48.384 210.376 48.384Z" fill="#828282"/>
<path d="M237.733 43.2H227.333L225.349 48H220.037L230.021 25.6H235.141L245.157 48H239.717L237.733 43.2ZM236.101 39.264L232.549 30.688L228.997 39.264H236.101Z" fill="#828282"/>
<path d="M268.283 25.6V48H263.163V29.824H255.483L255.323 34.496C255.217 37.6747 254.961 40.256 254.555 42.24C254.15 44.2027 253.467 45.7173 252.507 46.784C251.569 47.8293 250.246 48.352 248.539 48.352C247.835 48.352 246.982 48.2347 245.979 48L246.299 43.616C246.577 43.7013 246.886 43.744 247.227 43.744C248.465 43.744 249.329 43.0187 249.819 41.568C250.31 40.096 250.619 37.8027 250.747 34.688L251.067 25.6H268.283Z" fill="#828282"/>
<path d="M284.566 48.384C282.24 48.384 280.139 47.8827 278.262 46.88C276.406 45.8773 274.944 44.5013 273.878 42.752C272.832 40.9813 272.31 38.9973 272.31 36.8C272.31 34.6027 272.832 32.6293 273.878 30.88C274.944 29.1093 276.406 27.7227 278.262 26.72C280.139 25.7173 282.24 25.216 284.566 25.216C286.891 25.216 288.982 25.7173 290.838 26.72C292.694 27.7227 294.155 29.1093 295.222 30.88C296.288 32.6293 296.822 34.6027 296.822 36.8C296.822 38.9973 296.288 40.9813 295.222 42.752C294.155 44.5013 292.694 45.8773 290.838 46.88C288.982 47.8827 286.891 48.384 284.566 48.384ZM284.566 43.968C285.888 43.968 287.083 43.6693 288.15 43.072C289.216 42.4533 290.048 41.6 290.646 40.512C291.264 39.424 291.574 38.1867 291.574 36.8C291.574 35.4133 291.264 34.176 290.646 33.088C290.048 32 289.216 31.1573 288.15 30.56C287.083 29.9413 285.888 29.632 284.566 29.632C283.243 29.632 282.048 29.9413 280.982 30.56C279.915 31.1573 279.072 32 278.454 33.088C277.856 34.176 277.558 35.4133 277.558 36.8C277.558 38.1867 277.856 39.424 278.454 40.512C279.072 41.6 279.915 42.4533 280.982 43.072C282.048 43.6693 283.243 43.968 284.566 43.968Z" fill="#828282"/>
<path d="M321.359 25.6V48H316.175V38.816H305.999V48H300.815V25.6H305.999V34.432H316.175V25.6H321.359Z" fill="#828282"/>
<path d="M206.952 64.216C209.171 64.216 211.155 64.7173 212.904 65.72C214.675 66.7013 216.061 68.0773 217.064 69.848C218.067 71.5973 218.568 73.5813 218.568 75.8C218.568 78.0187 218.067 80.0133 217.064 81.784C216.061 83.5333 214.675 84.9093 212.904 85.912C211.155 86.8933 209.171 87.384 206.952 87.384C204.968 87.384 203.176 87.0427 201.576 86.36C199.997 85.6773 198.675 84.6853 197.608 83.384L200.904 80.312C202.483 82.0827 204.413 82.968 206.696 82.968C208.339 82.968 209.725 82.488 210.856 81.528C212.008 80.568 212.755 79.2773 213.096 77.656H204.008V73.688H213.032C212.669 72.152 211.923 70.9253 210.792 70.008C209.661 69.0907 208.296 68.632 206.696 68.632C204.413 68.632 202.483 69.5173 200.904 71.288L197.608 68.216C198.675 66.9147 199.997 65.9227 201.576 65.24C203.176 64.5573 204.968 64.216 206.952 64.216Z" fill="#828282"/>
<path d="M243.172 64.6V87H237.988V77.816H227.812V87H222.628V64.6H227.812V73.432H237.988V64.6H243.172Z" fill="#828282"/>
<path d="M266.128 82.84V87H248.784V64.6H265.712V68.76H253.936V73.624H264.336V77.656H253.936V82.84H266.128Z" fill="#828282"/>
<path d="M280.011 64.6C281.995 64.6 283.713 64.9307 285.163 65.592C286.635 66.2533 287.766 67.192 288.555 68.408C289.345 69.624 289.739 71.064 289.739 72.728C289.739 74.3707 289.345 75.8107 288.555 77.048C287.766 78.264 286.635 79.2027 285.163 79.864C283.713 80.504 281.995 80.824 280.011 80.824H275.499V87H270.315V64.6H280.011ZM279.723 76.6C281.281 76.6 282.465 76.2693 283.275 75.608C284.086 74.9253 284.491 73.9653 284.491 72.728C284.491 71.4693 284.086 70.5093 283.275 69.848C282.465 69.1653 281.281 68.824 279.723 68.824H275.499V76.6H279.723Z" fill="#828282"/>
<path d="M308.935 68.824H298.279L298.311 87H293.159V64.6H308.967L308.935 68.824Z" fill="#828282"/>
<path d="M320.534 87.384C318.209 87.384 316.108 86.8827 314.23 85.88C312.374 84.8773 310.913 83.5013 309.846 81.752C308.801 79.9813 308.278 77.9973 308.278 75.8C308.278 73.6027 308.801 71.6293 309.846 69.88C310.913 68.1093 312.374 66.7227 314.23 65.72C316.108 64.7173 318.209 64.216 320.534 64.216C322.86 64.216 324.95 64.7173 326.806 65.72C328.662 66.7227 330.124 68.1093 331.19 69.88C332.257 71.6293 332.79 73.6027 332.79 75.8C332.79 77.9973 332.257 79.9813 331.19 81.752C330.124 83.5013 328.662 84.8773 326.806 85.88C324.95 86.8827 322.86 87.384 320.534 87.384ZM320.534 82.968C321.857 82.968 323.052 82.6693 324.118 82.072C325.185 81.4533 326.017 80.6 326.614 79.512C327.233 78.424 327.542 77.1867 327.542 75.8C327.542 74.4133 327.233 73.176 326.614 72.088C326.017 71 325.185 70.1573 324.118 69.56C323.052 68.9413 321.857 68.632 320.534 68.632C319.212 68.632 318.017 68.9413 316.95 69.56C315.884 70.1573 315.041 71 314.422 72.088C313.825 73.176 313.526 74.4133 313.526 75.8C313.526 77.1867 313.825 78.424 314.422 79.512C315.041 80.6 315.884 81.4533 316.95 82.072C318.017 82.6693 319.212 82.968 320.534 82.968Z" fill="#828282"/>
<path d="M347.376 87.384C345.093 87.384 343.024 86.8933 341.168 85.912C339.333 84.9093 337.883 83.5333 336.816 81.784C335.771 80.0133 335.248 78.0187 335.248 75.8C335.248 73.5813 335.771 71.5973 336.816 69.848C337.883 68.0773 339.333 66.7013 341.168 65.72C343.024 64.7173 345.104 64.216 347.408 64.216C349.349 64.216 351.099 64.5573 352.656 65.24C354.235 65.9227 355.557 66.904 356.624 68.184L353.296 71.256C351.781 69.5067 349.904 68.632 347.664 68.632C346.277 68.632 345.04 68.9413 343.952 69.56C342.864 70.1573 342.011 71 341.392 72.088C340.795 73.176 340.496 74.4133 340.496 75.8C340.496 77.1867 340.795 78.424 341.392 79.512C342.011 80.6 342.864 81.4533 343.952 82.072C345.04 82.6693 346.277 82.968 347.664 82.968C349.904 82.968 351.781 82.0827 353.296 80.312L356.624 83.384C355.557 84.6853 354.235 85.6773 352.656 86.36C351.077 87.0427 349.317 87.384 347.376 87.384Z" fill="#828282"/>
<path d="M360.003 64.6H378.083V68.728H365.155V73.336H371.363C374.072 73.336 376.131 73.9013 377.539 75.032C378.968 76.1627 379.683 77.7947 379.683 79.928C379.683 82.168 378.893 83.9067 377.315 85.144C375.736 86.3813 373.507 87 370.627 87H360.003V64.6ZM370.339 83.16C371.661 83.16 372.675 82.904 373.379 82.392C374.083 81.8587 374.435 81.0907 374.435 80.088C374.435 78.1253 373.069 77.144 370.339 77.144H365.155V83.16H370.339Z" fill="#828282"/>
<path d="M400.972 82.84V87H383.628V64.6H400.556V68.76H388.78V73.624H399.18V77.656H388.78V82.84H400.972Z" fill="#828282"/>
<path d="M414.855 64.6C416.839 64.6 418.556 64.9307 420.007 65.592C421.479 66.2533 422.61 67.192 423.399 68.408C424.188 69.624 424.583 71.064 424.583 72.728C424.583 74.3707 424.188 75.8107 423.399 77.048C422.61 78.264 421.479 79.2027 420.007 79.864C418.556 80.504 416.839 80.824 414.855 80.824H410.343V87H405.159V64.6H414.855ZM414.567 76.6C416.124 76.6 417.308 76.2693 418.119 75.608C418.93 74.9253 419.335 73.9653 419.335 72.728C419.335 71.4693 418.93 70.5093 418.119 69.848C417.308 69.1653 416.124 68.824 414.567 68.824H410.343V76.6H414.567Z" fill="#828282"/>
<path d="M445.347 82.84V87H428.003V64.6H444.931V68.76H433.155V73.624H443.555V77.656H433.155V82.84H445.347Z" fill="#828282"/>
<path d="M465.31 68.824H454.654L454.686 87H449.534V64.6H465.342L465.31 68.824Z" fill="#828282"/>
<path d="M479.327 82.2H468.927L466.943 87H461.631L471.615 64.6H476.735L486.751 87H481.311L479.327 82.2ZM477.695 78.264L474.143 69.688L470.591 78.264H477.695Z" fill="#828282"/>
<path d="M509.497 64.216C511.737 64.216 513.753 64.7173 515.545 65.72C517.359 66.7227 518.777 68.1093 519.801 69.88C520.825 71.6293 521.337 73.6027 521.337 75.8C521.337 77.9973 520.825 79.9813 519.801 81.752C518.777 83.5013 517.359 84.8773 515.545 85.88C513.753 86.8827 511.737 87.384 509.497 87.384C507.492 87.384 505.657 86.9893 503.993 86.2C502.329 85.3893 500.953 84.2693 499.865 82.84C498.799 81.3893 498.116 79.736 497.817 77.88H494.873V87H489.721V64.6H494.873V73.4H497.881C498.223 71.608 498.927 70.0187 499.993 68.632C501.081 67.224 502.447 66.136 504.089 65.368C505.732 64.6 507.535 64.216 509.497 64.216ZM509.497 82.968C510.735 82.968 511.855 82.6693 512.857 82.072C513.86 81.4747 514.649 80.632 515.225 79.544C515.801 78.456 516.089 77.208 516.089 75.8C516.089 74.392 515.801 73.144 515.225 72.056C514.649 70.968 513.86 70.1253 512.857 69.528C511.855 68.9307 510.735 68.632 509.497 68.632C508.26 68.632 507.14 68.9307 506.137 69.528C505.135 70.1253 504.345 70.968 503.769 72.056C503.193 73.144 502.905 74.392 502.905 75.8C502.905 77.208 503.193 78.456 503.769 79.544C504.345 80.632 505.135 81.4747 506.137 82.072C507.14 82.6693 508.26 82.968 509.497 82.968Z" fill="#828282"/>
<path d="M554.946 64.6V87H525.378V64.6H530.53V82.776H537.602V64.6H542.754V82.776H549.794V64.6H554.946ZM557.986 82.776V91.64H553.186V87H549.698V82.776H557.986Z" fill="#828282"/>
<path d="M561.534 64.6H566.686V79.192L577.374 64.6H582.238V87H577.118V72.44L566.43 87H561.534V64.6Z" fill="#828282"/>
<path d="M591.847 64.6L596.487 71.384L601.127 64.6H607.207L599.751 75.32L607.815 87H601.703L596.487 79.576L591.335 87H585.351L593.351 75.544L585.863 64.6H591.847Z" fill="#828282"/>
<path d="M216.904 107.824H209.736V126H204.616V107.824H197.48V103.6H216.904V107.824Z" fill="#828282"/>
<path d="M237.503 121.84V126H220.159V103.6H237.087V107.76H225.311V112.624H235.711V116.656H225.311V121.84H237.503Z" fill="#828282"/>
<path d="M245.503 103.6L250.143 110.384L254.783 103.6H260.863L253.407 114.32L261.471 126H255.359L250.143 118.576L244.991 126H239.007L247.007 114.544L239.519 103.6H245.503Z" fill="#828282"/>
<path d="M284.39 103.6V126H279.206V116.816H269.03V126H263.846V103.6H269.03V112.432H279.206V103.6H284.39Z" fill="#828282"/>
<path d="M300.691 126.384C298.365 126.384 296.264 125.883 294.387 124.88C292.531 123.877 291.069 122.501 290.003 120.752C288.957 118.981 288.435 116.997 288.435 114.8C288.435 112.603 288.957 110.629 290.003 108.88C291.069 107.109 292.531 105.723 294.387 104.72C296.264 103.717 298.365 103.216 300.691 103.216C303.016 103.216 305.107 103.717 306.963 104.72C308.819 105.723 310.28 107.109 311.347 108.88C312.413 110.629 312.947 112.603 312.947 114.8C312.947 116.997 312.413 118.981 311.347 120.752C310.28 122.501 308.819 123.877 306.963 124.88C305.107 125.883 303.016 126.384 300.691 126.384ZM300.691 121.968C302.013 121.968 303.208 121.669 304.275 121.072C305.341 120.453 306.173 119.6 306.771 118.512C307.389 117.424 307.699 116.187 307.699 114.8C307.699 113.413 307.389 112.176 306.771 111.088C306.173 110 305.341 109.157 304.275 108.56C303.208 107.941 302.013 107.632 300.691 107.632C299.368 107.632 298.173 107.941 297.107 108.56C296.04 109.157 295.197 110 294.579 111.088C293.981 112.176 293.683 113.413 293.683 114.8C293.683 116.187 293.981 117.424 294.579 118.512C295.197 119.6 296.04 120.453 297.107 121.072C298.173 121.669 299.368 121.968 300.691 121.968Z" fill="#828282"/>
<path d="M336.283 103.6V126H331.163V107.824H323.483L323.323 112.496C323.217 115.675 322.961 118.256 322.555 120.24C322.15 122.203 321.467 123.717 320.507 124.784C319.569 125.829 318.246 126.352 316.539 126.352C315.835 126.352 314.982 126.235 313.979 126L314.299 121.616C314.577 121.701 314.886 121.744 315.227 121.744C316.465 121.744 317.329 121.019 317.819 119.568C318.31 118.096 318.619 115.803 318.747 112.688L319.067 103.6H336.283Z" fill="#828282"/>
<path d="M352.566 126.384C350.24 126.384 348.139 125.883 346.262 124.88C344.406 123.877 342.944 122.501 341.878 120.752C340.832 118.981 340.31 116.997 340.31 114.8C340.31 112.603 340.832 110.629 341.878 108.88C342.944 107.109 344.406 105.723 346.262 104.72C348.139 103.717 350.24 103.216 352.566 103.216C354.891 103.216 356.982 103.717 358.838 104.72C360.694 105.723 362.155 107.109 363.222 108.88C364.288 110.629 364.822 112.603 364.822 114.8C364.822 116.997 364.288 118.981 363.222 120.752C362.155 122.501 360.694 123.877 358.838 124.88C356.982 125.883 354.891 126.384 352.566 126.384ZM352.566 121.968C353.888 121.968 355.083 121.669 356.15 121.072C357.216 120.453 358.048 119.6 358.646 118.512C359.264 117.424 359.574 116.187 359.574 114.8C359.574 113.413 359.264 112.176 358.646 111.088C358.048 110 357.216 109.157 356.15 108.56C355.083 107.941 353.888 107.632 352.566 107.632C351.243 107.632 350.048 107.941 348.982 108.56C347.915 109.157 347.072 110 346.454 111.088C345.856 112.176 345.558 113.413 345.558 114.8C345.558 116.187 345.856 117.424 346.454 118.512C347.072 119.6 347.915 120.453 348.982 121.072C350.048 121.669 351.243 121.968 352.566 121.968Z" fill="#828282"/>
<path d="M384.591 107.824H373.935L373.967 126H368.815V103.6H384.623L384.591 107.824Z" fill="#828282"/>
<path d="M387.784 103.6H392.936V118.192L403.624 103.6H408.488V126H403.368V111.44L392.68 126H387.784V103.6Z" fill="#828282"/>
<path d="M414.065 103.6H419.217V118.192L429.905 103.6H434.769V126H429.649V111.44L418.961 126H414.065V103.6ZM424.401 102.16C420.305 102.16 418.236 100.528 418.193 97.264H421.745C421.788 98.8213 422.673 99.6 424.401 99.6C425.255 99.6 425.905 99.408 426.353 99.024C426.801 98.6187 427.036 98.032 427.057 97.264H430.609C430.588 98.864 430.065 100.08 429.041 100.912C428.017 101.744 426.471 102.16 424.401 102.16Z" fill="#828282"/>
<path fill-rule="evenodd" clip-rule="evenodd" d="M43.7395 14.6974L42.7399 15.2513C42.0914 15.5079 41.9023 15.7106 41.4025 15.9132C40.9027 16.1158 40.9162 16.0213 40.5244 16.3455C40.1057 16.6832 34.7968 19.3984 33.8241 20.1279C33.527 20.344 33.4189 20.4926 33.0542 20.6547C32.095 21.087 31.5817 21.6138 30.6361 22.1407C30.3119 22.3298 30.1363 22.3568 29.8121 22.627L28.2586 23.7212C27.8939 23.9779 27.7588 23.9779 27.4481 24.2345C27.0968 24.5587 26.489 24.964 25.9621 25.3017C25.6919 25.4908 25.4623 25.6124 25.1786 25.8285C24.8544 26.0852 24.7598 26.2338 24.4627 26.4364C23.8142 26.8822 23.49 27.0443 22.9362 27.5441C22.6795 27.7738 22.4093 27.8954 22.1527 28.098C21.896 28.3141 21.7744 28.5168 21.4772 28.7464C21.0044 29.1247 20.5181 29.3678 20.0318 29.8406C19.7211 30.1378 19.7076 30.2053 19.3159 30.462L17.141 32.2452C16.6952 32.6369 16.2629 33.1232 15.8306 33.569C15.3984 34.0013 14.9526 34.3255 14.4933 34.7848C13.3585 35.9195 10.3866 38.9454 9.45455 40.2153C9.2114 40.5395 9.10333 40.634 8.81964 40.9042C8.57649 41.1609 8.4414 41.4175 8.2793 41.6877L5.52354 45.5512C5.32091 45.9024 5.33441 46.0105 5.07775 46.3347C4.686 46.8345 4.44284 47.4829 4.09162 47.9692C3.74039 48.4555 2.60567 50.7925 2.33549 51.495L1.78164 52.9269C1.28182 54.1427 1.34936 54.2237 1.11972 54.8316C0.998139 55.1558 1.05217 54.9802 0.98463 55.3314L0.403758 57.4253C0.147094 59.1544 0.0120077 60.3701 0.0120077 62.2073C0.0120077 63.0719 -0.0150096 64.0175 0.0120077 64.855C0.039025 65.3548 0.133585 65.5169 0.133585 66.0843C0.133585 67.0299 0.444284 68.3943 0.633405 69.3804C0.700949 69.7046 0.714457 70.2315 0.822526 70.5422C1.06568 71.1501 0.903578 70.9474 1.01165 71.5553C1.07919 71.893 1.11972 71.7985 1.18726 72.0686C1.2548 72.2983 1.22779 72.4199 1.28182 72.636C1.36287 72.9332 1.4034 72.8251 1.45743 73.0953C1.64655 74.0139 1.66006 73.6356 1.79515 74.122C1.86269 74.3516 1.82217 74.4732 1.8762 74.7028C1.91673 74.8649 2.10585 75.4998 2.1869 75.689L2.64619 77.2289C2.75426 77.4316 2.79479 77.3505 2.90286 77.6207L3.55127 79.5254C3.69987 79.8901 3.74039 80.1198 3.88899 80.5115C4.0646 80.9303 4.14565 80.9168 4.32127 81.4031L4.88863 82.808C5.21284 83.524 5.65862 84.321 5.91529 85.1045L7.71194 88.4816C7.98211 88.8734 8.33333 89.7109 8.60351 90.2513C8.79263 90.6295 8.96824 90.6835 9.13034 91.0213C9.6842 92.1425 10.4272 93.2097 11.008 94.3309C11.2377 94.7632 11.3458 94.6686 11.5889 95.0874C11.7375 95.344 11.8051 95.6682 12.0347 95.9654L15.7631 101.396C16.1278 101.963 16.5331 102.315 16.8978 102.909C17.1545 103.314 17.2625 103.314 17.5057 103.625C17.8569 104.098 18.2487 104.841 18.5729 105.178C19.3969 106.043 20.5046 107.596 20.9369 108.015C21.2071 108.272 21.2881 108.42 21.5448 108.731C23.0578 110.582 24.8409 112.5 26.4754 114.283C26.7051 114.54 26.8402 114.783 27.0698 114.999L34.2564 122.064L34.6617 122.483L34.8238 122.294C35.1615 121.97 35.2966 121.848 35.5803 121.47C36.688 119.957 40.2272 116.35 41.5781 114.999C42.1185 114.459 42.6588 114.067 43.1586 113.554C43.6855 113.027 44.1853 112.446 44.7256 111.973L47.3193 109.852C47.7921 109.555 47.8056 109.474 48.1703 109.123C48.7512 108.555 49.3186 108.258 49.8994 107.813C50.2372 107.542 50.3857 107.299 50.6964 107.043C51.0071 106.799 51.3314 106.664 51.6285 106.394C52.277 105.8 52.6687 105.611 53.4387 105.07C53.7899 104.827 53.9115 104.651 54.2897 104.341C54.614 104.098 54.8706 103.949 55.1813 103.76H55.1678C55.0192 103.611 54.9382 103.625 54.7625 103.49L52.4256 101.423C52.304 101.315 52.1824 101.18 52.0608 101.058L48.0758 97.1542C47.9542 97.0191 47.8866 96.8975 47.7516 96.7489C46.8465 95.7628 45.8604 94.7091 45.0228 93.6825C44.8877 93.5069 44.8337 93.4258 44.6851 93.2772C44.4419 93.0476 43.8341 92.183 43.3748 91.7102C43.1991 91.5211 42.983 91.1023 42.7804 90.8457C42.6453 90.6836 42.5913 90.6836 42.4562 90.4539C42.24 90.1162 42.0239 89.9271 41.8213 89.6164L39.7544 86.6039C39.6329 86.4418 39.5923 86.2662 39.5113 86.1311C39.3762 85.888 39.3087 85.942 39.1871 85.6989C38.8629 85.091 38.4576 84.4966 38.1469 83.8752C38.0659 83.6861 37.9578 83.6591 37.8497 83.4429C37.7146 83.1457 37.512 82.6864 37.3634 82.4703L36.3638 80.5926C36.2287 80.1603 35.9855 79.728 35.7964 79.3228L35.4857 78.5528C35.3911 78.2826 35.3371 78.2826 35.2561 78.053C35.1615 77.8368 35.1345 77.7153 35.0669 77.4991L34.7022 76.4589C34.6347 76.3104 34.6212 76.3509 34.5671 76.2293L34.3105 75.3783C34.2699 75.2837 34.1484 74.9325 34.1348 74.8379C34.1078 74.7028 34.1213 74.6488 34.0943 74.5137C34.0133 74.2435 33.9998 74.4597 33.9052 73.9463C33.8647 73.7977 33.8512 73.8518 33.8106 73.6897C33.7701 73.5681 33.7836 73.5006 33.7566 73.379C33.7161 73.2304 33.6891 73.2709 33.6485 73.0953C33.5945 72.7576 33.6891 72.8656 33.554 72.5279C33.4864 72.3523 33.4864 72.0686 33.4459 71.893C33.3378 71.3392 33.1622 70.5827 33.1757 70.0559C33.1757 69.7587 33.1082 69.6641 33.1082 69.3804C33.0812 68.9211 33.1082 68.3943 33.1082 67.9215C33.1082 66.8948 33.1757 66.2329 33.3243 65.2738L33.635 64.0985C33.6756 63.9229 33.6485 64.0175 33.7161 63.8284C33.8377 63.4906 33.7971 63.4501 34.0808 62.7747L34.3915 61.9777C34.5401 61.5994 35.1615 60.3026 35.3641 60.0324C35.5533 59.7623 35.6883 59.411 35.9045 59.1274C36.0396 58.9517 36.0396 58.8842 36.1611 58.6951L37.6741 56.5472C37.7687 56.4121 37.8362 56.2635 37.9848 56.1284C38.1334 55.9663 38.2009 55.9123 38.3225 55.7367C38.8494 55.0342 40.4839 53.3592 41.1188 52.7243C41.3755 52.4811 41.6186 52.292 41.8618 52.0623C42.0914 51.8192 42.3346 51.5355 42.5913 51.3194L43.7935 50.3332C44.0097 50.1981 44.0097 50.1576 44.1853 49.9955C44.4555 49.7388 44.7256 49.6038 44.9823 49.3876C45.1444 49.266 45.2119 49.1445 45.3605 49.0364C45.5091 48.9148 45.6577 48.8473 45.7928 48.7257C46.1035 48.442 46.2791 48.361 46.6303 48.1043C46.806 47.9962 46.86 47.9152 47.0356 47.7801C47.1842 47.6585 47.3193 47.5775 47.4679 47.4829C47.7651 47.2938 48.0893 47.0641 48.2919 46.8885C48.454 46.7534 48.5351 46.7534 48.7377 46.6048L49.6022 45.9969C49.7779 45.8484 49.8859 45.8348 50.0615 45.7268C50.5749 45.4431 50.8721 45.1459 51.3989 44.9163C51.6015 44.8217 51.6556 44.7406 51.8177 44.6191C52.1824 44.3489 53.6413 43.5654 54.6275 43.0386C54.4789 42.7684 54.3303 42.4982 54.2087 42.228C54.0061 41.8363 53.8034 41.7687 53.5603 41.3095C53.2496 40.6745 52.8308 39.6749 52.5201 39.2021L50.3722 35.1765C50.075 34.2444 49.5347 33.3123 49.143 32.4613L48.481 30.7862C48.2514 30.2053 48.1703 30.2189 47.9677 29.719C47.7786 29.2462 47.7245 28.9896 47.5624 28.5438L46.7789 26.2878C46.6574 25.9636 46.6033 26.0582 46.4817 25.8015L45.9279 23.9779C45.8468 23.7617 45.6037 23.0052 45.5632 22.8161C45.4956 22.5189 45.5497 22.3973 45.4686 22.1137C45.293 21.5328 45.293 21.9786 45.0633 20.8979C44.9958 20.5602 44.9553 20.6953 44.8607 20.344C44.7797 20.0874 44.8202 19.9388 44.7526 19.6686C44.6716 19.3444 44.604 19.4525 44.5365 19.0472C44.4014 18.3312 44.604 18.5744 44.3204 17.8449C44.1718 17.4802 44.1583 16.8588 44.0907 16.4806C43.9826 15.9402 43.8476 15.3188 43.7395 14.6974V14.6974Z" fill="#828282"/>
<path fill-rule="evenodd" clip-rule="evenodd" d="M147.283 73.5951L147.634 70.7043C147.648 69.9343 147.77 70.2585 147.878 69.8262C147.918 69.6371 147.864 67.935 148.067 66.6922C148.161 66.1924 147.918 64.882 148.31 64.6119V51.6436C148.053 51.2653 147.634 46.7264 147.648 46.2536C147.661 45.4701 147.688 45.6187 147.459 44.9433L146.648 39.783C146.473 39.3102 146.621 39.121 146.392 38.5402L146.067 36.5544C146.027 36.2572 145.959 36.3248 145.878 36.0276C145.797 35.7439 145.865 35.6358 145.77 35.3791C145.649 35.0144 145.608 35.2711 145.487 34.9063C145.406 34.6362 145.473 34.5146 145.392 34.2309C145.297 33.9337 145.284 34.1499 145.216 33.7041C145.149 33.2853 145.176 33.3799 145.054 33.0557L144.609 31.3536C144.514 31.1104 144.527 31.0564 144.433 30.7862C144.298 30.3945 144.311 30.6376 144.163 30.2864C143.987 29.8406 143.947 29.5839 143.825 29.1111C143.501 27.8683 142.812 26.9092 142.542 25.8555C142.299 24.991 141.961 24.4371 141.61 23.7887C141.434 23.478 141.353 23.0998 141.177 22.7891L140.137 20.8168C139.381 19.3039 139.556 20.0603 139.043 18.9932C138.651 18.1691 137.233 16.359 136.652 15.4404C135.72 13.9814 133.572 11.8876 132.37 10.6583C131.073 9.34798 131.248 9.76675 130.762 9.33447C130.533 9.13184 130.289 8.79413 130.019 8.57799C129.722 8.34834 129.452 8.19975 129.141 7.92958C128.722 7.53782 127.507 6.8759 127.385 6.76783C127.047 6.49766 126.791 6.36257 126.453 6.18696L123.576 4.61996L118.672 2.72875C117.969 2.55313 118.01 2.44506 116.902 2.22893C116.605 2.17489 116.646 2.10735 116.362 2.03981C116.011 1.95875 116.038 2.06682 115.727 1.90472C115.43 1.76963 115.565 1.7156 115.241 1.64805C114.998 1.60753 114.889 1.64805 114.633 1.59402C114.309 1.51297 114.471 1.45893 114.038 1.4049L109.635 0.634906C108.486 0.337716 104.92 0.418768 104.299 0H95.0318L91.506 0.459294C90.6415 0.607889 89.8715 0.580872 89.0204 0.675432C88.6017 0.715958 88.399 0.878062 87.9803 0.905079C87.5345 0.932097 87.0752 0.851045 86.697 0.959114L82.131 1.63455C81.6447 1.70209 81.6177 1.83718 81.1179 1.91823C80.6856 1.98577 80.4695 2.10735 80.1047 2.20191C79.6589 2.32349 79.3753 2.17489 78.889 2.32349C78.4972 2.45857 78.1595 2.41805 77.7407 2.51261L76.7681 2.74226C76.3088 2.82331 76.4439 2.91787 75.7009 2.9719C74.985 3.02594 75.3902 3.22857 74.6743 3.33664L71.4727 4.07961C71.3781 4.09312 70.2704 4.57943 69.4734 4.6875C69.1087 4.74153 69.2573 4.71452 68.9196 4.82259L64.4617 6.22749C62.7191 6.59222 62.7731 6.91643 62.0167 7.09204C61.3142 7.24063 61.2061 7.37572 60.5847 7.53782C60.3281 7.61888 60.2875 7.57835 60.0714 7.68642L58.6935 8.2808C58.2613 8.45641 58.0856 8.4294 57.6804 8.57799L55.8027 9.34798C55.5055 9.48307 55.1137 9.63166 54.8571 9.72623C54.5058 9.86131 54.2627 9.91535 53.8844 10.0639L51.1692 11.2257C50.7369 11.4013 50.6018 11.4283 50.2641 11.658C49.8859 11.9011 49.7778 11.9011 49.305 12.0362C48.9538 12.1308 48.5755 12.3334 48.2108 12.536C48.2243 12.6846 48.2513 12.8737 48.2513 13.1034C48.2378 14.1841 48.5891 15.7241 48.8052 16.8318C48.8727 17.1965 48.8863 17.7909 49.0213 18.1286C49.2915 18.8175 49.1159 18.6014 49.224 19.2768C49.305 19.6551 49.3591 19.5605 49.4266 19.8577C49.5076 20.1144 49.4671 20.263 49.5347 20.4926C49.6292 20.8168 49.6698 20.7088 49.7238 21.0195C49.9399 22.0461 49.9534 21.6138 50.1155 22.1812C50.1966 22.4379 50.1426 22.5594 50.2101 22.8296C50.2371 23.0052 50.4668 23.7212 50.5478 23.9373L51.0747 25.6664C51.1827 25.8961 51.2368 25.815 51.3583 26.1122L52.0878 28.2466C52.2499 28.6653 52.2904 28.922 52.4795 29.3678C52.6687 29.8406 52.7497 29.8271 52.9659 30.3674L53.6008 31.9615C53.9655 32.772 54.4653 33.65 54.749 34.5281L56.7753 38.3375C57.086 38.7833 57.4777 39.7289 57.7749 40.3233C57.9776 40.7421 58.1667 40.8231 58.3423 41.1338L58.4639 41.0663L59.1663 40.7286C59.5716 40.5665 59.9904 40.2558 60.3956 40.1342C60.6523 40.0531 60.7198 40.0666 60.9225 39.9316C61.1116 39.7965 61.1926 39.783 61.4223 39.6884L62.9352 39.04C63.1379 38.9589 63.273 38.9319 63.4756 38.8509C63.6107 38.8103 63.8268 38.7158 63.9889 38.6482L65.0291 38.216C65.2587 38.1349 65.3533 38.1484 65.5964 38.0539L66.3529 37.7297C66.4745 37.6756 66.5015 37.6891 66.6366 37.6486C66.9878 37.554 67.0419 37.4865 67.4336 37.3919C67.8524 37.2974 67.8254 37.1218 68.7845 36.9191L71.2566 36.1491C71.4322 36.0816 71.3511 36.0951 71.5673 36.0681C71.9995 36.0005 72.6209 35.7304 72.675 35.7304L74.4446 35.3116C74.8364 35.2576 74.6202 35.1495 75.012 35.1225C75.4307 35.082 75.3497 35.0414 75.5928 34.9874L76.1467 34.8658C76.3628 34.8118 76.552 34.8253 76.7681 34.7577C77.0518 34.6767 77.2004 34.7577 77.4435 34.6902C77.6462 34.6362 77.7677 34.5686 78.0109 34.5281C78.2811 34.4876 78.2946 34.42 78.5783 34.3795L81.1044 34.0013C81.307 33.9472 81.5637 33.9878 81.8068 33.9742C82.0365 33.9607 82.158 33.8662 82.3877 33.8392C82.8605 33.7986 83.2928 33.7986 83.7656 33.7311L85.7108 33.4744H90.8441C91.1953 33.7041 93.1676 33.65 93.8025 33.8257L96.2341 34.2444C96.4772 34.2849 96.3826 34.312 96.5718 34.3525C96.7069 34.393 96.7744 34.366 96.896 34.393C97.0851 34.42 97.0176 34.4606 97.1662 34.5281C97.3418 34.6092 97.3283 34.5551 97.5174 34.5956C97.6795 34.6362 97.6525 34.6767 97.8146 34.7037C98.436 34.8253 98.4089 34.8928 98.8007 34.9739L101.516 36.0276L103.11 36.8921C103.299 36.9867 103.434 37.0677 103.623 37.2163C103.704 37.2704 104.366 37.6486 104.609 37.8647C104.772 38.0133 104.92 38.0944 105.082 38.216C105.231 38.3375 105.366 38.5267 105.501 38.6347C105.771 38.8779 105.677 38.6482 106.379 39.3777C107.054 40.0531 108.243 41.2149 108.757 42.0254C109.081 42.5252 109.864 43.5384 110.08 43.9842C110.364 44.5785 110.27 44.1598 110.688 44.9973L111.269 46.0915C111.364 46.2671 111.404 46.4697 111.499 46.6454C111.701 47.0101 111.891 47.3073 112.012 47.7936C112.174 48.3745 112.552 48.9013 112.728 49.5902C112.796 49.8469 112.823 49.9955 112.917 50.2387C112.998 50.4413 112.998 50.3062 113.066 50.5223C113.12 50.6709 113.12 50.698 113.174 50.833L113.417 51.7786C113.471 51.9543 113.458 51.9002 113.498 52.1299C113.539 52.3865 113.552 52.265 113.593 52.4271C113.647 52.5892 113.606 52.6567 113.66 52.7918C113.714 52.9944 113.741 52.8593 113.809 53.062C113.863 53.197 113.822 53.2646 113.863 53.4267C113.917 53.5888 113.944 53.5483 113.971 53.7104L114.147 54.8046C114.282 55.1288 114.201 55.2369 114.295 55.4935L114.741 58.3574C114.876 58.7221 114.849 58.6545 114.849 59.0868C114.849 59.3435 115.065 61.8561 115.214 62.0722V69.2453C114.998 69.3939 115.133 70.1234 115.079 70.4071C114.971 71.0825 114.998 72.0281 114.971 72.1362C114.917 72.3793 114.849 72.2037 114.849 72.6225L114.282 77.1479L114.444 77.1344C115.335 77.0668 115.16 76.9588 115.7 76.8642L116.875 76.594C117.362 76.4724 117.767 76.513 118.226 76.3644C118.821 76.1753 119.145 76.3644 119.685 76.2158C120.117 76.1077 120.36 75.9726 120.887 75.8781C121.468 75.7835 121.509 75.6214 122.103 75.5539L127.534 74.7433C127.979 74.6083 128.533 74.7163 129.047 74.6758C129.546 74.6353 129.803 74.4597 130.303 74.4056C131.303 74.284 132.235 74.3111 133.248 74.149L137.449 73.5951H147.283V73.5951Z" fill="#828282"/>
<path fill-rule="evenodd" clip-rule="evenodd" d="M90.0742 150H92.9785C93.5864 149.581 95.8559 149.784 96.8555 149.554C97.2878 149.46 97.3553 149.5 97.8146 149.46C98.328 149.433 98.2199 149.325 98.6657 149.176C98.9223 149.095 99.3546 149.095 99.6518 149.041C99.976 148.973 100.287 148.919 100.624 148.852C101.124 148.744 100.787 148.69 101.394 148.609L103.124 148.163C103.542 148.014 103.691 147.92 103.961 147.825L107.163 146.609L111.377 144.299C111.647 144.097 111.674 143.975 111.985 143.786C113.62 142.8 116.105 140.895 117.645 139.531C118.091 139.139 118.253 138.923 118.78 138.504C119.618 137.842 123.427 133.736 124.062 132.83C124.4 132.331 124.818 132.115 125.089 131.696C125.467 131.115 126.021 130.304 126.52 129.818C126.845 129.507 126.71 129.44 126.966 129.129C127.142 128.886 127.236 128.886 127.439 128.575L128.263 127.224C128.682 126.671 128.668 126.833 129.236 125.941L131.735 121.821C131.897 121.537 132.046 121.416 132.194 121.159C132.748 120.227 133.923 117.755 134.491 116.823C134.855 116.242 134.896 116.026 135.207 115.377C135.328 115.134 135.463 114.864 135.585 114.621C136.044 113.689 135.747 114.499 136.287 113.148C136.706 112.108 137.314 111.163 137.652 110.19C137.706 110.055 137.76 109.906 137.814 109.744C138.03 109.069 137.895 109.325 138.341 108.596L139.232 106.191C139.354 105.827 139.543 105.732 139.881 104.638C140.002 104.246 140.218 103.49 140.421 103.03C140.556 102.706 140.597 102.558 140.786 102.26C141.002 101.882 140.894 101.801 141.042 101.396L141.799 98.9373C142.528 97.5999 142.123 98.0322 142.326 97.2757C142.353 97.1812 142.569 96.5868 142.609 96.4517L142.974 95.1144C143.042 94.8982 143.015 94.8712 143.109 94.6686C143.258 94.2903 143.271 94.4659 143.393 93.9256C143.487 93.4798 143.555 93.5879 143.622 92.98C143.676 92.3856 143.744 92.6558 143.839 92.21C143.879 91.9939 143.852 91.9128 143.906 91.6967C144.149 90.7375 144.379 90.724 144.487 89.5083L145.162 86.9146C145.27 86.5093 145.149 86.3202 145.284 85.9015C145.419 85.4962 145.406 85.5637 145.487 85.0774C145.568 84.6046 145.608 84.5236 145.743 84.1994C145.811 84.0102 146.067 82.5378 146.067 82.3217C146.054 81.5922 146.095 81.8624 146.257 81.4166C146.365 81.0654 146.257 80.7006 146.324 80.3359C146.405 79.8091 146.5 80.1603 146.54 79.4848L146.675 78.4852C146.621 78.4582 146.581 78.4447 146.554 78.4177H136.098L132.14 78.9445C131.167 79.0931 130.289 79.0661 129.344 79.1741C128.871 79.2282 128.628 79.4038 128.169 79.4308C127.669 79.4713 127.142 79.3768 126.723 79.4984L121.59 80.2683C121.022 80.3359 120.995 80.4845 120.442 80.579C119.942 80.6601 119.699 80.7817 119.307 80.9033C118.794 81.0248 118.483 80.8627 117.929 81.0383C117.483 81.1734 117.105 81.1329 116.632 81.2545L115.538 81.5111C115.025 81.5922 115.187 81.7003 114.349 81.7543C113.593 81.8218 113.93 82.0245 113.336 82.1461L113.093 83.0376C113.039 83.7131 112.917 83.7131 112.769 84.2399C112.742 84.3615 112.755 84.4155 112.742 84.5371C112.688 84.7802 112.647 84.6316 112.62 84.9558C112.58 85.2936 112.553 85.226 112.485 85.4827C112.417 85.7799 112.417 85.6853 112.336 85.8879C112.282 86.0095 112.296 86.023 112.269 86.1446L112.053 86.8741C112.039 86.9551 111.918 87.2793 111.904 87.3334C111.796 87.7521 112.012 87.509 111.607 88.252L111.188 89.6163C111.107 89.846 111.175 89.8865 111.04 90.0891C110.945 90.2647 110.918 90.3323 110.85 90.5214C110.742 90.7781 110.607 91.1968 110.54 91.413C110.364 92.0209 110.256 92.0749 110.189 92.2775L109.689 93.6014C109.446 94.0066 109.527 93.8716 109.405 94.2363C109.378 94.3309 109.337 94.4119 109.31 94.4794C109.121 95.0198 108.797 95.5466 108.554 96.1275C108.257 96.8705 108.419 96.4247 108.162 96.938C108.108 97.0731 108.027 97.2217 107.96 97.3568C107.784 97.708 107.757 97.8296 107.568 98.1538C107.244 98.6671 106.595 100.045 106.298 100.558C106.203 100.693 106.122 100.774 106.041 100.923L104.65 103.206C104.339 103.706 104.339 103.611 104.123 103.908L103.664 104.665C103.542 104.841 103.488 104.841 103.394 104.962C103.259 105.138 103.326 105.178 103.151 105.354C102.867 105.624 102.57 106.07 102.354 106.394C102.205 106.624 101.975 106.745 101.786 107.015C101.435 107.529 99.3276 109.798 98.8683 110.163C98.5711 110.393 98.4765 110.514 98.2334 110.73C97.3823 111.487 96.0045 112.541 95.0994 113.081C94.9238 113.189 94.9103 113.256 94.7617 113.378L92.4247 114.648L90.655 115.323C90.5064 115.377 90.4254 115.431 90.1957 115.512L89.2366 115.756C88.8989 115.796 89.088 115.837 88.8044 115.891C88.6287 115.931 88.4531 115.958 88.2775 115.999C88.1019 116.026 87.8588 116.026 87.7237 116.08C87.4805 116.161 87.548 116.215 87.2509 116.228C87.0077 116.242 86.9672 116.228 86.724 116.282C86.1702 116.404 84.9139 116.296 84.5761 116.526H82.9686C82.766 116.39 82.6714 116.445 82.3877 116.431C82.1176 116.417 82.0095 116.363 81.7123 116.363C80.3885 116.363 80.8613 116.228 80.402 116.228C79.9832 116.215 78.3352 116.012 77.9029 115.823C77.6057 115.702 77.6192 115.796 77.322 115.742C77.1599 115.715 77.1869 115.688 77.0383 115.647C76.9032 115.607 76.8492 115.634 76.7141 115.593C76.5925 115.566 76.6466 115.539 76.471 115.499C75.7415 115.35 75.5118 115.188 75.3362 115.161L73.9178 114.756C73.5936 114.661 73.6612 114.621 73.391 114.54C73.2019 114.486 73.0803 114.445 72.8641 114.378C72.702 114.324 72.7696 114.337 72.6075 114.283C72.2428 114.175 72.0806 114.026 71.851 113.945C71.6214 113.864 71.5133 113.851 71.2971 113.756C71.135 113.689 70.9324 113.648 70.7568 113.581C70.1219 113.297 70.257 113.283 69.2303 112.905C68.7845 112.73 67.3121 111.879 66.8393 111.689C66.5961 111.595 66.5556 111.527 66.38 111.419C66.1098 111.244 65.7586 111.109 65.4074 110.919C65.1102 110.771 64.8265 110.541 64.5428 110.379C64.3942 110.298 64.2186 110.258 64.043 110.149C63.8674 110.028 63.8134 109.933 63.6242 109.825L62.7056 109.285C62.3949 109.082 62.1113 108.974 61.8006 108.731C61.625 108.609 61.5979 108.528 61.4223 108.434C61.2332 108.312 61.1386 108.272 60.963 108.15L59.2339 106.961C59.0313 106.84 58.9097 106.732 58.7746 106.624L58.3288 106.907C58.0182 107.124 57.7615 107.259 57.4373 107.502C57.0725 107.785 56.9645 107.961 56.6268 108.191C55.9108 108.691 55.5326 108.88 54.9112 109.447C54.641 109.69 54.3303 109.825 54.0466 110.055C53.7494 110.298 53.6008 110.541 53.2766 110.784C52.7363 111.217 52.1959 111.5 51.6421 112.027C51.2908 112.351 51.2908 112.432 50.8316 112.716L48.3865 114.729C47.8867 115.161 47.4004 115.729 46.914 116.215C46.4277 116.701 45.9144 117.066 45.4011 117.579C44.1313 118.863 40.7811 122.28 39.7274 123.712C39.4708 124.063 39.3357 124.171 39.025 124.482C38.7413 124.766 38.5927 125.063 38.4036 125.36L38.2145 125.63L39.1331 126.441C39.4573 126.711 39.6059 126.684 39.876 126.927C40.1057 127.143 40.2813 127.387 40.5245 127.603C40.7676 127.805 41.0243 127.913 41.308 128.143C41.6051 128.386 41.6997 128.575 41.9834 128.791C42.6723 129.318 42.8074 129.305 43.4693 129.953C43.699 130.169 43.9557 130.21 44.2664 130.466L45.6983 131.588C46.3062 132.006 46.5493 132.304 47.2112 132.722L50.3317 134.884C50.6424 135.1 50.8316 135.167 51.1693 135.37C51.4935 135.559 51.5205 135.694 51.8312 135.937C52.3986 136.356 52.9119 136.545 53.4792 136.924L55.1408 137.91C55.4785 138.085 55.5866 138.274 55.8973 138.464C56.208 138.666 56.5187 138.761 56.7889 138.909C57.3022 139.18 57.8155 139.585 58.3694 139.882C58.9908 140.206 59.6392 140.463 60.112 140.76C60.4362 140.963 60.5037 141.098 60.936 141.273C61.8006 141.598 64.4483 143.138 65.2588 143.448C67.123 144.151 66.8798 144.178 68.0281 144.664C68.3252 144.799 68.7035 144.88 69.0007 145.002C69.3789 145.164 69.568 145.191 70.0003 145.339C70.4191 145.488 70.6893 145.745 71.3512 145.947C71.6619 146.028 71.5403 146.028 71.8375 146.123C72.2022 146.245 72.4184 146.312 72.7831 146.42C73.2694 146.555 73.1343 146.636 73.7152 146.798L76.2818 147.514C76.606 147.568 77.0113 147.866 78.3352 148.149C78.6459 148.203 78.5513 148.257 78.7809 148.325C79.0241 148.392 79.1322 148.352 79.3618 148.406C79.632 148.473 79.5915 148.528 79.8751 148.582C80.402 148.69 80.3885 148.501 80.9423 148.73C81.6988 149.068 84.6842 149.446 85.4407 149.46C86.2782 149.46 85.4272 149.716 87.8047 149.703C88.3586 149.703 88.5342 149.797 89.0205 149.824C89.5338 149.851 89.7094 149.757 90.0742 150V150Z" fill="#828282"/>
</svg>
