<svg width="608" height="79" viewBox="0 0 608 79" fill="none" xmlns="http://www.w3.org/2000/svg">
<g clip-path="url(#clip0)">
<path d="M210.376 49.384C208.093 49.384 206.024 48.8933 204.168 47.912C202.333 46.9093 200.883 45.5333 199.816 43.784C198.771 42.0133 198.248 40.0187 198.248 37.8C198.248 35.5813 198.771 33.5973 199.816 31.848C200.883 30.0773 202.333 28.7013 204.168 27.72C206.024 26.7173 208.104 26.216 210.408 26.216C212.349 26.216 214.099 26.5573 215.656 27.24C217.235 27.9227 218.557 28.904 219.624 30.184L216.296 33.256C214.781 31.5067 212.904 30.632 210.664 30.632C209.277 30.632 208.04 30.9413 206.952 31.56C205.864 32.1573 205.011 33 204.392 34.088C203.795 35.176 203.496 36.4133 203.496 37.8C203.496 39.1867 203.795 40.424 204.392 41.512C205.011 42.6 205.864 43.4533 206.952 44.072C208.04 44.6693 209.277 44.968 210.664 44.968C212.904 44.968 214.781 44.0827 216.296 42.312L219.624 45.384C218.557 46.6853 217.235 47.6773 215.656 48.36C214.077 49.0427 212.317 49.384 210.376 49.384Z" fill="#D7D7D7"/>
<path d="M237.733 44.2H227.333L225.349 49H220.037L230.021 26.6H235.141L245.157 49H239.717L237.733 44.2ZM236.101 40.264L232.549 31.688L228.997 40.264H236.101Z" fill="#D7D7D7"/>
<path d="M268.283 26.6V49H263.163V30.824H255.483L255.323 35.496C255.217 38.6747 254.961 41.256 254.555 43.24C254.15 45.2027 253.467 46.7173 252.507 47.784C251.569 48.8293 250.246 49.352 248.539 49.352C247.835 49.352 246.982 49.2347 245.979 49L246.299 44.616C246.577 44.7013 246.886 44.744 247.227 44.744C248.465 44.744 249.329 44.0187 249.819 42.568C250.31 41.096 250.619 38.8027 250.747 35.688L251.067 26.6H268.283Z" fill="#D7D7D7"/>
<path d="M284.566 49.384C282.24 49.384 280.139 48.8827 278.262 47.88C276.406 46.8773 274.944 45.5013 273.878 43.752C272.832 41.9813 272.31 39.9973 272.31 37.8C272.31 35.6027 272.832 33.6293 273.878 31.88C274.944 30.1093 276.406 28.7227 278.262 27.72C280.139 26.7173 282.24 26.216 284.566 26.216C286.891 26.216 288.982 26.7173 290.838 27.72C292.694 28.7227 294.155 30.1093 295.222 31.88C296.288 33.6293 296.822 35.6027 296.822 37.8C296.822 39.9973 296.288 41.9813 295.222 43.752C294.155 45.5013 292.694 46.8773 290.838 47.88C288.982 48.8827 286.891 49.384 284.566 49.384ZM284.566 44.968C285.888 44.968 287.083 44.6693 288.15 44.072C289.216 43.4533 290.048 42.6 290.646 41.512C291.264 40.424 291.574 39.1867 291.574 37.8C291.574 36.4133 291.264 35.176 290.646 34.088C290.048 33 289.216 32.1573 288.15 31.56C287.083 30.9413 285.888 30.632 284.566 30.632C283.243 30.632 282.048 30.9413 280.982 31.56C279.915 32.1573 279.072 33 278.454 34.088C277.856 35.176 277.558 36.4133 277.558 37.8C277.558 39.1867 277.856 40.424 278.454 41.512C279.072 42.6 279.915 43.4533 280.982 44.072C282.048 44.6693 283.243 44.968 284.566 44.968Z" fill="#D7D7D7"/>
<path d="M321.359 26.6V49H316.175V39.816H305.999V49H300.815V26.6H305.999V35.432H316.175V26.6H321.359Z" fill="#D7D7D7"/>
<path d="M206.952 65.216C209.171 65.216 211.155 65.7173 212.904 66.72C214.675 67.7013 216.061 69.0773 217.064 70.848C218.067 72.5973 218.568 74.5813 218.568 76.8C218.568 79.0187 218.067 81.0133 217.064 82.784C216.061 84.5333 214.675 85.9093 212.904 86.912C211.155 87.8933 209.171 88.384 206.952 88.384C204.968 88.384 203.176 88.0427 201.576 87.36C199.997 86.6773 198.675 85.6853 197.608 84.384L200.904 81.312C202.483 83.0827 204.413 83.968 206.696 83.968C208.339 83.968 209.725 83.488 210.856 82.528C212.008 81.568 212.755 80.2773 213.096 78.656H204.008V74.688H213.032C212.669 73.152 211.923 71.9253 210.792 71.008C209.661 70.0907 208.296 69.632 206.696 69.632C204.413 69.632 202.483 70.5173 200.904 72.288L197.608 69.216C198.675 67.9147 199.997 66.9227 201.576 66.24C203.176 65.5573 204.968 65.216 206.952 65.216Z" fill="#D7D7D7"/>
<path d="M243.172 65.6V88H237.988V78.816H227.812V88H222.628V65.6H227.812V74.432H237.988V65.6H243.172Z" fill="#D7D7D7"/>
<path d="M266.128 83.84V88H248.784V65.6H265.712V69.76H253.936V74.624H264.336V78.656H253.936V83.84H266.128Z" fill="#D7D7D7"/>
<path d="M280.011 65.6C281.995 65.6 283.713 65.9307 285.163 66.592C286.635 67.2533 287.766 68.192 288.555 69.408C289.345 70.624 289.739 72.064 289.739 73.728C289.739 75.3707 289.345 76.8107 288.555 78.048C287.766 79.264 286.635 80.2027 285.163 80.864C283.713 81.504 281.995 81.824 280.011 81.824H275.499V88H270.315V65.6H280.011ZM279.723 77.6C281.281 77.6 282.465 77.2693 283.275 76.608C284.086 75.9253 284.491 74.9653 284.491 73.728C284.491 72.4693 284.086 71.5093 283.275 70.848C282.465 70.1653 281.281 69.824 279.723 69.824H275.499V77.6H279.723Z" fill="#D7D7D7"/>
<path d="M308.935 69.824H298.279L298.311 88H293.159V65.6H308.967L308.935 69.824Z" fill="#D7D7D7"/>
<path d="M320.534 88.384C318.209 88.384 316.108 87.8827 314.23 86.88C312.374 85.8773 310.913 84.5013 309.846 82.752C308.801 80.9813 308.278 78.9973 308.278 76.8C308.278 74.6027 308.801 72.6293 309.846 70.88C310.913 69.1093 312.374 67.7227 314.23 66.72C316.108 65.7173 318.209 65.216 320.534 65.216C322.86 65.216 324.95 65.7173 326.806 66.72C328.662 67.7227 330.124 69.1093 331.19 70.88C332.257 72.6293 332.79 74.6027 332.79 76.8C332.79 78.9973 332.257 80.9813 331.19 82.752C330.124 84.5013 328.662 85.8773 326.806 86.88C324.95 87.8827 322.86 88.384 320.534 88.384ZM320.534 83.968C321.857 83.968 323.052 83.6693 324.118 83.072C325.185 82.4533 326.017 81.6 326.614 80.512C327.233 79.424 327.542 78.1867 327.542 76.8C327.542 75.4133 327.233 74.176 326.614 73.088C326.017 72 325.185 71.1573 324.118 70.56C323.052 69.9413 321.857 69.632 320.534 69.632C319.212 69.632 318.017 69.9413 316.95 70.56C315.884 71.1573 315.041 72 314.422 73.088C313.825 74.176 313.526 75.4133 313.526 76.8C313.526 78.1867 313.825 79.424 314.422 80.512C315.041 81.6 315.884 82.4533 316.95 83.072C318.017 83.6693 319.212 83.968 320.534 83.968Z" fill="#D7D7D7"/>
<path d="M347.376 88.384C345.093 88.384 343.024 87.8933 341.168 86.912C339.333 85.9093 337.883 84.5333 336.816 82.784C335.771 81.0133 335.248 79.0187 335.248 76.8C335.248 74.5813 335.771 72.5973 336.816 70.848C337.883 69.0773 339.333 67.7013 341.168 66.72C343.024 65.7173 345.104 65.216 347.408 65.216C349.349 65.216 351.099 65.5573 352.656 66.24C354.235 66.9227 355.557 67.904 356.624 69.184L353.296 72.256C351.781 70.5067 349.904 69.632 347.664 69.632C346.277 69.632 345.04 69.9413 343.952 70.56C342.864 71.1573 342.011 72 341.392 73.088C340.795 74.176 340.496 75.4133 340.496 76.8C340.496 78.1867 340.795 79.424 341.392 80.512C342.011 81.6 342.864 82.4533 343.952 83.072C345.04 83.6693 346.277 83.968 347.664 83.968C349.904 83.968 351.781 83.0827 353.296 81.312L356.624 84.384C355.557 85.6853 354.235 86.6773 352.656 87.36C351.077 88.0427 349.317 88.384 347.376 88.384Z" fill="#D7D7D7"/>
<path d="M360.003 65.6H378.083V69.728H365.155V74.336H371.363C374.072 74.336 376.131 74.9013 377.539 76.032C378.968 77.1627 379.683 78.7947 379.683 80.928C379.683 83.168 378.893 84.9067 377.315 86.144C375.736 87.3813 373.507 88 370.627 88H360.003V65.6ZM370.339 84.16C371.661 84.16 372.675 83.904 373.379 83.392C374.083 82.8587 374.435 82.0907 374.435 81.088C374.435 79.1253 373.069 78.144 370.339 78.144H365.155V84.16H370.339Z" fill="#D7D7D7"/>
<path d="M400.972 83.84V88H383.628V65.6H400.556V69.76H388.78V74.624H399.18V78.656H388.78V83.84H400.972Z" fill="#D7D7D7"/>
<path d="M414.855 65.6C416.839 65.6 418.556 65.9307 420.007 66.592C421.479 67.2533 422.61 68.192 423.399 69.408C424.188 70.624 424.583 72.064 424.583 73.728C424.583 75.3707 424.188 76.8107 423.399 78.048C422.61 79.264 421.479 80.2027 420.007 80.864C418.556 81.504 416.839 81.824 414.855 81.824H410.343V88H405.159V65.6H414.855ZM414.567 77.6C416.124 77.6 417.308 77.2693 418.119 76.608C418.93 75.9253 419.335 74.9653 419.335 73.728C419.335 72.4693 418.93 71.5093 418.119 70.848C417.308 70.1653 416.124 69.824 414.567 69.824H410.343V77.6H414.567Z" fill="#D7D7D7"/>
<path d="M445.347 83.84V88H428.003V65.6H444.931V69.76H433.155V74.624H443.555V78.656H433.155V83.84H445.347Z" fill="#D7D7D7"/>
<path d="M465.31 69.824H454.654L454.686 88H449.534V65.6H465.342L465.31 69.824Z" fill="#D7D7D7"/>
<path d="M479.327 83.2H468.927L466.943 88H461.631L471.615 65.6H476.735L486.751 88H481.311L479.327 83.2ZM477.695 79.264L474.143 70.688L470.591 79.264H477.695Z" fill="#D7D7D7"/>
<path d="M509.497 65.216C511.737 65.216 513.753 65.7173 515.545 66.72C517.359 67.7227 518.777 69.1093 519.801 70.88C520.825 72.6293 521.337 74.6027 521.337 76.8C521.337 78.9973 520.825 80.9813 519.801 82.752C518.777 84.5013 517.359 85.8773 515.545 86.88C513.753 87.8827 511.737 88.384 509.497 88.384C507.492 88.384 505.657 87.9893 503.993 87.2C502.329 86.3893 500.953 85.2693 499.865 83.84C498.799 82.3893 498.116 80.736 497.817 78.88H494.873V88H489.721V65.6H494.873V74.4H497.881C498.223 72.608 498.927 71.0187 499.993 69.632C501.081 68.224 502.447 67.136 504.089 66.368C505.732 65.6 507.535 65.216 509.497 65.216ZM509.497 83.968C510.735 83.968 511.855 83.6693 512.857 83.072C513.86 82.4747 514.649 81.632 515.225 80.544C515.801 79.456 516.089 78.208 516.089 76.8C516.089 75.392 515.801 74.144 515.225 73.056C514.649 71.968 513.86 71.1253 512.857 70.528C511.855 69.9307 510.735 69.632 509.497 69.632C508.26 69.632 507.14 69.9307 506.137 70.528C505.135 71.1253 504.345 71.968 503.769 73.056C503.193 74.144 502.905 75.392 502.905 76.8C502.905 78.208 503.193 79.456 503.769 80.544C504.345 81.632 505.135 82.4747 506.137 83.072C507.14 83.6693 508.26 83.968 509.497 83.968Z" fill="#D7D7D7"/>
<path d="M554.946 65.6V88H525.378V65.6H530.53V83.776H537.602V65.6H542.754V83.776H549.794V65.6H554.946ZM557.986 83.776V92.64H553.186V88H549.698V83.776H557.986Z" fill="#D7D7D7"/>
<path d="M561.534 65.6H566.686V80.192L577.374 65.6H582.238V88H577.118V73.44L566.43 88H561.534V65.6Z" fill="#D7D7D7"/>
<path d="M591.847 65.6L596.487 72.384L601.127 65.6H607.207L599.751 76.32L607.815 88H601.703L596.487 80.576L591.335 88H585.351L593.351 76.544L585.863 65.6H591.847Z" fill="#D7D7D7"/>
<path fill-rule="evenodd" clip-rule="evenodd" d="M43.7395 15.6974L42.7399 16.2513C42.0914 16.5079 41.9023 16.7106 41.4025 16.9132C40.9027 17.1158 40.9162 17.0213 40.5244 17.3455C40.1057 17.6832 34.7968 20.3984 33.8241 21.1279C33.527 21.344 33.4189 21.4926 33.0542 21.6547C32.095 22.087 31.5817 22.6138 30.6361 23.1407C30.3119 23.3298 30.1363 23.3568 29.8121 23.627L28.2586 24.7212C27.8939 24.9779 27.7588 24.9779 27.4481 25.2345C27.0968 25.5587 26.489 25.964 25.9621 26.3017C25.6919 26.4908 25.4623 26.6124 25.1786 26.8285C24.8544 27.0852 24.7598 27.2338 24.4627 27.4364C23.8142 27.8822 23.49 28.0443 22.9362 28.5441C22.6795 28.7738 22.4093 28.8954 22.1527 29.098C21.896 29.3141 21.7744 29.5168 21.4772 29.7464C21.0044 30.1247 20.5181 30.3678 20.0318 30.8406C19.7211 31.1378 19.7076 31.2053 19.3159 31.462L17.141 33.2452C16.6952 33.6369 16.2629 34.1232 15.8306 34.569C15.3984 35.0013 14.9526 35.3255 14.4933 35.7848C13.3585 36.9195 10.3866 39.9454 9.45455 41.2153C9.2114 41.5395 9.10333 41.634 8.81964 41.9042C8.57649 42.1609 8.4414 42.4175 8.2793 42.6877L5.52354 46.5512C5.32091 46.9024 5.33441 47.0105 5.07775 47.3347C4.686 47.8345 4.44284 48.4829 4.09162 48.9692C3.74039 49.4555 2.60567 51.7925 2.33549 52.495L1.78164 53.9269C1.28182 55.1427 1.34936 55.2237 1.11972 55.8316C0.998139 56.1558 1.05217 55.9802 0.98463 56.3314L0.403758 58.4253C0.147094 60.1544 0.0120077 61.3701 0.0120077 63.2073C0.0120077 64.0719 -0.0150096 65.0175 0.0120077 65.855C0.039025 66.3548 0.133585 66.5169 0.133585 67.0843C0.133585 68.0299 0.444284 69.3943 0.633405 70.3804C0.700949 70.7046 0.714457 71.2315 0.822526 71.5422C1.06568 72.1501 0.903578 71.9474 1.01165 72.5553C1.07919 72.893 1.11972 72.7985 1.18726 73.0686C1.2548 73.2983 1.22779 73.4199 1.28182 73.636C1.36287 73.9332 1.4034 73.8251 1.45743 74.0953C1.64655 75.0139 1.66006 74.6356 1.79515 75.122C1.86269 75.3516 1.82217 75.4732 1.8762 75.7028C1.91673 75.8649 2.10585 76.4998 2.1869 76.689L2.64619 78.2289C2.75426 78.4316 2.79479 78.3505 2.90286 78.6207L3.55127 80.5254C3.69987 80.8901 3.74039 81.1198 3.88899 81.5115C4.0646 81.9303 4.14565 81.9168 4.32127 82.4031L4.88863 83.808C5.21284 84.524 5.65862 85.321 5.91529 86.1045L7.71194 89.4816C7.98211 89.8734 8.33333 90.7109 8.60351 91.2513C8.79263 91.6295 8.96824 91.6835 9.13034 92.0213C9.6842 93.1425 10.4272 94.2097 11.008 95.3309C11.2377 95.7632 11.3458 95.6686 11.5889 96.0874C11.7375 96.344 11.8051 96.6682 12.0347 96.9654L15.7631 102.396C16.1278 102.963 16.5331 103.315 16.8978 103.909C17.1545 104.314 17.2625 104.314 17.5057 104.625C17.8569 105.098 18.2487 105.841 18.5729 106.178C19.3969 107.043 20.5046 108.596 20.9369 109.015C21.2071 109.272 21.2881 109.42 21.5448 109.731C23.0578 111.582 24.8409 113.5 26.4754 115.283C26.7051 115.54 26.8402 115.783 27.0698 115.999L34.2564 123.064L34.6617 123.483L34.8238 123.294C35.1615 122.97 35.2966 122.848 35.5803 122.47C36.688 120.957 40.2272 117.35 41.5781 115.999C42.1185 115.459 42.6588 115.067 43.1586 114.554C43.6855 114.027 44.1853 113.446 44.7256 112.973L47.3193 110.852C47.7921 110.555 47.8056 110.474 48.1703 110.123C48.7512 109.555 49.3186 109.258 49.8994 108.813C50.2372 108.542 50.3857 108.299 50.6964 108.043C51.0071 107.799 51.3314 107.664 51.6285 107.394C52.277 106.8 52.6687 106.611 53.4387 106.07C53.7899 105.827 53.9115 105.651 54.2897 105.341C54.614 105.098 54.8706 104.949 55.1813 104.76H55.1678C55.0192 104.611 54.9382 104.625 54.7625 104.49L52.4256 102.423C52.304 102.315 52.1824 102.18 52.0608 102.058L48.0758 98.1542C47.9542 98.0191 47.8866 97.8975 47.7516 97.7489C46.8465 96.7628 45.8604 95.7091 45.0228 94.6825C44.8877 94.5069 44.8337 94.4258 44.6851 94.2772C44.4419 94.0476 43.8341 93.183 43.3748 92.7102C43.1991 92.5211 42.983 92.1023 42.7804 91.8457C42.6453 91.6836 42.5913 91.6836 42.4562 91.4539C42.24 91.1162 42.0239 90.9271 41.8213 90.6164L39.7544 87.6039C39.6329 87.4418 39.5923 87.2662 39.5113 87.1311C39.3762 86.888 39.3087 86.942 39.1871 86.6989C38.8629 86.091 38.4576 85.4966 38.1469 84.8752C38.0659 84.6861 37.9578 84.6591 37.8497 84.4429C37.7146 84.1457 37.512 83.6864 37.3634 83.4703L36.3638 81.5926C36.2287 81.1603 35.9855 80.728 35.7964 80.3228L35.4857 79.5528C35.3911 79.2826 35.3371 79.2826 35.2561 79.053C35.1615 78.8368 35.1345 78.7153 35.0669 78.4991L34.7022 77.4589C34.6347 77.3104 34.6212 77.3509 34.5671 77.2293L34.3105 76.3783C34.2699 76.2837 34.1484 75.9325 34.1348 75.8379C34.1078 75.7028 34.1213 75.6488 34.0943 75.5137C34.0133 75.2435 33.9998 75.4597 33.9052 74.9463C33.8647 74.7977 33.8512 74.8518 33.8106 74.6897C33.7701 74.5681 33.7836 74.5006 33.7566 74.379C33.7161 74.2304 33.6891 74.2709 33.6485 74.0953C33.5945 73.7576 33.6891 73.8656 33.554 73.5279C33.4864 73.3523 33.4864 73.0686 33.4459 72.893C33.3378 72.3392 33.1622 71.5827 33.1757 71.0559C33.1757 70.7587 33.1082 70.6641 33.1082 70.3804C33.0812 69.9211 33.1082 69.3943 33.1082 68.9215C33.1082 67.8948 33.1757 67.2329 33.3243 66.2738L33.635 65.0985C33.6756 64.9229 33.6485 65.0175 33.7161 64.8284C33.8377 64.4906 33.7971 64.4501 34.0808 63.7747L34.3915 62.9777C34.5401 62.5994 35.1615 61.3026 35.3641 61.0324C35.5533 60.7623 35.6883 60.411 35.9045 60.1274C36.0396 59.9517 36.0396 59.8842 36.1611 59.6951L37.6741 57.5472C37.7687 57.4121 37.8362 57.2635 37.9848 57.1284C38.1334 56.9663 38.2009 56.9123 38.3225 56.7367C38.8494 56.0342 40.4839 54.3592 41.1188 53.7243C41.3755 53.4811 41.6186 53.292 41.8618 53.0623C42.0914 52.8192 42.3346 52.5355 42.5913 52.3194L43.7935 51.3332C44.0097 51.1981 44.0097 51.1576 44.1853 50.9955C44.4555 50.7388 44.7256 50.6038 44.9823 50.3876C45.1444 50.266 45.2119 50.1445 45.3605 50.0364C45.5091 49.9148 45.6577 49.8473 45.7928 49.7257C46.1035 49.442 46.2791 49.361 46.6303 49.1043C46.806 48.9962 46.86 48.9152 47.0356 48.7801C47.1842 48.6585 47.3193 48.5775 47.4679 48.4829C47.7651 48.2938 48.0893 48.0641 48.2919 47.8885C48.454 47.7534 48.5351 47.7534 48.7377 47.6048L49.6022 46.9969C49.7779 46.8484 49.8859 46.8348 50.0615 46.7268C50.5749 46.4431 50.8721 46.1459 51.3989 45.9163C51.6015 45.8217 51.6556 45.7406 51.8177 45.6191C52.1824 45.3489 53.6413 44.5654 54.6275 44.0386C54.4789 43.7684 54.3303 43.4982 54.2087 43.228C54.0061 42.8363 53.8034 42.7687 53.5603 42.3095C53.2496 41.6745 52.8308 40.6749 52.5201 40.2021L50.3722 36.1765C50.075 35.2444 49.5347 34.3123 49.143 33.4613L48.481 31.7862C48.2514 31.2053 48.1703 31.2189 47.9677 30.719C47.7786 30.2462 47.7245 29.9896 47.5624 29.5438L46.7789 27.2878C46.6574 26.9636 46.6033 27.0582 46.4817 26.8015L45.9279 24.9779C45.8468 24.7617 45.6037 24.0052 45.5632 23.8161C45.4956 23.5189 45.5497 23.3973 45.4686 23.1137C45.293 22.5328 45.293 22.9786 45.0633 21.8979C44.9958 21.5602 44.9553 21.6953 44.8607 21.344C44.7797 21.0874 44.8202 20.9388 44.7526 20.6686C44.6716 20.3444 44.604 20.4525 44.5365 20.0472C44.4014 19.3312 44.604 19.5744 44.3204 18.8449C44.1718 18.4802 44.1583 17.8588 44.0907 17.4806C43.9826 16.9402 43.8476 16.3188 43.7395 15.6974Z" fill="#D7D7D7"/>
<path fill-rule="evenodd" clip-rule="evenodd" d="M147.283 74.5951L147.634 71.7043C147.648 70.9343 147.77 71.2585 147.878 70.8262C147.918 70.6371 147.864 68.935 148.067 67.6922C148.161 67.1924 147.918 65.882 148.31 65.6119V52.6436C148.053 52.2653 147.634 47.7264 147.648 47.2536C147.661 46.4701 147.688 46.6187 147.459 45.9433L146.648 40.783C146.473 40.3102 146.621 40.121 146.392 39.5402L146.067 37.5544C146.027 37.2572 145.959 37.3248 145.878 37.0276C145.797 36.7439 145.865 36.6358 145.77 36.3791C145.649 36.0144 145.608 36.2711 145.487 35.9063C145.406 35.6362 145.473 35.5146 145.392 35.2309C145.297 34.9337 145.284 35.1499 145.216 34.7041C145.149 34.2853 145.176 34.3799 145.054 34.0557L144.609 32.3536C144.514 32.1104 144.527 32.0564 144.433 31.7862C144.298 31.3945 144.311 31.6376 144.163 31.2864C143.987 30.8406 143.947 30.5839 143.825 30.1111C143.501 28.8683 142.812 27.9092 142.542 26.8555C142.299 25.991 141.961 25.4371 141.61 24.7887C141.434 24.478 141.353 24.0998 141.177 23.7891L140.137 21.8168C139.381 20.3039 139.556 21.0603 139.043 19.9932C138.651 19.1691 137.233 17.359 136.652 16.4404C135.72 14.9814 133.572 12.8876 132.37 11.6583C131.073 10.348 131.248 10.7667 130.762 10.3345C130.533 10.1318 130.289 9.79413 130.019 9.57799C129.722 9.34834 129.452 9.19975 129.141 8.92958C128.722 8.53782 127.507 7.8759 127.385 7.76783C127.047 7.49766 126.791 7.36257 126.453 7.18696L123.576 5.61996L118.672 3.72875C117.969 3.55313 118.01 3.44506 116.902 3.22893C116.605 3.17489 116.646 3.10735 116.362 3.03981C116.011 2.95875 116.038 3.06682 115.727 2.90472C115.43 2.76963 115.565 2.7156 115.241 2.64805C114.998 2.60753 114.889 2.64805 114.633 2.59402C114.309 2.51297 114.471 2.45893 114.038 2.4049L109.635 1.63491C108.486 1.33772 104.92 1.41877 104.299 1H95.0319L91.5061 1.45929C90.6416 1.60789 89.8716 1.58087 89.0205 1.67543C88.6018 1.71596 88.3991 1.87806 87.9804 1.90508C87.5346 1.9321 87.0753 1.85105 86.6971 1.95911L82.1311 2.63455C81.6448 2.70209 81.6178 2.83718 81.118 2.91823C80.6857 2.98577 80.4696 3.10735 80.1048 3.20191C79.659 3.32349 79.3754 3.17489 78.8891 3.32349C78.4973 3.45857 78.1596 3.41805 77.7408 3.51261L76.7682 3.74226C76.3089 3.82331 76.444 3.91787 75.701 3.9719C74.9851 4.02594 75.3903 4.22857 74.6744 4.33664L71.4728 5.07961C71.3782 5.09312 70.2705 5.57943 69.4735 5.6875C69.1088 5.74153 69.2574 5.71452 68.9197 5.82259L64.4618 7.22749C62.7192 7.59222 62.7732 7.91643 62.0168 8.09204C61.3143 8.24063 61.2062 8.37572 60.5848 8.53782C60.3282 8.61888 60.2876 8.57835 60.0715 8.68642L58.6936 9.2808C58.2614 9.45641 58.0857 9.4294 57.6805 9.57799L55.8028 10.348C55.5056 10.4831 55.1138 10.6317 54.8572 10.7262C54.5059 10.8613 54.2628 10.9153 53.8845 11.0639L51.1693 12.2257C50.737 12.4013 50.6019 12.4283 50.2642 12.658C49.886 12.9011 49.7779 12.9011 49.3051 13.0362C48.9539 13.1308 48.5756 13.3334 48.2109 13.536C48.2244 13.6846 48.2514 13.8737 48.2514 14.1034C48.2379 15.1841 48.5892 16.7241 48.8053 17.8318C48.8728 18.1965 48.8864 18.7909 49.0214 19.1286C49.2916 19.8175 49.116 19.6014 49.2241 20.2768C49.3051 20.6551 49.3592 20.5605 49.4267 20.8577C49.5077 21.1144 49.4672 21.263 49.5348 21.4926C49.6293 21.8168 49.6699 21.7088 49.7239 22.0195C49.94 23.0461 49.9535 22.6138 50.1156 23.1812C50.1967 23.4379 50.1427 23.5594 50.2102 23.8296C50.2372 24.0052 50.4669 24.7212 50.5479 24.9373L51.0748 26.6664C51.1828 26.8961 51.2369 26.815 51.3584 27.1122L52.0879 29.2466C52.25 29.6653 52.2905 29.922 52.4796 30.3678C52.6688 30.8406 52.7498 30.8271 52.966 31.3674L53.6009 32.9615C53.9656 33.772 54.4654 34.65 54.7491 35.5281L56.7754 39.3375C57.0861 39.7833 57.4778 40.7289 57.775 41.3233C57.9777 41.7421 58.1668 41.8231 58.3424 42.1338L58.464 42.0663L59.1664 41.7286C59.5717 41.5665 59.9905 41.2558 60.3957 41.1342C60.6524 41.0531 60.7199 41.0666 60.9226 40.9316C61.1117 40.7965 61.1927 40.783 61.4224 40.6884L62.9353 40.04C63.138 39.9589 63.2731 39.9319 63.4757 39.8509C63.6108 39.8103 63.8269 39.7158 63.989 39.6482L65.0292 39.216C65.2588 39.1349 65.3534 39.1484 65.5965 39.0539L66.353 38.7297C66.4746 38.6756 66.5016 38.6891 66.6367 38.6486C66.9879 38.554 67.042 38.4865 67.4337 38.3919C67.8525 38.2974 67.8255 38.1218 68.7846 37.9191L71.2567 37.1491C71.4323 37.0816 71.3512 37.0951 71.5674 37.0681C71.9996 37.0005 72.621 36.7304 72.6751 36.7304L74.4447 36.3116C74.8365 36.2576 74.6203 36.1495 75.0121 36.1225C75.4308 36.082 75.3498 36.0414 75.5929 35.9874L76.1468 35.8658C76.3629 35.8118 76.5521 35.8253 76.7682 35.7577C77.0519 35.6767 77.2005 35.7577 77.4436 35.6902C77.6463 35.6362 77.7678 35.5686 78.011 35.5281C78.2812 35.4876 78.2947 35.42 78.5784 35.3795L81.1045 35.0013C81.3071 34.9472 81.5638 34.9878 81.8069 34.9742C82.0366 34.9607 82.1581 34.8662 82.3878 34.8392C82.8606 34.7986 83.2929 34.7986 83.7657 34.7311L85.7109 34.4744H90.8442C91.1954 34.7041 93.1677 34.65 93.8026 34.8257L96.2342 35.2444C96.4773 35.2849 96.3827 35.312 96.5719 35.3525C96.707 35.393 96.7745 35.366 96.8961 35.393C97.0852 35.42 97.0177 35.4606 97.1663 35.5281C97.3419 35.6092 97.3284 35.5551 97.5175 35.5956C97.6796 35.6362 97.6526 35.6767 97.8147 35.7037C98.4361 35.8253 98.409 35.8928 98.8008 35.9739L101.516 37.0276L103.11 37.8921C103.299 37.9867 103.434 38.0677 103.623 38.2163C103.704 38.2704 104.366 38.6486 104.609 38.8647C104.772 39.0133 104.92 39.0944 105.082 39.216C105.231 39.3375 105.366 39.5267 105.501 39.6347C105.771 39.8779 105.677 39.6482 106.379 40.3777C107.054 41.0531 108.243 42.2149 108.757 43.0254C109.081 43.5252 109.864 44.5384 110.08 44.9842C110.364 45.5785 110.27 45.1598 110.688 45.9973L111.269 47.0915C111.364 47.2671 111.404 47.4697 111.499 47.6454C111.701 48.0101 111.891 48.3073 112.012 48.7936C112.174 49.3745 112.552 49.9013 112.728 50.5902C112.796 50.8469 112.823 50.9955 112.917 51.2387C112.998 51.4413 112.998 51.3062 113.066 51.5223C113.12 51.6709 113.12 51.698 113.174 51.833L113.417 52.7786C113.471 52.9543 113.458 52.9002 113.498 53.1299C113.539 53.3865 113.552 53.265 113.593 53.4271C113.647 53.5892 113.606 53.6567 113.66 53.7918C113.714 53.9944 113.741 53.8593 113.809 54.062C113.863 54.197 113.822 54.2646 113.863 54.4267C113.917 54.5888 113.944 54.5483 113.971 54.7104L114.147 55.8046C114.282 56.1288 114.201 56.2369 114.295 56.4935L114.741 59.3574C114.876 59.7221 114.849 59.6545 114.849 60.0868C114.849 60.3435 115.065 62.8561 115.214 63.0722V70.2453C114.998 70.3939 115.133 71.1234 115.079 71.4071C114.971 72.0825 114.998 73.0281 114.971 73.1362C114.917 73.3793 114.849 73.2037 114.849 73.6225L114.282 78.1479L114.444 78.1344C115.335 78.0668 115.16 77.9588 115.7 77.8642L116.875 77.594C117.362 77.4724 117.767 77.513 118.226 77.3644C118.821 77.1753 119.145 77.3644 119.685 77.2158C120.117 77.1077 120.36 76.9726 120.887 76.8781C121.468 76.7835 121.509 76.6214 122.103 76.5539L127.534 75.7433C127.979 75.6083 128.533 75.7163 129.047 75.6758C129.546 75.6353 129.803 75.4597 130.303 75.4056C131.303 75.284 132.235 75.3111 133.248 75.149L137.449 74.5951H147.283Z" fill="#D7D7D7"/>
</g>
<defs>
<clipPath id="clip0">
<rect width="608" height="79" fill="white"/>
</clipPath>
</defs>
</svg>
