<svg xmlns="http://www.w3.org/2000/svg" width="26" height="26" viewBox="0 0 26 26" fill="none"><path d="M1.325 19.2525h4.34l5.983 5.9743c.217.2167.558.2786.837.1548.279-.1239.465-.4025.465-.712V1.4533c0-.3095-.186-.5882-.465-.712-.279-.1238-.62-.0619-.837.1548L5.665 6.8704h-4.34c-.434 0-.775.3405-.775.774v10.8342c0 .4334.341.7739.775.7739zM6.75 7.9539l4.65-4.6433v19.4707l-4.65-4.6432V7.9539zm-4.65.4643h3.1v9.2865H2.1V8.4182zM16.267 17.4882c.155.1547.341.2166.558.2166.217 0 .403-.0619.558-.2166L20.7 14.145l3.317 3.3122c.155.1548.341.2167.558.2167.217 0 .403-.0619.558-.2167.31-.3096.31-.8048 0-1.0834l-3.348-3.3122 3.317-3.3122c.31-.3096.31-.8049 0-1.0834-.31-.3096-.806-.3096-1.085 0L20.7 11.978 17.383 8.635c-.31-.3096-.806-.3096-1.085 0-.31.3095-.31.8048 0 1.0834l3.317 3.3432-3.348 3.3122c-.279.3095-.279.8048 0 1.1144z" fill="#27AE60"></path></svg>