<svg width="57" height="46" viewBox="0 0 57 46" fill="none" xmlns="http://www.w3.org/2000/svg">
<path d="M11.4364 34.2246C4.72336 38.682 0.366737 44.2285 0.184518 44.4627C-0.112413 44.8438 -0.0438563 45.3936 0.337251 45.6906C0.497025 45.8149 0.686287 45.8751 0.874281 45.8751C1.1349 45.8751 1.39276 45.7594 1.56536 45.5376C1.71577 45.3445 15.0475 28.5157 30.2303 30.8036L29.8646 28.9869C23.9996 28.2782 17.747 30.0341 11.4364 34.2246Z" fill="#D13D73"/>
<path d="M1.31187 37.1252C1.56973 37.1252 1.82501 37.012 1.99782 36.7945C2.0557 36.7214 7.87436 29.4518 14.8564 25.6434C15.2806 25.4118 15.437 24.8803 15.2057 24.4561C14.9745 24.0324 14.4428 23.8754 14.0186 24.107C6.72785 28.0838 0.872878 35.3965 0.627222 35.7059C0.326878 36.0844 0.389878 36.6347 0.768403 36.9355C0.929273 37.0632 1.12134 37.1252 1.31187 37.1252Z" fill="#D13D73"/>
<path d="M17.5009 24.0001C17.6374 24.0001 17.7758 23.9681 17.9053 23.9006C18.2274 23.7324 19.2118 23.2609 19.8881 23.1018C20.3585 22.9911 20.6499 22.5199 20.5392 22.0495C20.4285 21.5793 19.958 21.288 19.4869 21.3984C18.4562 21.6411 17.1497 22.3208 17.0945 22.3496C16.6664 22.5735 16.5009 23.102 16.7245 23.5301C16.8807 23.8292 17.1856 24.0001 17.5009 24.0001Z" fill="#D13D73"/>
<path d="M31.3121 10.9222C31.734 10.1978 32.3482 9.5933 33.12 9.2068C33.2852 9.1241 33.456 9.0545 33.63 8.9932C33.712 8.9643 34.0903 8.7875 34.1612 8.8268L33.8747 8.6693L33.0314 8.2055L32.188 8.6693L31.5227 9.0353L31.67 8.1374L31.8135 7.2624L31.1925 6.6292L30.4971 5.92001L31.3852 5.78499L32.3072 5.64486L32.7049 4.80149L33.0314 4.10976L33.3576 4.80128L33.7553 5.64486L34.6773 5.78499L35.5656 5.92001L34.8702 6.6292L34.2495 7.2624L34.393 8.1376L34.4958 8.764C34.6696 8.7377 34.8452 8.7176 35.0236 8.7121L35.1029 8.2222C35.3846 6.4789 36.657 5.13749 38.2549 4.66561C38.1329 4.57955 37.9686 4.51524 37.7593 4.48339L34.9403 4.05486L33.6797 1.38182C33.5007 1.0022 33.2659 0.8125 33.0311 0.8125C32.7966 0.8125 32.562 1.0022 32.3832 1.38182L31.1222 4.05486L28.3033 4.48339C27.5024 4.60497 27.3225 5.18343 27.9029 5.77366L29.943 7.8544C29.943 7.8544 29.4423 10.935 29.4393 11.0008C9.3246 14.3271 0.233433 28.1909 0.137533 28.3413C-0.122473 28.7484 -0.00325409 29.2885 0.403271 29.5491C0.549396 29.6427 0.712583 29.6871 0.874066 29.6871C1.16225 29.6871 1.44465 29.5448 1.61195 29.2842C1.70549 29.1385 10.7129 15.4645 30.7253 12.5729L30.7443 12.4558C30.8462 11.9121 31.0387 11.3919 31.3121 10.9222Z" fill="#D13D73"/>
<path d="M27.2271 21.2982L28.4377 20.6321L29.2546 21.0816C29.4206 20.0047 29.6225 19.2216 29.6652 19.0624L29.6917 18.9635L29.8861 17.7623L29.3537 17.6813L28.7487 16.3983C28.577 16.0339 28.298 16.0339 28.1267 16.3983L27.5211 17.6813L26.168 17.8871C25.7837 17.9456 25.6974 18.2231 25.9757 18.5064L26.9552 19.5053L26.724 20.9149C26.6582 21.3157 26.8832 21.4871 27.2271 21.2982Z" fill="#D13D73"/>
<path d="M55.4038 19.3635C54.8471 18.6517 53.956 18.2021 53.02 18.1606C52.1845 18.1226 51.4265 18.4193 50.9083 18.9739L48.0536 21.8424L49.6682 11.8606C49.7833 11.1499 49.6137 10.4366 49.1908 9.8524C48.7633 9.2619 48.1295 8.8738 47.4061 8.7593C46.9939 8.6941 46.5888 8.7281 46.2124 8.8381L46.4374 7.4474C46.5523 6.7371 46.3827 6.024 45.9595 5.4398C45.532 4.84935 44.8982 4.46098 44.1749 4.34644C42.6913 4.1119 41.2912 5.11784 41.0532 6.5897L41.0381 6.6829C40.7151 6.4681 40.3476 6.321 39.9518 6.2584C38.4678 6.0234 37.0683 7.0302 36.8305 8.5019L36.461 10.7855C36.1937 10.6422 35.9026 10.5405 35.5933 10.4913C34.1085 10.2555 32.7097 11.2634 32.472 12.7352L31.393 19.405L31.3556 19.5152C31.324 19.6331 30.5846 22.4312 30.8217 24.9207L32.4083 32.7534C32.4466 33.0123 32.5196 33.2529 32.6221 33.4708C32.6213 34.1381 32.5747 34.867 32.4286 35.5895C32.3286 36.0838 32.41 37.1729 33.0543 37.9906C33.5014 38.5584 34.1252 38.8763 34.8599 38.9113L42.9871 39.7432C43.0546 39.7479 43.1218 39.75 43.1882 39.75C44.5216 39.75 45.7213 38.8323 46.0678 37.9829C46.1554 37.7684 46.5942 36.7088 47.2404 35.3784C47.241 35.3776 47.2419 35.3771 47.2425 35.3767L47.369 35.2319C47.6679 34.8012 47.9798 34.3752 48.292 33.9484C49.4014 32.4325 50.5486 30.865 51.1834 29.0206C51.7656 27.3295 52.3795 26.0858 53.7956 24.7319C54.7039 23.8633 57.117 21.5559 55.4038 19.3635ZM52.5861 23.4672C50.9207 25.0596 50.1816 26.5545 49.5287 28.4506C48.7383 30.7462 46.9937 32.5116 45.7835 34.5748C45.2778 35.4365 44.8324 36.3803 44.4483 37.3198C44.3742 37.4839 43.8545 38 43.1882 38C43.1681 38 43.148 37.9996 43.1348 38L35.0124 37.1677L34.9552 37.1635C34.7308 37.1553 34.5727 37.0814 34.4422 36.9242C33.8266 36.1821 34.3559 35.1131 34.3203 34.2616C34.2923 33.5964 34.1267 32.9393 34.0955 32.2775C34.0955 32.277 32.5598 24.7101 32.5598 24.7101C32.3806 22.7076 32.9449 20.3667 33.0342 20.0131L34.1993 13.0146C34.2839 12.4921 34.7875 12.1358 35.3196 12.22C35.5804 12.2612 35.8081 12.4 35.9609 12.6111C36.1091 12.816 36.1687 13.0655 36.1288 13.3135L34.9438 20.638C34.8665 21.115 35.1907 21.5643 35.6678 21.6414C36.1433 21.7194 36.5941 21.3944 36.6712 20.9174L38.5579 8.7813C38.6427 8.2587 39.1451 7.9033 39.6785 7.987C39.939 8.0283 40.1667 8.1671 40.3194 8.378C40.4679 8.5828 40.5275 8.8325 40.4876 9.0805L38.5282 21.19C38.4509 21.667 38.7751 22.1163 39.2618 22.1943C39.309 22.2105 39.3575 22.225 39.4086 22.2333C39.8864 22.3111 40.3348 21.9866 40.4119 21.5094L42.7806 6.8692C42.8652 6.347 43.3663 5.9907 43.9012 6.0751C44.1616 6.1163 44.3894 6.2552 44.5421 6.466C44.6904 6.6709 44.7499 6.9202 44.71 7.168L42.294 22.1013C42.2166 22.5783 42.5409 23.0276 43.0179 23.1047C43.0549 23.1107 43.0916 23.1124 43.1281 23.1137C43.1548 23.1207 43.1803 23.1306 43.208 23.135C43.6846 23.2126 44.1345 22.8883 44.2114 22.4111L46.0118 11.2822C46.0964 10.7598 46.598 10.4033 47.1325 10.4879C47.3931 10.5292 47.6206 10.6678 47.7732 10.8786C47.9214 11.0833 47.981 11.3328 47.9409 11.581L46.0813 23.0769C45.9245 24.0451 46.3754 24.4315 46.6583 24.5759C46.9413 24.7195 47.5207 24.8592 48.2164 24.1596L52.1674 20.1888C52.4009 19.9396 52.7181 19.9012 52.9426 19.9089C53.3617 19.9275 53.7866 20.1364 54.025 20.4412C54.4083 20.9317 54.4993 21.6378 52.5861 23.4672Z" fill="#D13D73"/>
</svg>
