<svg xmlns="http://www.w3.org/2000/svg" width="144" height="21" viewBox="0 0 144 21" fill="none"><path d="M11.5 0L15.0539 6.63467L23 7.6986L17.25 12.8631L18.6074 20.1553L11.5 16.7124L4.39264 20.1553L5.75004 12.8631L0 7.6986L7.94611 6.63467L11.5 0Z" fill="#D13D73"></path><path d="M41 0L44.7084 6.63467L53 7.6986L47 12.8631L48.4164 20.1553L41 16.7124L33.5836 20.1553L35 12.8631L29 7.6986L37.2916 6.63467L41 0Z" fill="#D13D73"></path><path d="M71 0L74.7084 6.63467L83 7.6986L77 12.8631L78.4164 20.1553L71 16.7124L63.5836 20.1553L65 12.8631L59 7.6986L67.2916 6.63467L71 0Z" fill="#D13D73"></path><path d="M101.5 0L105.054 6.63467L113 7.6986L107.25 12.8631L108.607 20.1553L101.5 16.7124L94.3926 20.1553L95.75 12.8631L90 7.6986L97.9461 6.63467L101.5 0Z" fill="#D13D73"></path><path d="M132 0L135.708 6.63467L144 7.6986L138 12.8631L139.416 20.1553L132 16.7124L124.584 20.1553L126 12.8631L120 7.6986L128.292 6.63467L132 0Z" fill="#D13D73"></path></svg>