<svg width="140" height="140" viewBox="0 0 140 140" fill="none" xmlns="http://www.w3.org/2000/svg">
<circle cx="70" cy="70" r="69.5" fill="white" stroke="#E0E0E0"/>
<circle cx="70" cy="70" r="59.5" fill="white" stroke="#828282"/>
<path d="M85.9748 38.3374H52.7683C49.5496 38.3374 46.9307 40.9559 46.9307 44.1746V62.2352C46.9307 62.8082 47.3952 63.2727 47.9682 63.2727H56.5183V93.305C56.5183 98.4646 60.7161 102.662 65.8756 102.662H91.0318C91.6048 102.662 92.0693 102.198 92.0693 101.625V44.4319C92.0693 41.0714 89.3353 38.3374 85.9748 38.3374V38.3374ZM49.0058 61.1977V44.1746C49.0058 42.1 50.6937 40.4124 52.7683 40.4124C53.7721 40.4124 54.7099 40.8027 55.4139 41.5172C56.126 42.2288 56.5183 43.1727 56.5183 44.1746V61.1977H49.0057H49.0058ZM64.8381 100.505C64.7469 100.492 64.6553 100.479 64.5651 100.463C64.4898 100.449 64.4139 100.437 64.3394 100.421C64.1632 100.383 63.9885 100.338 63.8156 100.286C63.776 100.274 63.7352 100.266 63.6959 100.253C63.4874 100.187 63.2819 100.112 63.0802 100.028C63.023 100.004 62.9681 99.9757 62.9117 99.9505C62.7686 99.887 62.6275 99.8189 62.4887 99.7464C62.4193 99.7098 62.3516 99.6707 62.2836 99.6319C62.1608 99.562 62.04 99.4886 61.9215 99.4117C61.8544 99.3685 61.788 99.3242 61.7224 99.2789C61.6019 99.1943 61.4841 99.106 61.3689 99.0143C61.3145 98.9712 61.2587 98.93 61.2055 98.8855C61.0426 98.7497 60.8856 98.607 60.735 98.4577L60.7229 98.4457C60.5736 98.2951 60.4309 98.1381 60.2952 97.9752C60.2506 97.922 60.2095 97.8662 60.1664 97.8118C60.0747 97.6966 59.9864 97.5787 59.9018 97.4582C59.8564 97.3926 59.8122 97.3263 59.769 97.2592C59.6921 97.1407 59.6187 97.0199 59.5488 96.8971C59.51 96.8291 59.4709 96.7614 59.4343 96.692C59.3618 96.5532 59.2937 96.4121 59.2302 96.269C59.2049 96.2126 59.177 96.1577 59.1531 96.1005C59.0686 95.8988 58.9932 95.6933 58.9273 95.4848C58.915 95.4455 58.9064 95.4047 58.8947 95.3651C58.8432 95.1923 58.7981 95.0175 58.7597 94.8413C58.7436 94.7668 58.7315 94.6909 58.7178 94.6155C58.7013 94.5254 58.689 94.4338 58.676 94.3425H64.8381V100.505V100.505ZM89.9943 100.587H66.9131V93.305C66.9131 92.732 66.4487 92.2675 65.8756 92.2675H58.5933V44.1746C58.5933 43.8528 58.5611 43.5365 58.5101 43.225C58.5037 43.1859 58.5 43.1465 58.4928 43.1077C58.4385 42.8137 58.3587 42.5272 58.2607 42.2472C58.2434 42.1978 58.2266 42.1487 58.2079 42.0998C58.1038 41.8263 57.979 41.5611 57.8347 41.3065C57.8094 41.2621 57.7823 41.2192 57.7559 41.1754C57.601 40.9185 57.4294 40.671 57.2341 40.4384C57.2273 40.4302 57.2226 40.4206 57.2158 40.4124H85.9748C88.1912 40.4124 89.9943 42.2154 89.9943 44.4319V100.587V100.587Z" fill="#D13D73"/>
<path d="M64.4981 53.0179H83.9358C84.5089 53.0179 84.9733 52.5535 84.9733 51.9804C84.9733 51.4074 84.5089 50.9429 83.9358 50.9429H64.4981C63.9251 50.9429 63.4606 51.4074 63.4606 51.9804C63.4606 52.5535 63.9251 53.0179 64.4981 53.0179ZM64.4981 60.0582H83.9358C84.5089 60.0582 84.9733 59.5938 84.9733 59.0207C84.9733 58.4476 84.5089 57.9832 83.9358 57.9832H64.4981C63.9251 57.9832 63.4606 58.4476 63.4606 59.0207C63.4606 59.5938 63.9251 60.0582 64.4981 60.0582ZM64.4981 67.0987H83.9358C84.5089 67.0987 84.9733 66.6343 84.9733 66.0612C84.9733 65.4882 84.5089 65.0237 83.9358 65.0237H64.4981C63.9251 65.0237 63.4606 65.4882 63.4606 66.0612C63.4606 66.6343 63.9251 67.0987 64.4981 67.0987ZM84.9733 73.1015C84.9733 72.5285 84.5089 72.064 83.9358 72.064H64.4981C63.9251 72.064 63.4606 72.5285 63.4606 73.1015C63.4606 73.6746 63.9251 74.139 64.4981 74.139H83.9358C84.5089 74.139 84.9733 73.6746 84.9733 73.1015ZM83.9358 79.554H74.217C73.6439 79.554 73.1795 80.0184 73.1795 80.5915C73.1795 81.1646 73.6439 81.629 74.217 81.629H83.9358C84.5089 81.629 84.9733 81.1646 84.9733 80.5915C84.9733 80.0184 84.5089 79.554 83.9358 79.554ZM84.8339 89.0279C84.2698 89.0036 83.7835 89.462 83.7664 90.0346C83.7514 90.5424 83.6161 91.4357 82.8773 91.7084C82.1526 91.9763 80.735 91.6582 79.1265 89.8847C76.8006 87.3197 74.6968 87.7566 73.9009 88.0638C72.6607 88.542 71.7258 89.7299 71.7258 90.8265C71.7258 91.3996 72.1902 91.8669 72.7633 91.8669C73.3363 91.8669 73.8008 91.4049 73.8008 90.8318C73.8133 90.677 74.112 90.1797 74.7082 89.9775C75.5455 89.6942 76.57 90.1546 77.5889 91.2784C79.1155 92.9619 80.8197 93.8726 82.3541 93.8726C82.7837 93.8726 83.2003 93.8008 83.5958 93.6549C84.9506 93.1552 85.7896 91.8243 85.8406 90.0954C85.8572 89.5228 85.407 89.045 84.8339 89.0279V89.0279Z" fill="#D13D73"/>
</svg>
