<svg width="140" height="140" viewBox="0 0 140 140" fill="none" xmlns="http://www.w3.org/2000/svg">
<circle cx="70" cy="70" r="69.5" fill="white" stroke="#E0E0E0"/>
<circle cx="70" cy="70" r="59.5" fill="white" stroke="#828282"/>
<g clip-path="url(#clip0)">
<path d="M93.4667 99.3331H50.8C45.5005 99.3271 41.206 95.0326 41.2 89.7331V81.3399C36.5155 72.4529 37.0015 61.7278 42.4706 53.301C47.9396 44.8742 57.537 40.0625 67.5615 40.7216C68.9928 40.8101 70.4141 41.0187 71.8104 41.3451C71.9928 41.3876 72.1609 41.4773 72.2976 41.6054C72.4343 41.7334 72.5349 41.8952 72.5892 42.0744C72.6435 42.2537 72.6497 42.4441 72.607 42.6265C72.5644 42.8089 72.4745 42.9768 72.3463 43.1134C72.2182 43.25 72.0563 43.3505 71.8771 43.4047C71.6978 43.4589 71.5074 43.4649 71.325 43.4222C70.0443 43.123 68.7408 42.9318 67.4281 42.8508C58.1024 42.2352 49.1819 46.7491 44.1543 54.6276C39.1267 62.5061 38.7904 72.498 43.277 80.6966C43.4295 80.9755 43.45 81.3078 43.3332 81.6034V89.7331C43.3381 93.8548 46.6783 97.195 50.8 97.1998H93.4667V94.6826C93.3856 94.6449 93.3088 94.5986 93.2375 94.5446L87.0083 89.5633C85.2121 88.1386 84.8742 85.5437 86.2458 83.7065C90.0417 78.6216 91.8143 72.3084 91.2198 65.9909C91.1896 65.6482 91.1479 65.3092 91.1073 64.98C91.0354 64.3961 91.4498 63.8642 92.0336 63.7912C92.6174 63.7183 93.15 64.1318 93.224 64.7155C93.2688 65.0696 93.3125 65.4337 93.3448 65.7988C93.9864 72.6413 92.0651 79.4785 87.9531 84.9852C87.2735 85.9033 87.4475 87.1954 88.3458 87.9009L94.4886 92.8129C94.8252 92.9954 95.1061 93.2656 95.3018 93.5947C95.4974 93.9238 95.6004 94.2997 95.6 94.6826V97.1998C95.5987 98.3774 94.6443 99.3318 93.4667 99.3331Z" fill="#D13D73"/>
<path d="M92.1656 65.9144C92.0177 65.9146 91.8713 65.884 91.7359 65.8245C91.6005 65.7649 91.479 65.6778 91.3792 65.5686L70.7813 43.1046C70.3867 42.6698 70.4176 41.9979 70.8504 41.6012C71.2833 41.2045 71.9553 41.2321 72.3541 41.6629L92.9521 64.1269C93.092 64.2795 93.1844 64.4695 93.2181 64.6738C93.2518 64.8781 93.2254 65.0877 93.142 65.2772C93.0586 65.4667 92.9219 65.6278 92.7486 65.741C92.5752 65.8541 92.3726 65.9144 92.1656 65.9144V65.9144ZM100.933 99.3331C100.793 99.3331 100.655 99.3055 100.525 99.2519C100.396 99.1983 100.278 99.1197 100.179 99.0207C100.08 98.9216 100.001 98.804 99.9478 98.6746C99.8942 98.5452 99.8667 98.4064 99.8667 98.2664V95.0664H94.5333C93.9442 95.0664 93.4667 94.5889 93.4667 93.9998C93.4667 93.4107 93.9442 92.9331 94.5333 92.9331H100.933C101.073 92.9331 101.212 92.9606 101.342 93.0142C101.471 93.0678 101.589 93.1464 101.688 93.2455C101.787 93.3445 101.865 93.4621 101.919 93.5915C101.972 93.721 102 93.8597 102 93.9998V98.2664C102 98.4064 101.972 98.5452 101.919 98.6746C101.865 98.804 101.787 98.9216 101.688 99.0207C101.589 99.1197 101.471 99.1983 101.342 99.2519C101.212 99.3055 101.073 99.3331 100.933 99.3331ZM65.7333 86.5333C55.7186 86.5333 47.6 78.4147 47.6 68.3999C47.6 58.3852 55.7186 50.2666 65.7333 50.2666C75.7481 50.2666 83.8667 58.3852 83.8667 68.3999C83.8555 78.4101 75.7435 86.5221 65.7333 86.5333ZM65.7333 52.3999C56.8968 52.3999 49.7333 59.5634 49.7333 68.3999C49.7333 77.2365 56.8968 84.3999 65.7333 84.3999C74.5699 84.3999 81.7333 77.2365 81.7333 68.3999C81.7235 59.5675 74.5658 52.4098 65.7333 52.3999Z" fill="#D13D73"/>
<path d="M82.8 69.4664H48.6667C48.0776 69.4664 47.6 68.9888 47.6 68.3997C47.6 67.8106 48.0776 67.3331 48.6667 67.3331H82.8C83.3891 67.3331 83.8667 67.8106 83.8667 68.3997C83.8667 68.9888 83.3891 69.4664 82.8 69.4664ZM73.2 58.7999H58.2667C57.6776 58.7999 57.2 58.3223 57.2 57.7332C57.2 57.1441 57.6776 56.6665 58.2667 56.6665H73.2C73.7891 56.6665 74.2667 57.1441 74.2667 57.7332C74.2667 58.3223 73.7891 58.7999 73.2 58.7999Z" fill="#D13D73"/>
<path d="M75.3333 65.1999H56.1333C55.9932 65.1999 55.8545 65.1723 55.7251 65.1187C55.5957 65.0651 55.4781 64.9865 55.3791 64.8875C55.28 64.7884 55.2015 64.6708 55.1479 64.5414C55.0943 64.412 55.0667 64.2733 55.0667 64.1332V59.8665C55.0667 59.2774 55.5442 58.7998 56.1333 58.7998C56.7225 58.7998 57.2 59.2774 57.2 59.8665V63.0665H74.2667V59.8665C74.2667 59.2774 74.7442 58.7998 75.3333 58.7998C75.9224 58.7998 76.4 59.2774 76.4 59.8665V64.1332C76.4001 64.2733 76.3725 64.412 76.3189 64.5415C76.2653 64.6709 76.1868 64.7885 76.0877 64.8876C75.9886 64.9867 75.871 65.0652 75.7416 65.1188C75.6121 65.1724 75.4734 65.2 75.3333 65.1999V65.1999Z" fill="#D13D73"/>
<path d="M58.2667 60.9334H56.1333C55.5442 60.9334 55.0667 60.4558 55.0667 59.8667C55.0667 59.2776 55.5442 58.8001 56.1333 58.8001H57.2V57.7334C57.2 57.1443 57.6776 56.6667 58.2667 56.6667C58.8558 56.6667 59.3333 57.1443 59.3333 57.7334V59.8667C59.3334 60.0068 59.3058 60.1455 59.2522 60.275C59.1987 60.4044 59.1201 60.522 59.021 60.6211C58.922 60.7202 58.8044 60.7987 58.6749 60.8523C58.5455 60.9059 58.4068 60.9335 58.2667 60.9334V60.9334ZM75.3333 60.9334H73.2C73.0599 60.9335 72.9212 60.9059 72.7917 60.8523C72.6623 60.7987 72.5447 60.7202 72.4456 60.6211C72.3465 60.522 72.268 60.4044 72.2144 60.275C72.1608 60.1455 72.1332 60.0068 72.1333 59.8667V57.7334C72.1333 57.1443 72.6109 56.6667 73.2 56.6667C73.7891 56.6667 74.2667 57.1443 74.2667 57.7334V58.8001H75.3333C75.9224 58.8001 76.4 59.2776 76.4 59.8667C76.4 60.4558 75.9224 60.9334 75.3333 60.9334ZM91.3333 65.0078C91.1932 65.0079 91.0545 64.9803 90.925 64.9267C90.7956 64.8732 90.678 64.7946 90.5789 64.6956C90.4799 64.5965 90.4013 64.4789 90.3477 64.3495C90.2942 64.22 90.2666 64.0813 90.2667 63.9412V60.0506C90.266 58.8029 89.8285 57.5948 89.0302 56.636L81.126 47.1516C80.8263 46.7908 80.4507 46.5005 80.026 46.3014C79.6013 46.1024 79.1378 45.9995 78.6688 46H73.9042C73.3151 46 72.8375 45.5225 72.8375 44.9334C72.8375 44.3443 73.3151 43.8667 73.9042 43.8667H78.6688C79.4508 43.8658 80.2234 44.0373 80.9315 44.369C81.6396 44.7008 82.2659 45.1846 82.7657 45.786L90.6698 55.2704C91.7866 56.6131 92.3986 58.3041 92.4 60.0506V63.9412C92.4 64.0813 92.3724 64.22 92.3188 64.3494C92.2652 64.4788 92.1866 64.5964 92.0876 64.6955C91.9885 64.7945 91.8709 64.8731 91.7415 64.9267C91.6121 64.9803 91.4734 65.0078 91.3333 65.0078V65.0078ZM84.4 95.6002C84.2599 95.6003 84.1212 95.5728 83.9918 95.5192C83.8624 95.4656 83.7448 95.3869 83.6459 95.2877L80.9792 92.621C80.5691 92.2034 80.5722 91.5334 80.986 91.1195C81.3998 90.7057 82.0699 90.7026 82.4875 91.1127L85.1541 93.7794C85.3032 93.9286 85.4047 94.1186 85.4459 94.3255C85.487 94.5324 85.4659 94.7468 85.3852 94.9417C85.3045 95.1365 85.1678 95.3031 84.9924 95.4203C84.8171 95.5375 84.6109 95.6001 84.4 95.6002ZM79.0667 95.6002C78.9266 95.6003 78.7878 95.5728 78.6584 95.5192C78.529 95.4656 78.4114 95.3869 78.3125 95.2877L75.6459 92.621C75.2358 92.2034 75.2388 91.5334 75.6527 91.1195C76.0665 90.7057 76.7365 90.7026 77.1541 91.1127L79.8208 93.7794C79.97 93.9285 80.0716 94.1186 80.1128 94.3255C80.154 94.5324 80.1329 94.7469 80.0522 94.9418C79.9714 95.1367 79.8347 95.3033 79.6593 95.4205C79.4839 95.5377 79.2777 95.6002 79.0667 95.6002V95.6002ZM73.7333 95.6002C73.5932 95.6003 73.4545 95.5728 73.3251 95.5192C73.1957 95.4655 73.0781 95.3869 72.9792 95.2877L70.3125 92.621C69.9024 92.2034 69.9055 91.5334 70.3193 91.1195C70.7332 90.7057 71.4032 90.7026 71.8208 91.1127L74.4875 93.7794C74.6366 93.9286 74.7381 94.1187 74.7792 94.3255C74.8203 94.5324 74.7991 94.7468 74.7184 94.9417C74.6377 95.1365 74.501 95.3031 74.3257 95.4203C74.1503 95.5375 73.9442 95.6001 73.7333 95.6002V95.6002ZM68.4 95.6002C68.2599 95.6003 68.1212 95.5728 67.9918 95.5192C67.8624 95.4655 67.7448 95.3869 67.6459 95.2877L64.9792 92.621C64.5691 92.2034 64.5722 91.5334 64.986 91.1195C65.3999 90.7057 66.0699 90.7026 66.4875 91.1127L69.1541 93.7794C69.3032 93.9286 69.4047 94.1186 69.4459 94.3255C69.487 94.5324 69.4659 94.7468 69.3852 94.9417C69.3045 95.1365 69.1678 95.3031 68.9924 95.4203C68.8171 95.5375 68.6109 95.6001 68.4 95.6002V95.6002ZM63.0667 95.6002C62.9266 95.6003 62.7878 95.5728 62.6584 95.5192C62.529 95.4656 62.4114 95.3869 62.3125 95.2877L59.6459 92.621C59.2358 92.2034 59.2388 91.5334 59.6527 91.1195C60.0665 90.7057 60.7366 90.7026 61.1541 91.1127L63.8208 93.7794C63.97 93.9285 64.0716 94.1186 64.1128 94.3255C64.154 94.5324 64.1329 94.7469 64.0522 94.9418C63.9714 95.1367 63.8347 95.3033 63.6593 95.4205C63.4839 95.5377 63.2777 95.6002 63.0667 95.6002ZM57.7333 95.6002C57.5932 95.6003 57.4545 95.5728 57.3251 95.5192C57.1957 95.4655 57.0781 95.3869 56.9792 95.2877L54.3125 92.621C53.9024 92.2034 53.9055 91.5334 54.3193 91.1195C54.7332 90.7057 55.4032 90.7026 55.8208 91.1127L58.4875 93.7794C58.6366 93.9286 58.7381 94.1187 58.7792 94.3255C58.8203 94.5324 58.7991 94.7468 58.7184 94.9417C58.6377 95.1365 58.501 95.3031 58.3257 95.4203C58.1503 95.5375 57.9442 95.6001 57.7333 95.6002V95.6002ZM52.4 95.6002C52.2599 95.6003 52.1212 95.5728 51.9918 95.5192C51.8624 95.4655 51.7448 95.3869 51.6459 95.2877L48.9792 92.621C48.5691 92.2034 48.5722 91.5334 48.986 91.1195C49.3999 90.7057 50.0699 90.7026 50.4875 91.1127L53.1541 93.7794C53.3032 93.9286 53.4047 94.1186 53.4459 94.3255C53.487 94.5324 53.4659 94.7468 53.3852 94.9417C53.3045 95.1365 53.1678 95.3031 52.9924 95.4203C52.8171 95.5375 52.6109 95.6001 52.4 95.6002V95.6002Z" fill="#D13D73"/>
</g>
<defs>
<clipPath id="clip0">
<rect width="64" height="60" fill="white" transform="translate(38 40)"/>
</clipPath>
</defs>
</svg>
