<svg width="140" height="140" viewBox="0 0 140 140" fill="none" xmlns="http://www.w3.org/2000/svg">
<circle cx="70" cy="70" r="69.5" fill="white" stroke="#E0E0E0"/>
<circle cx="70" cy="70" r="59.5" fill="white" stroke="#828282"/>
<path d="M94.1931 95.5001H77.6819C76.4907 95.4974 75.3492 95.023 74.5069 94.1807C73.6646 93.3384 73.1902 92.1969 73.1875 91.0057V87.2976C73.1902 86.1064 73.6646 84.9649 74.5069 84.1226C75.3492 83.2803 76.4907 82.8059 77.6819 82.8032H94.1931C95.3843 82.8059 96.5258 83.2803 97.3681 84.1226C98.2104 84.9649 98.6848 86.1064 98.6875 87.2976V91.0057C98.6848 92.1969 98.2104 93.3384 97.3681 94.1807C96.5258 95.023 95.3843 95.4974 94.1931 95.5001V95.5001ZM77.6819 84.8751C77.2064 84.8749 76.7418 85.0178 76.3487 85.2853C75.9555 85.5527 75.6519 85.9323 75.4774 86.3746C75.3615 86.6682 75.3054 86.982 75.3125 87.2976V91.0057C75.3124 91.3169 75.3737 91.625 75.4928 91.9125C75.6118 92.2 75.7863 92.4612 76.0064 92.6812C76.2264 92.9013 76.4876 93.0758 76.7751 93.1948C77.0626 93.3139 77.3707 93.3752 77.6819 93.3751H94.1931C94.5043 93.3752 94.8124 93.3139 95.0999 93.1948C95.3874 93.0758 95.6486 92.9013 95.8686 92.6812C96.0887 92.4612 96.2632 92.2 96.3822 91.9125C96.5013 91.625 96.5626 91.3169 96.5625 91.0057V87.2976C96.5626 86.9864 96.5013 86.6783 96.3822 86.3908C96.2632 86.1033 96.0887 85.8421 95.8686 85.6221C95.6486 85.402 95.3874 85.2275 95.0999 85.1085C94.8124 84.9894 94.5043 84.9281 94.1931 84.9282L77.6819 84.8751V84.8751ZM91.3031 65.75H69.5325C68.5302 65.7472 67.5697 65.3478 66.861 64.639C66.1522 63.9303 65.7528 62.9698 65.75 61.9675V48.2825C65.7528 47.2802 66.1522 46.3197 66.8609 45.6109C67.5697 44.9022 68.5302 44.5028 69.5325 44.5H91.3031C92.6984 44.5 94.08 44.7748 95.3691 45.3088C96.6582 45.8427 97.8295 46.6254 98.8161 47.612C99.8027 48.5986 100.585 49.7699 101.119 51.059C101.653 52.3481 101.928 53.7297 101.928 55.125C101.928 56.5203 101.653 57.9019 101.119 59.191C100.585 60.4801 99.8027 61.6514 98.8161 62.638C97.8295 63.6246 96.6582 64.4073 95.3691 64.9412C94.08 65.4752 92.6984 65.75 91.3031 65.75V65.75ZM69.5325 46.625C69.3148 46.625 69.0993 46.6679 68.8982 46.7511C68.6971 46.8344 68.5144 46.9565 68.3604 47.1104C68.2065 47.2644 68.0844 47.4471 68.0011 47.6482C67.9178 47.8493 67.875 48.0648 67.875 48.2825V61.9675C67.875 62.4071 68.0496 62.8287 68.3605 63.1395C68.5144 63.2934 68.6971 63.4155 68.8982 63.4988C69.0993 63.5821 69.3148 63.625 69.5325 63.625H91.3031C92.4194 63.6251 93.5247 63.4052 94.556 62.9781C95.5873 62.5509 96.5243 61.9248 97.3136 61.1355C98.1029 60.3462 98.729 59.4092 99.1562 58.3779C99.5833 57.3466 99.8032 56.2413 99.8031 55.125C99.8031 54.0088 99.5833 52.9034 99.1561 51.8722C98.729 50.8409 98.1029 49.9038 97.3136 49.1145C96.5243 48.3252 95.5872 47.6991 94.5559 47.272C93.5247 46.8448 92.4193 46.625 91.3031 46.625H69.5325Z" fill="#D13D73"/>
<path d="M67.875 63.9649L58.3125 62.0205V48.2081L67.875 46.2637V63.9649ZM60.4375 60.2887L65.75 61.3512V48.8243L60.4375 49.8868V60.2887Z" fill="#D13D73"/>
<path d="M60.4375 60.4375H58.015C57.0197 60.4354 56.0474 60.1377 55.2214 59.5824C54.3954 59.027 53.7529 58.2389 53.3754 57.3179C53.1248 56.7064 52.9972 56.0515 53 55.3906V54.8063C53.0056 53.4799 53.5364 52.2097 54.4763 51.2738C55.4162 50.3379 56.6886 49.8124 58.015 49.8125H60.4375V60.4375ZM58.015 51.9375C57.2522 51.9375 56.5204 52.2391 55.979 52.7765C55.4376 53.3139 55.1307 54.0435 55.125 54.8063V55.3906C55.1223 55.7724 55.1949 56.151 55.3387 56.5047C55.4826 56.8584 55.6948 57.1802 55.9633 57.4517C56.2318 57.7232 56.5513 57.9389 56.9033 58.0866C57.2554 58.2344 57.6332 58.3111 58.015 58.3125H58.3125V51.9375H58.015Z" fill="#D13D73"/>
<path d="M53.8819 56.1875H39.1875C39.048 56.1875 38.9098 56.1601 38.7809 56.1067C38.6519 56.0533 38.5348 55.975 38.4361 55.8764C38.3375 55.7777 38.2592 55.6606 38.2058 55.5316C38.1524 55.4027 38.125 55.2645 38.125 55.125C38.125 54.8432 38.237 54.573 38.4362 54.3737C38.6355 54.1745 38.9057 54.0625 39.1875 54.0625H53.8819C54.1637 54.0625 54.4339 54.1744 54.6332 54.3737C54.8325 54.573 54.9444 54.8432 54.9444 55.125C54.9444 55.4068 54.8325 55.677 54.6332 55.8763C54.4339 56.0756 54.1637 56.1875 53.8819 56.1875V56.1875ZM77.4375 48.75H71.0625V50.875H77.4375V48.75ZM77.4375 53H71.0625V55.125H77.4375V53ZM95.7656 84.875H81.9531L77.1719 63.625H90.9844L95.7656 84.875ZM83.6 82.75H93.1625L89.3375 65.75H79.775L83.6 82.75Z" fill="#D13D73"/>
<path d="M81.9531 75.3125H74.7812C74.0767 75.3124 73.4011 75.0326 72.903 74.5344C72.4049 74.0363 72.125 73.3607 72.125 72.6562V72.295C72.1323 71.7895 72.2803 71.2961 72.5524 70.87C72.8246 70.444 73.21 70.1022 73.6656 69.8831C73.7591 69.8315 73.8449 69.7672 73.9206 69.6919C74.0229 69.5944 74.1048 69.4775 74.1614 69.3479C74.2179 69.2184 74.2481 69.0788 74.25 68.9375V63.625H79.35L81.9531 75.3125ZM76.375 65.75V68.9375C76.3746 69.3585 76.2908 69.7752 76.1285 70.1636C75.9662 70.552 75.7286 70.9045 75.4294 71.2006C75.2023 71.4282 74.9405 71.6183 74.6538 71.7638C74.5581 71.8169 74.25 71.9975 74.25 72.295V72.6562C74.2528 72.7962 74.3096 72.9298 74.4086 73.0288C74.5077 73.1278 74.6412 73.1847 74.7812 73.1875H79.2969L77.65 65.75H76.375Z" fill="#D13D73"/>
</svg>
