<svg width="140" height="140" viewBox="0 0 140 140" fill="none" xmlns="http://www.w3.org/2000/svg">
<circle cx="70" cy="70" r="69.5" fill="white" stroke="#E0E0E0"/>
<circle cx="70" cy="70" r="59.5" fill="white" stroke="#828282"/>
<g clip-path="url(#clip0)">
<path d="M99.19 70.1502L93.64 67.4902L91.2 59.2702C91.0184 58.6708 90.6494 58.1454 90.1473 57.7711C89.6452 57.3967 89.0363 57.1932 88.41 57.1902H74.56V51.3902C74.56 51.2694 74.5362 51.1497 74.49 51.0381C74.4438 50.9265 74.376 50.8251 74.2906 50.7396C74.2052 50.6542 74.1037 50.5864 73.9921 50.5402C73.8805 50.494 73.7608 50.4702 73.64 50.4702H38.92C38.676 50.4702 38.442 50.5671 38.2695 50.7397C38.0969 50.9122 38 51.1462 38 51.3902V82.9302C38 83.051 38.0238 83.1707 38.07 83.2823C38.1162 83.3939 38.184 83.4953 38.2694 83.5808C38.3549 83.6662 38.4563 83.734 38.5679 83.7802C38.6795 83.8264 38.7992 83.8502 38.92 83.8502H48.15C48.3554 85.4222 49.1257 86.8658 50.3171 87.9117C51.5085 88.9576 53.0396 89.5344 54.625 89.5344C56.2104 89.5344 57.7416 88.9577 58.933 87.9118C60.1245 86.8659 60.8947 85.4222 61.1 83.8502H78.89C79.0954 85.4222 79.8657 86.8658 81.0571 87.9117C82.2485 88.9576 83.7797 89.5344 85.365 89.5344C86.9504 89.5344 88.4816 88.9577 89.673 87.9118C90.8645 86.8659 91.6347 85.4222 91.84 83.8502H95.78C95.8822 83.8893 95.9906 83.9096 96.1 83.9102H97.9C98.9857 83.9102 100.027 83.4796 100.796 82.7128C101.564 81.9461 101.997 80.9059 102 79.8202V74.6202C101.995 73.6872 101.73 72.774 101.233 71.984C100.737 71.1941 100.029 70.5589 99.19 70.1502V70.1502ZM88.4 59.0002C88.6255 59.0053 88.8437 59.0815 89.0233 59.218C89.2029 59.3545 89.3348 59.5443 89.4 59.7602L92 68.4102C92.0375 68.5341 92.1005 68.6487 92.1848 68.7469C92.2692 68.845 92.3732 68.9245 92.49 68.9802L98.4 71.8102C98.9275 72.0672 99.3728 72.4664 99.6855 72.9629C99.9983 73.4594 100.166 74.0334 100.17 74.6202V77.9302H99.54C98.436 77.9305 97.3735 78.3517 96.5691 79.1078C95.7646 79.864 95.2786 80.8983 95.21 82.0002H91.83V81.8902C91.7796 81.5514 91.7027 81.217 91.6 80.8902C91.4927 80.5809 91.3623 80.28 91.21 79.9902L91.13 79.8302C90.9766 79.5511 90.8028 79.2837 90.61 79.0302L90.5 78.8902C90.2928 78.6294 90.0654 78.3854 89.82 78.1602C89.0938 77.4844 88.2218 76.985 87.2714 76.7006C86.3211 76.4162 85.318 76.3545 84.34 76.5202H84.24C83.9003 76.5801 83.5659 76.667 83.24 76.7802H83.11C82.8068 76.8946 82.5126 77.0317 82.23 77.1902L82.09 77.2702C81.81 77.4333 81.5426 77.6172 81.29 77.8202H74.56V59.0002H88.4ZM97.9 82.0002H97C97.0687 81.3902 97.3594 80.8269 97.8168 80.4174C98.2742 80.008 98.8662 79.7812 99.48 79.7802H100.11C100.102 80.3632 99.8688 80.9205 99.4584 81.3346C99.048 81.7487 98.4929 81.9874 97.91 82.0002H97.9ZM79.27 80.6902C79.27 80.7702 79.2 80.8602 79.17 80.9402C79.077 81.2282 79.0035 81.5222 78.95 81.8202V82.0002H74.56V79.7802H79.67V79.8802C79.5182 80.1407 79.3845 80.4113 79.27 80.6902V80.6902ZM61.07 81.9102C61.013 81.5708 60.9294 81.2365 60.82 80.9102V80.8102C60.7047 80.4655 60.5608 80.131 60.39 79.8102H72.72V82.0002H61.09C61.09 82.0002 61.07 81.9402 61.07 81.9102V81.9102ZM39.85 52.3202H72.72V77.9402H58.71C58.4574 77.7373 58.19 77.5534 57.91 77.3902L57.77 77.3102C57.4873 77.1517 57.1932 77.0147 56.89 76.9002H56.76C56.4341 76.787 56.0997 76.7001 55.76 76.6402H55.66C54.9619 76.519 54.2481 76.519 53.55 76.6402H53.45C53.1103 76.7002 52.7759 76.7871 52.45 76.9002H52.32C52.0134 77.0142 51.7159 77.1513 51.43 77.3102L51.3 77.3802C51.0162 77.5461 50.7454 77.7333 50.49 77.9402H39.85V52.3202ZM39.85 79.7902H48.94V79.8902C48.8022 80.1485 48.6819 80.4158 48.58 80.6902C48.58 80.7702 48.51 80.8602 48.48 80.9402C48.387 81.2282 48.3135 81.5222 48.26 81.8202V82.0002H39.85V79.7902ZM54.64 87.6902C53.6966 87.6887 52.7755 87.4028 51.9971 86.8697C51.2187 86.3367 50.6191 85.5812 50.2767 84.7021C49.9344 83.823 49.8652 82.861 50.078 81.942C50.2909 81.0229 50.776 80.1893 51.47 79.5502C52.3405 78.7965 53.4535 78.3816 54.605 78.3816C55.7565 78.3816 56.8695 78.7965 57.74 79.5502L57.81 79.6002C58.2826 80.0327 58.6614 80.5576 58.9228 81.1425C59.1843 81.7273 59.3229 82.3596 59.33 83.0002V83.0602C59.3116 84.2919 58.8094 85.4669 57.9318 86.3314C57.0543 87.1958 55.8718 87.6804 54.64 87.6802V87.6902ZM85.37 87.6902C84.6654 87.6877 83.9703 87.5264 83.3366 87.2184C82.7028 86.9104 82.1467 86.4635 81.7094 85.911C81.272 85.3584 80.9649 84.7145 80.8106 84.0269C80.6564 83.3394 80.6591 82.6259 80.8185 81.9395C81.0317 81.0213 81.5166 80.1887 82.21 79.5502C83.0852 78.7775 84.2125 78.3512 85.38 78.3512C86.5475 78.3512 87.6748 78.7775 88.55 79.5502C89.0226 79.9827 89.4014 80.5076 89.6628 81.0925C89.9243 81.6773 90.0629 82.3096 90.07 82.9502V83.0102C90.0621 84.2533 89.5621 85.4426 88.6793 86.3178C87.7966 87.193 86.6031 87.6829 85.36 87.6802L85.37 87.6902V87.6902Z" fill="#D13D73"/>
<path d="M78.61 69.0699H87.68C87.8972 69.0701 88.1075 68.9935 88.2736 68.8534C88.4396 68.7134 88.5508 68.5192 88.5873 68.305C88.6116 68.1632 88.6022 68.0176 88.56 67.8799L87.06 62.8099C87.004 62.6198 86.8881 62.4528 86.7295 62.3339C86.571 62.2149 86.3782 62.1504 86.18 62.1499H78.61C78.4892 62.1499 78.3695 62.1737 78.2579 62.22C78.1463 62.2662 78.0449 62.334 77.9595 62.4194C77.874 62.5048 77.8063 62.6063 77.76 62.7179C77.7138 62.8295 77.69 62.9491 77.69 63.0699V68.1399C77.6887 68.2616 77.7115 68.3823 77.7572 68.4951C77.8028 68.6078 77.8704 68.7104 77.9559 68.7969C78.0414 68.8835 78.1433 68.9522 78.2556 68.999C78.3679 69.0459 78.4883 69.07 78.61 69.0699V69.0699ZM79.53 63.9999H85.53L86.53 67.2299H79.53V63.9999ZM58 70.48C57.837 70.6631 57.7533 70.9034 57.7673 71.1481C57.7814 71.3928 57.8921 71.6219 58.075 71.785C58.258 71.9481 58.4983 72.0318 58.743 72.0177C58.9877 72.0036 59.2168 71.893 59.38 71.71L64.72 65.71L64.89 65.43C64.9289 65.3278 64.9492 65.2194 64.95 65.11C64.9492 65.0007 64.9289 64.8923 64.89 64.79C64.8333 64.6967 64.7766 64.6034 64.72 64.51L59.38 58.51C59.2966 58.4194 59.1962 58.3461 59.0845 58.2943C58.9728 58.2425 58.8519 58.2132 58.7289 58.2081C58.6059 58.203 58.483 58.2222 58.3674 58.2646C58.2518 58.3069 58.1456 58.3716 58.055 58.455C57.872 58.6235 57.7634 58.8577 57.7531 59.1061C57.748 59.2292 57.7671 59.352 57.8095 59.4677C57.8519 59.5833 57.9166 59.6894 58 59.78L62 64.21H48.57C48.328 64.2151 48.0976 64.3147 47.9283 64.4877C47.7589 64.6606 47.664 64.893 47.664 65.135C47.664 65.3771 47.7589 65.6095 47.9283 65.7824C48.0976 65.9553 48.328 66.055 48.57 66.06H61.93L58 70.48ZM51.76 54.71C51.76 54.5892 51.7362 54.4696 51.69 54.3579C51.6438 54.2463 51.576 54.1449 51.4906 54.0594C51.4052 53.974 51.3037 53.9062 51.1921 53.86C51.0805 53.8138 50.9608 53.79 50.84 53.79H43C42.8785 53.79 42.7582 53.814 42.646 53.8605C42.5338 53.9069 42.4318 53.9751 42.3459 54.061C42.26 54.1469 42.1919 54.2488 42.1454 54.3611C42.0989 54.4733 42.075 54.5936 42.075 54.715C42.075 54.8365 42.0989 54.9568 42.1454 55.069C42.1919 55.1812 42.26 55.2832 42.3459 55.3691C42.4318 55.455 42.5338 55.5231 42.646 55.5696C42.7582 55.6161 42.8785 55.64 43 55.64H50.79C50.9158 55.6469 51.0417 55.6278 51.1598 55.5841C51.2779 55.5403 51.3858 55.4727 51.4768 55.3855C51.5677 55.2983 51.6398 55.1934 51.6885 55.0772C51.7372 54.961 51.7616 54.836 51.76 54.71Z" fill="#D13D73"/>
</g>
<defs>
<clipPath id="clip0">
<rect width="64" height="40" fill="white" transform="translate(38 50)"/>
</clipPath>
</defs>
</svg>
