<svg width="140" height="140" viewBox="0 0 140 140" fill="none" xmlns="http://www.w3.org/2000/svg">
<circle cx="70" cy="70" r="69.5" fill="white" stroke="#E0E0E0"/>
<circle cx="70" cy="70" r="59.5" fill="white" stroke="#828282"/>
<path d="M56.3668 84.195C60.0078 84.195 62.9699 81.2322 62.9699 77.5911C62.9699 73.9501 60.0071 70.9873 56.3668 70.9873C52.725 70.9873 49.7629 73.9501 49.7629 77.5911C49.7629 81.2322 52.7257 84.195 56.3668 84.195ZM56.3668 73.148C58.8162 73.148 60.8085 75.141 60.8085 77.5904C60.8085 80.0399 58.8162 82.0328 56.3668 82.0328C53.9173 82.0328 51.9244 80.0399 51.9244 77.5904C51.9244 75.141 53.9173 73.148 56.3668 73.148ZM80.8612 90.6784C84.5022 90.6784 87.4643 87.7156 87.4643 84.0745C87.4643 80.4335 84.5015 77.4707 80.8612 77.4707C77.2194 77.4707 74.2573 80.4335 74.2573 84.0745C74.2573 87.7156 77.2194 90.6784 80.8612 90.6784ZM80.8612 79.6314C83.3106 79.6314 85.3028 81.6244 85.3028 84.0738C85.3028 86.5233 83.3106 88.5162 80.8612 88.5162C78.4117 88.5162 76.4188 86.5233 76.4188 84.0738C76.418 81.6244 78.411 79.6314 80.8612 79.6314Z" fill="#D13D73"/>
<path d="M72.9765 95.3195C73.1953 94.6982 73.7843 94.2806 74.4431 94.2806H87.5032C88.167 94.2806 88.7581 94.7025 88.9734 95.331L91.2407 101.944H93.2884C93.3604 101.727 93.3683 101.487 93.2891 101.255L91.0182 94.6305C90.5034 93.1285 89.0908 92.1198 87.5032 92.1198H74.4431C72.8677 92.1198 71.4594 93.1185 70.9374 94.6038L70.8028 94.9869H68.8451C68.8357 94.9149 68.8199 94.8421 68.7954 94.7709L66.5245 88.1469C66.0097 86.645 64.5971 85.6362 63.0095 85.6362H49.9494C48.3741 85.6362 46.9657 86.6349 46.4437 88.1202L44.031 94.9869H37.6V97.1483H70.0439L68.4347 101.728C68.4095 101.799 68.3929 101.872 68.3829 101.944H70.6487L72.9765 95.3195V95.3195ZM63.5517 94.9862L62.6826 92.1616C62.5077 91.5913 61.9036 91.2738 61.3319 91.4466C60.7624 91.6216 60.4413 92.2271 60.6169 92.7974L61.2901 94.9862H51.4434L52.1166 92.7974C52.2923 92.2271 51.9719 91.6216 51.4017 91.4466C50.8321 91.2738 50.2266 91.5906 50.0509 92.1616L49.1819 94.9862H46.3213L48.4828 88.8359C48.7017 88.2146 49.2906 87.797 49.9494 87.797H63.0095C63.6733 87.797 64.2645 88.2189 64.4797 88.8474L66.5843 94.9862H63.5517V94.9862Z" fill="#D13D73"/>
<path d="M75.8953 97.9304C75.3265 97.7576 74.7203 98.0744 74.5446 98.6454L73.5841 101.767C73.5661 101.825 73.5568 101.884 73.5489 101.943H75.7909L76.6096 99.2811C76.786 98.7109 76.4656 98.1054 75.8953 97.9304ZM87.1763 98.6451C87.0013 98.0749 86.3958 97.7566 85.8256 97.9301C85.2561 98.1051 84.9349 98.7106 85.1106 99.2809L85.9293 101.943H88.1713C88.1634 101.884 88.1541 101.825 88.1361 101.766L87.1763 98.6451ZM98.2391 50.9862C96.5046 49.683 94.3576 48.9003 92.0262 48.9003H73.5251C67.8047 48.9003 63.1506 53.5544 63.1506 59.2748V63.8267C63.0736 63.3601 63.0246 62.8849 63.0203 62.3974H47.2321C46.7267 62.3974 46.2544 62.5933 45.9023 62.9461L39.8701 68.9725V48.4294C39.8701 43.9014 43.5536 40.2178 48.0817 40.2178H66.5807C70.7106 40.2178 74.1284 43.2858 74.6994 47.2602H76.8832C76.3 42.0898 71.9051 38.0571 66.5807 38.0571H48.0817C42.362 38.0571 37.7087 42.7105 37.7087 48.4302V69.65C37.7087 70.4182 38.1666 71.103 38.8758 71.3939C39.1076 71.4896 39.351 71.535 39.5908 71.535C40.0811 71.535 40.5606 71.342 40.9184 70.9806L47.3466 64.5589H63.1513V65.0262C63.1513 70.7466 67.8054 75.4007 73.5258 75.4007H92.7599L99.1866 81.8274C99.5473 82.1881 100.027 82.3796 100.516 82.3796C100.758 82.3796 101.004 82.3328 101.238 82.2356C101.943 81.9419 102.4 81.2593 102.4 80.4946V59.2748C102.4 55.8858 100.759 52.8805 98.2391 50.9862ZM100.238 79.8229L94.2056 73.79C93.8507 73.4343 93.3776 73.2385 92.8744 73.2385H73.5251C68.9963 73.2385 65.312 69.5543 65.312 65.0255V59.2741C65.312 54.7453 68.9963 51.061 73.5251 51.061H92.0255C96.5543 51.061 100.238 54.7453 100.238 59.2741V79.8229Z" fill="#D13D73"/>
</svg>
