<svg width="56" height="56" viewBox="0 0 56 56" fill="none" xmlns="http://www.w3.org/2000/svg">
<path d="M14.1398 28.0001C14.1398 27.475 13.7141 27.0493 13.189 27.0493H0.950792C0.425683 27.0493 0 27.475 0 28.0001C0 28.5252 0.425683 28.9509 0.950792 28.9509H13.189C13.7141 28.9509 14.1398 28.5252 14.1398 28.0001Z" fill="#D13D73"/>
<path d="M55.0492 27.0493H42.8121C42.287 27.0493 41.8613 27.475 41.8613 28.0001C41.8613 28.5252 42.287 28.9509 42.8121 28.9509H55.0492C55.5743 28.9509 56 28.5252 56 28.0001C56 27.475 55.5743 27.0493 55.0492 27.0493Z" fill="#D13D73"/>
<path d="M35.2178 41.2293C34.9959 40.7533 34.4302 40.5477 33.9542 40.7694C33.4784 40.9913 33.2724 41.557 33.4943 42.033L35.9896 47.384C36.1511 47.73 36.4939 47.9332 36.852 47.9332C36.9866 47.9332 37.1232 47.9045 37.2532 47.8441C37.7292 47.622 37.9351 47.0564 37.7131 46.5805L35.2178 41.2293Z" fill="#D13D73"/>
<path d="M20.782 14.7708C20.9435 15.1167 21.2863 15.3199 21.6444 15.3199C21.779 15.3199 21.9156 15.2912 22.0456 15.2307C22.5215 15.0087 22.7275 14.443 22.5055 13.9671L20.0101 8.61655C19.788 8.14062 19.2224 7.93484 18.7465 8.15664C18.2706 8.37858 18.0646 8.94431 18.2866 9.42024L20.782 14.7708Z" fill="#D13D73"/>
<path d="M40.7691 33.9544C40.5472 34.4304 40.7532 34.9961 41.2292 35.218L46.5802 37.7132C46.7102 37.7738 46.8468 37.8024 46.9813 37.8024C47.3395 37.8024 47.6823 37.5992 47.8437 37.2533C48.0656 36.7773 47.8597 36.2116 47.3838 35.9897L42.0326 33.4945C41.5569 33.2727 40.991 33.4785 40.7691 33.9544Z" fill="#D13D73"/>
<path d="M15.2303 22.0455C15.4522 21.5695 15.2463 21.004 14.7704 20.782L9.41961 18.2871C8.9438 18.0651 8.37795 18.2711 8.15601 18.747C7.93406 19.223 8.14011 19.7886 8.61605 20.0105L13.9668 22.5054C14.0968 22.566 14.2335 22.5946 14.3679 22.5946C14.7261 22.5946 15.0689 22.3914 15.2303 22.0455Z" fill="#D13D73"/>
<path d="M22.0456 40.7694C21.5698 40.5476 21.004 40.7534 20.782 41.2293L18.2867 46.5805C18.0648 47.0565 18.2709 47.6221 18.7467 47.8441C18.8766 47.9046 19.0134 47.9332 19.1479 47.9332C19.5061 47.9332 19.8489 47.73 20.0103 47.3841L22.5055 42.033C22.7273 41.5571 22.5216 40.9914 22.0456 40.7694Z" fill="#D13D73"/>
<path d="M33.9542 15.2307C34.0842 15.2913 34.2209 15.32 34.3555 15.32C34.7135 15.32 35.0565 15.1167 35.2178 14.7708L37.7131 9.42019C37.9351 8.94438 37.7292 8.37853 37.2532 8.15658C36.7778 7.93491 36.2118 8.14056 35.9896 8.6165L33.4943 13.9671C33.2725 14.4431 33.4784 15.0088 33.9542 15.2307Z" fill="#D13D73"/>
<path d="M18.1992 37.8009C17.828 37.4297 17.2259 37.4297 16.8547 37.8009L8.20096 46.4544C7.82974 46.8258 7.82974 47.4278 8.20096 47.7991C8.38663 47.9847 8.6299 48.0776 8.8733 48.0776C9.11657 48.0776 9.35997 47.9847 9.54551 47.7991L18.1992 39.1454C18.5706 38.7742 18.5706 38.1721 18.1992 37.8009Z" fill="#D13D73"/>
<path d="M37.8016 18.1982C37.9871 18.3839 38.2305 18.4767 38.4738 18.4767C38.7172 18.4767 38.9604 18.3838 39.1461 18.1982L47.7989 9.54533C48.1702 9.17411 48.1702 8.57199 47.7989 8.20078C47.4277 7.82956 46.8255 7.82956 46.4543 8.20078L37.8016 16.8537C37.4301 17.2249 37.4301 17.827 37.8016 18.1982Z" fill="#D13D73"/>
<path d="M16.8547 18.1994C17.0402 18.3851 17.2836 18.4778 17.5269 18.4778C17.7703 18.4778 18.0135 18.3849 18.1992 18.1994C18.5704 17.8282 18.5704 17.226 18.1992 16.8548L9.54551 8.20126C9.1743 7.83005 8.57217 7.83005 8.20096 8.20126C7.82974 8.57248 7.82974 9.1746 8.20096 9.54582L16.8547 18.1994Z" fill="#D13D73"/>
<path d="M39.1461 37.8014C38.7749 37.4301 38.1728 37.4301 37.8016 37.8014C37.4302 38.1726 37.4302 38.7747 37.8016 39.1459L46.4543 47.7988C46.64 47.9843 46.8833 48.0772 47.1267 48.0772C47.3699 48.0772 47.6133 47.9843 47.7989 47.7988C48.1702 47.4274 48.1702 46.8255 47.7989 46.4541L39.1461 37.8014Z" fill="#D13D73"/>
<path d="M28.0007 17.0928C21.9857 17.0928 17.0921 21.9857 17.0921 28C17.0921 34.0141 21.9856 38.9071 28.0007 38.9071C34.0147 38.9071 38.9076 34.0141 38.9076 28C38.9076 21.9858 34.0148 17.0928 28.0007 17.0928ZM28.0007 37.0055C25.8621 37.0055 23.8962 36.2553 22.3501 35.0054C22.3464 35.0024 22.3429 34.9994 22.3393 34.9965C22.2185 34.8987 22.1003 34.7979 21.9849 34.6941C21.9796 34.6892 21.9743 34.6842 21.9688 34.6793C21.8531 34.5747 21.7398 34.4673 21.6297 34.3568C21.6266 34.3537 21.6236 34.3505 21.6203 34.3472C21.5084 34.2346 21.3992 34.1193 21.2931 34.001C21.2923 33.9999 21.2913 33.9988 21.2904 33.9979C21.1828 33.8775 21.0782 33.7544 20.977 33.6285C20.9641 33.6125 20.9516 33.5961 20.9389 33.58C20.8537 33.4727 20.7711 33.3634 20.6908 33.2522C20.6735 33.228 20.6562 33.2037 20.6391 33.1795C20.5641 33.0734 20.4917 32.9657 20.4214 32.8564C20.404 32.8293 20.3863 32.8026 20.3693 32.7753C20.2991 32.6635 20.2316 32.5499 20.1661 32.435C20.1524 32.4108 20.138 32.3869 20.1244 32.3626C20.0514 32.2316 19.9816 32.0984 19.915 31.9633C19.9112 31.9555 19.9069 31.9479 19.903 31.9401C19.7612 31.6501 19.6349 31.3513 19.5245 31.045C19.5119 31.0102 19.5009 30.9746 19.4886 30.9396C19.4491 30.8255 19.4111 30.7107 19.376 30.5946C19.3607 30.5439 19.3468 30.4927 19.3324 30.4416C19.3036 30.3393 19.2761 30.2367 19.2507 30.1329C19.2365 30.075 19.2232 30.0169 19.2103 29.9585C19.1882 29.8593 19.168 29.7596 19.1491 29.6593C19.1377 29.5983 19.1264 29.5373 19.1162 29.4759C19.0994 29.3748 19.0851 29.273 19.0718 29.1707C19.0639 29.1102 19.0554 29.0499 19.0487 28.9891C19.0365 28.8785 19.0278 28.7671 19.0196 28.6555C19.0158 28.6027 19.0105 28.5504 19.0075 28.4972C18.9986 28.3325 18.9931 28.1668 18.9931 27.9998C18.9931 23.0341 23.0336 18.9942 28.0001 18.9942C28.1671 18.9942 28.3328 18.9997 28.4975 19.0086C28.5506 19.0115 28.6029 19.0169 28.6556 19.0207C28.7673 19.0289 28.8788 19.0375 28.9894 19.0498C29.0502 19.0564 29.1105 19.065 29.171 19.0729C29.2731 19.0862 29.3748 19.1004 29.476 19.1171C29.5376 19.1273 29.5985 19.1386 29.6597 19.15C29.7599 19.1689 29.8595 19.1891 29.9585 19.2111C30.0169 19.2242 30.0753 19.2375 30.1333 19.2516C30.2368 19.2769 30.3395 19.3045 30.4415 19.3332C30.4926 19.3476 30.544 19.3616 30.5948 19.377C30.711 19.412 30.8256 19.4499 30.9397 19.4894C30.9747 19.5017 31.0105 19.5127 31.0452 19.5253C31.3514 19.6359 31.6501 19.7621 31.9399 19.9037C31.9486 19.9079 31.9572 19.9127 31.9657 19.917C32.0998 19.9832 32.2321 20.0526 32.3624 20.125C32.3874 20.1388 32.4117 20.1535 32.4364 20.1676C32.5508 20.2327 32.6638 20.2999 32.7749 20.3697C32.8026 20.387 32.8297 20.4049 32.8572 20.4226C32.9661 20.4927 33.0734 20.5648 33.179 20.6394C33.2037 20.6569 33.2284 20.6744 33.253 20.6921C33.3637 20.7718 33.4725 20.8541 33.5792 20.9387C33.5959 20.9519 33.6128 20.9648 33.6294 20.978C33.7555 21.0794 33.879 21.1843 33.9996 21.2923C34.0002 21.2927 34.0007 21.2932 34.0013 21.2936C34.1197 21.3997 34.235 21.5091 34.3478 21.621C34.3509 21.6241 34.3541 21.6272 34.3574 21.6304C34.4677 21.7404 34.5749 21.8534 34.6793 21.969C34.6843 21.9745 34.6896 21.98 34.6947 21.9855C34.7983 22.1009 34.8989 22.2189 34.9967 22.3395C34.9997 22.3432 35.0027 22.3468 35.0057 22.3505C36.2554 23.8962 37.0055 25.8617 37.0055 27.9997C37.006 32.9657 32.9662 37.0055 28.0007 37.0055Z" fill="#D13D73"/>
<path d="M8.61624 35.9902C8.1403 36.2122 7.93425 36.7779 8.15619 37.2538C8.31755 37.5998 8.66052 37.803 9.01856 37.803C9.15316 37.803 9.2898 37.7743 9.41979 37.7137L14.7708 35.2186C15.2468 34.9967 15.4527 34.4309 15.2308 33.955C15.0088 33.4791 14.4428 33.2731 13.9673 33.4951L8.61624 35.9902Z" fill="#D13D73"/>
<path d="M47.3839 20.0105C47.8598 19.7886 48.0656 19.223 47.8438 18.7471C47.6219 18.271 47.0559 18.0651 46.5803 18.2872L41.2297 20.782C40.7538 21.004 40.5477 21.5696 40.7697 22.0455C40.931 22.3914 41.274 22.5948 41.632 22.5948C41.7666 22.5948 41.9033 22.5661 42.0333 22.5055L47.3839 20.0105Z" fill="#D13D73"/>
<path d="M28 42.4814C27.4749 42.4814 27.0492 42.9071 27.0492 43.4322V55.0491C27.0492 55.5743 27.4749 55.9999 28 55.9999C28.5251 55.9999 28.9508 55.5743 28.9508 55.0491V43.4322C28.9508 42.9071 28.5251 42.4814 28 42.4814Z" fill="#D13D73"/>
<path d="M28 13.5188C28.5251 13.5188 28.9508 13.0931 28.9508 12.568V0.950792C28.9508 0.425683 28.5251 0 28 0C27.4749 0 27.0492 0.425683 27.0492 0.950792V12.568C27.0492 13.0932 27.4747 13.5188 28 13.5188Z" fill="#D13D73"/>
<path d="M23.4243 23.1813C20.6185 24.9074 20.6569 27.902 20.6599 28.0287C20.6723 28.5461 21.0954 28.957 21.61 28.957C21.6176 28.957 21.6254 28.9568 21.633 28.9567C22.1579 28.9442 22.5734 28.5086 22.5609 27.9836C22.5605 27.9635 22.535 25.961 24.4207 24.8009C24.868 24.5259 25.0073 23.9402 24.7323 23.4929C24.4571 23.0456 23.8715 22.9058 23.4243 23.1813Z" fill="#D13D73"/>
</svg>
