<svg width="56" height="56" viewBox="0 0 56 56" fill="none" xmlns="http://www.w3.org/2000/svg">
<path d="M37.8438 32.4544V11.5938C37.8438 10.9897 37.354 10.5 36.75 10.5C36.1459 10.5 35.6562 10.9897 35.6562 11.5938V32.4544C31.951 32.9868 29.0938 36.181 29.0938 40.0312C29.0938 44.2529 32.5282 47.6875 36.75 47.6875C40.9717 47.6875 44.4062 44.2529 44.4062 40.0312C44.4062 36.181 41.5489 32.987 37.8438 32.4544ZM36.75 45.5C33.7345 45.5 31.2812 43.0467 31.2812 40.0312C31.2812 37.0158 33.7345 34.5625 36.75 34.5625C39.7655 34.5625 42.2188 37.0158 42.2188 40.0312C42.2188 43.0467 39.7655 45.5 36.75 45.5Z" fill="#D13D73"/>
<path d="M48.7812 10.5H53.1562C53.7602 10.5 54.25 10.0103 54.25 9.40625C54.25 8.80217 53.7602 8.3125 53.1562 8.3125H48.7812C48.1772 8.3125 47.6875 8.80217 47.6875 9.40625C47.6875 10.0103 48.1772 10.5 48.7812 10.5Z" fill="#D13D73"/>
<path d="M53.1562 12.6875H48.7812C48.1772 12.6875 47.6875 13.1772 47.6875 13.7812C47.6875 14.3853 48.1772 14.875 48.7812 14.875H53.1562C53.7602 14.875 54.25 14.3853 54.25 13.7812C54.25 13.1772 53.7602 12.6875 53.1562 12.6875Z" fill="#D13D73"/>
<path d="M53.1562 17.0625H48.7812C48.1772 17.0625 47.6875 17.5522 47.6875 18.1562C47.6875 18.7603 48.1772 19.25 48.7812 19.25H53.1562C53.7602 19.25 54.25 18.7603 54.25 18.1562C54.25 17.5522 53.7602 17.0625 53.1562 17.0625Z" fill="#D13D73"/>
<path d="M53.1562 21.4375H48.7812C48.1772 21.4375 47.6875 21.9272 47.6875 22.5312C47.6875 23.1353 48.1772 23.625 48.7812 23.625H53.1562C53.7602 23.625 54.25 23.1353 54.25 22.5312C54.25 21.9272 53.7602 21.4375 53.1562 21.4375Z" fill="#D13D73"/>
<path d="M53.1562 52.0625H44.3191C48.3113 49.542 50.9688 45.0915 50.9688 40.0312C50.9688 35.1847 48.47 30.6511 44.4062 28.0483V9.40625C44.4062 5.18459 40.9717 1.75 36.75 1.75C32.5282 1.75 29.0938 5.18459 29.0938 9.40625V28.0483C25.0299 30.6511 22.5312 35.1847 22.5312 40.0312C22.5312 45.0915 25.1887 49.542 29.1808 52.0625H2.84375C2.23967 52.0625 1.75 52.5523 1.75 53.1562C1.75 53.7602 2.23967 54.25 2.84375 54.25H53.1562C53.7602 54.25 54.25 53.7602 54.25 53.1562C54.25 52.5523 53.7602 52.0625 53.1562 52.0625ZM24.7188 40.0312C24.7188 35.7497 27.0242 31.7562 30.7351 29.6093C31.0731 29.4138 31.2812 29.053 31.2812 28.6626V9.40625C31.2812 6.39078 33.7345 3.9375 36.75 3.9375C39.7655 3.9375 42.2188 6.39078 42.2188 9.40625V28.6626C42.2188 29.053 42.4268 29.4138 42.7648 29.6093C46.4758 31.7562 48.7812 35.7497 48.7812 40.0312C48.7812 46.6653 43.384 52.0625 36.75 52.0625C30.116 52.0625 24.7188 46.6653 24.7188 40.0312Z" fill="#D13D73"/>
<path d="M14.875 23.625C18.4936 23.625 21.4375 20.6811 21.4375 17.0625C21.4375 13.4439 18.4936 10.5 14.875 10.5C11.2564 10.5 8.3125 13.4439 8.3125 17.0625C8.3125 20.6811 11.2564 23.625 14.875 23.625ZM14.875 12.6875C17.2874 12.6875 19.25 14.6501 19.25 17.0625C19.25 19.4749 17.2874 21.4375 14.875 21.4375C12.4626 21.4375 10.5 19.4749 10.5 17.0625C10.5 14.6501 12.4626 12.6875 14.875 12.6875Z" fill="#D13D73"/>
<path d="M14.875 9.40625C15.4791 9.40625 15.9688 8.91658 15.9688 8.3125V5.03125C15.9688 4.42717 15.4791 3.9375 14.875 3.9375C14.2709 3.9375 13.7812 4.42717 13.7812 5.03125V8.3125C13.7812 8.91658 14.2709 9.40625 14.875 9.40625Z" fill="#D13D73"/>
<path d="M13.7812 25.8125V29.0938C13.7812 29.6977 14.2709 30.1875 14.875 30.1875C15.4791 30.1875 15.9688 29.6977 15.9688 29.0938V25.8125C15.9688 25.2084 15.4791 24.7188 14.875 24.7188C14.2709 24.7188 13.7812 25.2084 13.7812 25.8125Z" fill="#D13D73"/>
<path d="M21.8356 11.6488L24.1558 9.32865C24.5829 8.90154 24.5829 8.20898 24.1558 7.78176C23.7287 7.35465 23.0361 7.35465 22.6089 7.78176L20.2887 10.1019C19.8616 10.529 19.8616 11.2216 20.2887 11.6488C20.716 12.0759 21.4084 12.0758 21.8356 11.6488Z" fill="#D13D73"/>
<path d="M7.9144 22.476L5.59423 24.7962C5.16712 25.2233 5.16712 25.9159 5.59423 26.3431C6.02123 26.7701 6.7139 26.7702 7.14112 26.3431L9.46129 24.0229C9.8884 23.5958 9.8884 22.9032 9.46129 22.476C9.03418 22.049 8.34162 22.049 7.9144 22.476Z" fill="#D13D73"/>
<path d="M22.5312 17.0625C22.5312 17.6666 23.0209 18.1562 23.625 18.1562H26.9062C27.5103 18.1562 28 17.6666 28 17.0625C28 16.4584 27.5103 15.9688 26.9062 15.9688H23.625C23.0209 15.9688 22.5312 16.4584 22.5312 17.0625Z" fill="#D13D73"/>
<path d="M2.84375 18.1562H6.125C6.72908 18.1562 7.21875 17.6666 7.21875 17.0625C7.21875 16.4584 6.72908 15.9688 6.125 15.9688H2.84375C2.23967 15.9688 1.75 16.4584 1.75 17.0625C1.75 17.6666 2.23967 18.1562 2.84375 18.1562Z" fill="#D13D73"/>
<path d="M20.2887 22.476C19.8616 22.9031 19.8616 23.5957 20.2887 24.0229L22.6089 26.3431C23.0359 26.7701 23.7286 26.7702 24.1558 26.3431C24.5829 25.916 24.5829 25.2234 24.1558 24.7962L21.8356 22.476C21.4084 22.049 20.7159 22.049 20.2887 22.476Z" fill="#D13D73"/>
<path d="M7.9144 11.6488C8.34162 12.0759 9.03407 12.0758 9.46129 11.6488C9.8884 11.2217 9.8884 10.5291 9.46129 10.1019L7.14112 7.78176C6.71401 7.35465 6.02145 7.35465 5.59423 7.78176C5.16712 8.20887 5.16712 8.90143 5.59423 9.32865L7.9144 11.6488Z" fill="#D13D73"/>
</svg>
