<svg width="57" height="60" viewBox="0 0 57 60" fill="none" xmlns="http://www.w3.org/2000/svg">
  <path fill-rule="evenodd" clip-rule="evenodd" d="M51.3901 37.6682V23.4081l-6.1883-7.2646h-3.2287v12.6457c0 .5382-.2691.8072-.8072.8072H17.2197v21.7937h5.3812l3.2287-5.1121c.2691-.269.5381-.5381.8072-.5381H36.861v1.6144h-9.9552l-3.2287 5.1121c-.269.269-.5381.5381-.8071.5381h-6.7265c-.5381 0-.8072-.2691-.8072-.8072V28.7892c0-.5381.2691-.8071.8072-.8071h23.9462V15.3363c0-.5381.269-.8072.8072-.8072h4.574c.269 0 .5381 0 .5381.2691l6.7264 7.8027c0 .2691.2691.2691.2691.5381v14.5292h-1.6144zm4.574 2.9596c-4.3049 0-7.8027-3.7668-7.8027-3.7668-.269-.5381-1.0762-.5381-1.3453 0 0 0-3.4977 3.7668-7.8026 3.7668-.5382 0-.8072.5381-.8072.8072 0 8.0717 1.6143 15.0672 8.8789 18.565h.8072c7.2645-3.4978 8.8789-10.4933 8.8789-18.565 0-.5381-.5381-.8072-.8072-.8072zm-8.3408 17.7578c-5.9193-2.9596-7.5336-9.1479-7.5336-15.8744 3.4977-.2691 6.1883-2.4215 7.5336-3.4977 1.3453 1.0762 4.0359 3.2286 7.5336 3.4977 0 6.7265-1.6143 12.9148-7.5336 15.8744zm-1.0762-8.8789l3.7668-3.7668c.2691-.269 1.0762-.269 1.3453 0 .269.2691.269 1.0762 0 1.3453l-4.3049 4.3049c-.2691.2691-1.0763.2691-1.3453 0l-2.4216-2.4215c-.269-.269-.269-1.0762 0-1.3453.2691-.269 1.0763-.269 1.3453 0l1.8834 1.8834h-.269zM17.4888 11.8386c-.5381 0-.8072-.2691-.8072-.8072s.2691-.8072.8072-.8072.8072.2691.8072.8072-.2691.8072-.8072.8072zm0 4.574c-.5381 0-.8072-.2691-.8072-.8072v-1.0763c0-.5381.2691-.8071.8072-.8071s.8072.269.8072.8071v1.0763c0 .5381-.2691.8072-.8072.8072zm-.8072 2.6905v-.269c0-.5381.2691-.8072.8072-.8072s.8072.2691.8072.8072v.269h5.1121v-8.0717c0-.5381.269-.8072.8071-.8072.5382 0 .8072.2691.8072.8072v8.8789c0 .5381-.269.8072-.8072.8072H10.7623c-.5381 0-.8071-.2691-.8071-.8072v-8.8789c0-.5381.269-.8072.8071-.8072s.8072.2691.8072.8072v8.0717h5.1121zM1.6144 6.7265v26.6367c0 .8072.538 1.3453 1.3452 1.3453H8.61c.8071 0 1.3453-.5381 1.3453-1.3453v-8.8789c0-.5381.269-.8072.8071-.8072h22.6009V6.9955l-5.1121-5.112h-3.2287v4.843c0 .538-.269.8071-.8072.8071H10.7623c-.5381 0-.8071-.269-.8071-.8071v-4.843H6.7265l-5.1121 5.112v-.269zm6.9955 29.5964H2.9596C1.3453 36.3229 0 34.9776 0 33.3632V6.4574c0-.269 0-.5381.269-.5381L5.9194.269C6.1883 0 6.1883 0 6.4574 0h4.574c.5381 0 .8072.269.8072.8072v4.843h11.8385V.8072c0-.5381.2691-.8072.8072-.8072h4.574c.2691 0 .5381 0 .5381.269l5.6502 5.6503c.2691.269.2691.269.2691.5381v18.0269c0 .5381-.2691.8072-.8072.8072H12.1076v8.0717c0 1.6144-1.3453 2.9597-2.9596 2.9597h-.5381z" fill="#D13D73"/>
</svg>
