<svg xmlns="http://www.w3.org/2000/svg" width="232" height="76" viewBox="0 0 232 76" fill="none"><path d="M101.282 73.9181H82.6297L94.2961 1.31622H112.947L101.282 73.9181ZM168.898 3.09126C165.218 1.6221 159.383 0 152.168 0C133.749 0 120.778 9.88579 120.698 24.0194C120.545 34.4472 129.985 40.239 137.045 43.7159C144.261 47.2688 146.714 49.5879 146.714 52.7547C146.641 57.6185 140.883 59.8605 135.513 59.8605C128.066 59.8605 124.076 58.7046 118.012 55.9985L115.556 54.8387L112.946 71.1361C117.321 73.142 125.381 74.9219 133.749 75C153.32 75 166.061 65.2674 166.212 50.2057C166.287 41.9409 161.302 35.6082 150.555 30.4334C144.032 27.1114 140.037 24.8715 140.037 21.4725C140.113 18.3826 143.416 15.2179 150.78 15.2179C156.844 15.0626 161.299 16.5297 164.674 17.9977L166.361 18.7687L168.898 3.09126V3.09126ZM193.688 48.1978C195.224 44.0269 201.135 27.8844 201.135 27.8844C201.057 28.0394 202.668 23.6366 203.589 20.9337L204.892 27.1895C204.892 27.1895 208.424 44.568 209.191 48.198H193.688L193.688 48.1978ZM216.712 1.31622H202.284C197.835 1.31622 194.455 2.62827 192.536 7.34001L164.83 73.9171H184.401C184.401 73.9171 187.623 64.9564 188.316 63.0266H212.264C212.799 65.5756 214.489 73.9171 214.489 73.9171H231.759L216.711 1.31645L216.712 1.31622ZM67.0507 1.31622L48.7842 50.8237L46.7879 40.7829C43.411 29.1976 32.8195 16.6101 21 10.3511L37.7318 73.8414H57.4558L86.7736 1.31622H67.0503H67.0507Z" fill="#00579F"></path><path d="M32.1359 1.00044H0.325332L0 3.78771C24.8141 15.2358 41.2478 42.8315 48 76L41.0848 12.5964C39.9463 3.78551 36.4477 1.29062 32.1359 1V1.00044Z" fill="#FAA61A"></path></svg>