<svg xmlns="http://www.w3.org/2000/svg" width="140" height="140" viewBox="0 0 140 140" fill="none"><circle cx="70" cy="70" r="69.5" fill="white" stroke="#E0E0E0"></circle><circle cx="70" cy="70" r="59.5" fill="white" stroke="#828282"></circle><path d="M75 59.55V45.05C75 44.65 74.8 44.35 74.5 44.15C74.2 43.95 73.8 43.95 73.5 44.15L58.1 52.65L55.7 54.05C55.2 54.35 55 54.95 55.3 55.45C55.6 55.95 56.2 56.15 56.7 55.85L73 46.85V93.2501L52 81.75V57.95C52 57.35 51.6 56.95 51 56.95H39C38.4 56.95 38 57.35 38 57.95V81.95C38 82.55 38.4 82.95 39 82.95H50.2L50.5 83.25L73.5 95.7501C73.6 95.8501 73.8 95.8501 74 95.8501C74.2 95.8501 74.4 95.8501 74.5 95.7501C74.8 95.5501 75 95.2501 75 94.8501V79.3501C79 77.6501 81.5 73.75 81.5 69.45C81.5 65.15 79 61.25 75 59.55ZM50 80.95H46V58.95H50V80.95ZM40 58.95H44V80.95H40V58.95ZM75 77.1501V61.75C77.8 63.25 79.5 66.25 79.5 69.45C79.5 72.65 77.8 75.55 75 77.1501ZM94.9 53.3501C94.5 52.9501 93.9 52.9501 93.5 53.3501C93.1 53.7501 93.1 54.3501 93.5 54.7501C97.4 58.6501 99.5999 63.8501 99.5999 69.3501C99.5999 74.8501 97.4 80.0501 93.5 83.9501C93.1 84.3501 93.1 84.9501 93.5 85.3501C93.7 85.5501 93.9999 85.6501 94.1999 85.6501C94.3999 85.6501 94.7 85.5501 94.9 85.3501C99.2 81.0501 101.5 75.3501 101.5 69.3501C101.5 63.3501 99.2 57.6501 94.9 53.3501V53.3501ZM86.4001 58.05C86.0001 58.45 86.0001 59.0501 86.4001 59.4501C89.1001 62.1501 90.5001 65.6501 90.5001 69.4501C90.5001 73.2501 89.0001 76.75 86.4001 79.45C86.0001 79.85 86.0001 80.4501 86.4001 80.8501C86.6001 81.0501 86.9001 81.1501 87.1001 81.1501C87.3001 81.1501 87.6001 81.0501 87.8001 80.8501C90.8001 77.8501 92.5001 73.7501 92.5001 69.4501C92.5001 65.1501 90.8001 61.15 87.8001 58.05C87.4001 57.65 86.8001 57.65 86.4001 58.05V58.05Z" fill="#D13D73"></path></svg>