<svg xmlns="http://www.w3.org/2000/svg" width="140" height="140" viewBox="0 0 140 140" fill="none"><circle cx="70" cy="70" r="69.5" fill="white" stroke="#E0E0E0"></circle><circle cx="70" cy="70" r="59.5" fill="white" stroke="#828282"></circle><path d="M83 65C73.6113 65 66 72.6113 66 82C66 91.3887 73.6113 99 83 99C92.3887 99 100 91.3887 100 82C99.9897 72.6157 92.3843 65.0103 83 65ZM83 97C74.7158 97 68 90.2842 68 82C68 73.7158 74.7158 67 83 67C91.2842 67 98 73.7158 98 82C97.9907 90.2803 91.2803 96.9907 83 97Z" fill="#D13D73"></path><path d="M84 79.1841V73H82V79.1841C81.5817 79.3333 81.2017 79.5736 80.8877 79.8877C80.5736 80.2017 80.3333 80.5817 80.1841 81H76V83H80.1841C80.6465 84.3164 81.9575 85.1387 83.3442 84.982C84.7309 84.8247 85.8247 83.731 85.9819 82.3443C86.1387 80.9575 85.3164 79.6465 84 79.1841V79.1841ZM83 83C82.4477 83 82 82.5523 82 82C82 81.4478 82.4477 81 83 81C83.5522 81 84 81.4478 84 82C84 82.5523 83.5522 83 83 83ZM70 81H72V83H70V81ZM82 93H84V95H82V93ZM94 81H96V83H94V81ZM82 69H84V71H82V69Z" fill="#D13D73"></path><path d="M42 84V55H88V64H90V50C89.9966 47.2397 87.7603 45.0034 85 45H78V44C78 42.3433 76.6567 41 75 41C73.3433 41 72 42.3433 72 44V45H58V44C58 42.3433 56.6567 41 55 41C53.3433 41 52 42.3433 52 44V45H45C42.2397 45.0034 40.0034 47.2397 40 50V84C40.0034 86.7603 42.2397 88.9966 45 89H65V87H45C43.3433 87 42 85.6567 42 84ZM74 44C74 43.4478 74.4478 43 75 43C75.5522 43 76 43.4478 76 44V48C76 48.5522 75.5522 49 75 49C74.4478 49 74 48.5522 74 48V44ZM54 44C54 43.4478 54.4478 43 55 43C55.5522 43 56 43.4478 56 44V48C56 48.5522 55.5522 49 55 49C54.4478 49 54 48.5522 54 48V44ZM45 47H52V48C52 49.6567 53.3433 51 55 51C56.6567 51 58 49.6567 58 48V47H72V48C72 49.6567 73.3433 51 75 51C76.6567 51 78 49.6567 78 48V47H85C86.6567 47 88 48.3433 88 50V53H42V50C42 48.3433 43.3433 47 45 47Z" fill="#D13D73"></path><path d="M54 63C54 61.8955 53.1045 61 52 61H48C46.8955 61 46 61.8955 46 63V67C46 68.1045 46.8955 69 48 69H52C53.1045 69 54 68.1045 54 67V63ZM48 67V63H52V67H48ZM64 63C64 61.8955 63.1045 61 62 61H58C56.8955 61 56 61.8955 56 63V67C56 68.1045 56.8955 69 58 69H62C63.1045 69 64 68.1045 64 67V63ZM58 67V63H62V67H58ZM74 66V63C74 61.8955 73.1045 61 72 61H68C66.8955 61 66 61.8955 66 63V67C66 68.1045 66.8955 69 68 69H70V67H68V63H72V66H74ZM52 73H48C46.8955 73 46 73.8955 46 75V79C46 80.1045 46.8955 81 48 81H52C53.1045 81 54 80.1045 54 79V75C54 73.8955 53.1045 73 52 73ZM48 79V75H52V79H48ZM62 73H58C56.8955 73 56 73.8955 56 75V79C56 80.1045 56.8955 81 58 81H62C63.1045 81 64 80.1045 64 79V75C64 73.8955 63.1045 73 62 73ZM58 79V75H62V79H58ZM84 64V63C84 61.8955 83.1045 61 82 61H78C76.8955 61 76 61.8955 76 63V64H78V63H82V64H84Z" fill="#D13D73"></path></svg>