<svg xmlns="http://www.w3.org/2000/svg" width="140" height="140" viewBox="0 0 140 140" fill="none"><circle cx="70" cy="70" r="69.5" fill="white" stroke="#E0E0E0"></circle><circle cx="70" cy="70" r="59.5" fill="white" stroke="#828282"></circle><path d="M100.79 73.5539L96.2569 69.0265V57.3239C96.2569 55.3024 94.6108 53.6355 92.588 53.6355H87.6961C85.8311 53.6355 84.3049 55.0492 84.0737 56.8494L79.1342 51.9233C82.3481 47.1562 81.673 36.5299 81.5776 35.2507C81.5336 34.6465 81.0518 34.1671 80.4476 34.1231C79.0742 34.0216 66.8959 33.2499 62.7868 37.3358C58.7999 41.33 58.5309 47.654 61.9747 51.9686L40.3588 73.5527C39.8806 74.0309 39.8806 74.805 40.3576 75.2832C40.5961 75.5217 40.9104 75.6415 41.2235 75.6415C41.5365 75.6415 41.8496 75.5217 42.0881 75.2844L44.8924 72.485V101.28C44.8924 103.301 46.5372 105 48.5588 105H92.5905C94.6121 105 96.257 103.301 96.257 101.28V72.485L99.0612 75.2856C99.2997 75.5229 99.6128 75.6427 99.9259 75.6427C100.087 75.6429 100.246 75.6113 100.395 75.5498C100.543 75.4883 100.678 75.3981 100.792 75.2844C101.269 74.805 101.269 74.0321 100.791 73.5539H100.79ZM64.5148 39.0688C66.6526 36.9408 72.6647 36.454 76.9304 36.454C77.7693 36.454 78.5386 36.4736 79.2002 36.5017C79.3775 40.5167 79.1819 48.5981 76.6332 51.1565C76.632 51.1578 76.6307 51.1578 76.6295 51.159C76.6295 51.159 76.6283 51.1602 76.6283 51.1614C73.5819 54.1883 68.8038 54.4292 65.4541 51.9368L67.4108 49.9666H74.2435C74.4041 49.9667 74.5632 49.9352 74.7117 49.8738C74.8601 49.8123 74.995 49.7223 75.1086 49.6087C75.2222 49.4951 75.3123 49.3602 75.3737 49.2118C75.4351 49.0633 75.4666 48.9042 75.4665 48.7436C75.4666 48.5829 75.4351 48.4238 75.3737 48.2754C75.3123 48.127 75.2222 47.9921 75.1086 47.8785C74.995 47.7649 74.8601 47.6748 74.7117 47.6134C74.5632 47.552 74.4041 47.5205 74.2435 47.5207H69.8616L74.8978 42.509C75.0114 42.3963 75.1016 42.2622 75.1632 42.1144C75.2248 41.9667 75.2565 41.8083 75.2566 41.6482C75.2567 41.4882 75.2252 41.3297 75.1638 41.1819C75.1025 41.0341 75.0125 40.8999 74.899 40.787C74.4208 40.3088 73.6467 40.315 73.1685 40.7895L68.1287 45.8256V41.4486C68.1287 40.7723 67.582 40.2256 66.9057 40.2256C66.7451 40.2254 66.586 40.257 66.4375 40.3184C66.2891 40.3798 66.1542 40.4699 66.0406 40.5835C65.927 40.6971 65.837 40.8319 65.7756 40.9804C65.7142 41.1288 65.6826 41.2879 65.6828 41.4486V48.2667L63.7236 50.2234C61.2238 46.8774 61.4819 42.1054 64.5148 39.0687V39.0688ZM61.0612 56.3407C61.0612 56.3407 61.0624 56.3407 61.0624 56.3395L63.7065 53.7003C65.7072 55.2938 68.1397 56.0949 70.5758 56.0949C73.012 56.0949 75.4445 55.2938 77.4452 53.7003L84.3856 60.6308L84.3868 60.6321L92.0768 68.3111H49.0724L61.0612 56.3407V56.3407ZM74.2435 102.554H66.9057V85.4326H74.2435V102.554ZM93.811 101.28C93.811 101.954 93.2643 102.554 92.5904 102.554H76.6894V84.1864C76.6894 83.5113 76.1428 82.9867 75.4665 82.9867H65.6828C65.0065 82.9867 64.4598 83.5113 64.4598 84.1864V102.554H48.5588C47.885 102.554 47.3383 101.954 47.3383 101.28V71.9775C47.3383 71.3037 47.8849 70.757 48.5588 70.757H92.5905C93.2644 70.757 93.8111 71.3037 93.8111 71.9775V101.28H93.811ZM93.811 66.5842L86.4732 59.2575V57.3239C86.4732 56.6513 87.0211 56.0814 87.6961 56.0814H92.588C93.2631 56.0814 93.811 56.6513 93.811 57.3239V66.5842Z" fill="#D13D73"></path></svg>