<svg xmlns="http://www.w3.org/2000/svg" width="140" height="140" viewBox="0 0 140 140" fill="none"><circle cx="70" cy="70" r="69.5" fill="white" stroke="#E0E0E0"></circle><circle cx="70" cy="70" r="59.5" fill="white" stroke="#828282"></circle><path d="M45.5576 53.2107C45.1372 52.7903 45.1372 52.1086 45.5576 51.6882C45.978 51.2678 46.6591 51.2678 47.0796 51.6882L49.8819 54.4942C50.3017 54.9146 50.3017 55.5957 49.8819 56.0161C49.4615 56.4365 48.7798 56.4365 48.3594 56.0161L45.5576 53.2107ZM44.1846 63.2455L40.3559 62.2197C39.7818 62.0659 39.1914 62.4064 39.0376 62.9806C38.8839 63.5548 39.2244 64.1452 39.7986 64.2989L43.6274 65.3241C44.2016 65.4785 44.7914 65.1374 44.9451 64.5632C45.0994 63.989 44.7583 63.3986 44.1841 63.2449L44.1847 63.2455H44.1846ZM43.6273 73.6761L39.7979 74.7019C39.2237 74.8562 38.8832 75.446 39.0369 76.0202C39.1907 76.5944 39.7811 76.9355 40.3552 76.7811L44.184 75.7553C44.7582 75.6016 45.0994 75.0118 44.945 74.4376C44.7912 73.8628 44.2015 73.5223 43.6273 73.6761V73.6761ZM57.1143 50.3158C57.2681 50.89 57.8584 51.2305 58.4326 51.0768C59.0068 50.923 59.3473 50.3326 59.1936 49.7585L58.1677 45.9297C58.014 45.3549 57.4236 45.0144 56.8494 45.1681C56.2753 45.3225 55.9347 45.9122 56.0885 46.4864L57.1143 50.3158ZM48.36 82.9877L45.5576 85.7901C45.1372 86.2105 45.1372 86.8922 45.5576 87.312C45.978 87.7324 46.6591 87.7324 47.0796 87.312L49.8819 84.5066C50.3017 84.0862 50.3017 83.4045 49.8819 82.9847C49.4615 82.5643 48.7798 82.5643 48.3594 82.9847L48.36 82.9877V82.9877ZM58.4326 87.9234C58.296 87.8866 58.1535 87.877 58.0133 87.8954C57.873 87.9138 57.7378 87.9596 57.6153 88.0304C57.4928 88.1012 57.3855 88.1954 57.2995 88.3077C57.2135 88.4201 57.1506 88.5483 57.1143 88.685L56.0885 92.5138C55.9347 93.088 56.2753 93.6783 56.8494 93.8321C57.4236 93.9864 58.014 93.6453 58.1677 93.0711L59.1936 89.2423C59.3473 88.6682 59.0068 88.0784 58.4326 87.924V87.9234ZM100.444 40.1898V98.8098C100.44 102.227 97.6708 104.996 94.254 105H68.4854C65.068 104.996 62.2993 102.227 62.2956 98.8098V86.8507C53.1293 86.2838 45.9858 78.6838 45.9858 69.5001C45.9858 60.3164 53.1293 52.717 62.2956 52.1494V40.1904C62.2993 36.7742 65.0668 34.0054 68.4824 34H94.2516C97.669 34.003 100.439 36.7724 100.443 40.1904L100.444 40.1897V40.1898ZM62.2932 84.697V54.3032C54.3155 54.8665 48.1312 61.5031 48.1312 69.5007C48.1312 77.4982 54.3155 84.1348 62.2932 84.6976V84.697ZM98.2906 40.1898C98.2882 37.9609 96.4822 36.1543 94.2534 36.1519H68.4848C66.256 36.1543 64.45 37.9609 64.4476 40.1898V98.8098C64.45 101.039 66.256 102.845 68.4848 102.848H94.2534C96.4822 102.845 98.2882 101.039 98.2906 98.8098V40.1898V40.1898ZM90.4937 88.6616C90.4943 92.939 87.5237 96.6429 83.3484 97.5714C79.173 98.4993 74.913 96.4032 73.101 92.5288C71.289 88.6543 72.4109 84.0412 75.8001 81.4316V46.7807C75.8319 43.7285 78.3154 41.2708 81.3682 41.2708C84.4204 41.2708 86.9039 43.7285 86.9363 46.7807V81.4316C88.0435 82.2836 88.9402 83.3787 89.557 84.6323C90.1738 85.8859 90.4943 87.2645 90.4937 88.6616V88.6616ZM88.3411 88.6616C88.3416 87.5179 88.0607 86.3916 87.5231 85.3821C86.9854 84.3726 86.2076 83.5109 85.2583 82.873C85.1121 82.7746 84.9923 82.6417 84.9096 82.486C84.8268 82.3304 84.7836 82.1568 84.7838 81.9805V46.7807C84.7586 44.9123 83.2367 43.4107 81.3682 43.4107C79.4998 43.4107 77.9778 44.9123 77.9526 46.7807V81.9805C77.9526 82.3385 77.7748 82.673 77.4781 82.873C74.7184 84.7276 73.6511 88.2724 74.9292 91.342C76.2073 94.4117 79.4739 96.1522 82.7346 95.5005C85.9952 94.8489 88.3423 91.9865 88.3417 88.6616H88.3411V88.6616ZM86.5255 88.6616C86.5255 91.3702 84.4313 93.6171 81.7298 93.8075C79.0277 93.9973 76.6397 92.0651 76.2607 89.3835C75.8824 86.7012 77.6427 84.1835 80.2913 83.6183V47.12C80.2913 46.5255 80.7736 46.0438 81.3676 46.0438C81.9622 46.0438 82.4439 46.5255 82.4439 47.12V83.6189C84.8216 84.13 86.5213 86.2297 86.5255 88.6616V88.6616ZM84.373 88.6616C84.373 87.0021 83.0277 85.6568 81.3676 85.6568C79.7082 85.6568 78.3628 87.0021 78.3628 88.6616C78.3628 90.321 79.7082 91.6663 81.3676 91.6663C83.0265 91.6651 84.3712 90.3204 84.373 88.6616ZM69.2055 46.4882H72.1298C72.7244 46.4882 73.2061 46.0065 73.2061 45.4119C73.2061 44.818 72.7244 44.3357 72.1298 44.3357H69.2055C68.6109 44.3357 68.1292 44.818 68.1292 45.4119C68.1292 46.0065 68.6109 46.4882 69.2055 46.4882V46.4882ZM69.2055 51.2125H72.1298C72.7244 51.2125 73.2061 50.7302 73.2061 50.1362C73.2061 49.5417 72.7244 49.06 72.1298 49.06H69.2055C68.6109 49.06 68.1292 49.5417 68.1292 50.1362C68.1292 50.7302 68.6109 51.2125 69.2055 51.2125V51.2125ZM69.2055 55.9362H72.1298C72.7244 55.9362 73.2061 55.4545 73.2061 54.8599C73.2061 54.2654 72.7244 53.7837 72.1298 53.7837H69.2055C68.6109 53.7837 68.1292 54.2654 68.1292 54.8599C68.1292 55.4545 68.6109 55.9362 69.2055 55.9362V55.9362ZM69.2055 60.6599H72.1298C72.7244 60.6599 73.2061 60.1782 73.2061 59.5836C73.2061 58.9896 72.7244 58.5074 72.1298 58.5074H69.2055C68.6109 58.5074 68.1292 58.9896 68.1292 59.5836C68.1292 60.1782 68.6109 60.6599 69.2055 60.6599V60.6599ZM69.2055 65.3842H72.1298C72.7244 65.3842 73.2061 64.9019 73.2061 64.3079C73.2061 63.7133 72.7244 63.2317 72.1298 63.2317H69.2055C68.6109 63.2317 68.1292 63.7133 68.1292 64.3079C68.1292 64.9019 68.6109 65.3842 69.2055 65.3842V65.3842ZM69.2055 70.1079H72.1298C72.7244 70.1079 73.2061 69.6262 73.2061 69.0316C73.2061 68.437 72.7244 67.9554 72.1298 67.9554H69.2055C68.6109 67.9554 68.1292 68.437 68.1292 69.0316C68.1292 69.6262 68.6109 70.1079 69.2055 70.1079V70.1079ZM69.2055 74.8316H72.1298C72.7244 74.8316 73.2061 74.3499 73.2061 73.7553C73.2061 73.1613 72.7244 72.6791 72.1298 72.6791H69.2055C68.6109 72.6791 68.1292 73.1613 68.1292 73.7553C68.1292 74.3499 68.6109 74.8316 69.2055 74.8316V74.8316ZM73.2031 78.4796C73.2031 77.885 72.7208 77.4034 72.1268 77.4034H69.2055C68.6109 77.4034 68.1292 77.885 68.1292 78.4796C68.1292 79.0736 68.6109 79.5559 69.2055 79.5559H72.1298C72.7244 79.5559 73.2061 79.0736 73.2061 78.4796H73.2031ZM96.2042 45.4119C96.2042 47.4786 94.5291 49.1537 92.463 49.1531C90.397 49.1531 88.7219 47.478 88.7219 45.4119C88.7225 43.3453 90.3976 41.6709 92.4636 41.6709C94.5297 41.6726 96.2036 43.3465 96.2054 45.4119H96.2042ZM94.0516 45.4119C94.0516 44.5345 93.3405 43.8234 92.463 43.8234C91.5856 43.824 90.8745 44.5351 90.8745 45.4125C90.8751 46.29 91.5862 47.0011 92.4636 47.0005C93.3411 47.0005 94.0522 46.2894 94.0528 45.4119H94.0516Z" fill="#D13D73"></path></svg>