<svg xmlns="http://www.w3.org/2000/svg" width="140" height="140" viewBox="0 0 140 140" fill="none"><circle cx="70" cy="70" r="69.5" fill="white" stroke="#E0E0E0"></circle><circle cx="70" cy="70" r="59.5" fill="white" stroke="#828282"></circle><path d="M68.1032 52.4606C68.2758 52.3578 68.4725 52.3026 68.6734 52.3006C68.8743 52.2985 69.0721 52.3498 69.2467 52.4492C69.602 52.6519 69.8211 53.0299 69.8192 53.4389C69.8187 53.6398 69.7647 53.837 69.6629 54.0103C69.5611 54.1835 69.4151 54.3266 69.2398 54.4248C63.508 57.7517 59.9747 63.8729 59.9614 70.5C59.9614 71.1269 59.4536 71.6347 58.8267 71.6347C58.1999 71.6347 57.692 71.1269 57.692 70.5C57.7072 63.063 61.6717 56.194 68.1032 52.4606V52.4606ZM78.5188 35C79.145 35 79.6535 35.5078 79.6535 36.1347V104.865C79.6535 105.492 79.145 106 78.5188 106C77.8919 106 77.3841 105.492 77.3841 104.865V98.2458C62.4968 97.6436 50.7382 85.3993 50.7382 70.5C50.7382 55.6007 62.4968 43.3564 77.3841 42.7542V36.1347C77.3841 35.5078 77.8919 35 78.5188 35ZM77.3841 45.0179C63.7524 45.6252 53.0139 56.8532 53.0139 70.4981C53.0139 84.143 63.7524 95.371 77.3841 95.9783V45.0179V45.0179ZM97.2433 71.3023L91.2373 77.3082C91.0785 77.4667 90.8763 77.5747 90.6562 77.6184C90.4361 77.6621 90.208 77.6397 90.0007 77.5539C89.7934 77.4681 89.6162 77.3227 89.4915 77.1361C89.3669 76.9496 89.3003 76.7303 89.3003 76.5059V73.7908H86.9315V91.4382C86.9315 92.0651 86.4237 92.5729 85.7968 92.5729C85.1699 92.5729 84.6621 92.0651 84.6621 91.4382V63.7849C84.6621 63.1586 85.1699 62.6502 85.7968 62.6502C86.4237 62.6502 86.9315 63.1586 86.9315 63.7849V67.2086H89.2997V64.4934C89.2997 64.0343 89.5764 63.6209 90.0007 63.4455C90.2081 63.3596 90.4362 63.3372 90.6564 63.3811C90.8765 63.4249 91.0787 63.533 91.2373 63.6918L97.2433 69.6984C97.456 69.9113 97.5755 70.2 97.5755 70.5009C97.5755 70.8019 97.456 71.0906 97.2433 71.3035V71.3023V71.3023ZM91.5697 73.7661L94.8365 70.5L91.5691 67.2327V68.3433C91.5691 68.9702 91.0613 69.478 90.4344 69.478H86.9328V71.522H90.4344C91.0613 71.522 91.5691 72.0298 91.5691 72.6567L91.5697 73.7661ZM91.9408 90.1946V92.4545C91.9408 93.0807 92.4486 93.5892 93.0755 93.5892C93.7017 93.5892 94.2102 93.0807 94.2102 92.4545V90.1952C94.2102 89.5683 93.7017 89.0605 93.0755 89.0605C92.4486 89.0605 91.9408 89.5683 91.9408 90.1952V90.1946ZM91.9408 79.874V86.2636C91.9408 86.8905 92.4486 87.3983 93.0755 87.3983C93.7017 87.3983 94.2102 86.8905 94.2102 86.2636V79.8746C94.2102 79.2477 93.7017 78.7399 93.0755 78.7399C92.4486 78.7399 91.9408 79.2477 91.9408 79.8746V79.874ZM91.9408 48.5449V62.3646C91.9408 62.9915 92.4486 63.4993 93.0755 63.4993C93.7017 63.4993 94.2102 62.9915 94.2102 62.3646V48.5455C94.2102 47.9193 93.7017 47.4108 93.0755 47.4108C92.4486 47.4108 91.9408 47.9193 91.9408 48.5455V48.5449V48.5449ZM98.9004 57.1128V75.6473C98.9004 76.2736 99.4082 76.782 100.035 76.782C100.662 76.782 101.17 76.2736 101.17 75.6473V57.1128C101.17 56.4865 100.662 55.9781 100.035 55.9781C99.4082 55.9781 98.9004 56.4865 98.9004 57.1128V57.1128ZM98.9004 80.2653V83.8872C98.9004 84.5135 99.4082 85.0219 100.035 85.0219C100.662 85.0219 101.17 84.5135 101.17 83.8872V80.2647C101.17 79.6384 100.662 79.13 100.035 79.13C99.4082 79.13 98.9004 79.6384 98.9004 80.2647V80.2653V80.2653ZM84.6621 40.3323V50.8656C84.6621 51.4925 85.1699 52.0003 85.7968 52.0003C86.4237 52.0003 86.9315 51.4925 86.9315 50.8656V40.3316C86.9315 39.7054 86.4237 39.1969 85.7968 39.1969C85.1699 39.1969 84.6621 39.7053 84.6621 40.3316V40.3322V40.3323ZM86.9315 54.9637C86.9315 54.3368 86.4237 53.829 85.7968 53.829C85.1699 53.829 84.6621 54.3368 84.6621 54.9637V59.1137C84.6621 59.74 85.1699 60.2484 85.7968 60.2484C86.4237 60.2484 86.9315 59.74 86.9315 59.1137V54.9637V54.9637ZM84.6621 95.7313V100.668C84.6621 101.295 85.1699 101.803 85.7968 101.803C86.4237 101.803 86.9315 101.295 86.9315 100.668V95.7307C86.9315 95.1038 86.4237 94.596 85.7968 94.596C85.1699 94.596 84.6621 95.1038 84.6621 95.7307V95.7313ZM46.7433 70.5C46.7433 69.8731 46.2348 69.3653 45.6086 69.3653H39.1346C38.5078 69.3653 38 69.8731 38 70.5C38 71.1269 38.5078 71.6347 39.1347 71.6347H45.6086C46.2348 71.6347 46.7433 71.1269 46.7433 70.5V70.5ZM50.5868 87.9378C50.7607 87.8392 50.9054 87.6962 51.0062 87.5235C51.107 87.3508 51.1602 87.1545 51.1605 86.9545C51.161 86.7545 51.1086 86.5578 51.0086 86.3846C50.9086 86.2113 50.7646 86.0676 50.5912 85.9679C50.4177 85.8683 50.221 85.8163 50.0209 85.8171C49.8209 85.818 49.6247 85.8718 49.4521 85.973L43.8432 89.2087C43.305 89.5246 43.1226 90.2148 43.4348 90.755C43.7463 91.2957 44.4358 91.4825 44.9779 91.1741L50.5868 87.9378V87.9378ZM59.8095 105.175L63.0464 99.5692C63.3548 99.0271 63.1673 98.3376 62.6272 98.0254C62.0871 97.7139 61.3969 97.8962 61.0809 98.4345L57.8446 104.04C57.7432 104.213 57.6893 104.409 57.6885 104.609C57.6876 104.809 57.7397 105.006 57.8396 105.179C57.9391 105.353 58.0827 105.497 58.2558 105.597C58.429 105.697 58.6255 105.75 58.8255 105.749C59.0256 105.749 59.2219 105.695 59.3947 105.594C59.5675 105.493 59.7106 105.349 59.8095 105.175ZM63.199 41.9976C63.199 41.7987 63.1464 41.6037 63.0464 41.4315L59.8095 35.8257C59.4941 35.2875 58.8033 35.1045 58.2632 35.4167C57.723 35.7282 57.5363 36.4177 57.8446 36.9604L61.0809 42.5662C61.2059 42.7827 61.3988 42.9519 61.6297 43.0476C61.8606 43.1433 62.1166 43.1601 62.3581 43.0955C62.5996 43.0306 62.8129 42.8878 62.9649 42.6892C63.117 42.4907 63.1992 42.2476 63.199 41.9975V41.9976ZM51.0003 54.6142C51.0749 54.4852 51.1234 54.3427 51.143 54.1949C51.1626 54.0472 51.1528 53.897 51.1143 53.753C51.0758 53.609 51.0092 53.4739 50.9183 53.3557C50.8275 53.2375 50.7142 53.1384 50.5849 53.0641L44.9785 49.8271C44.4365 49.5188 43.7469 49.7062 43.4355 50.2463C43.1232 50.7864 43.3062 51.4766 43.8438 51.7926L49.4502 55.0289C49.9929 55.343 50.6869 55.1568 51.0003 54.6142Z" fill="#D13D73"></path></svg>