<svg xmlns="http://www.w3.org/2000/svg" width="140" height="140" viewBox="0 0 140 140" fill="none"><circle cx="70" cy="70" r="69.5" fill="white" stroke="#E0E0E0"></circle><circle cx="70" cy="70" r="59.5" fill="white" stroke="#828282"></circle><path fill-rule="evenodd" clip-rule="evenodd" d="M97.5545 79.1185V62.0379L90.1422 53.3365H86.2749V68.4834C86.2749 69.128 85.9526 69.4502 85.3081 69.4502H56.6256V95.5545H63.0711L66.9384 89.4313C67.2607 89.109 67.5829 88.7867 67.9052 88.7867H80.1517V90.7204H68.2275L64.3602 96.8436C64.0379 97.1659 63.7156 97.4882 63.3934 97.4882H55.3365C54.6919 97.4882 54.3697 97.1659 54.3697 96.5213V68.4834C54.3697 67.8389 54.6919 67.5166 55.3365 67.5166H84.019V52.3697C84.019 51.7251 84.3412 51.4028 84.9858 51.4028H90.4645C90.7867 51.4028 91.109 51.4028 91.109 51.7251L99.1659 61.0711C99.1659 61.3934 99.4882 61.3934 99.4882 61.7156V79.1185H97.5545ZM103.033 82.6635C97.8768 82.6635 93.6872 78.1517 93.6872 78.1517C93.3649 77.5071 92.3981 77.5071 92.0758 78.1517C92.0758 78.1517 87.8863 82.6635 82.7299 82.6635C82.0853 82.6635 81.763 83.3081 81.763 83.6303C81.763 93.2986 83.6967 101.678 92.3981 105.867H93.3649C102.066 101.678 104 93.2986 104 83.6303C104 82.9858 103.356 82.6635 103.033 82.6635ZM93.0427 103.934C85.9526 100.389 84.019 92.9763 84.019 84.9194C88.2085 84.5972 91.4313 82.019 93.0427 80.7299C94.654 82.019 97.8768 84.5972 102.066 84.9194C102.066 92.9763 100.133 100.389 93.0427 103.934V103.934ZM91.7536 93.2986L96.2654 88.7867C96.5877 88.4645 97.5545 88.4645 97.8768 88.7867C98.1991 89.109 98.1991 90.0758 97.8768 90.3981L92.7204 95.5545C92.3981 95.8768 91.4313 95.8768 91.109 95.5545L88.2085 92.654C87.8863 92.3318 87.8863 91.3649 88.2085 91.0427C88.5308 90.7204 89.4976 90.7204 89.8199 91.0427L92.0758 93.2986H91.7536ZM56.9479 48.1801C56.3033 48.1801 55.981 47.8578 55.981 47.2133C55.981 46.5687 56.3033 46.2464 56.9479 46.2464C57.5924 46.2464 57.9147 46.5687 57.9147 47.2133C57.9147 47.8578 57.5924 48.1801 56.9479 48.1801ZM56.9479 53.6588C56.3033 53.6588 55.981 53.3365 55.981 52.6919V51.4028C55.981 50.7583 56.3033 50.436 56.9479 50.436C57.5924 50.436 57.9147 50.7583 57.9147 51.4028V52.6919C57.9147 53.3365 57.5924 53.6588 56.9479 53.6588ZM55.981 56.8815V56.5592C55.981 55.9147 56.3033 55.5924 56.9479 55.5924C57.5924 55.5924 57.9147 55.9147 57.9147 56.5592V56.8815H64.0379V47.2133C64.0379 46.5687 64.3602 46.2464 65.0047 46.2464C65.6493 46.2464 65.9716 46.5687 65.9716 47.2133V57.8483C65.9716 58.4929 65.6493 58.8152 65.0047 58.8152H48.891C48.2464 58.8152 47.9242 58.4929 47.9242 57.8483V47.2133C47.9242 46.5687 48.2464 46.2464 48.891 46.2464C49.5355 46.2464 49.8578 46.5687 49.8578 47.2133V56.8815H55.981V56.8815ZM37.9336 42.0569V73.962C37.9336 74.9288 38.5782 75.5734 39.545 75.5734H46.3128C47.2796 75.5734 47.9242 74.9288 47.9242 73.962V63.327C47.9242 62.6825 48.2464 62.3602 48.891 62.3602H75.9621V42.3792L69.8389 36.2559H65.9716V42.0569C65.9716 42.7014 65.6493 43.0237 65.0047 43.0237H48.891C48.2464 43.0237 47.9242 42.7014 47.9242 42.0569V36.2559H44.0569L37.9336 42.3791V42.057V42.0569ZM46.3128 77.5071H39.545C37.6114 77.5071 36 75.8957 36 73.9621V41.7346C36 41.4123 36 41.09 36.3223 41.09L43.09 34.3224C43.4123 34 43.4123 34 43.7346 34H49.2133C49.8578 34 50.1801 34.3223 50.1801 34.9668V40.7678H64.3602V34.9668C64.3602 34.3223 64.6825 34 65.327 34H70.8057C71.128 34 71.4502 34 71.4502 34.3223L78.218 41.09C78.5403 41.4123 78.5403 41.4123 78.5403 41.7346V63.327C78.5403 63.9716 78.218 64.2938 77.5735 64.2938H50.5024V73.9621C50.5024 75.8957 48.891 77.5071 46.9573 77.5071H46.3128V77.5071Z" fill="#D13D73"></path></svg>