<svg width="23" height="34" viewBox="0 0 23 34" fill="none" xmlns="http://www.w3.org/2000/svg">
<path d="M22.1016 0H0.898399C0.402199 0 0 0.431409 0 0.963612V32.2852C0 32.8174 0.402199 33.2488 0.898399 33.2488H22.1016C22.5978 33.2488 23 32.8174 23 32.2852V0.963612C23 0.431409 22.5978 0 22.1016 0ZM10.6016 31.3216H1.7969V11.1444H10.6016V31.3216V31.3216ZM21.2031 31.3216H12.3984V11.1444H21.2031V31.3216V31.3216ZM21.2031 9.21716H1.7969V1.92722H21.2031V9.21716ZM3.8569 24.9309C3.506 24.5546 3.506 23.9444 3.8569 23.5681L7.271 19.9064C7.6218 19.5301 8.1907 19.5301 8.5415 19.9064C8.8924 20.2827 8.8924 20.8929 8.5415 21.2692L5.1275 24.9309C4.7766 25.3072 4.2077 25.3072 3.8569 24.9309V24.9309ZM3.8569 19.342C3.506 18.9656 3.506 18.3555 3.8569 17.9792L7.271 14.3175C7.6218 13.9411 8.1907 13.9411 8.5415 14.3175C8.8924 14.6938 8.8924 15.304 8.5415 15.6802L5.1275 19.342C4.7766 19.7183 4.2077 19.7182 3.8569 19.342V19.342ZM14.4584 24.9309C14.1075 24.5546 14.1075 23.9444 14.4584 23.5681L17.8725 19.9064C18.2234 19.5301 18.7923 19.5301 19.1431 19.9064C19.4939 20.2827 19.494 20.8929 19.1431 21.2692L15.729 24.9309C15.3782 25.3072 14.8092 25.3072 14.4584 24.9309ZM14.4584 19.342C14.1075 18.9656 14.1075 18.3555 14.4584 17.9792L17.8725 14.3175C18.2234 13.9411 18.7923 13.9411 19.1431 14.3175C19.4939 14.6938 19.494 15.304 19.1431 15.6802L15.729 19.342C15.3782 19.7183 14.8092 19.7182 14.4584 19.342V19.342Z" fill="#D13D73"/>
</svg>
