<svg width="140" height="140" viewBox="0 0 140 140" fill="none" xmlns="http://www.w3.org/2000/svg">
<circle cx="70" cy="70" r="69.5" fill="white" stroke="#E0E0E0"/>
<circle cx="70" cy="70" r="59.5" fill="white" stroke="#828282"/>
<path d="M70.0521 39.7845C57.7787 39.7845 47.7935 49.7697 47.7935 62.0431V99.4874C47.7935 100.111 48.2096 100.527 48.8336 100.527H91.2705C91.8946 100.527 92.3106 100.111 92.3106 99.4874V62.0431C92.3106 49.7697 82.3255 39.7845 70.0521 39.7845ZM55.3864 48.2095L67.5558 61.003H49.8738C50.1858 56.0104 52.266 51.5379 55.3864 48.2095ZM69.0119 98.4473H49.8738V81.8053H69.0119V98.4473V98.4473ZM69.0119 79.7251H49.8738V63.0832H69.0119V79.7251V79.7251ZM69.0119 59.4428L56.9466 46.7533C60.2749 43.945 64.4354 42.1768 69.0119 41.8648V59.4428ZM90.1264 61.003H72.5484L84.7177 48.2095C87.9421 51.5379 89.9183 56.0104 90.1264 61.003ZM71.0922 41.8648C75.6687 42.0728 79.9332 43.841 83.1576 46.7533L71.0922 59.4428V41.8648ZM90.2304 98.4473H71.0922V81.8053H90.2304V98.4473ZM90.2304 79.7251H71.0922V63.0832H90.2304V79.7251Z" fill="#D75584"/>
<path d="M88.9822 42.5929C84.0936 37.7043 77.3328 35 70.052 35C55.3863 35 43.945 45.6092 43.2169 59.7548V103.96C43.2169 104.584 43.633 105 44.257 105H95.7429C96.367 105 96.783 104.584 96.783 103.96V59.7548C96.471 53.4101 93.6627 47.1694 88.9822 42.5929ZM94.8068 103.024H45.4012V59.8588C45.9212 46.8574 56.6345 37.0802 70.052 37.0802C81.5973 37.0802 94.0787 45.6092 94.8068 59.8588V103.024Z" fill="#D75584"/>
</svg>
