<svg width="140" height="140" viewBox="0 0 140 140" fill="none" xmlns="http://www.w3.org/2000/svg">
<circle cx="70" cy="70" r="69.5" fill="white" stroke="#E0E0E0"/>
<circle cx="70" cy="70" r="59.5" fill="white" stroke="#828282"/>
<path d="M93.4675 99.6707H50.8005C48.2552 99.6681 45.815 98.6558 44.0152 96.856C42.2154 95.0563 41.2031 92.616 41.2005 90.0707V81.6777C38.9001 77.3134 37.8051 72.4145 38.0285 67.486C38.2518 62.5575 39.7854 57.7777 42.4713 53.6393C45.1571 49.5009 48.8979 46.1536 53.3082 43.9425C57.7184 41.7313 62.6386 40.7362 67.5615 41.0597C68.9935 41.1477 70.4145 41.3567 71.8115 41.6827C72.0869 41.7472 72.3255 41.9184 72.4747 42.1587C72.6238 42.3991 72.6714 42.6888 72.607 42.9642C72.5426 43.2397 72.3713 43.4782 72.131 43.6274C71.8907 43.7766 71.6009 43.8242 71.3255 43.7597C70.0455 43.4607 68.7415 43.2697 67.4285 43.1887C62.8499 42.8867 58.2742 43.8204 54.1801 45.8922C50.0859 47.964 46.6236 51.0979 44.1553 54.966C41.687 58.8341 40.3034 63.2944 40.1491 67.8804C39.9949 72.4663 41.0757 77.0095 43.2785 81.0347C43.4305 81.3137 43.4505 81.6457 43.3335 81.9417V90.0717C43.3359 92.0513 44.1234 93.9491 45.5232 95.3487C46.9231 96.7484 48.821 97.5356 50.8005 97.5377H93.4675V95.0207C93.3861 94.9831 93.309 94.9368 93.2375 94.8827L87.0085 89.9007C86.1449 89.2154 85.5823 88.2205 85.44 87.1273C85.2978 86.034 85.587 84.9283 86.2465 84.0447C90.0428 78.9595 91.8154 72.6457 91.2205 66.3277C91.1905 65.9847 91.1485 65.6457 91.1075 65.3177C91.0787 65.0402 91.1598 64.7623 91.3334 64.5438C91.5071 64.3254 91.7594 64.1836 92.0363 64.1489C92.3132 64.1143 92.5927 64.1895 92.8148 64.3584C93.0369 64.5274 93.184 64.7766 93.2245 65.0527C93.2695 65.4067 93.3135 65.7707 93.3445 66.1357C93.9864 72.9779 92.0657 79.8148 87.9545 85.3217C87.6273 85.7631 87.4852 86.3148 87.5584 86.8593C87.6316 87.4039 87.9144 87.8984 88.3465 88.2377L94.4895 93.1497C94.826 93.3324 95.107 93.6025 95.3025 93.9317C95.4981 94.2609 95.6011 94.6368 95.6005 95.0197V97.5377C95.5997 98.1032 95.3747 98.6453 94.9749 99.0451C94.575 99.445 94.033 99.6699 93.4675 99.6707V99.6707Z" fill="#D13D73"/>
<path d="M92.1665 66.2527C91.8665 66.2527 91.5815 66.1277 91.3795 65.9067L70.7815 43.4427C70.5928 43.2337 70.4944 42.9586 70.5077 42.6773C70.521 42.3961 70.6449 42.1315 70.8525 41.9412C71.06 41.7509 71.3344 41.6504 71.6158 41.6615C71.8971 41.6727 72.1627 41.7946 72.3545 42.0007L92.9525 64.4647C93.0924 64.6173 93.1849 64.8074 93.2187 65.0116C93.2525 65.2159 93.2261 65.4256 93.1428 65.6151C93.0594 65.8047 92.9228 65.9659 92.7494 66.0791C92.5761 66.1923 92.3736 66.2526 92.1665 66.2527V66.2527ZM100.934 99.6707C100.651 99.6705 100.38 99.5581 100.18 99.3582C99.9802 99.1584 99.8678 98.8874 99.8675 98.6047V95.4047H94.5335C94.2505 95.4047 93.9791 95.2923 93.779 95.0922C93.5789 94.8921 93.4665 94.6207 93.4665 94.3377C93.4665 94.0547 93.5789 93.7833 93.779 93.5832C93.9791 93.3831 94.2505 93.2707 94.5335 93.2707H100.934C101.074 93.2707 101.212 93.2983 101.342 93.352C101.471 93.4056 101.589 93.4842 101.688 93.5832C101.787 93.6823 101.866 93.8 101.919 93.9294C101.973 94.0589 102.001 94.1976 102.001 94.3377V98.6047C102.001 98.7448 101.973 98.8835 101.919 99.0129C101.866 99.1423 101.787 99.2599 101.688 99.3589C101.589 99.4579 101.471 99.5364 101.342 99.5899C101.212 99.6434 101.074 99.6709 100.934 99.6707V99.6707ZM65.7335 86.8707C55.7205 86.8707 47.6005 78.7527 47.6005 68.7377C47.6005 58.7227 55.7195 50.6047 65.7335 50.6047C75.7485 50.6047 83.8675 58.7227 83.8675 68.7377C83.8565 78.7477 75.7445 86.8597 65.7335 86.8707V86.8707ZM65.7335 52.7377C56.8975 52.7377 49.7335 59.9007 49.7335 68.7377C49.7335 77.5747 56.8975 84.7377 65.7335 84.7377C74.5705 84.7377 81.7335 77.5747 81.7335 68.7377C81.7235 59.9057 74.5665 52.7477 65.7335 52.7377V52.7377Z" fill="#D13D73"/>
<path d="M82.8005 69.8048H48.6675C48.3845 69.8048 48.1131 69.6923 47.913 69.4922C47.7129 69.2921 47.6005 69.0207 47.6005 68.7378C47.6005 68.4548 47.7129 68.1834 47.913 67.9833C48.1131 67.7832 48.3845 67.6708 48.6675 67.6708H82.8005C83.0835 67.6708 83.3549 67.7832 83.555 67.9833C83.7551 68.1834 83.8675 68.4548 83.8675 68.7378C83.8675 69.0207 83.7551 69.2921 83.555 69.4922C83.3549 69.6923 83.0835 69.8048 82.8005 69.8048V69.8048ZM73.2005 59.1378H58.2675C57.9903 59.1293 57.7273 59.0132 57.5342 58.8141C57.3412 58.615 57.2332 58.3486 57.2332 58.0713C57.2332 57.7939 57.3412 57.5275 57.5342 57.3284C57.7273 57.1293 57.9903 57.0132 58.2675 57.0048H73.2005C73.4777 57.0132 73.7407 57.1293 73.9338 57.3284C74.1269 57.5275 74.2349 57.7939 74.2349 58.0713C74.2349 58.3486 74.1269 58.615 73.9338 58.8141C73.7407 59.0132 73.4777 59.1293 73.2005 59.1378V59.1378Z" fill="#D13D73"/>
<path d="M75.3335 65.5378H56.1335C55.8507 65.5375 55.5796 65.425 55.3797 65.2249C55.1798 65.0248 55.0675 64.7536 55.0675 64.4708V60.2048C55.0631 60.062 55.0875 59.9197 55.1391 59.7865C55.1908 59.6533 55.2686 59.5318 55.3681 59.4293C55.4675 59.3267 55.5866 59.2452 55.7182 59.1895C55.8497 59.1338 55.9911 59.1051 56.134 59.1051C56.2769 59.1051 56.4183 59.1338 56.5499 59.1895C56.6814 59.2452 56.8005 59.3267 56.9 59.4293C56.9994 59.5318 57.0773 59.6533 57.1289 59.7865C57.1805 59.9197 57.2049 60.062 57.2005 60.2048V63.4048H74.2675V60.2048C74.2631 60.062 74.2875 59.9197 74.3391 59.7865C74.3907 59.6533 74.4686 59.5318 74.5681 59.4293C74.6675 59.3267 74.7866 59.2452 74.9182 59.1895C75.0497 59.1338 75.1911 59.1051 75.334 59.1051C75.4769 59.1051 75.6183 59.1338 75.7499 59.1895C75.8814 59.2452 76.0005 59.3267 76.1 59.4293C76.1994 59.5318 76.2773 59.6533 76.3289 59.7865C76.3805 59.9197 76.4049 60.062 76.4005 60.2048V64.4708C76.4005 64.7537 76.2881 65.0251 76.088 65.2252C75.8879 65.4253 75.6165 65.5378 75.3335 65.5378V65.5378Z" fill="#D13D73"/>
<path d="M58.2675 61.2707H56.1335C55.8563 61.2622 55.5933 61.1461 55.4002 60.9471C55.2072 60.748 55.0992 60.4815 55.0992 60.2042C55.0992 59.9269 55.2072 59.6605 55.4002 59.4614C55.5933 59.2623 55.8563 59.1462 56.1335 59.1377H57.2005V58.0707C57.209 57.7935 57.3251 57.5305 57.5242 57.3374C57.7233 57.1444 57.9897 57.0364 58.267 57.0364C58.5443 57.0364 58.8108 57.1444 59.0099 57.3374C59.2089 57.5305 59.325 57.7935 59.3335 58.0707V60.2047C59.3335 60.4874 59.2212 60.7586 59.0213 60.9585C58.8214 61.1584 58.5502 61.2707 58.2675 61.2707V61.2707ZM75.3335 61.2707H73.2005C73.0604 61.2708 72.9217 61.2434 72.7923 61.1899C72.6628 61.1363 72.5452 61.0578 72.4461 60.9588C72.347 60.8598 72.2684 60.7423 72.2148 60.6129C72.1611 60.4835 72.1335 60.3448 72.1335 60.2047V58.0707C72.1335 57.7877 72.2459 57.5163 72.446 57.3162C72.6461 57.1161 72.9175 57.0037 73.2005 57.0037C73.4835 57.0037 73.7549 57.1161 73.955 57.3162C74.1551 57.5163 74.2675 57.7877 74.2675 58.0707V59.1377H75.3335C75.4763 59.1333 75.6185 59.1577 75.7518 59.2093C75.885 59.2609 76.0065 59.3388 76.109 59.4383C76.2116 59.5377 76.2931 59.6568 76.3488 59.7884C76.4045 59.9199 76.4332 60.0613 76.4332 60.2042C76.4332 60.3471 76.4045 60.4885 76.3488 60.6201C76.2931 60.7516 76.2116 60.8707 76.109 60.9702C76.0065 61.0696 75.885 61.1475 75.7518 61.1991C75.6185 61.2507 75.4763 61.2751 75.3335 61.2707V61.2707ZM91.3335 65.3457C91.0507 65.3454 90.7796 65.2329 90.5797 65.0328C90.3798 64.8328 90.2675 64.5615 90.2675 64.2787V60.3887C90.2668 59.1408 89.8291 57.9326 89.0305 56.9737L81.1265 47.4877C80.8267 47.1272 80.451 46.8373 80.0264 46.6385C79.6017 46.4398 79.1384 46.337 78.6695 46.3377H73.9045C73.6273 46.3292 73.3643 46.2131 73.1712 46.0141C72.9782 45.815 72.8702 45.5485 72.8702 45.2712C72.8702 44.9939 72.9782 44.7275 73.1712 44.5284C73.3643 44.3293 73.6273 44.2132 73.9045 44.2047H78.6695C79.4515 44.2038 80.2241 44.3752 80.9322 44.7069C81.6404 45.0386 82.2667 45.5224 82.7665 46.1237L90.6705 55.6077C91.7871 56.9504 92.3991 58.6414 92.4005 60.3877V64.2787C92.4005 64.5617 92.2881 64.8331 92.088 65.0332C91.8879 65.2333 91.6165 65.3457 91.3335 65.3457V65.3457ZM84.4005 95.9377C84.1175 95.9377 83.8465 95.8257 83.6465 95.6247L80.9795 92.9587C80.7794 92.7587 80.6669 92.4875 80.6668 92.2046C80.6667 91.9217 80.779 91.6503 80.979 91.4502C81.179 91.2501 81.4503 91.1376 81.7332 91.1375C82.0161 91.1374 82.2874 91.2497 82.4875 91.4497L85.1545 94.1167C85.3032 94.266 85.4044 94.4559 85.4453 94.6626C85.4862 94.8693 85.4649 95.0835 85.3843 95.2781C85.3037 95.4727 85.1672 95.6392 84.9921 95.7564C84.8171 95.8736 84.6112 95.9363 84.4005 95.9367V95.9377ZM79.0675 95.9377C78.7845 95.9377 78.5125 95.8257 78.3125 95.6247L75.6465 92.9587C75.4464 92.7587 75.3339 92.4875 75.3338 92.2046C75.3337 91.9217 75.446 91.6503 75.646 91.4502C75.846 91.2501 76.1173 91.1376 76.4002 91.1375C76.6831 91.1374 76.9544 91.2497 77.1545 91.4497L79.8215 94.1167C79.9702 94.266 80.0714 94.4559 80.1123 94.6626C80.1532 94.8693 80.1319 95.0835 80.0513 95.2781C79.9707 95.4727 79.8342 95.6392 79.6591 95.7564C79.4841 95.8736 79.2782 95.9363 79.0675 95.9367V95.9377ZM73.7335 95.9377C73.4505 95.9377 73.1795 95.8257 72.9795 95.6247L70.3135 92.9587C70.1134 92.7587 70.0009 92.4875 70.0008 92.2046C70.0007 91.9217 70.113 91.6503 70.313 91.4502C70.513 91.2501 70.7843 91.1376 71.0672 91.1375C71.3501 91.1374 71.6214 91.2497 71.8215 91.4497L74.4875 94.1167C74.6362 94.266 74.7374 94.4559 74.7783 94.6626C74.8192 94.8693 74.7979 95.0835 74.7173 95.2781C74.6367 95.4727 74.5002 95.6392 74.3251 95.7564C74.1501 95.8736 73.9442 95.9363 73.7335 95.9367V95.9377ZM68.4005 95.9377C68.1175 95.9377 67.8465 95.8257 67.6465 95.6247L64.9795 92.9587C64.8804 92.8596 64.8018 92.742 64.7482 92.6125C64.6946 92.4831 64.667 92.3443 64.667 92.2042C64.667 92.0641 64.6946 91.9253 64.7482 91.7959C64.8018 91.6664 64.8804 91.5488 64.9795 91.4497C65.0786 91.3506 65.1962 91.272 65.3257 91.2184C65.4551 91.1648 65.5939 91.1372 65.734 91.1372C65.8741 91.1372 66.0129 91.1648 66.1423 91.2184C66.2718 91.272 66.3894 91.3506 66.4885 91.4497L69.1545 94.1167C69.3032 94.266 69.4044 94.4559 69.4453 94.6626C69.4862 94.8693 69.4649 95.0835 69.3843 95.2781C69.3037 95.4727 69.1672 95.6392 68.9921 95.7564C68.8171 95.8736 68.6112 95.9363 68.4005 95.9367V95.9377ZM63.0675 95.9377C62.7845 95.9377 62.5125 95.8257 62.3125 95.6247L59.6465 92.9587C59.4464 92.7587 59.3339 92.4875 59.3338 92.2046C59.3338 91.9217 59.446 91.6503 59.646 91.4502C59.846 91.2501 60.1173 91.1376 60.4002 91.1375C60.6831 91.1374 60.9544 91.2497 61.1545 91.4497L63.8215 94.1167C63.9702 94.266 64.0714 94.4559 64.1123 94.6626C64.1532 94.8693 64.1319 95.0835 64.0513 95.2781C63.9707 95.4727 63.8342 95.6392 63.6591 95.7564C63.4841 95.8736 63.2782 95.9363 63.0675 95.9367V95.9377ZM57.7335 95.9377C57.4505 95.9377 57.1795 95.8257 56.9795 95.6247L54.3135 92.9587C54.1215 92.7571 54.016 92.4884 54.0193 92.2101C54.0227 91.9317 54.1347 91.6656 54.3315 91.4687C54.5283 91.2718 54.7943 91.1596 55.0727 91.156C55.351 91.1525 55.6198 91.2579 55.8215 91.4497L58.4875 94.1167C58.6362 94.266 58.7374 94.4559 58.7783 94.6626C58.8192 94.8693 58.7979 95.0835 58.7173 95.2781C58.6367 95.4727 58.5002 95.6392 58.3251 95.7564C58.1501 95.8736 57.9442 95.9363 57.7335 95.9367V95.9377ZM52.4005 95.9377C52.1175 95.9377 51.8465 95.8257 51.6465 95.6247L48.9795 92.9587C48.8804 92.8596 48.8018 92.742 48.7482 92.6125C48.6946 92.4831 48.667 92.3443 48.667 92.2042C48.667 92.0641 48.6946 91.9253 48.7482 91.7959C48.8018 91.6664 48.8804 91.5488 48.9795 91.4497C49.0786 91.3506 49.1962 91.272 49.3257 91.2184C49.4551 91.1648 49.5939 91.1372 49.734 91.1372C49.8741 91.1372 50.0129 91.1648 50.1423 91.2184C50.2718 91.272 50.3894 91.3506 50.4885 91.4497L53.1545 94.1167C53.3032 94.266 53.4044 94.4559 53.4453 94.6626C53.4862 94.8693 53.4649 95.0835 53.3843 95.2781C53.3037 95.4727 53.1672 95.6392 52.9921 95.7564C52.8171 95.8736 52.6112 95.9363 52.4005 95.9367V95.9377Z" fill="#D13D73"/>
</svg>
